<svg viewBox="0 0 20 20" fill="none" xmlns="http://www.w3.org/2000/svg">
<path fill-rule="evenodd" clip-rule="evenodd" d="M15.8337 10.8333C15.8337 14.055 13.222 16.6667 10.0003 16.6667C6.77866 16.6667 4.16699 14.055 4.16699 10.8333C4.16699 7.61167 6.77866 5 10.0003 5C13.222 5 15.8337 7.61167 15.8337 10.8333ZM10.5 8.33337C10.5 8.05723 10.2761 7.83337 10 7.83337C9.72386 7.83337 9.5 8.05723 9.5 8.33337V10.8334C9.5 11.1095 9.72386 11.3334 10 11.3334H11.6667C11.9428 11.3334 12.1667 11.1095 12.1667 10.8334C12.1667 10.5572 11.9428 10.3334 11.6667 10.3334H10.5V8.33337Z" fill="white"/>
<path d="M5.83366 3.33337L3.54199 5.00004" stroke="white" stroke-linecap="round" stroke-linejoin="round"/>
<path d="M14.167 3.33337L16.4587 5.00004" stroke="white" stroke-linecap="round" stroke-linejoin="round"/>
</svg>
