<svg viewBox="0 0 24 24" fill="white" xmlns="http://www.w3.org/2000/svg">
<path fill-rule="evenodd" clip-rule="evenodd" d="M12 21C16.9706 21 21 16.9706 21 12C21 7.02944 16.9706 3 12 3C7.02944 3 3 7.02944 3 12C3 16.9706 7.02944 21 12 21ZM11.5 9.20711V16C11.5 16.2761 11.7239 16.5 12 16.5C12.2761 16.5 12.5 16.2761 12.5 16V9.20711L15.6464 12.3536C15.8417 12.5488 16.1583 12.5488 16.3536 12.3536C16.5488 12.1583 16.5488 11.8417 16.3536 11.6464L12.3536 7.64645C12.3056 7.59851 12.2504 7.56234 12.1914 7.53794C12.1333 7.51385 12.0697 7.5004 12.003 7.50001C12.002 7.5 12.001 7.5 12 7.5C11.999 7.5 11.998 7.5 11.997 7.50001C11.9303 7.5004 11.8667 7.51385 11.8086 7.53794C11.7496 7.56234 11.6944 7.59851 11.6464 7.64645L7.64645 11.6464C7.45118 11.8417 7.45118 12.1583 7.64645 12.3536C7.84171 12.5488 8.15829 12.5488 8.35355 12.3536L11.5 9.20711Z" />
</svg>
