<svg width="30" height="35" viewBox="0 0 30 35" fill="none" xmlns="http://www.w3.org/2000/svg">
    <path d="M10.6043 0.0105604C10.409 0.0396055 10.2225 0.111279 10.058 0.220497C10.058 0.220497 8.3556 1.29171 6.52538 2.4504C4.69516 3.60774 2.65905 4.88351 2.19342 5.1419C2.1647 5.15436 2.13642 5.16783 2.10864 5.18227C0.418378 6.22522 0.0671379 7.92894 0.00657921 8.88442C0.00254197 8.92883 0.00657921 8.96517 0.00657921 9.01227C-0.00822401 9.37024 0.00657921 9.60036 0.00657921 9.60036V27.1799C0.00657921 29.7341 2.98472 30.9628 5.81079 30.9628C6.75281 30.9628 7.69484 30.8107 8.50228 30.5415C9.04058 30.2724 9.42681 29.7341 9.42681 29.1958V15.0654C9.42681 11.9702 10.0997 10.5168 12.1183 9.30564C12.6566 9.03649 18.3007 5.14055 18.3007 5.14055C18.5698 4.8714 18.847 4.32503 18.847 3.9213V3.7948C18.847 3.2565 18.5779 2.84471 18.1742 2.57556C17.7704 2.30641 17.2321 2.30641 16.8284 2.57556C16.6938 2.71013 8.48479 8.23712 6.73532 9.17914C4.98585 10.2557 3.35345 10.5155 2.94973 9.97717C2.82457 9.85201 2.71557 9.46848 2.69807 9.09436V9.00957C2.69942 8.64353 2.79362 7.95451 3.53917 7.49561C4.29548 7.07439 6.1728 5.87533 7.99763 4.72068C8.76874 4.23217 8.86429 4.17969 9.46853 3.7948C9.54807 4.12356 9.7485 4.41031 10.0299 4.59797C10.3113 4.78563 10.6531 4.86044 10.9872 4.8075C11.3212 4.75456 11.6231 4.57777 11.8327 4.3123C12.0423 4.04684 12.1443 3.71217 12.1183 3.37493V1.35631C12.1198 1.16449 12.0803 0.97457 12.0024 0.799275C11.9245 0.62398 11.81 0.467363 11.6667 0.339923C11.5233 0.212484 11.3543 0.117166 11.1711 0.0603614C10.9879 0.00355648 10.7947 -0.0134233 10.6043 0.0105604ZM21.3703 4.72068C21.1563 4.75627 20.9541 4.84307 20.7809 4.97368C20.7809 4.97368 14.0064 9.53173 12.8329 10.3136C12.8187 10.3276 12.8048 10.342 12.7912 10.3567C11.8169 11.0874 11.2395 11.9568 10.9825 12.7521C10.8385 13.2008 10.7676 13.6697 10.7726 14.1409V14.5621C10.7706 14.6038 10.7706 14.6456 10.7726 14.6873V30.9628C10.7726 33.5197 13.7171 35 16.4086 35C17.6197 35 18.7125 34.7389 19.5199 34.2006C21.1348 33.2586 28.9402 27.1785 28.9402 27.1785C29.3439 26.9094 29.613 26.5299 29.613 26.1261V8.63142C29.613 7.95855 29.352 7.55482 28.8137 7.28567C28.4099 7.01652 27.7465 7.14302 27.3428 7.41217C25.1896 9.02707 19.3934 13.5865 18.0477 14.3939C16.1636 15.4705 14.3886 15.7397 13.7157 15.0668C13.4466 14.7976 13.4641 14.5446 13.4641 14.1409C13.4721 13.9094 13.4977 13.7103 13.5488 13.5515C13.6242 13.3173 13.7776 13.0293 14.3469 12.5852C14.3738 12.5637 14.3603 12.565 14.3886 12.5435C15.3616 11.8935 18.337 9.86547 20.2776 8.54664C20.3875 8.84158 20.5974 9.08866 20.8706 9.24489C21.1439 9.40112 21.4633 9.45662 21.7732 9.40173C22.0832 9.34685 22.3641 9.18505 22.5671 8.94449C22.7701 8.70392 22.8823 8.39981 22.8843 8.08505V6.06643C22.8858 5.87461 22.8463 5.68469 22.7684 5.50939C22.6905 5.3341 22.576 5.17748 22.4326 5.05004C22.2893 4.9226 22.1203 4.82728 21.9371 4.77048C21.7539 4.71367 21.5606 4.69669 21.3703 4.72068ZM26.9215 14.5621V17.2536L20.1928 22.4671V19.7756L26.9215 14.5621Z" fill="white"/>
</svg>
