<svg viewBox="0 0 24 24" fill="none" xmlns="http://www.w3.org/2000/svg">
<path fill-rule="evenodd" clip-rule="evenodd" d="M6 3H18C19.1046 3 20 3.89543 20 5V19C20 20.1046 19.1046 21 18 21H6C4.89543 21 4 20.1046 4 19V5C4 3.89543 4.89543 3 6 3ZM7.50001 8C7.50001 7.17157 8.17158 6.5 9.00001 6.5H15C15.8284 6.5 16.5 7.17157 16.5 8V9C16.5 9.82843 15.8284 10.5 15 10.5H9.00001C8.17158 10.5 7.50001 9.82843 7.50001 9V8ZM8.00001 12.75C8.69037 12.75 9.25001 13.3096 9.25001 14V14.01C9.25001 14.7004 8.69037 15.26 8.00001 15.26C7.30966 15.26 6.75001 14.7004 6.75001 14.01V14C6.75001 13.3096 7.30966 12.75 8.00001 12.75ZM13.25 14C13.25 13.3096 12.6904 12.75 12 12.75C11.3096 12.75 10.75 13.3096 10.75 14V14.01C10.75 14.7004 11.3096 15.26 12 15.26C12.6904 15.26 13.25 14.7004 13.25 14.01V14ZM16 12.75C16.6904 12.75 17.25 13.3096 17.25 14V14.01C17.25 14.7004 16.6904 15.26 16 15.26C15.3096 15.26 14.75 14.7004 14.75 14.01V14C14.75 13.3096 15.3096 12.75 16 12.75ZM9.25001 17C9.25001 16.3096 8.69037 15.75 8.00001 15.75C7.30966 15.75 6.75001 16.3096 6.75001 17V17.01C6.75001 17.7004 7.30966 18.26 8.00001 18.26C8.69037 18.26 9.25001 17.7004 9.25001 17.01V17ZM12 15.75C12.6904 15.75 13.25 16.3096 13.25 17V17.01C13.25 17.7004 12.6904 18.26 12 18.26C11.3096 18.26 10.75 17.7004 10.75 17.01V17C10.75 16.3096 11.3096 15.75 12 15.75ZM17.25 17C17.25 16.3096 16.6904 15.75 16 15.75C15.3096 15.75 14.75 16.3096 14.75 17V17.01C14.75 17.7004 15.3096 18.26 16 18.26C16.6904 18.26 17.25 17.7004 17.25 17.01V17Z" fill="white"/>
<path d="M18 2.5H6V3.5H18V2.5ZM20.5 5C20.5 3.61929 19.3807 2.5 18 2.5V3.5C18.8284 3.5 19.5 4.17157 19.5 5H20.5ZM20.5 19V5H19.5V19H20.5ZM18 21.5C19.3807 21.5 20.5 20.3807 20.5 19H19.5C19.5 19.8284 18.8284 20.5 18 20.5V21.5ZM6 21.5H18V20.5H6V21.5ZM3.5 19C3.5 20.3807 4.61929 21.5 6 21.5V20.5C5.17157 20.5 4.5 19.8284 4.5 19H3.5ZM3.5 5V19H4.5V5H3.5ZM6 2.5C4.61929 2.5 3.5 3.61929 3.5 5H4.5C4.5 4.17157 5.17157 3.5 6 3.5V2.5ZM9.00001 6C7.89544 6 7.00001 6.89543 7.00001 8H8.00001C8.00001 7.44772 8.44773 7 9.00001 7V6ZM15 6H9.00001V7H15V6ZM17 8C17 6.89543 16.1046 6 15 6V7C15.5523 7 16 7.44772 16 8H17ZM17 9V8H16V9H17ZM15 11C16.1046 11 17 10.1046 17 9H16C16 9.55228 15.5523 10 15 10V11ZM9.00001 11H15V10H9.00001V11ZM7.00001 9C7.00001 10.1046 7.89544 11 9.00001 11V10C8.44773 10 8.00001 9.55228 8.00001 9H7.00001ZM7.00001 8V9H8.00001V8H7.00001ZM9.75001 14C9.75001 13.0335 8.96651 12.25 8.00001 12.25V13.25C8.41423 13.25 8.75001 13.5858 8.75001 14H9.75001ZM9.75001 14.01V14H8.75001V14.01H9.75001ZM8.00001 15.76C8.96651 15.76 9.75001 14.9765 9.75001 14.01H8.75001C8.75001 14.4242 8.41423 14.76 8.00001 14.76V15.76ZM6.25001 14.01C6.25001 14.9765 7.03351 15.76 8.00001 15.76V14.76C7.5858 14.76 7.25001 14.4242 7.25001 14.01H6.25001ZM6.25001 14V14.01H7.25001V14H6.25001ZM8.00001 12.25C7.03351 12.25 6.25001 13.0335 6.25001 14H7.25001C7.25001 13.5858 7.5858 13.25 8.00001 13.25V12.25ZM12 13.25C12.4142 13.25 12.75 13.5858 12.75 14H13.75C13.75 13.0335 12.9665 12.25 12 12.25V13.25ZM11.25 14C11.25 13.5858 11.5858 13.25 12 13.25V12.25C11.0335 12.25 10.25 13.0335 10.25 14H11.25ZM11.25 14.01V14H10.25V14.01H11.25ZM12 14.76C11.5858 14.76 11.25 14.4242 11.25 14.01H10.25C10.25 14.9765 11.0335 15.76 12 15.76V14.76ZM12.75 14.01C12.75 14.4242 12.4142 14.76 12 14.76V15.76C12.9665 15.76 13.75 14.9765 13.75 14.01H12.75ZM12.75 14V14.01H13.75V14H12.75ZM17.75 14C17.75 13.0335 16.9665 12.25 16 12.25V13.25C16.4142 13.25 16.75 13.5858 16.75 14H17.75ZM17.75 14.01V14H16.75V14.01H17.75ZM16 15.76C16.9665 15.76 17.75 14.9765 17.75 14.01H16.75C16.75 14.4242 16.4142 14.76 16 14.76V15.76ZM14.25 14.01C14.25 14.9765 15.0335 15.76 16 15.76V14.76C15.5858 14.76 15.25 14.4242 15.25 14.01H14.25ZM14.25 14V14.01H15.25V14H14.25ZM16 12.25C15.0335 12.25 14.25 13.0335 14.25 14H15.25C15.25 13.5858 15.5858 13.25 16 13.25V12.25ZM8.00001 16.25C8.41423 16.25 8.75001 16.5858 8.75001 17H9.75001C9.75001 16.0335 8.96651 15.25 8.00001 15.25V16.25ZM7.25001 17C7.25001 16.5858 7.5858 16.25 8.00001 16.25V15.25C7.03351 15.25 6.25001 16.0335 6.25001 17H7.25001ZM7.25001 17.01V17H6.25001V17.01H7.25001ZM8.00001 17.76C7.5858 17.76 7.25001 17.4242 7.25001 17.01H6.25001C6.25001 17.9765 7.03351 18.76 8.00001 18.76V17.76ZM8.75001 17.01C8.75001 17.4242 8.41423 17.76 8.00001 17.76V18.76C8.96651 18.76 9.75001 17.9765 9.75001 17.01H8.75001ZM8.75001 17V17.01H9.75001V17H8.75001ZM13.75 17C13.75 16.0335 12.9665 15.25 12 15.25V16.25C12.4142 16.25 12.75 16.5858 12.75 17H13.75ZM13.75 17.01V17H12.75V17.01H13.75ZM12 18.76C12.9665 18.76 13.75 17.9765 13.75 17.01H12.75C12.75 17.4242 12.4142 17.76 12 17.76V18.76ZM10.25 17.01C10.25 17.9765 11.0335 18.76 12 18.76V17.76C11.5858 17.76 11.25 17.4242 11.25 17.01H10.25ZM10.25 17V17.01H11.25V17H10.25ZM12 15.25C11.0335 15.25 10.25 16.0335 10.25 17H11.25C11.25 16.5858 11.5858 16.25 12 16.25V15.25ZM16 16.25C16.4142 16.25 16.75 16.5858 16.75 17H17.75C17.75 16.0335 16.9665 15.25 16 15.25V16.25ZM15.25 17C15.25 16.5858 15.5858 16.25 16 16.25V15.25C15.0335 15.25 14.25 16.0335 14.25 17H15.25ZM15.25 17.01V17H14.25V17.01H15.25ZM16 17.76C15.5858 17.76 15.25 17.4242 15.25 17.01H14.25C14.25 17.9765 15.0335 18.76 16 18.76V17.76ZM16.75 17.01C16.75 17.4242 16.4142 17.76 16 17.76V18.76C16.9665 18.76 17.75 17.9765 17.75 17.01H16.75ZM16.75 17V17.01H17.75V17H16.75Z" fill="white"/>
</svg>
