<svg width="35" height="35" viewBox="0 0 35 35" fill="none" xmlns="http://www.w3.org/2000/svg">
    <path d="M32.1664 16.5153L26.9321 21.7496C26.0338 22.648 24.9673 23.3607 23.7935 23.8469C22.6198 24.3332 21.3617 24.5834 20.0912 24.5834C18.8208 24.5834 17.5627 24.3332 16.3889 23.8469C15.2152 23.3607 14.1487 22.648 13.2504 21.7496C13.0289 21.5653 12.8483 21.3368 12.7201 21.0787C12.5919 20.8207 12.5189 20.5387 12.5057 20.2509C12.4926 19.963 12.5396 19.6756 12.6438 19.407C12.7479 19.1383 12.907 18.8943 13.1107 18.6905C13.3145 18.4868 13.5585 18.3278 13.8271 18.2236C14.0958 18.1194 14.3832 18.0724 14.6711 18.0855C14.9589 18.0987 15.2409 18.1717 15.4989 18.2999C15.757 18.4281 15.9855 18.6087 16.1698 18.8302C17.2113 19.8608 18.6174 20.439 20.0826 20.439C21.5478 20.439 22.9539 19.8608 23.9954 18.8302L29.2297 13.5959C30.2674 12.5581 30.8504 11.1507 30.8504 9.68309C30.8504 8.21552 30.2674 6.80805 29.2297 5.77032C28.1919 4.73259 26.7845 4.1496 25.3169 4.1496C23.8493 4.1496 22.4419 4.73259 21.4041 5.77032L19.7457 7.44599C19.3563 7.83543 18.8281 8.05421 18.2774 8.05421C17.7266 8.05421 17.1984 7.83543 16.809 7.44599C16.4196 7.05655 16.2008 6.52837 16.2008 5.97762C16.2008 5.42687 16.4196 4.89869 16.809 4.50925L18.4847 2.83358C20.299 1.01927 22.7597 0 25.3255 0C27.8914 0 30.3521 1.01927 32.1664 2.83358C33.9807 4.64789 35 7.10863 35 9.67445C35 12.2403 33.9807 14.701 32.1664 16.5153ZM15.2543 27.554L13.5959 29.2297C12.5581 30.2674 11.1507 30.8504 9.68309 30.8504C8.21552 30.8504 6.80805 30.2674 5.77032 29.2297C4.73259 28.1919 4.1496 26.7845 4.1496 25.3169C4.1496 23.8493 4.73259 22.4419 5.77032 21.4041L11.0046 16.1698C12.0461 15.1392 13.4522 14.561 14.9174 14.561C16.3826 14.561 17.7887 15.1392 18.8302 16.1698C19.2276 16.5006 19.7343 16.671 20.2509 16.6474C20.7675 16.6238 21.2566 16.408 21.6222 16.0424C21.9878 15.6767 22.2036 15.1876 22.2272 14.6711C22.2508 14.1545 22.0805 13.6478 21.7496 13.2504C20.8525 12.3499 19.7864 11.6354 18.6124 11.1479C17.4385 10.6604 16.1799 10.4094 14.9088 10.4094C13.6376 10.4094 12.379 10.6604 11.2051 11.1479C10.0312 11.6354 8.96505 12.3499 8.06789 13.2504L2.83358 18.4847C1.01927 20.299 0 22.7597 0 25.3255C0 27.8914 1.01927 30.3521 2.83358 32.1664C4.64789 33.9807 7.10863 35 9.67445 35C12.2403 35 14.701 33.9807 16.5153 32.1664L18.191 30.4907C18.5804 30.1013 18.7992 29.5731 18.7992 29.0224C18.7992 28.4716 18.5804 27.9434 18.191 27.554C17.8016 27.1646 17.2734 26.9458 16.7226 26.9458C16.1719 26.9458 15.6437 27.1646 15.2543 27.554Z" fill="white"/>
</svg>
