<svg viewBox="0 0 24 24" fill="none" xmlns="http://www.w3.org/2000/svg">
<path fill-rule="evenodd" clip-rule="evenodd" d="M4.3 16.1001L3 20.0001L7.7 19.0001C9.6142 19.9294 11.8429 20.2092 13.9718 19.7874C16.1007 19.3657 17.9848 18.2711 19.2739 16.7072C20.563 15.1433 21.1693 13.2165 20.9801 11.2851C20.7909 9.35362 19.819 7.54896 18.2453 6.20664C16.6715 4.86431 14.6029 4.07566 12.4241 3.98732C10.2453 3.89898 8.10447 4.51696 6.39977 5.72635C4.69506 6.93575 3.54244 8.65427 3.15622 10.5624C2.76999 12.4705 3.17644 14.4384 4.3 16.1001ZM13.5 12C13.5 11.1716 12.8284 10.5 12 10.5C11.1716 10.5 10.5 11.1716 10.5 12V12.01C10.5 12.8384 11.1716 13.51 12 13.51C12.8284 13.51 13.5 12.8384 13.5 12.01V12ZM8 10.5C8.82843 10.5 9.5 11.1716 9.5 12V12.01C9.5 12.8384 8.82843 13.51 8 13.51C7.17157 13.51 6.5 12.8384 6.5 12.01V12C6.5 11.1716 7.17157 10.5 8 10.5ZM17.5 12C17.5 11.1716 16.8284 10.5 16 10.5C15.1716 10.5 14.5 11.1716 14.5 12V12.01C14.5 12.8384 15.1716 13.51 16 13.51C16.8284 13.51 17.5 12.8384 17.5 12.01V12Z" fill="white"/>
<path d="M3 20.0001L2.52566 19.842C2.46895 20.0121 2.50769 20.1996 2.62719 20.3333C2.74669 20.467 2.92865 20.5265 3.10405 20.4891L3 20.0001ZM4.3 16.1001L4.77434 16.2582C4.8235 16.1107 4.80127 15.9488 4.71421 15.82L4.3 16.1001ZM7.7 19.0001L7.91837 18.5503C7.81826 18.5017 7.70479 18.4879 7.59595 18.511L7.7 19.0001ZM13.9718 19.7874L14.069 20.2779V20.2779L13.9718 19.7874ZM19.2739 16.7072L18.888 16.3892L19.2739 16.7072ZM18.2453 6.20664L18.5698 5.82622L18.2453 6.20664ZM6.39977 5.72635L6.68908 6.13415L6.39977 5.72635ZM3.15622 10.5624L2.66616 10.4632L3.15622 10.5624ZM3.47434 20.1582L4.77434 16.2582L3.82566 15.942L2.52566 19.842L3.47434 20.1582ZM7.59595 18.511L2.89595 19.511L3.10405 20.4891L7.80405 19.4891L7.59595 18.511ZM13.8746 19.297C11.8503 19.698 9.73254 19.431 7.91837 18.5503L7.48163 19.4499C9.49586 20.4277 11.8356 20.7203 14.069 20.2779L13.8746 19.297ZM18.888 16.3892C17.6778 17.8574 15.8989 18.8959 13.8746 19.297L14.069 20.2779C16.3024 19.8354 18.2918 18.6848 19.6597 17.0252L18.888 16.3892ZM20.4824 11.3338C20.6581 13.1266 20.0968 14.9228 18.888 16.3892L19.6597 17.0252C21.0291 15.3639 21.6805 13.3064 21.4777 11.2363L20.4824 11.3338ZM17.9208 6.58706C19.4033 7.85149 20.3068 9.54022 20.4824 11.3338L21.4777 11.2363C21.275 9.16702 20.2348 7.24644 18.5698 5.82622L17.9208 6.58706ZM12.4038 4.48691C14.4773 4.57098 16.4371 5.32152 17.9208 6.58706L18.5698 5.82622C16.906 4.4071 14.7285 3.58034 12.4443 3.48773L12.4038 4.48691ZM6.68908 6.13415C8.29948 4.99166 10.3304 4.40284 12.4038 4.48691L12.4443 3.48773C10.1602 3.39512 7.90947 4.04225 6.11046 5.31855L6.68908 6.13415ZM3.64628 10.6616C4.00531 8.88782 5.07974 7.27589 6.68908 6.13415L6.11046 5.31855C4.31039 6.59561 3.07958 8.42072 2.66616 10.4632L3.64628 10.6616ZM4.71421 15.82C3.66323 14.2656 3.28756 12.4338 3.64628 10.6616L2.66616 10.4632C2.25243 12.5072 2.68966 14.6111 3.88579 16.3801L4.71421 15.82ZM12 11C12.5523 11 13 11.4477 13 12H14C14 10.8954 13.1046 10 12 10V11ZM11 12C11 11.4477 11.4477 11 12 11V10C10.8954 10 10 10.8954 10 12H11ZM11 12.01V12H10V12.01H11ZM12 13.01C11.4477 13.01 11 12.5623 11 12.01H10C10 13.1146 10.8954 14.01 12 14.01V13.01ZM13 12.01C13 12.5623 12.5523 13.01 12 13.01V14.01C13.1046 14.01 14 13.1146 14 12.01H13ZM13 12V12.01H14V12H13ZM10 12C10 10.8954 9.10457 10 8 10V11C8.55228 11 9 11.4477 9 12H10ZM10 12.01V12H9V12.01H10ZM8 14.01C9.10457 14.01 10 13.1146 10 12.01H9C9 12.5623 8.55228 13.01 8 13.01V14.01ZM6 12.01C6 13.1146 6.89543 14.01 8 14.01V13.01C7.44772 13.01 7 12.5623 7 12.01H6ZM6 12V12.01H7V12H6ZM8 10C6.89543 10 6 10.8954 6 12H7C7 11.4477 7.44772 11 8 11V10ZM16 11C16.5523 11 17 11.4477 17 12H18C18 10.8954 17.1046 10 16 10V11ZM15 12C15 11.4477 15.4477 11 16 11V10C14.8954 10 14 10.8954 14 12H15ZM15 12.01V12H14V12.01H15ZM16 13.01C15.4477 13.01 15 12.5623 15 12.01H14C14 13.1146 14.8954 14.01 16 14.01V13.01ZM17 12.01C17 12.5623 16.5523 13.01 16 13.01V14.01C17.1046 14.01 18 13.1146 18 12.01H17ZM17 12V12.01H18V12H17Z" fill="white"/>
</svg>
