<svg width="35" height="35" viewBox="0 0 35 35" fill="none" xmlns="http://www.w3.org/2000/svg">
    <path d="M17.5 0C7.84 0 0 7.84 0 17.5C0 27.16 7.84 35 17.5 35C27.16 35 35 27.16 35 17.5C35 7.84 27.16 0 17.5 0ZM30.555 12.46L25.69 14.4725C25.2517 13.2932 24.5633 12.2228 23.6722 11.3347C22.7811 10.4465 21.7083 9.76182 20.5275 9.3275L22.54 4.4625C26.215 5.8625 29.1375 8.785 30.555 12.46ZM17.5 22.75C14.595 22.75 12.25 20.405 12.25 17.5C12.25 14.595 14.595 12.25 17.5 12.25C20.405 12.25 22.75 14.595 22.75 17.5C22.75 20.405 20.405 22.75 17.5 22.75ZM12.4775 4.445L14.525 9.31C13.3303 9.74538 12.2448 10.4359 11.3442 11.3335C10.4436 12.2311 9.74939 13.3143 9.31 14.5075L4.445 12.4775C5.14673 10.6508 6.22435 8.9918 7.60808 7.60808C8.9918 6.22435 10.6508 5.14673 12.4775 4.445ZM4.445 22.5225L9.31 20.51C9.74634 21.7001 10.4376 22.7804 11.3355 23.6752C12.2333 24.57 13.3159 25.2577 14.5075 25.69L12.46 30.555C10.6372 29.8501 8.9822 28.7711 7.60174 27.3877C6.22129 26.0042 5.14594 24.3469 4.445 22.5225ZM22.54 30.555L20.5275 25.69C21.7138 25.2505 22.7901 24.5578 23.6816 23.6603C24.5732 22.7627 25.2585 21.6817 25.69 20.4925L30.555 22.54C29.851 24.3605 28.7743 26.0139 27.3941 27.3941C26.0139 28.7743 24.3605 29.851 22.54 30.555Z" fill="white"/>
</svg>
