<svg width="16" height="16" viewBox="0 0 16 16" fill="none" xmlns="http://www.w3.org/2000/svg">
<path d="M11.9997 5.3335H6.66634C5.92996 5.3335 5.33301 5.93045 5.33301 6.66683V12.0002C5.33301 12.7365 5.92996 13.3335 6.66634 13.3335H11.9997C12.7361 13.3335 13.333 12.7365 13.333 12.0002V6.66683C13.333 5.93045 12.7361 5.3335 11.9997 5.3335Z" stroke="white" stroke-width="1.33333" stroke-linecap="round" stroke-linejoin="round"/>
<path d="M10.667 5.33317V3.99984C10.667 3.64622 10.5265 3.30708 10.2765 3.05703C10.0264 2.80698 9.68728 2.6665 9.33366 2.6665H4.00033C3.6467 2.6665 3.30756 2.80698 3.05752 3.05703C2.80747 3.30708 2.66699 3.64622 2.66699 3.99984V9.33317C2.66699 9.68679 2.80747 10.0259 3.05752 10.276C3.30756 10.526 3.6467 10.6665 4.00033 10.6665H5.33366" stroke="white" stroke-width="1.33333" stroke-linecap="round" stroke-linejoin="round"/>
</svg>
