<svg id='iconCopyWhite' viewBox="0 0 20 20" fill="white" xmlns="http://www.w3.org/2000/svg">
<path d="M14.9993 6.66663H8.33268C7.41221 6.66663 6.66602 7.41282 6.66602 8.33329V15C6.66602 15.9204 7.41221 16.6666 8.33268 16.6666H14.9993C15.9198 16.6666 16.666 15.9204 16.666 15V8.33329C16.666 7.41282 15.9198 6.66663 14.9993 6.66663Z" />
<path fill-rule="evenodd" clip-rule="evenodd" d="M3.46859 3.46798C3.87492 3.06165 4.42602 2.83337 5.00065 2.83337H11.6673C12.242 2.83337 12.7931 3.06165 13.1994 3.46798C13.6057 3.8743 13.834 4.4254 13.834 5.00004V6.66671C13.834 6.94285 13.6101 7.16671 13.334 7.16671C13.0578 7.16671 12.834 6.94285 12.834 6.66671V5.00004C12.834 4.69062 12.7111 4.39388 12.4923 4.17508C12.2735 3.95629 11.9767 3.83337 11.6673 3.83337H5.00065C4.69123 3.83337 4.39449 3.95629 4.17569 4.17508C3.9569 4.39388 3.83398 4.69062 3.83398 5.00004V11.6667C3.83398 11.9761 3.9569 12.2729 4.17569 12.4917C4.39449 12.7105 4.69123 12.8334 5.00065 12.8334H6.66732C6.94346 12.8334 7.16732 13.0572 7.16732 13.3334C7.16732 13.6095 6.94346 13.8334 6.66732 13.8334H5.00065C4.42601 13.8334 3.87491 13.6051 3.46859 13.1988C3.06226 12.7924 2.83398 12.2413 2.83398 11.6667V5.00004C2.83398 4.4254 3.06226 3.8743 3.46859 3.46798Z" />
</svg>
