<svg viewBox="0 0 17 17"  stroke="white" fill="none" xmlns="http://www.w3.org/2000/svg">
<path d="M9.24991 1.03809C9.24991 1.03809 11.4999 4.00059 11.4999 8.50059C11.4999 13.0006 9.24991 15.9631 9.24991 15.9631M7.74991 15.9631C7.74991 15.9631 5.49991 13.0006 5.49991 8.50059C5.49991 4.00059 7.74991 1.03809 7.74991 1.03809M1.47241 11.1256H15.5274M1.47241 5.87559H15.5274M1 8.5C1 12.6423 4.35775 16 8.5 16C12.6423 16 16 12.6423 16 8.5C16 4.35775 12.6423 1 8.5 1C4.35775 1 1 4.35775 1 8.5Z" stroke-opacity="0.5" stroke-linecap="round" stroke-linejoin="round"/>
</svg>
