<svg viewBox="0 0 24 24" fill="none" xmlns="http://www.w3.org/2000/svg">
<path d="M3.5 9.5H20.5V19C20.5 19.8284 19.8284 20.5 19 20.5H5C4.17157 20.5 3.5 19.8284 3.5 19V9.5Z" fill="white" stroke="white"/>
<path d="M11.9119 12.1636C11.9497 12.0935 12.0503 12.0935 12.0881 12.1636L12.9047 13.681C12.9191 13.7078 12.945 13.7265 12.9749 13.732L14.6704 14.0398C14.7487 14.054 14.7798 14.1497 14.7248 14.2073L13.534 15.4528C13.513 15.4748 13.5031 15.5052 13.5072 15.5353L13.7384 17.2429C13.7491 17.3219 13.6677 17.381 13.5959 17.3464L12.0434 16.5989C12.016 16.5857 11.984 16.5857 11.9566 16.5989L10.4041 17.3464C10.3323 17.381 10.2509 17.3219 10.2616 17.2429L10.4928 15.5353C10.4969 15.5052 10.487 15.4748 10.466 15.4528L9.27522 14.2073C9.22018 14.1497 9.25127 14.054 9.32965 14.0398L11.0251 13.732C11.055 13.7265 11.0809 13.7078 11.0953 13.681L11.9119 12.1636Z" fill="#8B8C8C" stroke="#8B8C8C"/>
<path d="M20.5 6.5V9.5H3.5V6.5C3.5 5.67157 4.17157 5 5 5H5.25H6.375H8.625H9.75H12H14.25H15.375H17.625H18.75H19C19.8284 5 20.5 5.67157 20.5 6.5Z" fill="#8B8C8C" stroke="#8B8C8C"/>
<rect x="6.5" y="3.5" width="2" height="3" rx="1" fill="white" stroke="white"/>
<rect x="15.5" y="3.5" width="2" height="3" rx="1" fill="white" stroke="white"/>
</svg>
