<svg viewBox="0 0 20 20" fill="none" stroke="#2CFF4E" xmlns="http://www.w3.org/2000/svg">
  <path fill-rule="evenodd" clip-rule="evenodd" d="M6.35423 3.81807C7.73121 3.02257 9.33155 2.70188 10.9087 2.90538C12.4859 3.10889 13.9524 3.82531 15.0824 4.94428C16.2123 6.06326 16.943 7.52271 17.1619 9.09782C17.1999 9.37134 17.009 9.62388 16.7355 9.66189C16.462 9.6999 16.2094 9.50898 16.1714 9.23547C15.9827 7.87761 15.3528 6.61947 14.3787 5.65483C13.4046 4.6902 12.1404 4.0726 10.7808 3.89716C9.42112 3.72173 8.04152 3.99819 6.85446 4.68396C5.89116 5.24048 5.09802 6.04149 4.5515 6.99998H6.66668C6.94282 6.99998 7.16668 7.22384 7.16668 7.49998C7.16668 7.77612 6.94282 7.99998 6.66668 7.99998H3.76119C3.75362 8.00015 3.74603 8.00015 3.73842 7.99998H3.33334C3.0572 7.99998 2.83334 7.77612 2.83334 7.49998V4.16665C2.83334 3.8905 3.0572 3.66665 3.33334 3.66665C3.60949 3.66665 3.83334 3.8905 3.83334 4.16665V6.25262C4.45874 5.25223 5.32231 4.41422 6.35423 3.81807Z"/>
  <path fill-rule="evenodd" clip-rule="evenodd" d="M3.26452 10.3381C3.53803 10.3001 3.79057 10.491 3.82858 10.7645C4.01729 12.1224 4.6472 13.3805 5.6213 14.3452C6.5954 15.3098 7.85964 15.9274 9.21927 16.1028C10.5789 16.2783 11.9585 16.0018 13.1456 15.316C14.1089 14.7595 14.902 13.9585 15.4485 13H13.3333C13.0572 13 12.8333 12.7762 12.8333 12.5C12.8333 12.2239 13.0572 12 13.3333 12H16.2388C16.2464 11.9998 16.254 11.9998 16.2616 12H16.6667C16.9428 12 17.1667 12.2239 17.1667 12.5V15.8333C17.1667 16.1095 16.9428 16.3333 16.6667 16.3333C16.3905 16.3333 16.1667 16.1095 16.1667 15.8333V13.7474C15.5413 14.7478 14.6777 15.5858 13.6458 16.1819C12.2688 16.9774 10.6685 17.2981 9.0913 17.0946C7.51412 16.8911 6.04761 16.1747 4.91766 15.0557C3.7877 13.9367 3.057 12.4773 2.8381 10.9022C2.80009 10.6287 2.99101 10.3761 3.26452 10.3381Z" />
</svg>
