<svg width="20" height="20" viewBox="0 0 20 20" fill="none" xmlns="http://www.w3.org/2000/svg">
<path fill-rule="evenodd" clip-rule="evenodd" d="M14.5201 5.47982C14.7154 5.67508 14.7154 5.99167 14.5201 6.18693L6.18681 14.5203C5.99154 14.7155 5.67496 14.7155 5.4797 14.5203C5.28444 14.325 5.28444 14.0084 5.4797 13.8132L13.813 5.47982C14.0083 5.28456 14.3249 5.28456 14.5201 5.47982Z" fill="white"/>
<path fill-rule="evenodd" clip-rule="evenodd" d="M6.16675 5.83337C6.16675 5.55723 6.39061 5.33337 6.66675 5.33337H14.1667C14.4429 5.33337 14.6667 5.55723 14.6667 5.83337V13.3334C14.6667 13.6095 14.4429 13.8334 14.1667 13.8334C13.8906 13.8334 13.6667 13.6095 13.6667 13.3334V6.33337H6.66675C6.39061 6.33337 6.16675 6.10952 6.16675 5.83337Z" fill="white"/>
</svg>
