<svg width="35" height="35" viewBox="0 0 35 35" fill="none" xmlns="http://www.w3.org/2000/svg">
    <path fill-rule="evenodd" clip-rule="evenodd" d="M10.5 1.16281e-06C8.9529 1.16281e-06 7.46917 0.614583 6.37521 1.70854C5.28125 2.80251 4.66667 4.28624 4.66667 5.83333V6.50067C4.66667 7.546 4.977 8.519 5.51133 9.33333H3.5C2.57174 9.33333 1.6815 9.70208 1.02513 10.3585C0.368749 11.0148 0 11.9051 0 12.8333V15.1667C0 16.0949 0.368749 16.9852 1.02513 17.6415C1.6815 18.2979 2.57174 18.6667 3.5 18.6667H16.3333V9.33333H18.6667V18.6667H31.5C32.4283 18.6667 33.3185 18.2979 33.9749 17.6415C34.6312 16.9852 35 16.0949 35 15.1667V12.8333C35 11.9051 34.6312 11.0148 33.9749 10.3585C33.3185 9.70208 32.4283 9.33333 31.5 9.33333H29.4887C30.023 8.519 30.3333 7.546 30.3333 6.50067V5.83333C30.3333 4.28624 29.7188 2.80251 28.6248 1.70854C27.5308 0.614583 26.0471 1.16281e-06 24.5 1.16281e-06C21.5297 1.16281e-06 18.928 1.58667 17.5 3.95733C16.7741 2.74956 15.7478 1.7503 14.5212 1.05682C13.2945 0.363334 11.9091 -0.000750921 10.5 1.16281e-06ZM18.6667 9.33333H25.1673C26.7307 9.33333 28 8.064 28 6.50067V5.83333C28 4.90508 27.6313 4.01484 26.9749 3.35846C26.3185 2.70208 25.4283 2.33333 24.5 2.33333C22.9529 2.33333 21.4692 2.94792 20.3752 4.04188C19.2812 5.13584 18.6667 6.61957 18.6667 8.16667V9.33333ZM16.3333 9.33333H9.83267C8.26933 9.33333 7 8.064 7 6.50067V5.83333C7 4.90508 7.36875 4.01484 8.02513 3.35846C8.6815 2.70208 9.57174 2.33333 10.5 2.33333C11.266 2.33333 12.0246 2.48422 12.7323 2.77737C13.4401 3.07052 14.0831 3.5002 14.6248 4.04188C15.1665 4.58355 15.5961 5.22661 15.8893 5.93435C16.1824 6.64208 16.3333 7.40062 16.3333 8.16667V9.33333Z" fill="white"/>
    <path d="M16.3328 21H2.33276V29.1667C2.33276 30.7138 2.94735 32.1975 4.04131 33.2915C5.13527 34.3854 6.619 35 8.1661 35H16.3328V21ZM18.6661 35H26.8328C28.3799 35 29.8636 34.3854 30.9576 33.2915C32.0515 32.1975 32.6661 30.7138 32.6661 29.1667V21H18.6661V35Z" fill="white"/>
</svg>
