<svg viewBox="0 0 20 20" fill="#2CFF4E" xmlns="http://www.w3.org/2000/svg">
<path d="M15.8334 10V15.8333C15.8334 16.2754 15.6578 16.6993 15.3452 17.0118C15.0326 17.3244 14.6087 17.5 14.1667 17.5H5.83335C5.39133 17.5 4.9674 17.3244 4.65484 17.0118C4.34228 16.6993 4.16669 16.2754 4.16669 15.8333V10"  fill-opacity="0.5"/>
<path fill-rule="evenodd" clip-rule="evenodd" d="M4.16669 9.5C4.44283 9.5 4.66669 9.72386 4.66669 10V15.8333C4.66669 16.1428 4.7896 16.4395 5.0084 16.6583C5.22719 16.8771 5.52393 17 5.83335 17H14.1667C14.4761 17 14.7729 16.8771 14.9916 16.6583C15.2104 16.4395 15.3334 16.1428 15.3334 15.8333V10C15.3334 9.72386 15.5572 9.5 15.8334 9.5C16.1095 9.5 16.3334 9.72386 16.3334 10V15.8333C16.3334 16.408 16.1051 16.9591 15.6988 17.3654C15.2924 17.7717 14.7413 18 14.1667 18H5.83335C5.25872 18 4.70762 17.7717 4.30129 17.3654C3.89496 16.9591 3.66669 16.408 3.66669 15.8333V10C3.66669 9.72386 3.89054 9.5 4.16669 9.5Z" />
<path d="M16.6667 6.66663H3.33333C2.8731 6.66663 2.5 7.03972 2.5 7.49996V9.16663C2.5 9.62686 2.8731 9.99996 3.33333 9.99996H16.6667C17.1269 9.99996 17.5 9.62686 17.5 9.16663V7.49996C17.5 7.03972 17.1269 6.66663 16.6667 6.66663Z" />
<path fill-rule="evenodd" clip-rule="evenodd" d="M3.33333 7.16663C3.14924 7.16663 3 7.31586 3 7.49996V9.16663C3 9.35072 3.14924 9.49996 3.33333 9.49996H16.6667C16.8508 9.49996 17 9.35072 17 9.16663V7.49996C17 7.31586 16.8508 7.16663 16.6667 7.16663H3.33333ZM2 7.49996C2 6.76358 2.59695 6.16663 3.33333 6.16663H16.6667C17.403 6.16663 18 6.76358 18 7.49996V9.16663C18 9.90301 17.403 10.5 16.6667 10.5H3.33333C2.59695 10.5 2 9.90301 2 9.16663V7.49996Z" />
<path fill-rule="evenodd" clip-rule="evenodd" d="M8.13899 3.95378C7.54137 3.28976 6.88362 2.98904 6.25873 2.99993L6.25002 3.00008V3C5.83009 3 5.42737 3.16682 5.13043 3.46375C4.8335 3.76068 4.66669 4.16341 4.66669 4.58333C4.66669 5.00326 4.8335 5.40599 5.13043 5.70292C5.42737 5.99985 5.83009 6.16667 6.25002 6.16667C6.52616 6.16667 6.75002 6.39053 6.75002 6.66667C6.75002 6.94281 6.52616 7.16667 6.25002 7.16667C5.56488 7.16667 4.9078 6.8945 4.42333 6.41003C3.93886 5.92556 3.66669 5.26848 3.66669 4.58333C3.66669 3.89819 3.93886 3.24111 4.42333 2.75664C4.90676 2.27321 5.56208 2.00116 6.24564 2.00001C7.22692 1.98436 8.14314 2.46355 8.88228 3.28482C9.32614 3.77799 9.70214 4.38838 10 5.07974C10.2979 4.38838 10.6739 3.77799 11.1178 3.28482C11.8569 2.46355 12.7731 1.98436 13.7544 2.00001C14.438 2.00116 15.0933 2.27321 15.5767 2.75664C16.0612 3.24111 16.3334 3.89819 16.3334 4.58333C16.3334 5.26848 16.0612 5.92556 15.5767 6.41003C15.0922 6.8945 14.4352 7.16667 13.75 7.16667C13.4739 7.16667 13.25 6.94281 13.25 6.66667C13.25 6.39053 13.4739 6.16667 13.75 6.16667C14.1699 6.16667 14.5727 5.99985 14.8696 5.70292C15.1665 5.40599 15.3334 5.00326 15.3334 4.58333C15.3334 4.16341 15.1665 3.76068 14.8696 3.46375C14.5727 3.16682 14.1699 3 13.75 3H13.7413L13.7413 2.99993C13.1164 2.98904 12.4587 3.28976 11.8611 3.95378C11.2609 4.62063 10.7731 5.6011 10.4859 6.78458C10.4315 7.0088 10.2307 7.16667 10 7.16667C9.7693 7.16667 9.56853 7.0088 9.51412 6.78458C9.22693 5.6011 8.73915 4.62063 8.13899 3.95378Z" />
<path fill-rule="evenodd" clip-rule="evenodd" d="M10 6.16663C10.2761 6.16663 10.5 6.39048 10.5 6.66663V17.5C10.5 17.7761 10.2761 18 10 18C9.72386 18 9.5 17.7761 9.5 17.5V6.66663C9.5 6.39048 9.72386 6.16663 10 6.16663Z" />
</svg>
