<svg id="gold_branch_left" width="59" height="145" viewBox="0 0 59 145" fill="none" xmlns="http://www.w3.org/2000/svg">
<path d="M58.6698 139.488C55.8495 138.862 53.0444 137.949 50.0929 136.699C50.0576 136.682 49.9699 136.583 49.9425 136.493C49.6483 135.485 49.5498 134.47 49.6404 133.389C50.2184 126.486 46.1289 119.213 39.9176 116.095C39.7856 116.027 39.6479 115.969 39.4892 115.904L39.3419 115.843C39.202 115.782 39.0316 115.807 38.9187 115.899C38.7967 115.993 38.7361 116.147 38.7609 116.302L38.9309 117.36C39.0817 118.297 39.2295 119.213 39.3711 120.131L39.4068 120.371C39.8056 122.978 40.2179 125.674 41.0212 128.263C41.746 130.6 42.8644 132.444 44.4199 133.857C41.1337 131.909 38.0714 129.568 35.2903 126.876C35.2319 126.82 35.1626 126.67 35.1526 126.547L35.078 124.699C35.0776 124.634 35.0767 124.459 35.1138 124.373C36.4836 121.165 36.8345 117.555 36.1873 113.336C35.5631 109.267 33.8346 105.525 31.0491 102.213C30.7231 101.826 30.4354 101.63 30.194 101.63C30.1351 101.63 30.082 101.641 30.0401 101.663C29.912 101.727 29.8252 101.851 29.8082 101.994L29.7337 102.639C29.6762 103.117 29.6208 103.587 29.5711 104.057C29.4853 104.886 29.3911 105.714 29.2966 106.542L29.2831 106.661C29.0477 108.728 28.8036 110.866 28.6746 113.006C28.5247 115.503 28.5691 118.42 30.0375 121.117C30.0453 121.131 30.0523 121.145 30.0602 121.159C28.0191 118.594 26.1559 115.833 24.4936 112.907C24.3467 112.647 24.334 112.419 24.3615 112.088C24.4796 110.687 25.1273 109.549 25.8094 108.529C27.1269 106.552 27.9245 104.216 28.3957 100.953C29.0542 96.3903 28.3891 91.813 26.42 87.3474C26.366 87.2243 26.3028 87.1055 26.2352 86.9781L26.0813 86.6863C26.0077 86.5439 25.8503 86.4502 25.6843 86.4576C25.5187 86.4664 25.3727 86.572 25.3125 86.7253C24.8348 87.9361 24.3728 89.1027 23.9139 90.2605L23.6206 91.0004C22.6417 93.4715 21.5438 96.3566 20.9057 99.3332C20.4559 101.434 20.4285 103.461 20.8229 105.391C19.2922 101.729 18.0339 97.86 17.0703 93.8478C17.0594 93.8031 17.0559 93.6874 17.1513 93.4207C17.602 92.1809 18.4227 91.0569 19.4626 90.2557C21.739 88.5008 23.0304 86.0616 23.9932 83.9072C25.9645 79.5012 26.4993 74.8205 25.6276 69.5966C25.6185 69.5418 25.6019 69.4875 25.5823 69.4284L25.5666 69.3811C25.5287 69.2641 25.4424 69.1695 25.3282 69.12C25.2166 69.0731 25.0763 69.0819 24.9896 69.1248C24.9024 69.1568 24.7703 69.2054 24.6845 69.332C24.1911 69.9944 23.6903 70.6628 23.1891 71.3309L23.105 71.4435C21.841 73.1304 20.5339 74.8739 19.2778 76.6109C17.8225 78.6176 16.7948 80.5683 16.1354 82.5747C15.8172 83.5436 15.6093 84.4763 15.5113 85.3822C15.0924 82.127 14.8549 78.8034 14.803 75.4522C14.7908 74.6523 14.8919 74.0166 15.4354 73.3206C16.0107 72.5785 16.5481 72.1641 17.2891 71.8907C20.3334 70.7728 22.2865 68.4103 23.6476 66.4771C25.8464 63.3498 27.1361 59.7108 27.5902 55.3521C27.6386 54.9035 27.6661 54.4497 27.6944 53.9696L27.7014 53.8605C27.7149 53.627 27.7293 53.3839 27.7476 53.1263C27.7589 52.9554 27.6678 52.7951 27.5157 52.7176C27.3684 52.6431 27.1797 52.665 27.0515 52.7741L26.6902 53.0851C26.5542 53.2016 26.4379 53.3015 26.3171 53.3988C25.737 53.867 25.1547 54.3305 24.5711 54.7953L24.5101 54.8435C23.2292 55.8633 21.9042 56.9177 20.639 58.0068C18.1839 60.1112 16.6031 62.206 15.6638 64.6C15.5086 64.9947 15.3727 65.385 15.2559 65.7714C15.642 61.9673 16.2692 58.221 17.1304 54.5864C17.235 54.1417 17.2934 54.0112 17.5083 53.9402C17.6434 53.8942 17.7694 53.8057 17.8613 53.6962C18.4859 52.9826 19.3083 52.8696 20.1051 52.8534C22.7637 52.7907 24.8723 51.4577 26.5839 50.1619C30.7806 46.9851 33.6703 38.9247 33.6703 38.6514C33.6703 38.509 33.5997 38.3763 33.4798 38.2961C33.3617 38.2177 33.2022 38.2067 33.0819 38.2606C32.2076 38.6334 31.3333 38.9966 30.428 39.3728C28.4362 40.203 26.3768 41.0607 24.399 41.9986C22.4085 42.9453 20.8355 44.2113 19.7111 45.769C20.7828 42.7083 22.0254 39.7075 23.4166 36.8238C23.5766 36.5127 24.3279 36.1824 25.4054 36.1824C25.7558 36.1824 26.0953 36.2201 26.3886 36.2911C28.92 36.9009 31.43 36.5311 34.2081 35.1359C37.0502 33.7078 39.4081 31.3729 41.4165 27.9959C41.4549 27.9306 41.5303 27.7313 41.5708 27.6196C41.6218 27.4829 41.6013 27.3322 41.5168 27.2179C41.4383 27.1093 41.3128 27.0444 41.1528 27.0444C41.1515 27.0444 41.1506 27.0444 41.1493 27.0444L40.146 27.108C39.5311 27.1469 38.9339 27.185 38.3368 27.2157L37.6992 27.2481C35.7954 27.3445 33.8263 27.4435 31.8999 27.9048C29.7028 28.4357 28.0897 29.251 26.8528 30.46C28.3168 28.0108 29.8845 25.6803 31.5359 23.4974C31.5804 23.4396 31.7935 23.3511 31.9683 23.3218C32.0555 23.3012 32.3728 23.2342 32.7946 23.2342C33.3543 23.2342 33.8442 23.3485 34.2595 23.578C36.8986 24.8751 39.8623 24.9715 43.0801 23.8606C45.7196 22.9542 47.955 21.2708 49.9146 18.7155C49.9782 18.6332 50.0358 18.5434 50.0881 18.4488C50.1478 18.3397 50.1517 18.2196 50.0994 18.1101C49.9477 17.7903 49.2913 17.6401 49.015 17.5901C48.3368 17.471 47.5685 17.3352 46.8066 17.2314C46.4575 17.1823 46.1079 17.1311 45.7575 17.0789L45.7126 17.0719C44.5254 16.8958 43.298 16.7136 42.0616 16.6509C39.8021 16.5349 37.796 16.9983 36.1541 18.0243C37.2581 16.8433 38.3861 15.7227 39.5315 14.67C39.8937 14.338 40.3034 14.0033 40.8617 13.5832C40.9048 13.5499 41.0147 13.5109 41.1493 13.503C45.1064 13.3475 48.3992 11.5917 51.2147 8.1363C52.7485 6.25526 53.9244 3.88271 54.8104 0.882849L54.8409 0.779904C54.9355 0.464498 54.9878 0.291024 54.7703 0.0877629C54.6025 -0.0690638 54.307 -0.0226278 53.5391 0.28314C52.8417 0.552549 52.14 0.814074 51.4196 1.08261C49.9721 1.62186 48.475 2.17952 47.0302 2.80945C44.6156 3.86431 42.6874 5.46324 41.3001 7.56112C40.2437 9.15743 39.8261 10.7612 40.0227 12.4556C40.0214 12.4744 40.0048 12.5196 40.0022 12.5248C37.4817 14.7121 35.0724 17.1744 32.5985 20.1051C34.2482 17.57 35.3234 14.6512 35.863 11.2676C36.4069 7.85638 36.4414 4.82016 35.9689 1.98589C35.9388 1.80848 35.8983 1.63106 35.8464 1.40896L35.7693 1.06683C35.7344 0.920084 35.6246 0.801369 35.4803 0.75581C35.3361 0.71288 35.1744 0.750991 35.0667 0.853936C34.8941 1.01733 34.725 1.17153 34.5598 1.32135L34.4434 1.42692C34.0207 1.80979 33.6214 2.17119 33.2601 2.57991C29.7494 6.56059 27.7018 10.7651 27.0005 15.434C26.6811 17.5442 26.8136 19.3406 27.4059 20.9247C27.602 21.4495 27.908 21.9182 28.2126 22.3834C28.3521 22.5959 28.4916 22.8092 28.6193 23.0283C28.7134 23.1855 28.7213 23.2263 28.7208 23.2188C28.6628 23.8431 28.5796 24.5387 28.4672 25.3737C28.4624 25.3842 28.4467 25.4087 28.3965 25.4753L28.356 25.5318C26.4361 28.2141 24.6649 31.0418 23.071 33.9685C23.6977 31.7825 24.1968 29.0157 24.1615 25.8008C24.1187 21.9445 23.2353 18.5053 21.4597 15.2851C21.3895 15.1598 21.2622 15.0783 21.084 15.066C20.9545 15.066 20.8299 15.1304 20.7484 15.2404C20.6952 15.3148 20.6411 15.3849 20.5897 15.4515C20.4751 15.6005 20.3679 15.7415 20.272 15.8922C18.8581 18.1206 18.0997 20.5777 17.5963 22.4697C16.6763 25.9396 16.2535 28.837 16.2657 31.5885C16.2727 33.9273 16.6968 35.7251 17.6007 37.2465C17.8818 37.72 18.2357 38.1344 18.5914 38.5515C18.7801 38.7727 18.974 39.0001 19.1497 39.2331C19.2726 39.3952 19.3319 39.5603 19.3354 39.6523C19.3585 40.2069 19.3463 40.7707 19.3345 41.3157L19.3262 41.6924C19.3249 41.7572 19.3101 41.8317 19.2878 41.8886C18.1529 44.6524 17.1553 47.5248 16.3045 50.4747C16.4296 49.4702 16.5002 48.4977 16.5181 47.5489C16.6209 42.1633 14.9774 37.3538 11.6318 33.2522L10.9345 32.3984C10.8538 32.2981 10.7344 32.2412 10.6071 32.2412L10.5374 32.2473C10.3884 32.2723 10.2628 32.3761 10.211 32.5176C10.1473 32.688 10.085 32.8488 10.0244 33.0043C9.90761 33.3048 9.79735 33.5895 9.70408 33.8791C8.98624 36.1391 8.63408 38.608 8.5626 41.8829L8.56129 41.9469C8.50768 44.3295 8.43403 47.5935 9.4077 50.7169C10.3661 53.7917 12.0563 55.3455 12.3841 55.6246L12.4189 55.6561C13.3111 56.4564 13.8921 57.1884 14.0124 57.6637C14.0608 57.8556 14.11 58.0479 14.1676 58.238C14.4221 59.084 14.263 59.89 14.0913 60.7604C14.0059 61.1998 13.9169 61.6536 13.886 62.1193C13.7631 63.9828 13.6123 65.8779 13.4663 67.7103L13.4532 67.8798C13.4157 68.3472 13.3782 68.8147 13.3412 69.2821C12.969 65.0889 11.5874 61.2773 9.21026 57.9064C7.75455 55.844 6.01902 54.0795 4.05075 52.6606C3.96576 52.5993 3.87641 52.5445 3.75699 52.4731C3.69902 52.4394 3.6319 52.3991 3.5504 52.3478C3.42749 52.2738 3.26971 52.2672 3.14288 52.3294C3.013 52.393 2.92365 52.5222 2.90883 52.6685C2.88225 52.9335 2.8513 53.1902 2.81861 53.4566C2.7528 54.002 2.69048 54.5171 2.68786 55.0463C2.65866 60.5317 3.81321 65.672 6.12057 70.3225C6.76344 71.62 7.6129 72.7423 8.64628 73.6596C9.67095 74.5642 10.7767 75.0978 12.0245 75.2897C12.052 75.2945 12.1173 75.3343 12.1274 75.3422C12.1949 75.4785 12.2651 75.6151 12.3353 75.7523C12.5846 76.2363 12.8422 76.737 12.9703 77.239C13.0771 77.6635 13.0771 78.1274 13.0771 78.6189C13.0771 78.799 13.0771 78.9803 13.0827 79.1582C13.2026 83.4074 13.3599 84.8872 14.0364 88.6839C13.6236 87.555 13.1054 86.423 12.4364 85.334C9.72718 80.9267 6.28532 77.9351 1.91424 76.1894C1.63617 76.0769 1.35723 75.9958 1.03383 75.9012L0.969329 75.8819C0.83814 75.8434 0.699105 75.8022 0.550483 75.7566C0.416243 75.7124 0.263261 75.7426 0.153865 75.8337C0.0449037 75.9244 -0.0121919 76.0633 0.00219098 76.2078C0.0344434 76.5092 0.0566715 76.8023 0.0771561 77.0883C0.122048 77.7157 0.164325 78.3079 0.315563 78.8941C1.72595 84.3694 4.06033 88.7303 7.45163 92.2265C8.90169 93.7212 10.4298 94.578 12.123 94.8466C12.5501 94.9136 13.0723 94.9219 13.9562 94.8667L14.2107 94.8514C14.2495 94.8492 14.2835 94.847 14.3144 94.847C14.3842 94.847 14.3898 94.847 14.4382 94.9188L15.6224 96.5533C15.6377 96.5747 15.6599 96.6523 15.6751 96.7057L15.6926 96.7644C16.9217 100.952 18.4467 104.986 20.245 108.814C19.4356 107.691 18.5487 106.666 17.5602 105.702C13.0143 101.269 5.24234 101.141 4.37109 101.141L4.26257 101.142L4.19414 101.154C3.98057 101.23 3.86508 101.46 3.93089 101.676C3.99147 101.88 4.04813 102.086 4.11307 102.327C4.23729 102.782 4.3663 103.251 4.54717 103.705C5.4084 105.868 6.80441 107.949 8.94135 110.255C10.4097 111.837 12.065 113.441 14.2177 114.455C16.5752 115.567 18.7038 115.839 20.8207 115.294C21.1807 115.199 21.5948 115.079 21.9509 114.846C22.2045 114.683 22.2738 114.688 22.5231 114.875C22.8186 115.096 23.1329 115.281 23.438 115.461C23.6066 115.56 23.7766 115.66 23.9352 115.761C23.9605 115.782 24.0146 115.871 24.0346 115.904C25.934 119.018 28.0265 121.912 30.2859 124.552C29.0638 123.658 27.809 123.011 26.4762 122.581C22.4033 121.262 18.1342 121.43 13.906 123.073C13.2749 123.318 12.5833 123.691 12.5371 123.717C12.4403 123.781 12.3736 123.884 12.3527 124.003C12.3344 124.12 12.3645 124.239 12.4351 124.33C12.5671 124.503 12.6948 124.676 12.8212 124.848L12.8491 124.886C13.1346 125.277 13.458 125.719 13.8206 126.11C15.4537 127.87 17.4678 129.05 19.4012 130.062C22.0598 131.449 24.7786 132.196 27.4826 132.283C27.6098 132.288 27.7371 132.29 27.8639 132.29C30.3513 132.29 32.293 131.466 33.7897 129.781C33.808 129.768 33.8729 129.743 33.9087 129.743C34.4805 129.784 35.024 129.868 35.4302 129.935C35.4943 129.947 35.5732 129.985 35.6224 130.03C38.1228 132.255 40.771 134.208 43.5373 135.87C43.118 135.745 42.6861 135.636 42.2442 135.549C39.2878 134.978 36.2709 135.336 32.9581 136.659C30.7231 137.555 28.6445 138.87 26.6035 140.681C26.4353 140.829 26.4117 141.085 26.5503 141.262C27.2725 142.185 28.2122 142.703 29.0364 143.087C31.0465 144.025 33.3155 144.626 35.9754 144.925C35.9833 144.926 36.838 145 38.0365 145C38.9017 145 39.7067 144.961 40.428 144.884C41.1175 144.812 41.8053 144.693 42.4726 144.532C45.5374 143.782 47.6142 142.24 48.8041 139.846C48.8254 139.825 48.917 139.772 49.0329 139.743C49.586 139.605 50.0837 139.508 50.557 139.444C50.6686 139.427 50.8076 139.457 50.9829 139.528C53.0993 140.347 55.3391 141.03 57.6356 141.557C57.6678 141.565 57.7014 141.569 57.7349 141.569C57.8892 141.569 58.0313 141.483 58.1063 141.344C58.3255 140.934 58.5927 140.541 58.9 140.175C58.9963 140.06 59.025 139.906 58.9775 139.764C58.9322 139.627 58.8171 139.522 58.6698 139.488Z" fill="#FAE054"/>
</svg>
