<svg id="gold_branch_right" width="59" height="145" viewBox="0 0 59 145" fill="none" xmlns="http://www.w3.org/2000/svg">
<path d="M0.33017 139.488C3.15052 138.862 5.95561 137.949 8.90714 136.699C8.94244 136.682 9.03005 136.583 9.05751 136.493C9.3517 135.485 9.4502 134.47 9.35955 133.389C8.78162 126.486 12.8711 119.213 19.0824 116.095C19.2144 116.027 19.3521 115.969 19.5108 115.904L19.6581 115.843C19.798 115.782 19.9684 115.807 20.0813 115.899C20.2033 115.993 20.2639 116.147 20.2391 116.302L20.0691 117.36C19.9183 118.297 19.7705 119.213 19.6289 120.131L19.5932 120.371C19.1944 122.978 18.7821 125.674 17.9788 128.263C17.254 130.6 16.1356 132.444 14.5801 133.857C17.8663 131.909 20.9286 129.568 23.7097 126.876C23.7681 126.82 23.8374 126.67 23.8474 126.547L23.922 124.699C23.9224 124.634 23.9233 124.459 23.8862 124.373C22.5164 121.165 22.1655 117.555 22.8127 113.336C23.4369 109.267 25.1654 105.525 27.9509 102.213C28.2769 101.826 28.5646 101.63 28.806 101.63C28.8649 101.63 28.918 101.641 28.9599 101.663C29.088 101.727 29.1748 101.851 29.1918 101.994L29.2663 102.639C29.3238 103.117 29.3792 103.587 29.4289 104.057C29.5147 104.886 29.6089 105.714 29.7034 106.542L29.7169 106.661C29.9523 108.728 30.1964 110.866 30.3254 113.006C30.4753 115.503 30.4309 118.42 28.9625 121.117C28.9547 121.131 28.9477 121.145 28.9398 121.159C30.9809 118.594 32.8441 115.833 34.5064 112.907C34.6533 112.647 34.666 112.419 34.6385 112.088C34.5204 110.687 33.8727 109.549 33.1906 108.529C31.8731 106.552 31.0755 104.216 30.6043 100.953C29.9458 96.3903 30.6109 91.813 32.58 87.3474C32.634 87.2243 32.6972 87.1055 32.7648 86.9781L32.9187 86.6863C32.9923 86.5439 33.1497 86.4502 33.3157 86.4576C33.4813 86.4664 33.6273 86.572 33.6875 86.7253C34.1652 87.9361 34.6272 89.1027 35.0861 90.2605L35.3794 91.0004C36.3583 93.4715 37.4562 96.3566 38.0943 99.3332C38.5441 101.434 38.5715 103.461 38.1771 105.391C39.7078 101.729 40.9661 97.86 41.9297 93.8478C41.9406 93.8031 41.9441 93.6874 41.8487 93.4207C41.398 92.1809 40.5773 91.0569 39.5374 90.2557C37.261 88.5008 35.9696 86.0616 35.0068 83.9072C33.0355 79.5012 32.5007 74.8205 33.3724 69.5966C33.3815 69.5418 33.3981 69.4875 33.4177 69.4284L33.4334 69.3811C33.4713 69.2641 33.5576 69.1695 33.6718 69.12C33.7834 69.0731 33.9237 69.0819 34.0104 69.1248C34.0976 69.1568 34.2297 69.2054 34.3155 69.332C34.8089 69.9944 35.3097 70.6628 35.8109 71.3309L35.895 71.4435C37.159 73.1304 38.4661 74.8739 39.7222 76.6109C41.1775 78.6176 42.2052 80.5683 42.8646 82.5747C43.1828 83.5436 43.3907 84.4763 43.4887 85.3822C43.9076 82.127 44.1451 78.8034 44.197 75.4522C44.2092 74.6523 44.1081 74.0166 43.5646 73.3206C42.9893 72.5785 42.4519 72.1641 41.7109 71.8907C38.6666 70.7728 36.7135 68.4103 35.3524 66.4771C33.1536 63.3498 31.8639 59.7108 31.4098 55.3521C31.3614 54.9035 31.3339 54.4497 31.3056 53.9696L31.2986 53.8605C31.2851 53.627 31.2707 53.3839 31.2524 53.1263C31.2411 52.9554 31.3322 52.7951 31.4843 52.7176C31.6316 52.6431 31.8203 52.665 31.9485 52.7741L32.3098 53.0851C32.4458 53.2016 32.5621 53.3015 32.6829 53.3988C33.263 53.867 33.8453 54.3305 34.4289 54.7953L34.4899 54.8435C35.7708 55.8633 37.0958 56.9177 38.361 58.0068C40.8161 60.1112 42.3969 62.206 43.3362 64.6C43.4914 64.9947 43.6273 65.385 43.7441 65.7714C43.358 61.9673 42.7308 58.221 41.8696 54.5864C41.765 54.1417 41.7066 54.0112 41.4917 53.9402C41.3566 53.8942 41.2306 53.8057 41.1387 53.6962C40.5141 52.9826 39.6917 52.8696 38.8949 52.8534C36.2363 52.7907 34.1277 51.4577 32.4161 50.1619C28.2194 46.9851 25.3297 38.9247 25.3297 38.6514C25.3297 38.509 25.4003 38.3763 25.5202 38.2961C25.6383 38.2177 25.7978 38.2067 25.9181 38.2606C26.7924 38.6334 27.6667 38.9966 28.572 39.3728C30.5638 40.203 32.6232 41.0607 34.601 41.9986C36.5915 42.9453 38.1645 44.2113 39.2889 45.769C38.2172 42.7083 36.9746 39.7075 35.5834 36.8238C35.4234 36.5127 34.6721 36.1824 33.5946 36.1824C33.2442 36.1824 32.9047 36.2201 32.6114 36.2911C30.08 36.9009 27.57 36.5311 24.7919 35.1359C21.9498 33.7078 19.5919 31.3729 17.5835 27.9959C17.5451 27.9306 17.4697 27.7313 17.4292 27.6196C17.3782 27.4829 17.3987 27.3322 17.4832 27.2179C17.5617 27.1093 17.6872 27.0444 17.8472 27.0444C17.8485 27.0444 17.8494 27.0444 17.8507 27.0444L18.854 27.108C19.4689 27.1469 20.0661 27.185 20.6632 27.2157L21.3008 27.2481C23.2046 27.3445 25.1737 27.4435 27.1001 27.9048C29.2972 28.4357 30.9103 29.251 32.1472 30.46C30.6832 28.0108 29.1155 25.6803 27.4641 23.4974C27.4196 23.4396 27.2065 23.3511 27.0317 23.3218C26.9445 23.3012 26.6272 23.2342 26.2054 23.2342C25.6457 23.2342 25.1558 23.3485 24.7405 23.578C22.1014 24.8751 19.1377 24.9715 15.9199 23.8606C13.2804 22.9542 11.045 21.2708 9.0854 18.7155C9.02177 18.6332 8.96424 18.5434 8.91194 18.4488C8.85223 18.3397 8.8483 18.2196 8.9006 18.1101C9.05228 17.7903 9.70866 17.6401 9.98499 17.5901C10.6632 17.471 11.4315 17.3352 12.1934 17.2314C12.5425 17.1823 12.8921 17.1311 13.2425 17.0789L13.2874 17.0719C14.4746 16.8958 15.702 16.7136 16.9384 16.6509C19.1979 16.5349 21.204 16.9983 22.8459 18.0243C21.7419 16.8433 20.6139 15.7227 19.4685 14.67C19.1063 14.338 18.6966 14.0033 18.1383 13.5832C18.0952 13.5499 17.9853 13.5109 17.8507 13.503C13.8936 13.3475 10.6008 11.5917 7.78528 8.1363C6.25154 6.25526 5.07564 3.88271 4.18957 0.882849L4.15906 0.779904C4.06448 0.464498 4.01218 0.291024 4.22966 0.0877629C4.39746 -0.0690638 4.69297 -0.0226278 5.46093 0.28314C6.15828 0.552549 6.85999 0.814074 7.58043 1.08261C9.02787 1.62186 10.525 2.17952 11.9698 2.80945C14.3844 3.86431 16.3126 5.46324 17.6999 7.56112C18.7563 9.15743 19.1739 10.7612 18.9773 12.4556C18.9786 12.4744 18.9952 12.5196 18.9978 12.5248C21.5183 14.7121 23.9276 17.1744 26.4015 20.1051C24.7518 17.57 23.6766 14.6512 23.137 11.2676C22.5931 7.85638 22.5586 4.82016 23.0311 1.98589C23.0612 1.80848 23.1017 1.63106 23.1536 1.40896L23.2307 1.06683C23.2656 0.920084 23.3754 0.801369 23.5197 0.75581C23.6639 0.71288 23.8256 0.750991 23.9333 0.853936C24.1059 1.01733 24.275 1.17153 24.4402 1.32135L24.5566 1.42692C24.9793 1.80979 25.3786 2.17119 25.7399 2.57991C29.2506 6.56059 31.2982 10.7651 31.9995 15.434C32.3189 17.5442 32.1864 19.3406 31.5941 20.9247C31.398 21.4495 31.092 21.9182 30.7874 22.3834C30.6479 22.5959 30.5084 22.8092 30.3807 23.0283C30.2866 23.1855 30.2787 23.2263 30.2792 23.2188C30.3372 23.8431 30.4204 24.5387 30.5328 25.3737C30.5376 25.3842 30.5533 25.4087 30.6035 25.4753L30.644 25.5318C32.5639 28.2141 34.3351 31.0418 35.929 33.9685C35.3023 31.7825 34.8032 29.0157 34.8385 25.8008C34.8813 21.9445 35.7647 18.5053 37.5403 15.2851C37.6105 15.1598 37.7378 15.0783 37.916 15.066C38.0455 15.066 38.1701 15.1304 38.2516 15.2404C38.3048 15.3148 38.3589 15.3849 38.4103 15.4515C38.5249 15.6005 38.6321 15.7415 38.728 15.8922C40.1419 18.1206 40.9003 20.5777 41.4037 22.4697C42.3237 25.9396 42.7465 28.837 42.7343 31.5885C42.7273 33.9273 42.3032 35.7251 41.3993 37.2465C41.1182 37.72 40.7643 38.1344 40.4086 38.5515C40.2199 38.7727 40.026 39.0001 39.8503 39.2331C39.7274 39.3952 39.6681 39.5603 39.6646 39.6523C39.6415 40.2069 39.6537 40.7707 39.6655 41.3157L39.6738 41.6924C39.6751 41.7572 39.6899 41.8317 39.7122 41.8886C40.8471 44.6524 41.8447 47.5248 42.6955 50.4747C42.5704 49.4702 42.4998 48.4977 42.4819 47.5489C42.3791 42.1633 44.0226 37.3538 47.3682 33.2522L48.0655 32.3984C48.1462 32.2981 48.2656 32.2412 48.3929 32.2412L48.4626 32.2473C48.6116 32.2723 48.7372 32.3761 48.789 32.5176C48.8527 32.688 48.915 32.8488 48.9756 33.0043C49.0924 33.3048 49.2027 33.5895 49.2959 33.8791C50.0138 36.1391 50.3659 38.608 50.4374 41.8829L50.4387 41.9469C50.4923 44.3295 50.566 47.5935 49.5923 50.7169C48.6339 53.7917 46.9437 55.3455 46.6159 55.6246L46.5811 55.6561C45.6889 56.4564 45.1079 57.1884 44.9876 57.6637C44.9392 57.8556 44.89 58.0479 44.8324 58.238C44.5779 59.084 44.737 59.89 44.9087 60.7604C44.9941 61.1998 45.0831 61.6536 45.114 62.1193C45.2369 63.9828 45.3877 65.8779 45.5337 67.7103L45.5468 67.8798C45.5843 68.3472 45.6218 68.8147 45.6588 69.2821C46.031 65.0889 47.4126 61.2773 49.7897 57.9064C51.2455 55.844 52.981 54.0795 54.9493 52.6606C55.0342 52.5993 55.1236 52.5445 55.243 52.4731C55.301 52.4394 55.3681 52.3991 55.4496 52.3478C55.5725 52.2738 55.7303 52.2672 55.8571 52.3294C55.987 52.393 56.0763 52.5222 56.0912 52.6685C56.1178 52.9335 56.1487 53.1902 56.1814 53.4566C56.2472 54.002 56.3095 54.5171 56.3121 55.0463C56.3413 60.5317 55.1868 65.672 52.8794 70.3225C52.2366 71.62 51.3871 72.7423 50.3537 73.6596C49.329 74.5642 48.2233 75.0978 46.9755 75.2897C46.948 75.2945 46.8827 75.3343 46.8726 75.3422C46.8051 75.4785 46.7349 75.6151 46.6647 75.7523C46.4154 76.2363 46.1578 76.737 46.0297 77.239C45.9229 77.6635 45.9229 78.1274 45.9229 78.6189C45.9229 78.799 45.9229 78.9803 45.9173 79.1582C45.7974 83.4074 45.6401 84.8872 44.9636 88.6839C45.3764 87.555 45.8946 86.423 46.5636 85.334C49.2728 80.9267 52.7147 77.9351 57.0858 76.1894C57.3638 76.0769 57.6428 75.9958 57.9662 75.9012L58.0307 75.8819C58.1619 75.8434 58.3009 75.8022 58.4495 75.7566C58.5838 75.7124 58.7367 75.7426 58.8461 75.8337C58.9551 75.9244 59.0122 76.0633 58.9978 76.2078C58.9656 76.5092 58.9433 76.8023 58.9228 77.0883C58.878 77.7157 58.8357 78.3079 58.6844 78.8941C57.274 84.3694 54.9397 88.7303 51.5484 92.2265C50.0983 93.7212 48.5702 94.578 46.877 94.8466C46.4499 94.9136 45.9277 94.9219 45.0438 94.8667L44.7893 94.8514C44.7505 94.8492 44.7165 94.847 44.6856 94.847C44.6158 94.847 44.6102 94.847 44.5618 94.9188L43.3776 96.5533C43.3623 96.5747 43.3401 96.6523 43.3249 96.7057L43.3074 96.7644C42.0783 100.952 40.5533 104.986 38.755 108.814C39.5644 107.691 40.4513 106.666 41.4398 105.702C45.9857 101.269 53.7577 101.141 54.6289 101.141L54.7374 101.142L54.8059 101.154C55.0194 101.23 55.1349 101.46 55.0691 101.676C55.0085 101.88 54.9519 102.086 54.8869 102.327C54.7627 102.782 54.6337 103.251 54.4528 103.705C53.5916 105.868 52.1956 107.949 50.0587 110.255C48.5903 111.837 46.935 113.441 44.7823 114.455C42.4248 115.567 40.2962 115.839 38.1793 115.294C37.8193 115.199 37.4052 115.079 37.0491 114.846C36.7955 114.683 36.7262 114.688 36.4769 114.875C36.1814 115.096 35.8671 115.281 35.562 115.461C35.3934 115.56 35.2234 115.66 35.0648 115.761C35.0395 115.782 34.9854 115.871 34.9654 115.904C33.066 119.018 30.9735 121.912 28.7141 124.552C29.9362 123.658 31.191 123.011 32.5238 122.581C36.5967 121.262 40.8658 121.43 45.094 123.073C45.7251 123.318 46.4167 123.691 46.4629 123.717C46.5597 123.781 46.6264 123.884 46.6473 124.003C46.6656 124.12 46.6355 124.239 46.5649 124.33C46.4329 124.503 46.3052 124.676 46.1788 124.848L46.1509 124.886C45.8654 125.277 45.542 125.719 45.1794 126.11C43.5463 127.87 41.5322 129.05 39.5988 130.062C36.9402 131.449 34.2214 132.196 31.5174 132.283C31.3902 132.288 31.2629 132.29 31.1361 132.29C28.6487 132.29 26.707 131.466 25.2103 129.781C25.192 129.768 25.1271 129.743 25.0913 129.743C24.5195 129.784 23.976 129.868 23.5698 129.935C23.5057 129.947 23.4268 129.985 23.3776 130.03C20.8772 132.255 18.229 134.208 15.4627 135.87C15.882 135.745 16.3139 135.636 16.7558 135.549C19.7122 134.978 22.7291 135.336 26.0419 136.659C28.2769 137.555 30.3555 138.87 32.3965 140.681C32.5647 140.829 32.5883 141.085 32.4497 141.262C31.7275 142.185 30.7878 142.703 29.9636 143.087C27.9535 144.025 25.6845 144.626 23.0246 144.925C23.0167 144.926 22.162 145 20.9635 145C20.0983 145 19.2933 144.961 18.572 144.884C17.8825 144.812 17.1947 144.693 16.5274 144.532C13.4626 143.782 11.3858 142.24 10.1959 139.846C10.1746 139.825 10.083 139.772 9.96711 139.743C9.41403 139.605 8.91629 139.508 8.44297 139.444C8.33139 139.427 8.19236 139.457 8.01715 139.528C5.90069 140.347 3.66089 141.03 1.36443 141.557C1.33218 141.565 1.29862 141.569 1.26506 141.569C1.11077 141.569 0.968681 141.483 0.893715 141.344C0.674488 140.934 0.407314 140.541 0.100044 140.175C0.00372314 140.06 -0.0250397 139.906 0.0224686 139.764C0.0677948 139.627 0.182854 139.522 0.33017 139.488Z" fill="#FAE054"/>
</svg>
