<svg width="24" height="25" viewBox="0 0 24 25" fill="white" xmlns="http://www.w3.org/2000/svg">
    <path d="M13.2 0.56V2.984C17.94 3.572 21.6 7.604 21.6 12.5C21.6 16.352 19.296 19.7 15.936 21.236L13.2 18.5V24.5H19.2L17.736 23.036C21.492 20.984 24 17.012 24 12.5C24 6.284 19.26 1.16 13.2 0.56ZM10.8 0.5C8.46 0.74 6.24 1.652 4.416 3.152L6.12 4.856C7.48212 3.80598 9.0958 3.13154 10.8 2.9V0.5ZM2.64 4.916C1.152 6.74 0.24 8.96 0 11.3H2.4C2.628 9.596 3.3 7.976 4.356 6.62L2.64 4.916ZM4.8 7.7V10.1H8.4V11.3H7.2C5.88 11.3 4.8 12.38 4.8 13.7V17.3H10.8V14.9H7.2V13.7H8.4C9.732 13.7 10.8 12.632 10.8 11.3V10.1C10.8 9.46348 10.5471 8.85303 10.0971 8.40294C9.64697 7.95286 9.03652 7.7 8.4 7.7H4.8ZM12 7.7V13.7H15.6V17.3H18V13.7H19.2V11.3H18V7.7H15.6V11.3H14.4V7.7H12ZM0 13.7C0.24 16.04 1.164 18.26 2.664 20.084L4.368 18.38C3.31441 17.0187 2.63588 15.4051 2.4 13.7H0ZM6.132 20.144L4.416 21.848C6.23926 23.3366 8.45863 24.2586 10.8 24.5V22.1C9.09801 21.8737 7.48689 21.1986 6.132 20.144Z" fill-opacity="0.5"/>
</svg>
