<svg viewBox="0 0 24 24" stroke="white" fill="none" xmlns="http://www.w3.org/2000/svg">
<path d="M9.82739 9.17231C9.26803 8.61278 8.5553 8.23169 7.77934 8.07725C7.00338 7.92282 6.19905 8.00196 5.46808 8.30467C4.73711 8.60739 4.11232 9.12008 3.67274 9.7779C3.23316 10.4357 2.99854 11.2091 2.99854 12.0003C2.99854 12.7915 3.23316 13.5649 3.67274 14.2227C4.11232 14.8805 4.73711 15.3932 5.46808 15.6959C6.19905 15.9987 7.00338 16.0778 7.77934 15.9234C8.5553 15.7689 9.26803 15.3878 9.82739 14.8283C10.715 14.0234 11.4507 13.0655 11.9994 12.0003C12.5481 10.9351 13.2838 9.97723 14.1714 9.17231C14.7308 8.61278 15.4435 8.23169 16.2194 8.07725C16.9954 7.92282 17.7997 8.00196 18.5307 8.30467C19.2617 8.60739 19.8865 9.12008 20.326 9.7779C20.7656 10.4357 21.0002 11.2091 21.0002 12.0003C21.0002 12.7915 20.7656 13.5649 20.326 14.2227C19.8865 14.8805 19.2617 15.3932 18.5307 15.6959C17.7997 15.9987 16.9954 16.0778 16.2194 15.9234C15.4435 15.7689 14.7308 15.3878 14.1714 14.8283C13.2838 14.0234 12.5481 13.0655 11.9994 12.0003C11.4507 10.9351 10.715 9.97723 9.82739 9.17231" stroke-linecap="round" stroke-linejoin="round"/>
</svg>
