<svg viewBox="0 0 24 24" fill="none" xmlns="http://www.w3.org/2000/svg">
<rect width="24" height="24" rx="12" fill="white"/>
<path fill-rule="evenodd" clip-rule="evenodd" d="M11.25 7.99998C11.25 7.58577 11.5858 7.24998 12 7.24998H12.01C12.4242 7.24998 12.76 7.58577 12.76 7.99998C12.76 8.4142 12.4242 8.74998 12.01 8.74998H12C11.5858 8.74998 11.25 8.4142 11.25 7.99998Z" fill="#343A4D"/>
<path fill-rule="evenodd" clip-rule="evenodd" d="M10.25 12C10.25 11.5858 10.5858 11.25 11 11.25H12C12.4142 11.25 12.75 11.5858 12.75 12V15.25H13C13.4142 15.25 13.75 15.5858 13.75 16C13.75 16.4142 13.4142 16.75 13 16.75H12C11.5858 16.75 11.25 16.4142 11.25 16V12.75H11C10.5858 12.75 10.25 12.4142 10.25 12Z" fill="#343A4D"/>
</svg>
