<svg width="35" height="36" viewBox="0 0 35 36" fill="none" xmlns="http://www.w3.org/2000/svg">
    <path d="M33.9333 8.93333H25.4333V1.56667C25.4333 1.25373 25.1796 1 24.8667 1H1.06667C0.753727 1 0.5 1.25373 0.5 1.56667V29.9C0.503044 32.7153 2.78465 34.997 5.6 35H29.4C32.2153 34.997 34.497 32.7153 34.5 29.9V9.5C34.5 9.18706 34.2463 8.93333 33.9333 8.93333ZM26.1978 33.8667H5.6C3.41025 33.8642 1.63582 32.0897 1.63333 29.9V2.13333H24.3V29.9C24.3006 30.0868 24.3113 30.2733 24.3324 30.4586C24.3385 30.5192 24.3509 30.5776 24.3595 30.6377C24.3778 30.7602 24.3963 30.8814 24.4229 31.0004C24.4383 31.0696 24.4574 31.1365 24.4757 31.2043C24.5039 31.3122 24.5324 31.4188 24.5692 31.5228C24.5925 31.592 24.6185 31.66 24.6445 31.7281C24.6824 31.8277 24.7239 31.9262 24.7693 32.0233C24.7992 32.0895 24.8304 32.1548 24.8633 32.2187C24.9126 32.3153 24.9657 32.4079 25.0208 32.502C25.0565 32.5623 25.0916 32.6229 25.1295 32.6813C25.1921 32.7765 25.2593 32.8681 25.3279 32.9594C25.3653 33.0086 25.4004 33.0604 25.4414 33.1085C25.5318 33.2217 25.629 33.3271 25.7286 33.4309C25.7507 33.4536 25.7701 33.4785 25.7919 33.5006C25.9153 33.624 26.0451 33.741 26.1801 33.8514C26.1854 33.8548 26.1909 33.8617 26.1978 33.8667ZM33.3667 29.9C33.3667 32.0909 31.5909 33.8667 29.4 33.8667C27.2091 33.8667 25.4333 32.0909 25.4333 29.9V10.0667H33.3667V29.9Z" fill="white" stroke="white" stroke-width="0.5"/>
    <path d="M21.4669 5.53125H4.46694C4.154 5.53125 3.90027 5.78498 3.90027 6.09792V11.7646C3.90027 12.0775 4.154 12.3312 4.46694 12.3312H21.4669C21.7799 12.3312 22.0336 12.0775 22.0336 11.7646V6.09792C22.0336 5.78498 21.7799 5.53125 21.4669 5.53125ZM20.9003 11.1979H5.0336V6.66458H20.9003V11.1979Z" fill="white" stroke="white" stroke-width="0.5"/>
    <path d="M21.4669 15.7344H4.46694C4.154 15.7344 3.90027 15.9881 3.90027 16.301C3.90027 16.614 4.154 16.8677 4.46694 16.8677H21.4669C21.7799 16.8677 22.0336 16.614 22.0336 16.301C22.0336 15.9881 21.7799 15.7344 21.4669 15.7344Z" fill="white" stroke="white" stroke-width="0.5"/>
    <path d="M21.4669 19.1328H4.46694C4.154 19.1328 3.90027 19.3865 3.90027 19.6995C3.90027 20.0124 4.154 20.2661 4.46694 20.2661H21.4669C21.7799 20.2661 22.0336 20.0124 22.0336 19.6995C22.0336 19.3865 21.7799 19.1328 21.4669 19.1328Z" fill="white" stroke="white" stroke-width="0.5"/>
    <path d="M21.4669 22.5312H4.46694C4.154 22.5312 3.90027 22.785 3.90027 23.0979C3.90027 23.4109 4.154 23.6646 4.46694 23.6646H21.4669C21.7799 23.6646 22.0336 23.4109 22.0336 23.0979C22.0336 22.785 21.7799 22.5312 21.4669 22.5312Z" fill="white" stroke="white" stroke-width="0.5"/>
</svg>
