<svg id="f85d6152-c152-44fd-87ca-9f2f7a911237" data-name="a239fe10-42dc-4f9c-ab1f-bcabd992189e" xmlns="http://www.w3.org/2000/svg" viewBox="0 0 15.16 19.14"><path d="M7,9.17a4.42,4.42,0,0,0,4.5-4.33A4.42,4.42,0,0,0,7,.5H7A4.43,4.43,0,0,0,2.5,4.84,4.42,4.42,0,0,0,7,9.17Z" transform="translate(0 0)" fill="none" stroke="#fff" stroke-linecap="round" stroke-linejoin="round"/><path d="M10.23,13.3a1.93,1.93,0,0,1,1.49,0,2,2,0,0,1,.63.43.3.3,0,0,1,0,.41.27.27,0,0,1-.4,0,1.37,1.37,0,0,0-.45-.3,1.31,1.31,0,0,0-.52-.11,1.42,1.42,0,0,0-1,.41h0L8.13,16.05a1.4,1.4,0,0,0,0,2,1.36,1.36,0,0,0,1,.41,1.35,1.35,0,0,0,1-.41l.24-.24a.28.28,0,0,1,.4,0,.3.3,0,0,1,0,.41l-.24.24a1.93,1.93,0,0,1-2.74,0,2,2,0,0,1,0-2.8L9.6,13.73A2.08,2.08,0,0,1,10.23,13.3Z" transform="translate(0 0)" fill="#fff" stroke="#fff" stroke-miterlimit="10" stroke-width="0.25" fill-rule="evenodd"/><path d="M.5,18.55v-2a4.15,4.15,0,0,1,1.08-2.83,3.51,3.51,0,0,1,2.59-1.17H7.5" transform="translate(0 0)" fill="none" stroke="#fff" stroke-linecap="round" stroke-linejoin="round"/><path d="M11.76,11.73a1.88,1.88,0,0,1,2.72,0,2,2,0,0,1,0,2.79l-1.86,1.91a2.06,2.06,0,0,1-.62.44,1.9,1.9,0,0,1-1.48,0,2.06,2.06,0,0,1-.62-.44.28.28,0,0,1,0-.4.28.28,0,0,1,.4,0,1.25,1.25,0,0,0,.44.31,1.28,1.28,0,0,0,1,0,1.25,1.25,0,0,0,.44-.31h0l1.86-1.91a1.44,1.44,0,0,0,0-2,1.34,1.34,0,0,0-1-.41,1.38,1.38,0,0,0-1,.41l-.23.24a.27.27,0,0,1-.39,0,.28.28,0,0,1,0-.4Z" transform="translate(0 0)" fill="#fff" stroke="#fff" stroke-miterlimit="10" stroke-width="0.25" fill-rule="evenodd"/></svg>