<svg viewBox="0 0 20 20" fill="none" xmlns="http://www.w3.org/2000/svg">
<path fill-rule="evenodd" clip-rule="evenodd" d="M11.3138 3.8131C11.9601 3.1668 12.8366 2.80371 13.7507 2.80371C14.6647 2.80371 15.5412 3.1668 16.1875 3.8131C16.8338 4.45941 17.1969 5.33598 17.1969 6.24999C17.1969 7.164 16.8338 8.04057 16.1875 8.68688L12.856 12.0184C12.5382 12.3422 12.1592 12.5995 11.7409 12.7753C11.3219 12.9514 10.8719 13.0421 10.4173 13.0421C9.96277 13.0421 9.51279 12.9514 9.09373 12.7753C8.67467 12.5992 8.29496 12.3413 7.97684 12.0166C7.78358 11.8193 7.78681 11.5028 7.98406 11.3095C8.1813 11.1163 8.49787 11.1195 8.69113 11.3167C8.91614 11.5464 9.18471 11.7288 9.48112 11.8534C9.77753 11.9779 10.0958 12.0421 10.4173 12.0421C10.7388 12.0421 11.0571 11.9779 11.3535 11.8534C11.6499 11.7288 11.9185 11.5464 12.1435 11.3167L12.1471 11.3131L12.1471 11.3131L15.4804 7.97977C15.9392 7.521 16.1969 6.89878 16.1969 6.24999C16.1969 5.6012 15.9392 4.97898 15.4804 4.52021C15.0217 4.06144 14.3994 3.80371 13.7507 3.80371C13.1019 3.80371 12.4796 4.06144 12.0209 4.52021L11.6042 4.93688C11.4089 5.13214 11.0924 5.13214 10.8971 4.93688C10.7018 4.74161 10.7018 4.42503 10.8971 4.22977L11.3138 3.8131Z" fill="white"/>
<path fill-rule="evenodd" clip-rule="evenodd" d="M8.26071 7.22468C8.67976 7.04859 9.12975 6.95789 9.5843 6.95789C10.0388 6.95789 10.4888 7.04859 10.9079 7.22468C11.3269 7.40077 11.7067 7.6587 12.0248 7.98338C12.218 8.18063 12.2148 8.49719 12.0176 8.69045C11.8203 8.88371 11.5037 8.88048 11.3105 8.68324C11.0855 8.45359 10.8169 8.27114 10.5205 8.14659C10.2241 8.02204 9.90581 7.95789 9.5843 7.95789C9.26279 7.95789 8.94451 8.02204 8.6481 8.14659C8.35169 8.27114 8.08312 8.45359 7.85811 8.68324L7.85454 8.68688L7.85452 8.68686L4.52119 12.0202C4.06242 12.479 3.80469 13.1012 3.80469 13.75C3.80469 14.3988 4.06242 15.021 4.52119 15.4798C4.97995 15.9385 5.60217 16.1963 6.25097 16.1963C6.89976 16.1963 7.52198 15.9385 7.98074 15.4798L8.39741 15.0631C8.59267 14.8678 8.90926 14.8678 9.10452 15.0631C9.29978 15.2584 9.29978 15.5749 9.10452 15.7702L8.68785 16.1869C8.04155 16.8332 7.16497 17.1963 6.25097 17.1963C5.33696 17.1963 4.46038 16.8332 3.81408 16.1869C3.16778 15.5406 2.80469 14.664 2.80469 13.75C2.80469 12.836 3.16778 11.9594 3.81408 11.3131L7.14568 7.98149C7.46342 7.6577 7.84247 7.40042 8.26071 7.22468Z" fill="white"/>
</svg>
