<svg viewBox="0 0 24 24" fill="white" xmlns="http://www.w3.org/2000/svg">
<path fill-rule="evenodd" clip-rule="evenodd" d="M4.23223 7.23223C4.70107 6.76339 5.33696 6.5 6 6.5H11C11.2761 6.5 11.5 6.72386 11.5 7C11.5 7.27614 11.2761 7.5 11 7.5H6C5.60217 7.5 5.22064 7.65804 4.93934 7.93934C4.65804 8.22064 4.5 8.60218 4.5 9V18C4.5 18.3978 4.65804 18.7794 4.93934 19.0607C5.22064 19.342 5.60218 19.5 6 19.5H15C15.3978 19.5 15.7794 19.342 16.0607 19.0607C16.342 18.7794 16.5 18.3978 16.5 18V13C16.5 12.7239 16.7239 12.5 17 12.5C17.2761 12.5 17.5 12.7239 17.5 13V18C17.5 18.663 17.2366 19.2989 16.7678 19.7678C16.2989 20.2366 15.663 20.5 15 20.5H6C5.33696 20.5 4.70107 20.2366 4.23223 19.7678C3.76339 19.2989 3.5 18.663 3.5 18V9C3.5 8.33696 3.76339 7.70107 4.23223 7.23223Z" />
<path fill-rule="evenodd" clip-rule="evenodd" d="M20.3536 3.64645C20.5488 3.84171 20.5488 4.15829 20.3536 4.35355L10.3536 14.3536C10.1583 14.5488 9.84171 14.5488 9.64645 14.3536C9.45118 14.1583 9.45118 13.8417 9.64645 13.6464L19.6464 3.64645C19.8417 3.45118 20.1583 3.45118 20.3536 3.64645Z" />
<path fill-rule="evenodd" clip-rule="evenodd" d="M14.5 4C14.5 3.72386 14.7239 3.5 15 3.5H20C20.2761 3.5 20.5 3.72386 20.5 4V9C20.5 9.27614 20.2761 9.5 20 9.5C19.7239 9.5 19.5 9.27614 19.5 9V4.5H15C14.7239 4.5 14.5 4.27614 14.5 4Z" />
</svg>
