<svg width="32" height="35" viewBox="0 0 32 35" fill="none" xmlns="http://www.w3.org/2000/svg">
    <path d="M3.97761 0C1.78197 0 0 1.78197 0 3.97761V7.67519C0.000847418 8.52589 0.229034 9.3609 0.660941 10.0938C1.09285 10.8267 1.71278 11.4309 2.45657 11.8437L11.6082 16.9319C9.69135 17.8996 8.15671 19.4853 7.25226 21.4329C6.34782 23.3804 6.12641 25.5761 6.6238 27.665C7.12119 29.7539 8.30833 31.6141 9.99341 32.9451C11.6785 34.276 13.7631 35 15.9104 35C18.0577 35 20.1423 34.276 21.8274 32.9451C23.5125 31.6141 24.6997 29.7539 25.1971 27.665C25.6944 25.5761 25.473 23.3804 24.5686 21.4329C23.6641 19.4853 22.1295 17.8996 20.2126 16.9319L29.3675 11.8469C30.1111 11.4334 30.7307 10.8285 31.1621 10.095C31.5934 9.36157 31.8209 8.52611 31.8209 7.67519V3.97761C31.8209 1.78197 30.0389 0 27.8432 0H3.97761ZM12.7283 13.9121V3.18209H19.0925V13.9121L15.9104 15.6813L12.7283 13.9121ZM22.2746 25.4567C22.2746 27.1446 21.6041 28.7633 20.4106 29.9568C19.2171 31.1503 17.5983 31.8209 15.9104 31.8209C14.2225 31.8209 12.6038 31.1503 11.4103 29.9568C10.2168 28.7633 9.54626 27.1446 9.54626 25.4567C9.54626 23.7688 10.2168 22.15 11.4103 20.9565C12.6038 19.763 14.2225 19.0925 15.9104 19.0925C17.5983 19.0925 19.2171 19.763 20.4106 20.9565C21.6041 22.15 22.2746 23.7688 22.2746 25.4567Z" fill="white"/>
</svg>
