<svg x="0px" y="0px" viewBox="0 0 24 24">
<style type="text/css">
	.st0{fill:none;stroke:#ADADAD;stroke-miterlimit:10;}
	.st1{fill:none;stroke:#ADADAD;stroke-linecap:round;stroke-linejoin:round;stroke-miterlimit:10;}
</style>
<path class="st0" d="M11.6,3.4l8.6,9.1c0.7,0.7,0.4,1.9-0.5,2.3L5.7,21c-0.6,0.3-1.2,0.1-1.7-0.4l-1.4-1.5c-0.4-0.4-0.5-1.1-0.2-1.6
	L9.2,3.8C9.6,2.9,10.9,2.7,11.6,3.4z"/>
<line class="st1" x1="15.6" y1="3.7" x2="16.2" y2="1.8"/>
<line class="st1" x1="19.7" y1="7.8" x2="21.7" y2="7.8"/>
<line class="st1" x1="18" y1="5.4" x2="20.4" y2="3"/>
<path class="st1" d="M7.5,20.4c0.6,1.2,1.8,2,3.2,2c2,0,3.6-1.6,3.6-3.6c0-0.4-0.1-0.9-0.2-1.3"/>
</svg>
