<svg x="0px" y="0px" viewBox="0 0 24 24">
<style type="text/css">
	.st0{fill:#ADADAD;}
	.st1{fill:#FFFFFF;}
</style>
<path class="st0" d="M9.2,3.8c0,0,1.5-1.4,2.1-0.5s-0.5,2.4-0.5,2.4L3.1,19.2l-0.9-1.3L9.2,3.8z"/>
<g>
	<path class="st1" d="M11.9,3.1L11.9,3.1c-0.4-0.5-1.1-0.7-1.7-0.6C9.6,2.6,9,3,8.7,3.6L2,17.3c-0.4,0.7-0.2,1.6,0.3,2.2L3.6,21
		c0.4,0.4,0.9,0.6,1.4,0.6c0.3,0,0.5-0.1,0.8-0.2l1.4-0.6c0.7,1.2,2,2,3.5,2c2.3,0,4.1-1.8,4.1-4.1c0-0.4-0.1-0.7-0.2-1.1l5.2-2.3
		c0.6-0.3,1-0.8,1.1-1.4s-0.1-1.3-0.5-1.7L11.9,3.1z M2.9,17.7L9.6,4c0.1-0.3,0.4-0.5,0.7-0.5c0,0,0.1,0,0.1,0
		c0.2,0,0.4,0.1,0.6,0.2L2.9,18.6C2.8,18.3,2.7,18,2.9,17.7z M13.8,18.8c0,1.7-1.4,3.1-3.1,3.1c-1,0-2-0.5-2.6-1.4l5.6-2.4
		C13.8,18.3,13.8,18.5,13.8,18.8z"/>
	<path class="st1" d="M15.4,4.2c0.1,0,0.1,0,0.2,0C15.8,4.2,16,4,16,3.8l0.6-1.9c0.1-0.3-0.1-0.5-0.3-0.6c-0.3-0.1-0.5,0.1-0.6,0.3
		l-0.6,1.9C15,3.8,15.2,4.1,15.4,4.2z"/>
	<path class="st1" d="M21.7,7.3h-2c-0.3,0-0.5,0.2-0.5,0.5s0.2,0.5,0.5,0.5h2c0.3,0,0.5-0.2,0.5-0.5S22,7.3,21.7,7.3z"/>
	<path class="st1" d="M18,5.9c0.1,0,0.2,0,0.3-0.1l2.5-2.4c0.2-0.2,0.2-0.5,0-0.7c-0.2-0.2-0.5-0.2-0.7,0L17.6,5
		c-0.2,0.2-0.2,0.5,0,0.7C17.7,5.9,17.8,5.9,18,5.9z"/>
</g>
</svg>
