<svg width="20" height="20" viewBox="0 0 20 20" fill="white" xmlns="http://www.w3.org/2000/svg">
<path d="M7.49999 9.16667C9.34094 9.16667 10.8333 7.67428 10.8333 5.83333C10.8333 3.99238 9.34094 2.5 7.49999 2.5C5.65904 2.5 4.16666 3.99238 4.16666 5.83333C4.16666 7.67428 5.65904 9.16667 7.49999 9.16667Z" />
<path d="M2.5 17.5V14.8333C2.5 13.9493 2.85119 13.1014 3.47631 12.4763C4.10143 11.8512 4.94928 11.5 5.83333 11.5H9.16667C10.0507 11.5 10.8986 11.8512 11.5237 12.4763C12.1488 13.1014 12.5 13.9493 12.5 14.8333V17.5" />
<path fill-rule="evenodd" clip-rule="evenodd" d="M15.8333 6.16675C16.1095 6.16675 16.3333 6.39061 16.3333 6.66675V8.66675H18.3333C18.6095 8.66675 18.8333 8.8906 18.8333 9.16675C18.8333 9.44289 18.6095 9.66675 18.3333 9.66675H16.3333V11.6667C16.3333 11.9429 16.1095 12.1667 15.8333 12.1667C15.5572 12.1667 15.3333 11.9429 15.3333 11.6667V9.66675H13.3333C13.0572 9.66675 12.8333 9.44289 12.8333 9.16675C12.8333 8.8906 13.0572 8.66675 13.3333 8.66675H15.3333V6.66675C15.3333 6.39061 15.5572 6.16675 15.8333 6.16675Z" />
</svg>
