<svg viewBox="0 0 24 24" fill="none" stroke="#8B8C8C" xmlns="http://www.w3.org/2000/svg">
<path d="M4 23C4.9997 22.1626 6.36928 21.9477 7.3828 20.8671C7.82527 20.5189 8.23455 20.2232 8.49035 19.7589C8.70606 19.3678 10.3819 15.2238 8.55396 17.0989C7.73401 18.2817 8.07692 16.1165 8.80838 15.7019C8.22072 15.4256 6.96108 16.4218 6.74952 16.9676C6.87397 16.2892 6.78824 15.3537 6.72878 14.6739C6.39278 13.3515 8.5747 13.1041 6.96384 13.0931C6.42182 13.158 6.08167 13.7591 6.07891 13.8213C6.01807 13.1705 6.48404 12.2972 7.09382 11.9282C6.71772 11.5841 5.73738 11.7527 5.47466 12.2875C5.38755 11.7555 5.92404 10.7882 6.58774 10.5685C6.83801 10.5768 7.15189 9.94533 7.25421 9.75326C7.20167 9.21712 6.93342 8.69204 6.51723 8.17662C6.13145 7.72616 6.11347 6.53919 5.7678 5.78334C5.42074 4.86306 5.09442 3.44119 6.01116 2.78345C7.60127 2.46011 8.9342 4.19565 10.1634 5.03441C10.5202 4.86721 11.1009 4.66132 11.4894 4.59085C12.4767 4.36423 13.5345 4.3062 14.6821 4.45958C15.809 3.85159 17.6619 0.988493 18.7196 2.37444C19.3446 2.90505 18.4818 4.291 18.226 4.98328C18.1596 5.28313 18.1735 5.57884 18.143 5.70735C18.0711 5.99338 17.8914 6.11636 17.9315 6.27112C18.6782 6.74922 18.7058 7.41387 19.0681 8.12273C19.317 8.634 19.5119 9.10934 19.6474 9.54185C19.7622 9.91493 19.7304 10.2203 19.6474 10.4663C19.8106 10.8863 20.0526 11.6228 20.054 12.0042C20.7716 12.7407 21.1325 12.7932 20.9555 13.5919C20.7854 14.5246 21.0606 15.1768 19.9738 15.7724C19.7788 16.0861 20.5835 16.0405 19.9102 16.9856C19.9668 17.9598 19.5202 18.0772 18.226 18.3246C17.3687 18.5857 16.6801 18.1049 15.9916 17.5673C15.6694 17.3407 15.3956 17.0823 15.0928 16.853C15.0928 16.853 15.1578 18.4793 15.1937 19.3803C15.2117 19.8376 15.3915 20.2757 15.7053 20.6101C17.0438 22.0389 18.3933 21.3529 20.054 23" stroke-miterlimit="10" stroke-linecap="round" stroke-linejoin="round"/>
</svg>
