<svg viewBox="0 0 19 23" fill="white" stroke="white" xmlns="http://www.w3.org/2000/svg">
<path d="M14.9315 5.27112C15.6782 5.74922 15.7058 6.41387 16.0681 7.12273C16.317 7.634 16.5119 8.10934 16.6474 8.54185C16.7622 8.91493 16.7304 9.22031 16.6474 9.46627C16.8106 9.88634 17.0526 10.6228 17.054 11.0042C17.7716 11.7407 18.1325 11.7932 17.9555 12.5919C17.7854 13.5246 18.0606 14.1768 16.9738 14.7724C16.7788 15.0861 17.5835 15.0405 16.9102 15.9856C16.9668 16.9598 16.5202 17.0772 15.226 17.3246C14.3687 17.5857 13.6801 17.1049 12.9916 16.5673C12.6694 16.3407 12.3956 16.0823 12.0928 15.853L12.1937 18.3803C12.2117 18.8376 12.3915 19.2757 12.7053 19.6101C14.0438 21.0389 15.3933 20.3529 17.054 22H1C1.9997 21.1626 3.36928 20.9477 4.3828 19.8671C4.82527 19.5189 5.23455 19.2232 5.49035 18.7589C5.70606 18.3678 7.3819 14.2238 5.55396 16.0989C4.73401 17.2817 5.07692 15.1165 5.80838 14.7019C5.22072 14.4256 3.96108 15.4218 3.74952 15.9676C3.87144 15.3029 3.79163 14.3915 3.73243 13.7155L3.72878 13.6739C3.39278 12.3515 5.5747 12.1041 3.96384 12.0931C3.42182 12.158 3.08167 12.7591 3.07891 12.8213C3.01807 12.1705 3.48404 11.2972 4.09382 10.9282C3.71772 10.5841 2.73738 10.7527 2.47466 11.2875C2.38755 10.7555 2.92404 9.78823 3.58774 9.56852C3.83801 9.57681 4.15189 8.94533 4.25421 8.75326C4.20167 8.21712 3.93342 7.69204 3.51723 7.17662C3.13145 6.72616 3.11347 5.53919 2.7678 4.78334C2.42074 3.86306 2.09442 2.44119 3.01116 1.78345C4.60127 1.46011 5.9342 3.19565 7.16343 4.03441C7.52017 3.86721 8.10091 3.66132 8.48945 3.59085C9.4767 3.36423 10.5345 3.3062 11.6821 3.45958C12.809 2.85159 14.6619 -0.011507 15.7196 1.37444C16.3446 1.90505 15.4818 3.291 15.226 3.98328C15.1596 4.28313 15.1735 4.57884 15.143 4.70735C15.0711 4.99338 14.8914 5.11636 14.9315 5.27112Z" stroke-miterlimit="10" stroke-linecap="round" stroke-linejoin="round"/>
</svg>
