<svg viewBox="0 0 14 14" stroke="white" fill="none" xmlns="http://www.w3.org/2000/svg">
<path d="M5.00004 6.33333C6.4728 6.33333 7.66671 5.13943 7.66671 3.66667C7.66671 2.19391 6.4728 1 5.00004 1C3.52728 1 2.33337 2.19391 2.33337 3.66667C2.33337 5.13943 3.52728 6.33333 5.00004 6.33333Z" stroke-opacity="0.5" stroke-linecap="round" stroke-linejoin="round"/>
<path d="M1 13V11.6667C1 10.9594 1.28095 10.2811 1.78105 9.78105C2.28115 9.28095 2.95942 9 3.66667 9H6.33333C7.04058 9 7.71885 9.28095 8.21895 9.78105C8.71905 10.2811 9 10.9594 9 11.6667V13" stroke-opacity="0.5" stroke-linecap="round" stroke-linejoin="round"/>
<path d="M9.66663 1.08691C10.2402 1.23378 10.7487 1.56738 11.1117 2.03512C11.4748 2.50286 11.6719 3.07813 11.6719 3.67025C11.6719 4.26236 11.4748 4.83763 11.1117 5.30537C10.7487 5.77311 10.2402 6.10671 9.66663 6.25358"  stroke-opacity="0.5" stroke-linecap="round" stroke-linejoin="round"/>
<path d="M13 13.0006V11.6673C12.9966 11.0787 12.7986 10.5078 12.4368 10.0435C12.0751 9.57926 11.5699 9.24772 11 9.10059"  stroke-opacity="0.5" stroke-linecap="round" stroke-linejoin="round"/>
</svg>
