<svg viewBox="0 0 20 20" fill="#406AFF" xmlns="http://www.w3.org/2000/svg">
<path d="M7.5 4.16669H5.83333C5.3731 4.16669 5 4.53978 5 5.00002V15C5 15.4603 5.3731 15.8334 5.83333 15.8334H7.5C7.96024 15.8334 8.33333 15.4603 8.33333 15V5.00002C8.33333 4.53978 7.96024 4.16669 7.5 4.16669Z" />
<path d="M14.1665 4.16669H12.4998C12.0396 4.16669 11.6665 4.53978 11.6665 5.00002V15C11.6665 15.4603 12.0396 15.8334 12.4998 15.8334H14.1665C14.6267 15.8334 14.9998 15.4603 14.9998 15V5.00002C14.9998 4.53978 14.6267 4.16669 14.1665 4.16669Z" />
</svg>
