<svg viewBox="0 0 20 20" fill="none" xmlns="http://www.w3.org/2000/svg">
<path d="M9.99984 8.66667C11.8408 8.66667 13.3332 7.17428 13.3332 5.33333C13.3332 3.49238 11.8408 2 9.99984 2C8.15889 2 6.6665 3.49238 6.6665 5.33333C6.6665 7.17428 8.15889 8.66667 9.99984 8.66667Z" fill="white" stroke="white" stroke-linecap="round" stroke-linejoin="round"/>
<path d="M5 17V15.3333C5 14.4493 5.35119 13.6014 5.97631 12.9763C6.60143 12.3512 7.44928 12 8.33333 12H11.6667C12.5507 12 13.3986 12.3512 14.0237 12.9763C14.6488 13.6014 15 14.4493 15 15.3333V17" fill="white"/>
<path d="M5 17V15.3333C5 14.4493 5.35119 13.6014 5.97631 12.9763C6.60143 12.3512 7.44928 12 8.33333 12H11.6667C12.5507 12 13.3986 12.3512 14.0237 12.9763C14.6488 13.6014 15 14.4493 15 15.3333V17H5Z" stroke="white" stroke-linecap="round" stroke-linejoin="round"/>
</svg>
