<svg viewBox="0 0 40 40" stroke="white" fill="none" xmlns="http://www.w3.org/2000/svg">
<path d="M25 13.3333H25.0167" stroke-width="2" stroke-linecap="round" stroke-linejoin="round"/>
<path d="M28.3333 6.66666H11.6666C8.9052 6.66666 6.66663 8.90523 6.66663 11.6667V28.3333C6.66663 31.0947 8.9052 33.3333 11.6666 33.3333H28.3333C31.0947 33.3333 33.3333 31.0947 33.3333 28.3333V11.6667C33.3333 8.90523 31.0947 6.66666 28.3333 6.66666Z" stroke-linecap="round" stroke-linejoin="round"/>
<path d="M6.66663 25L13.3333 18.3333C14.0934 17.6019 14.9556 17.2169 15.8333 17.2169C16.711 17.2169 17.5732 17.6019 18.3333 18.3333L26.6666 26.6667" stroke-linecap="round" stroke-linejoin="round"/>
<path d="M23.3334 23.3333L25 21.6667C25.7601 20.9353 26.6224 20.5502 27.5 20.5502C28.3777 20.5502 29.2399 20.9353 30 21.6667L33.3334 25" stroke-linecap="round" stroke-linejoin="round"/>
</svg>
