<svg viewBox="0 0 24 24" fill="white" xmlns="http://www.w3.org/2000/svg">
    <path fill-rule="evenodd" clip-rule="evenodd"
          d="M22.5 12C22.5 17.799 17.799 22.5 12 22.5C6.20101 22.5 1.5 17.799 1.5 12C1.5 6.20101 6.20101 1.5 12 1.5C17.799 1.5 22.5 6.20101 22.5 12ZM21 12C21 16.9706 16.9706 21 12 21C7.02944 21 3 16.9706 3 12C3 7.02944 7.02944 3 12 3C16.9706 3 21 7.02944 21 12Z"
          />
    <path d="M14.2807 17.1635L16.8449 18.4371C17.3787 18.7023 17.7818 18.9752 18 19.5C17.1851 20.2781 15.2306 21.5 12.0096 21.5C8.78863 21.5 7.16423 20.2781 6 19.5C6.20357 18.9789 6.58733 18.7012 7.09815 18.4243L9.49269 17.1267C9.72057 17.0029 9.86229 16.7661 9.86229 16.508V15.6256C9.68246 15.3917 9.1679 14.6629 8.92203 13.6957C8.66865 13.4939 8.52021 13.1912 8.52021 12.8667V11.8C8.52021 11.5432 8.61684 11.2944 8.78863 11.1V9.6816C8.7736 9.53493 8.71455 8.6616 9.35016 7.94133C9.90148 7.3168 10.7961 7 12.0096 7C13.2231 7 14.1178 7.3168 14.6691 7.9416C15.3047 8.66187 15.2456 9.53493 15.2306 9.6816V11.1C15.4024 11.2944 15.499 11.5432 15.499 11.8V12.8667C15.499 13.2867 15.2532 13.6587 14.8744 13.8312C14.6806 14.3915 14.4141 14.9109 14.0815 15.3776C14.0147 15.4715 13.95 15.5565 13.8885 15.6312V16.5328C13.8885 16.8016 14.0388 17.0432 14.2807 17.1635Z"
          />
</svg>