<svg width="87" height="60" viewBox="0 0 87 60" fill="#18191A" xmlns="http://www.w3.org/2000/svg">
    <path fill-rule="evenodd" clip-rule="evenodd" d="M73.5068 12.1608C73.9996 11.9892 74.5352 12.247 74.7056 12.7411L75.5464 15.1906C75.5464 15.1906 71.9322 14.0308 70.0482 13.6653L73.5068 12.1608ZM85.3183 18.7136C85.3098 18.7136 84.9382 18.4558 84.74 18.3481L78.6699 15.2329C76.7879 14.3303 77.2023 13.6215 76.4898 11.6452C76.2467 10.9795 75.8965 10.2061 75.4187 9.43201C71.9536 7.77748 62.1054 8.16455 61.1648 0.666016C61.1648 0.666016 57.4907 3.09395 56.8211 7.54122C17.9986 4.55531 0 26.126 0 26.126C7.23038 23.2255 15.0305 21.8503 22.8329 21.4855C8.00056 32.9796 3.3303 50.2962 3.3303 50.2962C3.3303 50.2962 15.3465 38.5443 33.4092 31.9915C28.6812 38.7166 25.9414 47.7397 27.0617 59.5993C27.0617 59.5993 36.353 23.8919 80.4384 32.5287C80.4384 32.5287 82.0515 27.7805 86.2162 22.9246C86.4786 22.6237 86.6276 22.1728 86.6576 21.6572C86.7439 20.4967 86.2083 19.4016 85.3183 18.7136Z" />
</svg>
