<svg viewBox="0 0 20 20" fill="none" stroke="white" xmlns="http://www.w3.org/2000/svg">
    <g opacity="0.5">
        <path d="M14.1666 6.66665V4.16665C14.1666 3.94563 14.0789 3.73367 13.9226 3.57739C13.7663 3.42111 13.5543 3.33331 13.3333 3.33331H4.99998C4.55795 3.33331 4.13403 3.50891 3.82147 3.82147C3.50891 4.13403 3.33331 4.55795 3.33331 4.99998M3.33331 4.99998C3.33331 5.44201 3.50891 5.86593 3.82147 6.17849C4.13403 6.49105 4.55795 6.66665 4.99998 6.66665H15C15.221 6.66665 15.433 6.75444 15.5892 6.91072C15.7455 7.067 15.8333 7.27897 15.8333 7.49998V9.99998M3.33331 4.99998V15C3.33331 15.442 3.50891 15.8659 3.82147 16.1785C4.13403 16.4911 4.55795 16.6666 4.99998 16.6666H15C15.221 16.6666 15.433 16.5788 15.5892 16.4226C15.7455 16.2663 15.8333 16.0543 15.8333 15.8333V13.3333"
              stroke-linecap="round" stroke-linejoin="round"/>
        <path d="M16.6667 10V13.3333H13.3334C12.8913 13.3333 12.4674 13.1577 12.1548 12.8452C11.8423 12.5326 11.6667 12.1087 11.6667 11.6667C11.6667 11.2246 11.8423 10.8007 12.1548 10.4882C12.4674 10.1756 12.8913 10 13.3334 10H16.6667Z"
              stroke-linecap="round" stroke-linejoin="round"/>
    </g>
</svg>
