<svg viewBox="0 0 20 20" fill="white" xmlns="http://www.w3.org/2000/svg">
<path fill-rule="evenodd" clip-rule="evenodd" d="M17 10C17 14.1421 13.6421 17.5 9.5 17.5C5.35786 17.5 2 14.1421 2 10C2 5.85786 5.35786 2.5 9.5 2.5C13.6421 2.5 17 5.85786 17 10ZM8.93 11.15C8.97 11.19 9.02 11.21 9.08 11.21H10.07C10.1433 11.21 10.2 11.19 10.24 11.15C10.28 11.11 10.3167 11.0467 10.35 10.96C10.3567 10.9 10.3733 10.7867 10.4 10.62C10.44 10.4333 10.5167 10.26 10.63 10.1C10.75 9.93333 10.9167 9.73667 11.13 9.51C11.4233 9.19 11.6433 8.90667 11.79 8.66C11.9433 8.41333 12.02 8.12333 12.02 7.79C12.02 7.49667 11.9367 7.21333 11.77 6.94C11.61 6.66667 11.35 6.44333 10.99 6.27C10.6367 6.09 10.1833 6 9.63 6C9.09667 6 8.63333 6.1 8.24 6.3C7.84667 6.49333 7.54333 6.75 7.33 7.07C7.12333 7.39 7.01333 7.73333 7 8.1C7 8.17333 7.02 8.23333 7.06 8.28C7.10667 8.32667 7.16333 8.35 7.23 8.35H8.1C8.24667 8.35 8.34333 8.27333 8.39 8.12C8.52333 7.47333 8.91333 7.15 9.56 7.15C9.84667 7.15 10.09 7.23 10.29 7.39C10.4967 7.55 10.5867 7.76667 10.56 8.04C10.5467 8.2 10.4833 8.35333 10.37 8.5C10.2633 8.64667 10.0967 8.83333 9.87 9.06C9.57667 9.35333 9.34667 9.62 9.18 9.86C9.01333 10.1 8.91333 10.3767 8.88 10.69C8.87333 10.7633 8.87 10.87 8.87 11.01C8.87 11.0633 8.89 11.11 8.93 11.15ZM8.88 13.4C8.92667 13.4467 8.98333 13.47 9.05 13.47H10.04C10.1133 13.47 10.1733 13.4467 10.22 13.4C10.2667 13.3533 10.29 13.2967 10.29 13.23V12.34C10.29 12.2733 10.2633 12.2167 10.21 12.17C10.1633 12.1233 10.1067 12.1 10.04 12.1H9.05C8.98333 12.1 8.92667 12.1233 8.88 12.17C8.83333 12.2167 8.81 12.2733 8.81 12.34V13.23C8.81 13.2967 8.83333 13.3533 8.88 13.4Z" />
</svg>
