<svg viewBox="0 0 20 18" stroke="#6E2AFE" fill="none" xmlns="http://www.w3.org/2000/svg">
<path d="M8.57776 17.0475C4.39255 17.0475 0.99976 13.4552 0.99976 9.02377C0.99976 4.59236 4.39255 1 8.57776 1C12.763 1 16.1558 4.59236 16.1558 9.02377C16.1558 13.4552 12.763 17.0475 8.57776 17.0475Z"  stroke-width="1.78306" stroke-linecap="round" stroke-linejoin="round"/>
<path d="M10.8067 6.17087C10.2479 5.72302 9.5533 5.45764 8.80058 5.45764C6.95425 5.45764 5.45752 7.05425 5.45752 9.02376C5.45752 10.9932 6.95425 12.5899 8.80058 12.5899C9.5533 12.5899 10.2479 12.3245 10.8067 11.8767" stroke-width="1.78306" stroke-linecap="round" stroke-linejoin="round"/>
<path d="M9.02393 1C12.2929 1 18.8308 1.80238 18.8308 9.02377C18.8308 16.2452 12.2929 17.0475 9.02393 17.0475" stroke-width="1.78306"/>
</svg>
