<svg viewBox="0 0 20 20" fill="#FAE054" xmlns="http://www.w3.org/2000/svg">
<path d="M14 8.5C14.8673 8.01036 15.7352 7.10616 16.1806 6.21533C16.626 5.3245 16.7953 4.32095 16.6666 3.33332C15.679 3.20465 14.6754 3.37387 13.7846 3.81928C12.8937 4.2647 11.9896 5.13269 11.5 6" fill-opacity="0.5"/>
<path fill-rule="evenodd" clip-rule="evenodd" d="M12.7395 7.26047C13.7975 8.31856 15.1808 8.98992 16.6667 9.1665C16.2421 9.9031 15.6366 10.5192 14.9075 10.9567C14.1785 11.3941 13.3499 11.6384 12.5001 11.6665C12.0078 13.0658 11.1117 14.2876 9.92509 15.1776C8.73844 16.0676 7.31453 16.5857 5.83342 16.6665C5.17038 16.6665 4.53449 16.4031 4.06565 15.9343C3.59681 15.4654 3.33342 14.8295 3.33342 14.1665C3.41417 12.6854 3.93231 11.2615 4.82229 10.0748C5.71228 8.88818 6.93416 7.99208 8.33342 7.49984C8.36148 6.65006 8.60578 5.82147 9.04323 5.09239C9.48068 4.36331 10.0968 3.75783 10.8334 3.33317C11.01 4.81908 11.6814 6.20238 12.7395 7.26047ZM6.66658 12.4998C6.66658 12.0396 7.03968 11.6665 7.49992 11.6665C7.96016 11.6665 8.33325 12.0396 8.33325 12.4998C8.33325 12.96 7.96016 13.3331 7.49992 13.3331C7.03968 13.3331 6.66658 12.96 6.66658 12.4998Z" />
</svg>
