<svg viewBox="0 0 20 20" fill="#FFA243" xmlns="http://www.w3.org/2000/svg">
<path d="M6 11.5C5.13269 11.9896 4.26479 12.8938 3.81937 13.7847C3.37396 14.6755 3.20474 15.6791 3.33341 16.6667C4.32104 16.7954 5.3246 16.6261 6.21543 16.1807C7.10626 15.7353 8.01036 14.8673 8.5 14"  fill-opacity="0.5"/>
<path fill-rule="evenodd" clip-rule="evenodd" d="M7.26055 12.7395C6.20246 11.6814 4.81916 11.0101 3.33325 10.8335C3.75791 10.0969 4.36339 9.48075 5.09247 9.04331C5.82155 8.60586 6.65014 8.36156 7.49992 8.3335C7.99216 6.93424 8.88826 5.71236 10.0749 4.82237C11.2616 3.93238 12.6855 3.41425 14.1666 3.3335C14.8296 3.3335 15.4655 3.59689 15.9344 4.06573C16.4032 4.53457 16.6666 5.17045 16.6666 5.8335C16.5858 7.31461 16.0677 8.73852 15.1777 9.92517C14.2877 11.1118 13.0658 12.0079 11.6666 12.5002C11.6385 13.3499 11.3942 14.1785 10.9568 14.9076C10.5193 15.6367 9.90318 16.2422 9.16658 16.6668C8.98999 15.1809 8.31864 13.7976 7.26055 12.7395ZM13.3334 7.5002C13.3334 7.96044 12.9603 8.33354 12.5001 8.33354C12.0398 8.33354 11.6667 7.96044 11.6667 7.5002C11.6667 7.03997 12.0398 6.66687 12.5001 6.66687C12.9603 6.66687 13.3334 7.03997 13.3334 7.5002Z" />
</svg>
