<svg width="16" height="16" viewBox="0 0 16 16" fill="white" xmlns="http://www.w3.org/2000/svg">
    <path
        fill-rule="evenodd"
        clip-rule="evenodd"
        d="M15.5 8C15.5 12.1421 12.1421 15.5 8 15.5C3.85786 15.5 0.5 12.1421 0.5 8C0.5 3.85786 3.85786 0.5 8 0.5C12.1421 0.5 15.5 3.85786 15.5 8ZM10.8536 5.14645C10.9015 5.19439 10.9377 5.24964 10.9621 5.30861C10.9865 5.36756 11 5.43221 11 5.5V10.5C11 10.7761 10.7761 11 10.5 11C10.2239 11 10 10.7761 10 10.5V6.70711L5.85355 10.8536C5.65829 11.0488 5.34171 11.0488 5.14645 10.8536C4.95118 10.6583 4.95118 10.3417 5.14645 10.1464L9.29289 6H5.5C5.22386 6 5 5.77614 5 5.5C5 5.22386 5.22386 5 5.5 5H10.4999H10.5C10.6381 5 10.7631 5.05596 10.8536 5.14645Z"
    />
</svg>
