<svg width="24" height="24" viewBox="0 0 24 24" fill="none" xmlns="http://www.w3.org/2000/svg">
    <circle cx="12" cy="12" r="12" fill="white" fill-opacity="0.1"/>
    <path d="M15.5422 14.8956C15.008 14.8956 14.5301 15.1064 14.1647 15.4367L9.15361 12.5201C9.18876 12.3584 9.21687 12.1968 9.21687 12.0281C9.21687 11.8594 9.18876 11.6978 9.15361 11.5361L14.1084 8.64759C14.488 8.999 14.9869 9.21687 15.5422 9.21687C16.7088 9.21687 17.6506 8.2751 17.6506 7.10843C17.6506 5.94177 16.7088 5 15.5422 5C14.3755 5 13.4337 5.94177 13.4337 7.10843C13.4337 7.27711 13.4618 7.43876 13.497 7.6004L8.54217 10.489C8.16265 10.1376 7.66365 9.91968 7.10843 9.91968C5.94177 9.91968 5 10.8614 5 12.0281C5 13.1948 5.94177 14.1365 7.10843 14.1365C7.66365 14.1365 8.16265 13.9187 8.54217 13.5673L13.5462 16.491C13.511 16.6386 13.49 16.7932 13.49 16.9478C13.49 18.0793 14.4106 19 15.5422 19C16.6737 19 17.5944 18.0793 17.5944 16.9478C17.5944 15.8163 16.6737 14.8956 15.5422 14.8956Z" fill="white"/>
</svg>
