<svg width="20" height="20" viewBox="0 0 20 20" fill="none" xmlns="http://www.w3.org/2000/svg">
<path fill-rule="evenodd" clip-rule="evenodd" d="M5 8C3.89543 8 3 8.89543 3 10C3 11.1046 3.89543 12 5 12C6.10457 12 7 11.1046 7 10C7 8.89543 6.10457 8 5 8ZM2 10C2 8.34315 3.34315 7 5 7C6.65685 7 8 8.34315 8 10C8 11.6569 6.65685 13 5 13C3.34315 13 2 11.6569 2 10Z" fill="#406AFF"/>
<path fill-rule="evenodd" clip-rule="evenodd" d="M15 3C13.8954 3 13 3.89543 13 5C13 6.10457 13.8954 7 15 7C16.1046 7 17 6.10457 17 5C17 3.89543 16.1046 3 15 3ZM12 5C12 3.34315 13.3431 2 15 2C16.6569 2 18 3.34315 18 5C18 6.65685 16.6569 8 15 8C13.3431 8 12 6.65685 12 5Z" fill="#406AFF"/>
<path fill-rule="evenodd" clip-rule="evenodd" d="M15 13C13.8954 13 13 13.8954 13 15C13 16.1046 13.8954 17 15 17C16.1046 17 17 16.1046 17 15C17 13.8954 16.1046 13 15 13ZM12 15C12 13.3431 13.3431 12 15 12C16.6569 12 18 13.3431 18 15C18 16.6569 16.6569 18 15 18C13.3431 18 12 16.6569 12 15Z" fill="#406AFF"/>
<path fill-rule="evenodd" clip-rule="evenodd" d="M13.1946 5.85438C13.3211 6.09986 13.2246 6.40138 12.9791 6.52784L7.47908 9.36118C7.2336 9.48764 6.93208 9.39115 6.80562 9.14567C6.67916 8.90018 6.77564 8.59866 7.02113 8.4722L12.5211 5.63887C12.7666 5.51241 13.0681 5.60889 13.1946 5.85438Z" fill="#406AFF"/>
<path fill-rule="evenodd" clip-rule="evenodd" d="M6.80562 10.8544C6.93208 10.6089 7.2336 10.5124 7.47908 10.6389L12.9791 13.4722C13.2246 13.5987 13.3211 13.9002 13.1946 14.1457C13.0681 14.3912 12.7666 14.4876 12.5211 14.3612L7.02113 11.5278C6.77564 11.4014 6.67916 11.0999 6.80562 10.8544Z" fill="#406AFF"/>
</svg>
