<svg stroke="white" viewBox="0 0 20 20" fill="none" xmlns="http://www.w3.org/2000/svg">
    <path d="M8.33301 3.33335L9.99968 4.16669L11.6663 3.33335M9.99968 1.66669V7.08335L12.4997 8.51669"  stroke-linecap="round" stroke-linejoin="round"/>
    <path d="M14.9404 5.22329L15.0521 7.08333L16.6071 8.11004M17.2171 5.83333L12.5262 8.54166L12.5348 11.4234"  stroke-linecap="round" stroke-linejoin="round"/>
    <path d="M16.6064 11.8899L15.0514 12.9166L14.9398 14.7767M17.2165 14.1666L12.5255 11.4583L10.0342 12.9067"  stroke-linecap="round" stroke-linejoin="round"/>
    <path d="M11.667 16.6666L10.0003 15.8333L8.33366 16.6666M10.0003 18.3333V12.9166L7.50033 11.4833"  stroke-linecap="round" stroke-linejoin="round"/>
    <path d="M5.05959 14.7767L4.94794 12.9167L3.39292 11.89M2.78288 14.1667L7.47385 11.4583L7.46515 8.57661"  stroke-linecap="round" stroke-linejoin="round"/>
    <path d="M3.39357 8.11007L4.94859 7.08336L5.06024 5.22332M2.78353 5.83336L7.4745 8.54169L9.9658 7.09329" stroke-linecap="round" stroke-linejoin="round"/>
</svg>
