<svg viewBox="0 0 24 24" fill="none" xmlns="http://www.w3.org/2000/svg">
<path fill-rule="evenodd" clip-rule="evenodd" d="M12 21.5C17.2467 21.5 21.5 17.2467 21.5 12C21.5 6.75329 17.2467 2.5 12 2.5C6.75329 2.5 2.5 6.75329 2.5 12C2.5 17.2467 6.75329 21.5 12 21.5ZM12 15.5C13.933 15.5 15.5 13.933 15.5 12C15.5 10.067 13.933 8.5 12 8.5C10.067 8.5 8.5 10.067 8.5 12C8.5 13.933 10.067 15.5 12 15.5Z" fill="#8B8C8C"/>
<path fill-rule="evenodd" clip-rule="evenodd" d="M12 8.5C13.933 8.5 15.5 10.067 15.5 12H21.5C21.5 6.75329 17.2467 2.5 12 2.5V8.5Z" fill="white"/>
<path fill-rule="evenodd" clip-rule="evenodd" d="M21.4999 12C21.4999 17.2467 17.2466 21.5 11.9999 21.5C9.0669 21.5 6.4443 20.1708 4.70166 18.0819L9.3111 14.2407C9.95313 15.0103 10.9193 15.5 11.9999 15.5C13.9329 15.5 15.4999 13.933 15.4999 12H21.4999Z" fill="#C4C4C4"/>
</svg>
