<svg viewBox="0 0 20 20" fill="none" xmlns="http://www.w3.org/2000/svg">
<g clip-path="url(#clip0_2684:12081)">
<path d="M8.35721 6.38013L12.9937 7.62246" stroke="#18191A" stroke-linecap="round" stroke-linejoin="round"/>
<path d="M6.80429 12.1755L11.4407 13.4179" stroke="#18191A" stroke-linecap="round" stroke-linejoin="round"/>
<path d="M9.1489 6.90266L12.0467 7.67911L11.8137 8.54845C11.5993 9.34865 10.7768 9.82352 9.97663 9.60911C9.17643 9.39469 8.70155 8.57219 8.91597 7.77199L9.1489 6.90266Z" stroke="#18191A"/>
<path opacity="0.5" d="M8.36615 8.24585C8.40231 9.09558 8.9822 9.86031 9.84721 10.0921C10.7122 10.3239 11.5968 9.95154 12.053 9.23373L8.36615 8.24585Z" fill="#18191A"/>
<path d="M10.6491 12.8952L7.75129 12.1187L7.98423 11.2494C8.19864 10.4492 9.02115 9.97433 9.82135 10.1887C10.6215 10.4032 11.0964 11.2257 10.882 12.0259L10.6491 12.8952Z" stroke="#18191A"/>
<path opacity="0.5" d="M7.83586 11.4166L9.48487 11.4444L10.9268 12.2449L10.7198 13.0176L7.62881 12.1894L7.83586 11.4166Z" fill="#18191A"/>
</g>
<path d="M16.2083 12.4999C16.5366 11.6846 16.7011 10.8127 16.6925 9.93379C16.6838 9.05492 16.5021 8.18637 16.1577 7.37773C15.8134 6.56909 15.3131 5.83619 14.6855 5.22087C14.0579 4.60556 13.3153 4.11989 12.5 3.79158C10.8534 3.12854 9.01093 3.14675 7.37781 3.84219C5.74468 4.53764 4.4547 5.85336 3.79166 7.49992M7.49999 7.49992L3.33333 7.49992L3.33333 3.33325" stroke="#18191A" stroke-linecap="round" stroke-linejoin="round"/>
<path d="M14.0333 15.3083L14.0242 15.3083" stroke="#18191A" stroke-linecap="round" stroke-linejoin="round"/>
<path d="M3.38333 10.8333L3.37416 10.8333" stroke="#18191A" stroke-linecap="round" stroke-linejoin="round"/>
<path d="M4.69168 14.0332L4.68251 14.0332" stroke="#18191A" stroke-linecap="round" stroke-linejoin="round"/>
<path d="M7.41666 16.1416L7.40749 16.1416" stroke="#18191A" stroke-linecap="round" stroke-linejoin="round"/>
<path d="M10.8333 16.6167L10.8242 16.6167" stroke="#18191A" stroke-linecap="round" stroke-linejoin="round"/>
<defs>
<clipPath id="clip0_2684:12081">
<rect width="8" height="8" fill="white" transform="translate(7.07056 5) rotate(15)"/>
</clipPath>
</defs>
</svg>
