<svg viewBox="0 0 20 20" fill="#E1444D" xmlns="http://www.w3.org/2000/svg">
<path fill-rule="evenodd" clip-rule="evenodd" d="M19 10C19 14.9706 14.9706 19 10 19C5.02944 19 1 14.9706 1 10C1 5.02944 5.02944 1 10 1C14.9706 1 19 5.02944 19 10ZM10.5 5.83325C10.5 5.55711 10.2761 5.33325 10 5.33325C9.72386 5.33325 9.5 5.55711 9.5 5.83325V9.99992C9.5 10.1325 9.55268 10.2597 9.64645 10.3535L12.1464 12.8535C12.3417 13.0487 12.6583 13.0487 12.8536 12.8535C13.0488 12.6582 13.0488 12.3416 12.8536 12.1464L10.5 9.79281V5.83325Z" />
</svg>
