<svg viewBox="0 0 24 24" fill="none" stroke="#8B8C8C" stroke-linecap="round" stroke-linejoin="round" xmlns="http://www.w3.org/2000/svg">
<path d="M16.4944 14.1946C17.7295 14.4016 19.0909 14.1856 20.0466 13.5467C21.3178 12.7008 21.3178 11.315 20.0466 10.4691C19.0819 9.83015 17.7025 9.61417 16.4673 9.83015M7.50563 14.1946C6.27047 14.4016 4.90909 14.1856 3.95342 13.5467C2.68219 12.7008 2.68219 11.315 3.95342 10.4691C4.91811 9.83015 6.29752 9.61417 7.53268 9.83015M17.423 7.64342C17.3527 7.6461 17.3202 7.64589 17.2517 7.64342C16.65 7.6217 16.0804 7.36734 15.6631 6.93409C15.2459 6.50085 15.0137 5.92265 15.0158 5.32171C15.0158 4.03487 16.0526 3 17.3418 3C17.9588 3 18.5504 3.24461 18.9866 3.68001C19.4229 4.11542 19.6679 4.70595 19.6679 5.32171C19.6663 5.92308 19.4317 6.50052 19.0133 6.93324C18.5949 7.36596 18.0251 7.62043 17.423 7.64342ZM6.57701 7.64342C6.6311 7.63442 6.69421 7.63442 6.74831 7.64342C7.34999 7.6217 7.91965 7.36734 8.33688 6.93409C8.75412 6.50085 8.98625 5.92265 8.98422 5.32171C8.98422 4.03487 7.94741 3 6.65815 3C6.04124 3 5.44959 3.24461 5.01337 3.68001C4.57715 4.11542 4.33208 4.70595 4.33208 5.32171C4.3411 6.58155 5.33283 7.59842 6.57701 7.64342ZM12.0135 14.3656C11.9568 14.3566 11.899 14.3566 11.8422 14.3656C11.2405 14.3439 10.6709 14.0895 10.2536 13.6563C9.83641 13.223 9.60428 12.6448 9.60631 12.0439C9.60631 10.757 10.6431 9.72216 11.9324 9.72216C12.5493 9.72216 13.1409 9.96677 13.5772 10.4022C14.0134 10.8376 14.2585 11.4281 14.2585 12.0439C14.2494 13.3037 13.2577 14.3296 12.0135 14.3656ZM9.38993 17.2002C8.11871 18.0461 8.11871 19.4319 9.38993 20.2778C10.8325 21.2407 13.1946 21.2407 14.6371 20.2778C15.9083 19.4319 15.9083 18.0461 14.6371 17.2002C13.2036 16.2463 10.8325 16.2463 9.38993 17.2002Z" />
</svg>
