<svg viewBox="0 0 26 16" fill="white" xmlns="http://www.w3.org/2000/svg">
<path fill-rule="evenodd" clip-rule="evenodd" d="M8.97259e-07 1.95536C8.97259e-07 0.874957 1.008 0 2.25 0H22.95C24.192 0 25.2 0.876 25.2 1.95536V5.11104C25.2001 5.24842 25.1586 5.3834 25.0796 5.5024C25.0006 5.6214 24.8869 5.72021 24.75 5.7889C24.339 5.99457 23.9976 6.29073 23.7602 6.64755C23.5229 7.00438 23.3979 7.40926 23.3979 7.82143C23.3979 8.23359 23.5229 8.63848 23.7602 8.9953C23.9976 9.35213 24.339 9.64829 24.75 9.85396C24.8869 9.92265 25.0006 10.0215 25.0796 10.1405C25.1586 10.2595 25.2001 10.3944 25.2 10.5318V13.6875C25.2 14.7669 24.192 15.6429 22.95 15.6429H2.25C1.65326 15.6429 1.08097 15.4368 0.659011 15.0701C0.237054 14.7034 8.97259e-07 14.2061 8.97259e-07 13.6875V10.5318C-0.000222124 10.3945 0.0411341 10.2596 0.119914 10.1406C0.198694 10.0217 0.312122 9.92278 0.448801 9.85396C0.859808 9.64829 1.20119 9.35213 1.43857 8.9953C1.67594 8.63848 1.80093 8.23359 1.80093 7.82143C1.80093 7.40926 1.67594 7.00438 1.43857 6.64755C1.20119 6.29073 0.859808 5.99457 0.448801 5.7889C0.312122 5.72008 0.198694 5.62121 0.119914 5.50222C0.0411341 5.38323 -0.000222124 5.24832 8.97259e-07 5.11104V1.95536ZM18 0.782143C18.2387 0.782143 18.4676 0.864547 18.6364 1.01123C18.8052 1.15791 18.9 1.35685 18.9 1.56429V2.34643C18.9 2.55387 18.8052 2.75281 18.6364 2.89949C18.4676 3.04617 18.2387 3.12857 18 3.12857C17.7613 3.12857 17.5324 3.04617 17.3636 2.89949C17.1948 2.75281 17.1 2.55387 17.1 2.34643V1.56429C17.1 1.35685 17.1948 1.15791 17.3636 1.01123C17.5324 0.864547 17.7613 0.782143 18 0.782143ZM18.9 5.475C18.9 5.26756 18.8052 5.06862 18.6364 4.92194C18.4676 4.77526 18.2387 4.69286 18 4.69286C17.7613 4.69286 17.5324 4.77526 17.3636 4.92194C17.1948 5.06862 17.1 5.26756 17.1 5.475V6.25714C17.1 6.46458 17.1948 6.66352 17.3636 6.8102C17.5324 6.95688 17.7613 7.03929 18 7.03929C18.2387 7.03929 18.4676 6.95688 18.6364 6.8102C18.8052 6.66352 18.9 6.46458 18.9 6.25714V5.475ZM18 8.60357C18.2387 8.60357 18.4676 8.68598 18.6364 8.83266C18.8052 8.97934 18.9 9.17828 18.9 9.38571V10.1679C18.9 10.3753 18.8052 10.5742 18.6364 10.7209C18.4676 10.8676 18.2387 10.95 18 10.95C17.7613 10.95 17.5324 10.8676 17.3636 10.7209C17.1948 10.5742 17.1 10.3753 17.1 10.1679V9.38571C17.1 9.17828 17.1948 8.97934 17.3636 8.83266C17.5324 8.68598 17.7613 8.60357 18 8.60357ZM18.9 13.2964C18.9 13.089 18.8052 12.8901 18.6364 12.7434C18.4676 12.5967 18.2387 12.5143 18 12.5143C17.7613 12.5143 17.5324 12.5967 17.3636 12.7434C17.1948 12.8901 17.1 13.089 17.1 13.2964V14.0786C17.1 14.286 17.1948 14.485 17.3636 14.6316C17.5324 14.7783 17.7613 14.8607 18 14.8607C18.2387 14.8607 18.4676 14.7783 18.6364 14.6316C18.8052 14.485 18.9 14.286 18.9 14.0786V13.2964ZM5.4 7.82143C5.4 7.61399 5.49482 7.41505 5.66361 7.26837C5.83239 7.12169 6.06131 7.03929 6.3 7.03929H12.6C12.8387 7.03929 13.0676 7.12169 13.2364 7.26837C13.4052 7.41505 13.5 7.61399 13.5 7.82143C13.5 8.02887 13.4052 8.22781 13.2364 8.37449C13.0676 8.52117 12.8387 8.60357 12.6 8.60357H6.3C6.06131 8.60357 5.83239 8.52117 5.66361 8.37449C5.49482 8.22781 5.4 8.02887 5.4 7.82143ZM6.3 10.1679C6.06131 10.1679 5.83239 10.2503 5.66361 10.3969C5.49482 10.5436 5.4 10.7426 5.4 10.95C5.4 11.1574 5.49482 11.3564 5.66361 11.5031C5.83239 11.6497 6.06131 11.7321 6.3 11.7321H9.9C10.1387 11.7321 10.3676 11.6497 10.5364 11.5031C10.7052 11.3564 10.8 11.1574 10.8 10.95C10.8 10.7426 10.7052 10.5436 10.5364 10.3969C10.3676 10.2503 10.1387 10.1679 9.9 10.1679H6.3Z" />
</svg>
