<svg viewBox="0 0 40 47" fill="white" xmlns="http://www.w3.org/2000/svg">
<path d="M26.6683 0H13.3342V4.47619H26.6683V0ZM17.7789 29.0952H22.2236V15.6667H17.7789V29.0952ZM35.6245 14.3014L38.7802 11.1233C37.8246 9.9819 36.7801 8.90762 35.6467 7.96762L32.4909 11.1457C28.9514 8.2772 24.5445 6.71359 20.0013 6.71428C8.95612 6.71428 0 15.7338 0 26.8571C0 37.9805 8.9339 47 20.0013 47C23.7666 47.002 27.456 45.9329 30.6444 43.9158C33.8329 41.8987 36.3907 39.0156 38.0234 35.5986C39.656 32.1815 40.297 28.3696 39.8726 24.6017C39.4482 20.8338 37.9756 17.2633 35.6245 14.3014ZM20.0013 42.5238C11.4007 42.5238 4.44472 35.5186 4.44472 26.8571C4.44472 18.1957 11.4007 11.1905 20.0013 11.1905C28.6018 11.1905 35.5578 18.1957 35.5578 26.8571C35.5578 35.5186 28.6018 42.5238 20.0013 42.5238Z" />
</svg>
