<svg width="35" height="35" viewBox="0 0 35 35" fill="none" xmlns="http://www.w3.org/2000/svg">
    <path d="M5 5C5 3.67392 5.52678 2.40215 6.46447 1.46447C7.40215 0.526784 8.67392 0 10 0C11.3261 0 12.5979 0.526784 13.5355 1.46447C14.4732 2.40215 15 3.67392 15 5C15 6.32608 14.4732 7.59785 13.5355 8.53553C12.5979 9.47322 11.3261 10 10 10C8.67392 10 7.40215 9.47322 6.46447 8.53553C5.52678 7.59785 5 6.32608 5 5ZM21.9475 8.96L22.0525 9.04C23.1132 9.82627 24.4419 10.161 25.7486 9.97128C27.0552 9.78151 28.2338 9.08261 29.027 8.02709C29.8203 6.97157 30.1638 5.64513 29.9827 4.33725C29.8015 3.02937 29.1104 1.84623 28.0602 1.04603C27.0099 0.245831 25.6858 -0.106459 24.3767 0.0660428C23.0677 0.238544 21.88 0.921831 21.0729 1.96679C20.2658 3.01174 19.9047 4.33353 20.0686 5.64369C20.2325 6.95385 20.9079 8.14601 21.9475 8.96ZM13.17 12.5C13.484 11.9054 13.9147 11.3803 14.4364 10.956C14.958 10.5317 15.5599 10.217 16.206 10.0307C16.8521 9.84437 17.5291 9.79029 18.1965 9.87168C18.864 9.95307 19.5082 10.1683 20.0906 10.5044C20.673 10.8405 21.1816 11.2906 21.586 11.8278C21.9904 12.365 22.2823 12.9783 22.4442 13.6309C22.6061 14.2835 22.6347 14.9621 22.5283 15.626C22.422 16.29 22.1827 16.9256 21.825 17.495C21.1368 18.5903 20.0509 19.3763 18.7953 19.6878C17.5398 19.9993 16.2125 19.8121 15.0921 19.1655C13.9717 18.5189 13.1455 17.4632 12.7871 16.2203C12.4287 14.9773 12.5659 13.6439 13.17 12.5ZM3.75 12.5H10.425C9.98068 13.7689 9.88408 15.1336 10.1452 16.4524C10.4063 17.7712 11.0157 18.9962 11.91 20H11.25C9.96109 19.9998 8.70362 20.398 7.64971 21.14C6.5958 21.882 5.79695 22.9315 5.3625 24.145C4.52333 23.8079 3.73762 23.3506 3.03 22.7875C1.15 21.275 0 19.04 0 16.25C0 15.2554 0.395088 14.3016 1.09835 13.5983C1.80161 12.8951 2.75544 12.5 3.75 12.5ZM23.75 20C25.0386 20 26.2956 20.3982 27.3491 21.1402C28.4026 21.8822 29.201 22.9317 29.635 24.145C30.485 23.7975 31.2725 23.345 31.97 22.7875C33.85 21.275 35 19.04 35 16.25C35 15.2554 34.6049 14.3016 33.9016 13.5983C33.1984 12.8951 32.2446 12.5 31.25 12.5H24.575C24.85 13.2825 25 14.125 25 15C25.0023 16.8453 24.322 18.6262 23.09 20H23.75ZM27.2175 24.82C27.4 25.26 27.5 25.745 27.5 26.25C27.5 29.04 26.3525 31.275 24.47 32.7875C22.6175 34.275 20.1325 35 17.5 35C14.8675 35 12.3825 34.275 10.53 32.7875C8.65 31.275 7.5 29.04 7.5 26.25C7.49868 25.7572 7.59478 25.2689 7.78276 24.8134C7.97075 24.3578 8.24692 23.9439 8.59541 23.5954C8.94389 23.2469 9.35781 22.9708 9.81338 22.7828C10.2689 22.5948 10.7572 22.4987 11.25 22.5H23.75C24.4928 22.4998 25.2188 22.7202 25.8362 23.1333C26.4535 23.5463 26.9343 24.1334 27.2175 24.82Z" fill="white"/>
</svg>
