<svg viewBox="0 0 24 24" fill="none" xmlns="http://www.w3.org/2000/svg">
<path d="M15 4.5H4.125C3.62772 4.5 3.15081 4.69754 2.79917 5.04917C2.44754 5.40081 2.25 5.87772 2.25 6.375V17.625C2.25 18.1223 2.44754 18.5992 2.79917 18.9508C3.15081 19.3025 3.62772 19.5 4.125 19.5H19.8155C20.3128 19.5 20.7897 19.3025 21.1413 18.9508C21.4929 18.5992 21.6905 18.1223 21.6905 17.625V11.2031" stroke="white" stroke-width="1.5" stroke-linecap="round" stroke-linejoin="round"/>
<path d="M5.25 7.5L12 12.75L16.0781 9.67172" stroke="white" stroke-width="1.5" stroke-linecap="round" stroke-linejoin="round"/>
<path d="M20.2477 8.24995C21.489 8.24995 22.4953 7.24364 22.4953 6.0023C22.4953 4.76095 21.489 3.75464 20.2477 3.75464C19.0063 3.75464 18 4.76095 18 6.0023C18 7.24364 19.0063 8.24995 20.2477 8.24995Z" fill="white"/>
<path d="M20.2501 8.99995C19.6572 8.99995 19.0777 8.82414 18.5847 8.49476C18.0917 8.16537 17.7075 7.6972 17.4806 7.14945C17.2537 6.6017 17.1944 5.99897 17.31 5.41748C17.4257 4.83599 17.7112 4.30186 18.1304 3.88263C18.5497 3.4634 19.0838 3.1779 19.6653 3.06224C20.2468 2.94657 20.8495 3.00594 21.3973 3.23282C21.945 3.45971 22.4132 3.84393 22.7426 4.33689C23.0719 4.82985 23.2478 5.40942 23.2478 6.0023C23.2471 6.79713 22.9311 7.55924 22.3691 8.12127C21.807 8.68331 21.0449 8.99933 20.2501 8.99995ZM20.2501 4.50464C19.9533 4.50418 19.6631 4.59176 19.4161 4.7563C19.1691 4.92084 18.9765 5.15494 18.8626 5.42899C18.7487 5.70304 18.7187 6.00471 18.7763 6.29584C18.8339 6.58696 18.9766 6.85446 19.1863 7.06447C19.396 7.27448 19.6632 7.41758 19.9543 7.47564C20.2453 7.53371 20.547 7.50414 20.8212 7.39068C21.0955 7.27722 21.3299 7.08496 21.4948 6.83824C21.6597 6.59151 21.7478 6.30141 21.7478 6.00464C21.7478 5.60722 21.59 5.22604 21.3092 4.94481C21.0284 4.66357 20.6475 4.50526 20.2501 4.50464Z" fill="white"/>
</svg>
