<svg viewBox="0 0 20 20" fill="#E1444D" xmlns="http://www.w3.org/2000/svg">
<path fill-rule="evenodd" clip-rule="evenodd" d="M10 19C14.9706 19 19 14.9706 19 10C19 5.02944 14.9706 1 10 1C5.02944 1 1 5.02944 1 10C1 14.9706 5.02944 19 10 19ZM10 6.16675C10.2761 6.16675 10.5 6.39061 10.5 6.66675V10.0001C10.5 10.2762 10.2761 10.5001 10 10.5001C9.72386 10.5001 9.5 10.2762 9.5 10.0001V6.66675C9.5 6.39061 9.72386 6.16675 10 6.16675ZM10 12.8333C9.72386 12.8333 9.5 13.0571 9.5 13.3333C9.5 13.6094 9.72386 13.8333 10 13.8333H10.0092C10.2853 13.8333 10.5092 13.6094 10.5092 13.3333C10.5092 13.0571 10.2853 12.8333 10.0092 12.8333H10Z" />
</svg>
