<svg viewBox="0 0 20 20" fill="#ffff" xmlns="http://www.w3.org/2000/svg">
<path fill-rule="evenodd" clip-rule="evenodd" d="M3.4681 3.4681C3.87443 3.06177 4.42553 2.8335 5.00016 2.8335H13.3335C13.6871 2.8335 14.0263 2.97397 14.2763 3.22402C14.5264 3.47407 14.6668 3.81321 14.6668 4.16683V6.16683H15.0002C15.3538 6.16683 15.6929 6.30731 15.943 6.55735C16.193 6.8074 16.3335 7.14654 16.3335 7.50016V10.0002C16.3335 10.2763 16.1096 10.5002 15.8335 10.5002C15.5574 10.5002 15.3335 10.2763 15.3335 10.0002V7.50016C15.3335 7.41176 15.2984 7.32697 15.2359 7.26446C15.1734 7.20195 15.0886 7.16683 15.0002 7.16683H5.00016C4.58349 7.16683 4.1792 7.04681 3.8335 6.82591V15.0002C3.8335 15.3096 3.95641 15.6063 4.1752 15.8251C4.394 16.0439 4.69074 16.1668 5.00016 16.1668H15.0002C15.0886 16.1668 15.1734 16.1317 15.2359 16.0692C15.2984 16.0067 15.3335 15.9219 15.3335 15.8335V13.3335C15.3335 13.0574 15.5574 12.8335 15.8335 12.8335C16.1096 12.8335 16.3335 13.0574 16.3335 13.3335V15.8335C16.3335 16.1871 16.193 16.5263 15.943 16.7763C15.6929 17.0264 15.3538 17.1668 15.0002 17.1668H5.00016C4.42553 17.1668 3.87443 16.9386 3.4681 16.5322C3.06177 16.1259 2.8335 15.5748 2.8335 15.0002V5.00016C2.8335 4.42553 3.06177 3.87443 3.4681 3.4681ZM3.8335 5.00016C3.8335 5.30958 3.95641 5.60633 4.1752 5.82512C4.394 6.04391 4.69074 6.16683 5.00016 6.16683H13.6668V4.16683C13.6668 4.07842 13.6317 3.99364 13.5692 3.93113C13.5067 3.86862 13.4219 3.8335 13.3335 3.8335H5.00016C4.69074 3.8335 4.394 3.95641 4.1752 4.1752C3.95641 4.394 3.8335 4.69074 3.8335 5.00016Z"/>
<path fill-rule="evenodd" clip-rule="evenodd" d="M5 3C3.89543 3 3 3.89543 3 5V8V15V16C3 16.5523 3.44772 17 4 17H5H12H15C15.5523 17 16 16.5523 16 16V8C16 7.44772 15.5523 7 15 7H14V5C14 3.89543 13.1046 3 12 3H5Z" fill-opacity="0.5"/>
<path d="M16.6667 10V13.3333H13.3334C12.8913 13.3333 12.4674 13.1577 12.1548 12.8452C11.8423 12.5326 11.6667 12.1087 11.6667 11.6667C11.6667 11.2246 11.8423 10.8007 12.1548 10.4882C12.4674 10.1756 12.8913 10 13.3334 10H16.6667Z"/>
<path fill-rule="evenodd" clip-rule="evenodd" d="M13.3334 10.5C13.0239 10.5 12.7272 10.6229 12.5084 10.8417C12.2896 11.0605 12.1667 11.3572 12.1667 11.6667C12.1667 11.9761 12.2896 12.2728 12.5084 12.4916C12.7272 12.7104 13.0239 12.8333 13.3334 12.8333H16.1667V10.5H13.3334ZM11.8013 10.1346C12.2076 9.72827 12.7587 9.5 13.3334 9.5H16.6667C16.9428 9.5 17.1667 9.72386 17.1667 10V13.3333C17.1667 13.6095 16.9428 13.8333 16.6667 13.8333H13.3334C12.7587 13.8333 12.2076 13.6051 11.8013 13.1987C11.395 12.7924 11.1667 12.2413 11.1667 11.6667C11.1667 11.092 11.395 10.5409 11.8013 10.1346Z"/>
</svg>
