<svg width="24" height="24" viewBox="0 0 20 20" fill="#E1444D" xmlns="http://www.w3.org/2000/svg">
    <path fill-rule="evenodd" clip-rule="evenodd" d="M10 17.5C14.1421 17.5 17.5 14.1421 17.5 10C17.5 5.85786 14.1421 2.5 10 2.5C5.85786 2.5 2.5 5.85786 2.5 10C2.5 14.1421 5.85786 17.5 10 17.5ZM10 6.1665C10.2761 6.1665 10.5 6.39036 10.5 6.6665V9.99984C10.5 10.276 10.2761 10.4998 10 10.4998C9.72386 10.4998 9.5 10.276 9.5 9.99984V6.6665C9.5 6.39036 9.72386 6.1665 10 6.1665ZM10 12.8335C9.72386 12.8335 9.5 13.0574 9.5 13.3335C9.5 13.6096 9.72386 13.8335 10 13.8335H10.0092C10.2853 13.8335 10.5092 13.6096 10.5092 13.3335C10.5092 13.0574 10.2853 12.8335 10.0092 12.8335H10Z" />
</svg>
