<svg width="87" height="78" viewBox="0 0 87 78" fill="none" xmlns="http://www.w3.org/2000/svg">
    <g clip-path="url(#clip0_5522_25730)">
        <path fill-rule="evenodd" clip-rule="evenodd" d="M48.0387 7.65666C45.886 3.98527 40.7017 4.05202 38.6755 7.63149L38.6687 7.64363L22.2686 36.2436L22.2654 36.2493L5.76537 64.8493L5.74727 64.8802C3.66157 68.3787 6.19911 72.9 10.3999 72.9H76.3999C80.463 72.9 83.0863 68.488 81.0289 64.8397C81.0273 64.837 81.0258 64.8342 81.0243 64.8315L48.0419 7.6622C48.0409 7.66036 48.0398 7.65851 48.0387 7.65666ZM34.328 5.16195C38.3034 -1.85019 48.3098 -1.78306 52.3579 5.13779L52.3654 5.15069L85.3654 62.3507L85.3755 62.3685C89.3096 69.3186 84.3338 77.9 76.3999 77.9H10.3999C2.40699 77.9 -2.6538 69.2349 1.44284 62.3361L17.9312 33.7564L17.9344 33.7507L34.328 5.16195Z" fill="#E8A42A"/>
        <path d="M43.3998 66.9C45.1119 66.9 46.4998 65.5121 46.4998 63.8C46.4998 62.0879 45.1119 60.7 43.3998 60.7C41.6877 60.7 40.2998 62.0879 40.2998 63.8C40.2998 65.5121 41.6877 66.9 43.3998 66.9Z" fill="#E8A42A"/>
        <path fill-rule="evenodd" clip-rule="evenodd" d="M43.3999 23.6C44.7806 23.6 45.8999 24.7193 45.8999 26.1V54.4C45.8999 55.7807 44.7806 56.9 43.3999 56.9C42.0192 56.9 40.8999 55.7807 40.8999 54.4V26.1C40.8999 24.7193 42.0192 23.6 43.3999 23.6Z" fill="#E8A42A"/>
    </g>
    <defs>
        <clipPath id="clip0_5522_25730">
            <rect width="86.8" height="77.9" fill="white"/>
        </clipPath>
    </defs>
</svg>
