<svg id="puma_full" viewBox="0 0 501 338" fill="#406AFF" xmlns="http://www.w3.org/2000/svg">
<path fill-rule="evenodd" clip-rule="evenodd" d="M76.0739 65.9262C73.2253 64.9419 70.1294 66.4204 69.1441 69.254L64.2838 83.3025C64.2838 83.3025 85.1762 76.651 96.0676 74.5546L76.0739 65.9262ZM7.79431 103.508C7.84378 103.508 9.99158 102.03 11.1376 101.412L46.2276 83.5455C57.1067 78.3685 54.7115 74.3034 58.8298 62.9691C60.2356 59.1511 62.2597 54.7154 65.0217 50.2756C85.0525 40.7864 141.983 43.0063 147.421 0C147.421 0 168.659 13.9249 172.53 39.4313C396.954 22.3063 501 146.02 501 146.02C459.203 129.385 414.112 121.498 369.009 119.406C454.751 185.328 481.748 284.644 481.748 284.644C481.748 284.644 412.286 217.243 307.869 179.661C335.201 218.232 351.039 269.982 344.563 338C344.563 338 290.852 133.207 36.004 182.742C36.004 182.742 26.6791 155.51 2.60422 127.66C1.08716 125.934 0.225586 123.348 0.0524292 120.39C-0.446381 113.735 2.64954 107.454 7.79431 103.508Z" />
</svg>
