<svg id="f2c851be-f7e7-4929-be8c-0c0e4bea8467" data-name="puma full" fill="#406aff" xmlns="http://www.w3.org/2000/svg" viewBox="0 0 501 338">
	<path d="M404.93,74.55c10.89,2.1,31.79,8.75,31.79,8.75l-4.86-14a5.43,5.43,0,0,0-6.93-3.32Zm96,45.84a12.16,12.16,0,0,1-2.55,7.27c-24.08,27.85-33.4,55.08-33.4,55.08C210.15,133.21,156.44,338,156.44,338c-6.48-68,9.36-119.77,36.69-158.34-104.42,37.58-173.88,105-173.88,105s27-99.31,112.74-165.23C86.89,121.5,41.8,129.38,0,146,0,146,104.05,22.31,328.47,39.43,332.34,13.92,353.58,0,353.58,0,359,43,416,40.79,436,50.28A70.49,70.49,0,0,1,442.17,63c4.12,11.33,1.72,15.4,12.6,20.58l35.09,17.86c1.15.62,3.3,2.1,3.35,2.1A19.55,19.55,0,0,1,501,120.39Z" transform="translate(0 0)" fill-rule="evenodd" />
</svg>