<svg width="113" height="121" viewBox="0 0 113 121" fill="#406AFF" xmlns="http://www.w3.org/2000/svg">
  <path fill-rule="evenodd" clip-rule="evenodd" d="M35.9871 32.9631C34.6395 32.4709 33.175 33.2102 32.7089 34.627L30.4097 41.6513C30.4097 41.6513 40.2929 38.3255 45.4452 37.2773L35.9871 32.9631ZM3.68715 51.7542C3.71055 51.7542 4.72659 51.0149 5.26872 50.706L21.8682 41.7728C27.0146 39.1842 25.8815 37.1517 27.8297 31.4845C28.4947 29.5756 29.4522 27.3577 30.7588 25.1378C40.2344 20.3932 67.1656 21.5031 69.7379 0C69.7379 0 79.7849 6.96247 81.6161 19.7157C187.781 11.1531 237 73.0102 237 73.0102C217.228 64.6927 195.897 60.7491 174.561 59.703C215.122 92.6641 227.893 142.322 227.893 142.322C227.893 142.322 195.033 108.622 145.639 89.8305C158.568 109.116 166.06 134.991 162.997 169C162.997 169 137.589 66.6037 17.0319 91.3708C17.0319 91.3708 12.6207 77.7548 1.23195 63.8298C0.514303 62.967 0.106731 61.6738 0.024826 60.1952C-0.211139 56.8674 1.25339 53.727 3.68715 51.7542Z"/>
</svg>
