<svg id='status_start' viewBox="0 0 30 30" fill="none" xmlns="http://www.w3.org/2000/svg">
<rect x="0.5" y="0.5" width="29" height="29" rx="14.5" fill="#18191A" stroke="white"/>
<path fill-rule="evenodd" clip-rule="evenodd" d="M21.2147 11.5356C21.3234 11.4978 21.4416 11.5546 21.4792 11.6636L21.6646 12.2039C21.6646 12.2039 20.8674 11.9481 20.4518 11.8675L21.2147 11.5356ZM23.8202 12.9811C23.8183 12.9811 23.7364 12.9242 23.6926 12.9005L22.3536 12.2133C21.9385 12.0142 22.0299 11.8578 21.8728 11.4219C21.8191 11.275 21.7419 11.1044 21.6365 10.9337C20.8721 10.5687 18.6997 10.6541 18.4922 9C18.4922 9 17.6818 9.53557 17.5341 10.5166C8.97027 9.85793 5 14.6162 5 14.6162C6.59494 13.9764 8.31556 13.673 10.0367 13.5925C6.76483 16.128 5.73462 19.9478 5.73462 19.9478C5.73462 19.9478 8.38525 17.3555 12.3697 15.91C11.3267 17.3935 10.7224 19.3839 10.9695 22C10.9695 22 13.019 14.1234 22.7438 16.0285C22.7438 16.0285 23.0996 14.9811 24.0183 13.91C24.0762 13.8436 24.109 13.7441 24.1156 13.6304C24.1347 13.3744 24.0165 13.1328 23.8202 12.9811Z" fill="white"/>
</svg>
