<svg id="status_puma" fill="white" viewBox="0 0 21 14" fill="none" xmlns="http://www.w3.org/2000/svg">
<path id="status_puma_Vector" fill-rule="evenodd" clip-rule="evenodd" d="M17.205 3.53123C17.3137 3.49337 17.4318 3.55024 17.4694 3.65922L17.6549 4.19955C17.6549 4.19955 16.8576 3.94372 16.442 3.86309L17.205 3.53123ZM19.8105 4.97669C19.8086 4.97669 19.7266 4.91983 19.6829 4.89606L18.3439 4.20889C17.9287 4.00978 18.0201 3.85343 17.863 3.41749C17.8094 3.27065 17.7321 3.10004 17.6267 2.92928C16.8624 2.56431 14.69 2.64969 14.4825 0.995605C14.4825 0.995605 13.672 1.53118 13.5243 2.5122C4.96051 1.85354 0.990234 6.61177 0.990234 6.61177C2.58517 5.97197 4.3058 5.66862 6.02689 5.58815C2.75506 8.12361 1.72486 11.9434 1.72486 11.9434C1.72486 11.9434 4.37548 9.35111 8.35991 7.90564C7.31697 9.38913 6.7126 11.3795 6.95972 13.9956C6.95972 13.9956 9.00928 6.11897 18.734 8.02413C18.734 8.02413 19.0898 6.97674 20.0085 5.90559C20.0664 5.83922 20.0993 5.73974 20.1059 5.626C20.1249 5.37002 20.0068 5.12845 19.8105 4.97669Z" />
</svg>
