<svg viewBox="0 0 606 218" fill="none" xmlns="http://www.w3.org/2000/svg">
<path fill-rule="evenodd" clip-rule="evenodd" d="M299.236 217.2C281.836 217.2 266.336 212.9 252.736 204.3C240.893 196.811 231.248 186.44 223.804 173.187C249.498 155.162 287.352 143.677 342.309 154.887C342.309 154.887 347.409 139.257 360.576 123.272C361.405 122.282 361.877 120.797 361.971 119.1C362.244 115.28 360.551 111.675 357.737 109.41C357.728 109.41 357.595 109.318 357.399 109.183C356.997 108.906 356.329 108.445 355.909 108.207L336.718 97.9522C332.339 95.7654 331.892 93.9243 331.064 90.5116C330.767 89.287 330.42 87.86 329.826 86.142C329.057 83.9507 327.95 81.4047 326.439 78.8564C323.599 77.4445 319.403 76.4843 314.694 75.4064C301.234 72.3262 283.578 68.2853 281.375 50C281.375 50 269.759 57.9924 267.642 72.6322C247.63 71.0296 229.368 71.5759 212.818 73.6131C214.69 65.2573 217.296 57.5196 220.636 50.4C228.436 34 239.136 21.5 252.736 12.9C266.336 4.3 281.836 0 299.236 0C316.636 0 332.136 4.3 345.736 12.9C359.336 21.5 369.936 34 377.536 50.4C385.336 66.6 389.236 86 389.236 108.6C389.236 131.2 385.336 150.7 377.536 167.1C369.936 183.3 359.336 195.7 345.736 204.3C332.136 212.9 316.636 217.2 299.236 217.2ZM194.7 169.5H160.5V213.6H113.1V169.5H0V136.8L99 3.59999H150L58.2 129.9H114.6V90.6H160.5V129.9H194.7V169.5ZM570.949 169.5H605.149V129.9H570.949V90.6H525.049V129.9H468.649L560.449 3.59999H509.449L410.449 136.8V169.5H523.549V213.6H570.949V169.5ZM324.185 89.7494C323.646 88.123 321.953 87.2743 320.395 87.8393L309.46 92.7917C315.417 93.995 326.843 97.8127 326.843 97.8127L324.185 89.7494Z" fill="#406AFF"/>
</svg>
