<svg width="279" height="125" viewBox="0 0 279 125" fill="none" xmlns="http://www.w3.org/2000/svg">
    <path d="M25.1583 46.7153C20.5929 46.7153 16.4543 45.7339 12.7423 43.7713C9.07292 41.7659 6.17158 39.0139 4.03825 35.5153C1.94758 31.9739 0.90225 27.9846 0.90225 23.5473C0.90225 19.1099 1.94758 15.1419 4.03825 11.6433C6.17158 8.10193 9.07292 5.34993 12.7423 3.38726C16.4543 1.38193 20.6143 0.379265 25.2223 0.379265C29.1049 0.379265 32.6036 1.06193 35.7183 2.42727C38.8756 3.7926 41.5209 5.75527 43.6543 8.31527L36.9983 14.4593C33.9689 10.9606 30.2143 9.21127 25.7343 9.21127C22.9609 9.21127 20.4863 9.82993 18.3103 11.0673C16.1343 12.2619 14.4276 13.9473 13.1903 16.1233C11.9956 18.2993 11.3983 20.7739 11.3983 23.5473C11.3983 26.3206 11.9956 28.7953 13.1903 30.9713C14.4276 33.1473 16.1343 34.8539 18.3103 36.0913C20.4863 37.2859 22.9609 37.8833 25.7343 37.8833C30.2143 37.8833 33.9689 36.1126 36.9983 32.5713L43.6543 38.7153C41.5209 41.3179 38.8756 43.3019 35.7183 44.6673C32.5609 46.0326 29.0409 46.7153 25.1583 46.7153ZM71.4143 46.7153C66.7636 46.7153 62.5609 45.7126 58.8063 43.7073C55.0943 41.7019 52.1716 38.9499 50.0383 35.4513C47.9476 31.9099 46.9023 27.9419 46.9023 23.5473C46.9023 19.1526 47.9476 15.2059 50.0383 11.7073C52.1716 8.16593 55.0943 5.3926 58.8063 3.38726C62.5609 1.38193 66.7636 0.379265 71.4143 0.379265C76.0649 0.379265 80.2463 1.38193 83.9583 3.38726C87.6703 5.3926 90.5929 8.16593 92.7263 11.7073C94.8596 15.2059 95.9263 19.1526 95.9263 23.5473C95.9263 27.9419 94.8596 31.9099 92.7263 35.4513C90.5929 38.9499 87.6703 41.7019 83.9583 43.7073C80.2463 45.7126 76.0649 46.7153 71.4143 46.7153ZM71.4143 37.8833C74.0596 37.8833 76.4489 37.2859 78.5823 36.0913C80.7156 34.8539 82.3796 33.1473 83.5743 30.9713C84.8116 28.7953 85.4303 26.3206 85.4303 23.5473C85.4303 20.7739 84.8116 18.2993 83.5743 16.1233C82.3796 13.9473 80.7156 12.2619 78.5823 11.0673C76.4489 9.82993 74.0596 9.21127 71.4143 9.21127C68.7689 9.21127 66.3796 9.82993 64.2463 11.0673C62.1129 12.2619 60.4276 13.9473 59.1903 16.1233C57.9956 18.2993 57.3983 20.7739 57.3983 23.5473C57.3983 26.3206 57.9956 28.7953 59.1903 30.9713C60.4276 33.1473 62.1129 34.8539 64.2463 36.0913C66.3796 37.2859 68.7689 37.8833 71.4143 37.8833ZM144.486 45.9473L144.422 19.0673L131.238 41.2113H126.566L113.446 19.6433V45.9473H103.718V1.14726H112.294L129.062 28.9873L145.574 1.14726H154.086L154.214 45.9473H144.486ZM164.843 1.14726H175.211V45.9473H164.843V1.14726ZM226.931 1.14726V45.9473H218.419L196.083 18.7473V45.9473H185.843V1.14726H194.419L216.691 28.3473V1.14726H226.931ZM267.803 22.8433H277.275V41.0193C274.843 42.8539 272.027 44.2619 268.827 45.2433C265.627 46.2246 262.405 46.7153 259.163 46.7153C254.512 46.7153 250.331 45.7339 246.619 43.7713C242.907 41.7659 239.984 39.0139 237.851 35.5153C235.76 31.9739 234.715 27.9846 234.715 23.5473C234.715 19.1099 235.76 15.1419 237.851 11.6433C239.984 8.10193 242.928 5.34993 246.683 3.38726C250.437 1.38193 254.661 0.379265 259.355 0.379265C263.28 0.379265 266.843 1.0406 270.043 2.36326C273.243 3.68593 275.931 5.60593 278.107 8.12326L271.451 14.2673C268.251 10.8966 264.389 9.21127 259.867 9.21127C257.008 9.21127 254.469 9.8086 252.251 11.0033C250.032 12.1979 248.304 13.8833 247.067 16.0593C245.829 18.2353 245.211 20.7313 245.211 23.5473C245.211 26.3206 245.829 28.7953 247.067 30.9713C248.304 33.1473 250.011 34.8539 252.187 36.0913C254.405 37.2859 256.923 37.8833 259.739 37.8833C262.725 37.8833 265.413 37.2433 267.803 35.9633V22.8433ZM59.782 124.715C56.2407 124.715 52.806 124.246 49.478 123.307C46.1927 122.326 43.5473 121.067 41.542 119.531L45.062 111.723C46.982 113.131 49.2647 114.262 51.91 115.115C54.5553 115.969 57.2007 116.395 59.846 116.395C62.79 116.395 64.966 115.969 66.374 115.115C67.782 114.219 68.486 113.046 68.486 111.595C68.486 110.529 68.0593 109.654 67.206 108.971C66.3953 108.246 65.3287 107.67 64.006 107.243C62.726 106.817 60.9767 106.347 58.758 105.835C55.3447 105.025 52.55 104.214 50.374 103.403C48.198 102.593 46.3207 101.291 44.742 99.4993C43.206 97.7073 42.438 95.3179 42.438 92.3313C42.438 89.7286 43.142 87.3819 44.55 85.2913C45.958 83.1579 48.07 81.4726 50.886 80.2353C53.7447 78.9979 57.222 78.3793 61.318 78.3793C64.1767 78.3793 66.9713 78.7206 69.702 79.4033C72.4327 80.0859 74.822 81.0673 76.87 82.3473L73.67 90.2193C69.5313 87.8726 65.3927 86.6993 61.254 86.6993C58.3527 86.6993 56.198 87.1686 54.79 88.1073C53.4247 89.0459 52.742 90.2833 52.742 91.8193C52.742 93.3553 53.5313 94.5073 55.11 95.2753C56.7313 96.0006 59.1847 96.7259 62.47 97.4513C65.8833 98.2619 68.678 99.0726 70.854 99.8833C73.03 100.694 74.886 101.974 76.422 103.723C78.0007 105.473 78.79 107.841 78.79 110.827C78.79 113.387 78.0647 115.734 76.614 117.867C75.206 119.958 73.0727 121.622 70.214 122.859C67.3553 124.097 63.878 124.715 59.782 124.715ZM107.571 124.715C102.92 124.715 98.7172 123.713 94.9625 121.707C91.2505 119.702 88.3278 116.95 86.1945 113.451C84.1038 109.91 83.0585 105.942 83.0585 101.547C83.0585 97.1526 84.1038 93.2059 86.1945 89.7073C88.3278 86.1659 91.2505 83.3926 94.9625 81.3873C98.7172 79.3819 102.92 78.3793 107.571 78.3793C112.221 78.3793 116.403 79.3819 120.115 81.3873C123.827 83.3926 126.749 86.1659 128.883 89.7073C131.016 93.2059 132.083 97.1526 132.083 101.547C132.083 105.942 131.016 109.91 128.883 113.451C126.749 116.95 123.827 119.702 120.115 121.707C116.403 123.713 112.221 124.715 107.571 124.715ZM107.571 115.883C110.216 115.883 112.605 115.286 114.739 114.091C116.872 112.854 118.536 111.147 119.731 108.971C120.968 106.795 121.587 104.321 121.587 101.547C121.587 98.7739 120.968 96.2993 119.731 94.1233C118.536 91.9473 116.872 90.2619 114.739 89.0673C112.605 87.8299 110.216 87.2113 107.571 87.2113C104.925 87.2113 102.536 87.8299 100.403 89.0673C98.2692 90.2619 96.5838 91.9473 95.3465 94.1233C94.1518 96.2993 93.5545 98.7739 93.5545 101.547C93.5545 104.321 94.1518 106.795 95.3465 108.971C96.5838 111.147 98.2692 112.854 100.403 114.091C102.536 115.286 104.925 115.883 107.571 115.883ZM161.571 124.715C156.92 124.715 152.717 123.713 148.963 121.707C145.251 119.702 142.328 116.95 140.195 113.451C138.104 109.91 137.059 105.942 137.059 101.547C137.059 97.1526 138.104 93.2059 140.195 89.7073C142.328 86.1659 145.251 83.3926 148.963 81.3873C152.717 79.3819 156.92 78.3793 161.571 78.3793C166.221 78.3793 170.403 79.3819 174.115 81.3873C177.827 83.3926 180.749 86.1659 182.883 89.7073C185.016 93.2059 186.083 97.1526 186.083 101.547C186.083 105.942 185.016 109.91 182.883 113.451C180.749 116.95 177.827 119.702 174.115 121.707C170.403 123.713 166.221 124.715 161.571 124.715ZM161.571 115.883C164.216 115.883 166.605 115.286 168.739 114.091C170.872 112.854 172.536 111.147 173.731 108.971C174.968 106.795 175.587 104.321 175.587 101.547C175.587 98.7739 174.968 96.2993 173.731 94.1233C172.536 91.9473 170.872 90.2619 168.739 89.0673C166.605 87.8299 164.216 87.2113 161.571 87.2113C158.925 87.2113 156.536 87.8299 154.403 89.0673C152.269 90.2619 150.584 91.9473 149.347 94.1233C148.152 96.2993 147.555 98.7739 147.555 101.547C147.555 104.321 148.152 106.795 149.347 108.971C150.584 111.147 152.269 112.854 154.403 114.091C156.536 115.286 158.925 115.883 161.571 115.883ZM234.963 79.1473V123.947H226.451L204.115 96.7473V123.947H193.875V79.1473H202.451L224.722 106.347V79.1473H234.963Z" fill="#F3BA2F"/>
</svg>
