<svg width="495" height="47" viewBox="0 0 495 47" fill="none" xmlns="http://www.w3.org/2000/svg">
    <path d="M24.9395 46.768C20.3742 46.768 16.2355 45.7867 12.5235 43.824C8.85417 41.8187 5.95283 39.0667 3.8195 35.568C1.72883 32.0267 0.6835 28.0373 0.6835 23.6C0.6835 19.1627 1.72883 15.1947 3.8195 11.696C5.95283 8.15467 8.85417 5.40267 12.5235 3.44C16.2355 1.43467 20.3955 0.431999 25.0035 0.431999C28.8862 0.431999 32.3848 1.11467 35.4995 2.48C38.6568 3.84533 41.3022 5.808 43.4355 8.368L36.7795 14.512C33.7502 11.0133 29.9955 9.264 25.5155 9.264C22.7422 9.264 20.2675 9.88267 18.0915 11.12C15.9155 12.3147 14.2088 14 12.9715 16.176C11.7768 18.352 11.1795 20.8267 11.1795 23.6C11.1795 26.3733 11.7768 28.848 12.9715 31.024C14.2088 33.2 15.9155 34.9067 18.0915 36.144C20.2675 37.3387 22.7422 37.936 25.5155 37.936C29.9955 37.936 33.7502 36.1653 36.7795 32.624L43.4355 38.768C41.3022 41.3707 38.6568 43.3547 35.4995 44.72C32.3422 46.0853 28.8222 46.768 24.9395 46.768ZM71.1955 46.768C66.5448 46.768 62.3422 45.7653 58.5875 43.76C54.8755 41.7547 51.9528 39.0027 49.8195 35.504C47.7288 31.9627 46.6835 27.9947 46.6835 23.6C46.6835 19.2053 47.7288 15.2587 49.8195 11.76C51.9528 8.21866 54.8755 5.44533 58.5875 3.44C62.3422 1.43467 66.5448 0.431999 71.1955 0.431999C75.8462 0.431999 80.0275 1.43467 83.7395 3.44C87.4515 5.44533 90.3742 8.21866 92.5075 11.76C94.6408 15.2587 95.7075 19.2053 95.7075 23.6C95.7075 27.9947 94.6408 31.9627 92.5075 35.504C90.3742 39.0027 87.4515 41.7547 83.7395 43.76C80.0275 45.7653 75.8462 46.768 71.1955 46.768ZM71.1955 37.936C73.8408 37.936 76.2302 37.3387 78.3635 36.144C80.4968 34.9067 82.1608 33.2 83.3555 31.024C84.5928 28.848 85.2115 26.3733 85.2115 23.6C85.2115 20.8267 84.5928 18.352 83.3555 16.176C82.1608 14 80.4968 12.3147 78.3635 11.12C76.2302 9.88267 73.8408 9.264 71.1955 9.264C68.5502 9.264 66.1608 9.88267 64.0275 11.12C61.8942 12.3147 60.2088 14 58.9715 16.176C57.7768 18.352 57.1795 20.8267 57.1795 23.6C57.1795 26.3733 57.7768 28.848 58.9715 31.024C60.2088 33.2 61.8942 34.9067 64.0275 36.144C66.1608 37.3387 68.5502 37.936 71.1955 37.936ZM144.268 46L144.204 19.12L131.02 41.264H126.348L113.228 19.696V46H103.5V1.2H112.076L128.844 29.04L145.356 1.2H153.868L153.996 46H144.268ZM164.625 1.2H174.993V46H164.625V1.2ZM226.713 1.2V46H218.201L195.865 18.8V46H185.625V1.2H194.201L216.472 28.4V1.2H226.713ZM267.584 22.896H277.056V41.072C274.624 42.9067 271.808 44.3147 268.608 45.296C265.408 46.2773 262.187 46.768 258.944 46.768C254.293 46.768 250.112 45.7867 246.4 43.824C242.688 41.8187 239.765 39.0667 237.632 35.568C235.541 32.0267 234.496 28.0373 234.496 23.6C234.496 19.1627 235.541 15.1947 237.632 11.696C239.765 8.15467 242.709 5.40267 246.464 3.44C250.219 1.43467 254.443 0.431999 259.136 0.431999C263.061 0.431999 266.624 1.09333 269.824 2.416C273.024 3.73866 275.712 5.65866 277.888 8.176L271.232 14.32C268.032 10.9493 264.171 9.264 259.648 9.264C256.789 9.264 254.251 9.86133 252.032 11.056C249.813 12.2507 248.085 13.936 246.848 16.112C245.611 18.288 244.992 20.784 244.992 23.6C244.992 26.3733 245.611 28.848 246.848 31.024C248.085 33.2 249.792 34.9067 251.968 36.144C254.187 37.3387 256.704 37.936 259.52 37.936C262.507 37.936 265.195 37.296 267.584 36.016V22.896ZM319.532 46.768C315.991 46.768 312.556 46.2987 309.228 45.36C305.943 44.3787 303.297 43.12 301.292 41.584L304.812 33.776C306.732 35.184 309.015 36.3147 311.66 37.168C314.305 38.0213 316.951 38.448 319.596 38.448C322.54 38.448 324.716 38.0213 326.124 37.168C327.532 36.272 328.236 35.0987 328.236 33.648C328.236 32.5813 327.809 31.7067 326.956 31.024C326.145 30.2987 325.079 29.7227 323.756 29.296C322.476 28.8693 320.727 28.4 318.508 27.888C315.095 27.0773 312.3 26.2667 310.124 25.456C307.948 24.6453 306.071 23.344 304.492 21.552C302.956 19.76 302.188 17.3707 302.188 14.384C302.188 11.7813 302.892 9.43467 304.3 7.344C305.708 5.21066 307.82 3.52533 310.636 2.288C313.495 1.05067 316.972 0.431999 321.068 0.431999C323.927 0.431999 326.721 0.773332 329.452 1.456C332.183 2.13867 334.572 3.12 336.62 4.4L333.42 12.272C329.281 9.92533 325.143 8.752 321.004 8.752C318.103 8.752 315.948 9.22133 314.54 10.16C313.175 11.0987 312.492 12.336 312.492 13.872C312.492 15.408 313.281 16.56 314.86 17.328C316.481 18.0533 318.935 18.7787 322.22 19.504C325.633 20.3147 328.428 21.1253 330.604 21.936C332.78 22.7467 334.636 24.0267 336.172 25.776C337.751 27.5253 338.54 29.8933 338.54 32.88C338.54 35.44 337.815 37.7867 336.364 39.92C334.956 42.0107 332.823 43.6747 329.964 44.912C327.105 46.1493 323.628 46.768 319.532 46.768ZM367.321 46.768C362.67 46.768 358.467 45.7653 354.713 43.76C351.001 41.7547 348.078 39.0027 345.945 35.504C343.854 31.9627 342.809 27.9947 342.809 23.6C342.809 19.2053 343.854 15.2587 345.945 11.76C348.078 8.21866 351.001 5.44533 354.713 3.44C358.467 1.43467 362.67 0.431999 367.321 0.431999C371.971 0.431999 376.153 1.43467 379.865 3.44C383.577 5.44533 386.499 8.21866 388.633 11.76C390.766 15.2587 391.833 19.2053 391.833 23.6C391.833 27.9947 390.766 31.9627 388.633 35.504C386.499 39.0027 383.577 41.7547 379.865 43.76C376.153 45.7653 371.971 46.768 367.321 46.768ZM367.321 37.936C369.966 37.936 372.355 37.3387 374.489 36.144C376.622 34.9067 378.286 33.2 379.481 31.024C380.718 28.848 381.337 26.3733 381.337 23.6C381.337 20.8267 380.718 18.352 379.481 16.176C378.286 14 376.622 12.3147 374.489 11.12C372.355 9.88267 369.966 9.264 367.321 9.264C364.675 9.264 362.286 9.88267 360.153 11.12C358.019 12.3147 356.334 14 355.097 16.176C353.902 18.352 353.305 20.8267 353.305 23.6C353.305 26.3733 353.902 28.848 355.097 31.024C356.334 33.2 358.019 34.9067 360.153 36.144C362.286 37.3387 364.675 37.936 367.321 37.936ZM421.321 46.768C416.67 46.768 412.467 45.7653 408.713 43.76C405.001 41.7547 402.078 39.0027 399.945 35.504C397.854 31.9627 396.809 27.9947 396.809 23.6C396.809 19.2053 397.854 15.2587 399.945 11.76C402.078 8.21866 405.001 5.44533 408.713 3.44C412.467 1.43467 416.67 0.431999 421.321 0.431999C425.971 0.431999 430.153 1.43467 433.865 3.44C437.577 5.44533 440.499 8.21866 442.633 11.76C444.766 15.2587 445.833 19.2053 445.833 23.6C445.833 27.9947 444.766 31.9627 442.633 35.504C440.499 39.0027 437.577 41.7547 433.865 43.76C430.153 45.7653 425.971 46.768 421.321 46.768ZM421.321 37.936C423.966 37.936 426.355 37.3387 428.489 36.144C430.622 34.9067 432.286 33.2 433.481 31.024C434.718 28.848 435.337 26.3733 435.337 23.6C435.337 20.8267 434.718 18.352 433.481 16.176C432.286 14 430.622 12.3147 428.489 11.12C426.355 9.88267 423.966 9.264 421.321 9.264C418.675 9.264 416.286 9.88267 414.153 11.12C412.019 12.3147 410.334 14 409.097 16.176C407.902 18.352 407.305 20.8267 407.305 23.6C407.305 26.3733 407.902 28.848 409.097 31.024C410.334 33.2 412.019 34.9067 414.153 36.144C416.286 37.3387 418.675 37.936 421.321 37.936ZM494.713 1.2V46H486.201L463.865 18.8V46H453.625V1.2H462.201L484.472 28.4V1.2H494.713Z" fill="#F3BA2F"/>
</svg>
