<svg width="334" height="63" viewBox="0 0 334 63" fill="none" xmlns="http://www.w3.org/2000/svg">
<g opacity="0.25">
<path opacity="0.25" d="M196.8 43.6C197.6 44.5 198.1 45.8 198.1 47.2V50C198.1 52.8 195.8 55.1 193 55.1H183.8C181 55.1 178.7 52.8 178.7 50V48.3C178.7 47.5 179.4 46.8 180.2 46.8C181 46.8 181.7 47.5 181.7 48.3V50C181.7 51.1 182.6 52.1 183.7 52.1H192.9C194.1 52.1 195 51.2 195 50V47.2C195 46.1 194.3 45.3 194.1 45.1H183.7C182.9 45.1 182.3 44.5 182.2 43.7C182.2 42.8 182.9 42.1 183.7 42.1H194.1C194.4 41.8 195 41 195 40V36.6C195 35.5 194.1 34.6 192.9 34.6H183.7C182.6 34.6 181.7 35.5 181.7 36.6V38.3C181.7 39.1 181 39.8 180.2 39.8C179.3 39.8 178.7 39.1 178.7 38.3V36.6C178.7 33.8 181 31.5 183.8 31.5H193C195.8 31.5 198.1 33.8 198.1 36.6V40C198.1 41.4 197.5 42.7 196.8 43.6Z" fill="black"/>
</g>
<path opacity="0.5" d="M228.9 18.7998H231.2L233.7 21.2998L231.2 23.7998H228.9L231.4 21.2998L228.9 18.7998ZM226.5 21.2998L224 23.7998H226.3L228.8 21.2998L226.3 18.7998H224L226.5 21.2998ZM221.6 21.2998L219.1 23.7998H221.4L223.9 21.2998L221.4 18.7998H219.1L221.6 21.2998ZM216.7 21.2998L214.2 23.7998H216.5L219 21.2998L216.5 18.7998H214.2L216.7 21.2998ZM211.8 21.2998L209.3 23.7998H211.6L214.1 21.2998L211.6 18.7998H209.3L211.8 21.2998ZM206.9 21.2998L204.4 23.7998H206.7L209.2 21.2998L206.7 18.7998H204.4L206.9 21.2998ZM202 21.2998L199.5 23.7998H201.8L204.3 21.2998L201.8 18.7998H199.5L202 21.2998ZM197.1 21.2998L194.6 23.7998H196.9L199.4 21.2998L196.9 18.7998H194.6L197.1 21.2998ZM192.2 21.2998L189.7 23.7998H192L194.5 21.2998L192 18.7998H189.7L192.2 21.2998ZM187.3 21.2998L184.8 23.7998H187.1L189.6 21.2998L187.1 18.7998H184.8L187.3 21.2998Z" fill="white"/>
<path d="M322.7 42L315.7 49H322.1L329.1 42L322.1 35H315.7L322.7 42ZM309 42L302 49H308.4L315.4 42L308.4 35H302L309 42ZM295.2 42L288.2 49H294.6L301.6 42L294.6 35H288.2L295.2 42ZM281.4 42L274.4 49H280.8L287.8 42L280.8 35H274.4L281.4 42ZM267.7 42L260.7 49H267.1L274.1 42L267.1 35H260.7L267.7 42ZM253.9 42L246.9 49H253.3L260.3 42L253.3 35H246.9L253.9 42ZM240.1 42L233.1 49H239.5L246.5 42L239.5 35H233.1L240.1 42ZM226.4 42L219.4 49H225.8L232.8 42L225.8 35H219.4L226.4 42ZM212.6 42L205.6 49H212L219 42L212 35H205.6L212.6 42Z" fill="#2CD9FF"/>
<g opacity="0.26">
<path opacity="0.26" d="M164.3 46.6999L158 40.8999C157.7 40.5999 157.5 40.2999 157.5 39.8999C157.5 39.6999 157.6 39.4999 157.7 39.2999C157.8 39.0999 157.9 38.8999 158.1 38.7999C158.3 38.6999 158.5 38.4999 158.7 38.4999C158.9 38.3999 159.2 38.3999 159.5 38.3999C160.1 38.3999 160.6 38.5999 161 38.8999L166.9 44.3999L172.8 38.8999C173.2 38.5999 173.7 38.3999 174.3 38.3999C174.6 38.3999 174.9 38.3999 175.1 38.4999C175.3 38.5999 175.6 38.6999 175.7 38.7999C175.8 38.8999 176 39.0999 176.1 39.2999C176.2 39.4999 176.3 39.6999 176.3 39.8999C176.3 40.2999 176.1 40.5999 175.8 40.8999L169.5 46.6999L175.9 52.5999C176.2 52.8999 176.3 53.1999 176.3 53.5999C176.3 53.7999 176.2 53.9999 176.1 54.1999C176 54.3999 175.8 54.5999 175.7 54.6999C175.5 54.7999 175.3 54.9999 175.1 54.9999C174.9 54.9999 174.6 55.0999 174.3 55.0999C173.7 55.0999 173.3 54.8999 172.8 54.5999L166.9 49.0999L160.9 54.5999C160.5 54.8999 160 55.0999 159.5 55.0999C159.2 55.0999 158.9 55.0999 158.7 54.9999C158.5 54.8999 158.2 54.7999 158.1 54.6999C157.9 54.5999 157.8 54.3999 157.7 54.1999C157.6 53.9999 157.5 53.7999 157.5 53.5999C157.5 53.1999 157.6 52.8999 157.9 52.5999L164.3 46.6999Z" fill="black"/>
</g>
<path d="M163.3 45.6999L157 39.8999C156.7 39.5999 156.5 39.2999 156.5 38.8999C156.5 38.6999 156.6 38.4999 156.7 38.2999C156.8 38.0999 156.9 37.8999 157.1 37.7999C157.3 37.6999 157.5 37.4999 157.7 37.4999C157.9 37.3999 158.2 37.3999 158.5 37.3999C159.1 37.3999 159.6 37.5999 160 37.8999L165.9 43.3999L171.8 37.8999C172.2 37.5999 172.7 37.3999 173.3 37.3999C173.6 37.3999 173.9 37.3999 174.1 37.4999C174.3 37.5999 174.6 37.6999 174.7 37.7999C174.8 37.8999 175 38.0999 175.1 38.2999C175.2 38.4999 175.3 38.6999 175.3 38.8999C175.3 39.2999 175.1 39.5999 174.8 39.8999L168.5 45.6999L174.9 51.5999C175.2 51.8999 175.3 52.1999 175.3 52.5999C175.3 52.7999 175.2 52.9999 175.1 53.1999C175 53.3999 174.8 53.5999 174.7 53.6999C174.5 53.7999 174.3 53.9999 174.1 53.9999C173.9 53.9999 173.6 54.0999 173.3 54.0999C172.7 54.0999 172.3 53.8999 171.8 53.5999L165.9 48.0999L159.9 53.5999C159.5 53.8999 159 54.0999 158.5 54.0999C158.2 54.0999 157.9 54.0999 157.7 53.9999C157.5 53.8999 157.2 53.7999 157.1 53.6999C156.9 53.5999 156.8 53.3999 156.7 53.1999C156.6 52.9999 156.5 52.7999 156.5 52.5999C156.5 52.1999 156.6 51.8999 156.9 51.5999L163.3 45.6999Z" fill="#D03A94"/>
<g opacity="0.25">
<path opacity="0.25" d="M44.2002 12.2002C44.9002 12.2002 45.5002 12.8002 45.5002 13.5002C45.5002 14.2002 44.9002 14.8002 44.2002 14.8002H32.5002C31.5002 14.8002 30.8002 15.6002 30.8002 16.5002V20.8002H42.9002C43.6002 20.8002 44.2002 21.4002 44.2002 22.1002C44.2002 22.9002 43.6002 23.4002 42.9002 23.4002H30.8002V31.1002C30.8002 31.8002 30.2002 32.4002 29.5002 32.4002C28.8002 32.4002 28.2002 31.8002 28.2002 31.1002V16.6002C28.2002 14.2002 30.2002 12.2002 32.6002 12.2002H44.2002Z" fill="black"/>
<path opacity="0.25" d="M63.4006 12.3002C65.8006 12.3002 67.8006 14.3002 67.8006 16.7002V28.3002C67.8006 30.7002 65.8006 32.7002 63.4006 32.7002H52.0006C49.6006 32.7002 47.6006 30.7002 47.6006 28.3002V16.6002C47.6006 14.2002 49.6006 12.2002 52.0006 12.2002H63.4006V12.3002ZM50.3006 28.2002C50.3006 29.1002 51.1006 29.9002 52.0006 29.9002H63.4006C64.4006 29.9002 65.1006 29.1002 65.1006 28.2002V16.6002C65.1006 15.7002 64.3006 14.9002 63.4006 14.9002H52.0006C51.1006 14.9002 50.3006 15.7002 50.3006 16.6002V28.2002Z" fill="black"/>
<path opacity="0.25" d="M89.8002 16.6002V20.7002C89.8002 23.1002 87.9002 25.0002 85.5002 25.1002C86.1002 26.5002 87.1002 29.0002 87.8002 30.7002C87.9002 30.9002 87.9002 31.0002 87.9002 31.2002C87.9002 31.7002 87.5002 32.2002 87.1002 32.4002C86.9002 32.5002 86.8002 32.5002 86.6002 32.5002C86.1002 32.5002 85.6002 32.2002 85.4002 31.7002L82.8002 25.1002H73.8002V31.2002C73.8002 31.9002 73.2002 32.5002 72.5002 32.5002C71.8002 32.5002 71.2002 31.9002 71.2002 31.2002V16.6002C71.2002 14.2002 73.2002 12.2002 75.6002 12.2002H85.6002C87.8002 12.2002 89.8002 14.2002 89.8002 16.6002ZM87.2002 16.6002C87.2002 15.7002 86.4002 14.9002 85.4002 14.9002H75.4002C74.4002 14.9002 73.7002 15.7002 73.7002 16.6002V22.5002H85.5002C86.5002 22.5002 87.3002 21.7002 87.3002 20.8002V16.6002H87.2002Z" fill="black"/>
<path opacity="0.25" d="M109.5 12.3003C110.2 12.3003 110.8 12.9003 110.8 13.6003C110.8 14.3003 110.2 14.9003 109.5 14.9003H97.4004C96.4004 14.9003 95.6004 15.7003 95.6004 16.6003V19.3003C95.6004 20.2003 96.4004 21.0003 97.4004 21.0003H106.5C108.9 21.0003 110.8 23.0003 110.8 25.4003V28.1003C110.8 30.5003 108.8 32.5003 106.5 32.5003H94.3004C93.6004 32.5003 93.0004 31.9003 93.0004 31.2003C93.0004 30.5003 93.6004 29.9003 94.3004 29.9003H106.4C107.3 29.9003 108.1 29.1003 108.1 28.2003V25.5003C108.1 24.5003 107.3 23.8003 106.4 23.8003H97.3004C94.9004 23.8003 92.9004 21.8003 92.9004 19.4003V16.7003C92.9004 14.3003 94.9004 12.3003 97.3004 12.3003H109.5Z" fill="black"/>
<path opacity="0.25" d="M128.2 12.2002C130.6 12.2002 132.6 14.2002 132.6 16.6002V31.2002C132.6 31.9002 132 32.5002 131.3 32.5002C130.6 32.5002 130 31.9002 130 31.2002V23.5002H117V31.2002C117 31.9002 116.4 32.5002 115.7 32.5002C115 32.5002 114.4 31.9002 114.4 31.2002V16.6002C114.4 14.2002 116.4 12.2002 118.8 12.2002H128.2ZM117 20.9002H129.9V16.6002C129.9 15.6002 129.1 14.9002 128.2 14.9002H118.7C117.7 14.9002 117 15.7002 117 16.6002V20.9002Z" fill="black"/>
<path opacity="0.25" d="M153.8 12.2002C154.5 12.2002 155.1 12.8002 155.1 13.5002C155.1 14.2002 154.5 14.8002 153.8 14.8002H140.4C139.4 14.8002 138.6 15.6002 138.6 16.7002V28.0002C138.6 29.0002 139.4 29.9002 140.4 29.9002H150.6C151.6 29.9002 152.5 29.1002 152.5 28.0002V23.5002H143.1C142.4 23.5002 141.8 22.9002 141.8 22.2002C141.8 21.5002 142.4 20.9002 143.1 20.9002H153.8C154.5 20.9002 155.1 21.4002 155.1 22.2002V28.0002C155.1 30.5002 153.1 32.5002 150.6 32.5002H140.4C137.9 32.5002 135.9 30.5002 135.9 28.0002V16.8002C135.9 14.3002 137.9 12.3002 140.4 12.3002H153.8V12.2002Z" fill="black"/>
<path opacity="0.25" d="M174.3 29.9002C175 29.9002 175.6 30.5002 175.6 31.2002C175.6 31.9002 175 32.5002 174.3 32.5002H162.8C160.4 32.5002 158.4 30.5002 158.4 28.1002V16.6002C158.4 14.2002 160.4 12.2002 162.8 12.2002H174.3C175 12.2002 175.6 12.8002 175.6 13.5002C175.6 14.2002 175 14.8002 174.3 14.8002H162.8C161.9 14.8002 161.1 15.6002 161.1 16.5002V20.8002H174.1C174.8 20.8002 175.4 21.4002 175.4 22.1002C175.4 22.8002 174.8 23.4002 174.1 23.4002H161.1V28.1002C161.1 29.0002 161.9 29.8002 162.8 29.8002H174.3V29.9002Z" fill="black"/>
</g>
<path d="M43.5 11.6C44.2 11.6 44.8 12.2 44.8 12.9C44.8 13.6 44.2 14.2 43.5 14.2H31.9C30.9 14.2 30.2 15 30.2 15.9V20.2H42.3C43 20.2 43.6 20.8 43.6 21.5C43.6 22.3 43 22.8 42.3 22.8H30.1V30.5C30.1 31.2 29.5 31.8 28.8 31.8C28.1 31.8 27.5 31.2 27.5 30.5V15.9C27.5 13.5 29.5 11.5 31.9 11.5H43.5V11.6Z" fill="white"/>
<path d="M62.8 11.6C65.2 11.6 67.2 13.6 67.2 16V27.6C67.2 30 65.2 32 62.8 32H51.4C49 32 47 30 47 27.6V15.9C47 13.5 49 11.5 51.4 11.5H62.8V11.6ZM49.7 27.5C49.7 28.4 50.5 29.2 51.4 29.2H62.8C63.8 29.2 64.5 28.4 64.5 27.5V15.9C64.5 15 63.7 14.2 62.8 14.2H51.4C50.5 14.2 49.7 15 49.7 15.9V27.5Z" fill="white"/>
<path d="M89.1996 15.9V20C89.1996 22.4 87.2996 24.3 84.8996 24.4C85.4996 25.8 86.4996 28.3 87.1996 30C87.2996 30.2 87.2996 30.3 87.2996 30.5C87.2996 31 86.8996 31.5 86.4996 31.7C86.2996 31.8 86.1996 31.8 85.9996 31.8C85.4996 31.8 84.9996 31.5 84.7996 31L82.1996 24.4H73.1996V30.5C73.1996 31.2 72.5996 31.8 71.8996 31.8C71.1996 31.8 70.5996 31.2 70.5996 30.5V15.9C70.5996 13.5 72.5996 11.5 74.9996 11.5H84.9996C87.1996 11.6 89.1996 13.5 89.1996 15.9ZM86.5996 15.9C86.5996 15 85.7996 14.2 84.7996 14.2H74.7996C73.7996 14.2 73.0996 15 73.0996 15.9V21.8H84.8996C85.8996 21.8 86.6996 21 86.6996 20.1V15.9H86.5996Z" fill="white"/>
<path d="M108.9 11.6001C109.6 11.6001 110.2 12.2001 110.2 12.9001C110.2 13.6001 109.6 14.2001 108.9 14.2001H96.7998C95.7998 14.2001 94.9998 15.0001 94.9998 15.9001V18.6001C94.9998 19.5001 95.7998 20.3001 96.7998 20.3001H105.9C108.3 20.3001 110.2 22.3001 110.2 24.7001V27.4001C110.2 29.8001 108.2 31.8001 105.9 31.8001H93.6998C92.9998 31.8001 92.3998 31.2001 92.3998 30.5001C92.3998 29.8001 92.9998 29.2001 93.6998 29.2001H105.8C106.7 29.2001 107.5 28.4001 107.5 27.5001V24.8001C107.5 23.8001 106.7 23.1001 105.8 23.1001H96.6998C94.2998 23.1001 92.2998 21.1001 92.2998 18.7001V16.0001C92.2998 13.6001 94.2998 11.6001 96.6998 11.6001H108.9Z" fill="white"/>
<path d="M127.5 11.6C129.9 11.6 131.9 13.6 131.9 16V30.6C131.9 31.3 131.3 31.9 130.6 31.9C129.9 31.9 129.3 31.3 129.3 30.6V22.9H116.4V30.6C116.4 31.3 115.8 31.9 115.1 31.9C114.4 31.9 113.8 31.3 113.8 30.6V15.9C113.8 13.5 115.8 11.5 118.2 11.5H127.5V11.6ZM116.3 20.2H129.2V15.9C129.2 14.9 128.4 14.2 127.5 14.2H118C117 14.2 116.3 15 116.3 15.9V20.2Z" fill="white"/>
<path d="M153.2 11.6001C153.9 11.6001 154.5 12.2001 154.5 12.9001C154.5 13.6001 153.9 14.2001 153.2 14.2001H139.8C138.8 14.2001 138 15.0001 138 16.1001V27.4001C138 28.4001 138.8 29.3001 139.8 29.3001H150C151 29.3001 151.9 28.5001 151.9 27.4001V22.9001H142.5C141.8 22.9001 141.2 22.3001 141.2 21.6001C141.2 20.9001 141.8 20.3001 142.5 20.3001H153.2C153.9 20.3001 154.5 20.8001 154.5 21.6001V27.4001C154.5 29.9001 152.5 31.9001 150 31.9001H139.8C137.3 31.9001 135.3 29.9001 135.3 27.4001V16.1001C135.3 13.6001 137.3 11.6001 139.8 11.6001H153.2Z" fill="white"/>
<path d="M173.7 29.3C174.4 29.3 175 29.9 175 30.6C175 31.3 174.4 31.9 173.7 31.9H162.2C159.8 31.9 157.8 29.9 157.8 27.5V15.9C157.8 13.5 159.8 11.5 162.2 11.5H173.7C174.4 11.5 175 12.1 175 12.8C175 13.5 174.4 14.1 173.7 14.1H162.2C161.3 14.1 160.5 14.9 160.5 15.8V20.1H173.5C174.2 20.1 174.8 20.7 174.8 21.4C174.8 22.1 174.2 22.7 173.5 22.7H160.5V27.4C160.5 28.3 161.3 29.1 162.2 29.1H173.7V29.3Z" fill="white"/>
<path d="M195.8 42.6C196.6 43.5 197.1 44.8 197.1 46.2V49C197.1 51.8 194.8 54.1 192 54.1H182.8C180 54.1 177.7 51.8 177.7 49V47.3C177.7 46.5 178.4 45.8 179.2 45.8C180 45.8 180.7 46.5 180.7 47.3V49C180.7 50.1 181.6 51.1 182.7 51.1H191.9C193.1 51.1 194 50.2 194 49V46.2C194 45.1 193.3 44.3 193.1 44.1H182.7C181.9 44.1 181.3 43.5 181.2 42.7C181.2 41.8 181.9 41.1 182.7 41.1H193.1C193.4 40.8 194 40 194 39V35.6C194 34.5 193.1 33.6 191.9 33.6H182.7C181.6 33.6 180.7 34.5 180.7 35.6V37.3C180.7 38.1 180 38.8 179.2 38.8C178.3 38.8 177.7 38.1 177.7 37.3V35.6C177.7 32.8 180 30.5 182.8 30.5H192C194.8 30.5 197.1 32.8 197.1 35.6V39C197.1 40.4 196.5 41.7 195.8 42.6Z" fill="#D03A94"/>
</svg>
