<svg width="226" height="153" viewBox="0 0 226 153" fill="none" xmlns="http://www.w3.org/2000/svg">
<path d="M70.508 151.747C67.9606 123.855 73.5203 100.148 87.0568 81.0889L87.2613 80.81L86.9266 80.9216C58.1821 91.581 31.6923 107.538 8.83138 127.965C10.1516 123.502 23.2046 81.8513 59.4445 53.9973L59.7235 53.7742H59.3702C39.1985 54.445 19.2737 58.4212 0.389648 65.5443C4.29441 61.1746 45.908 17.1996 128.912 17.1996C135.123 17.1996 141.5 17.4413 147.878 17.9247C149.215 10.8219 153.204 4.49349 159.035 0.223145C160.894 14.522 175.769 17.7388 186.591 20.1002C189.372 20.6286 192.117 21.3303 194.81 22.2014C195.653 22.5017 196.359 23.0958 196.799 23.8748C197.616 25.3434 198.318 26.8726 198.9 28.449C199.384 29.7878 199.663 30.8848 199.923 31.8703C200.062 33.2045 200.581 34.4708 201.418 35.5188C202.255 36.5669 203.376 37.3528 204.646 37.7832L220.432 45.8345C220.972 46.1134 221.92 46.7642 221.92 46.7642C223.371 47.8033 224.437 49.2942 224.951 51.0037C225.304 52.05 225.45 53.1555 225.378 54.2576C225.34 55.4266 224.944 56.5557 224.244 57.493C217.802 64.844 212.703 73.2718 209.183 82.3905C198.009 80.0536 186.627 78.8513 175.211 78.8018C130.957 78.8018 104.777 98.7719 90.6083 115.544C81.6075 126.182 74.7787 138.482 70.508 151.747ZM192.132 29.4717C191.841 29.4757 191.552 29.5259 191.277 29.6204L181.98 33.6553H182.333C187.149 34.5851 196.52 37.5787 196.613 37.6159H196.818L194.549 31.1266C194.363 30.637 194.032 30.2161 193.6 29.9203C193.168 29.6244 192.656 29.4679 192.132 29.4717Z" fill="white"/>
<path d="M222.071 46.6716C213.759 43.4548 204.072 39.9591 196.132 37.579C193.441 36.9652 190.715 36.5181 187.969 36.2403C168.984 34.5668 137.932 39.5872 112.421 56.545C102.505 63.0534 93.8751 71.3364 86.9659 80.9777C74.6566 98.3632 67.5164 121.662 70.4543 152.342C70.4543 152.342 94.6266 60.0593 209.371 82.3908C212.914 73.3018 218.018 64.9013 224.451 57.5677C225.187 56.6193 225.598 55.4585 225.622 54.258C225.701 52.7987 225.418 51.3426 224.798 50.0191C224.179 48.6956 223.242 47.5456 222.071 46.6716Z" fill="url(#paint0_linear_67_15)"/>
<path d="M209.37 82.3903C212.913 73.3013 218.017 64.9007 224.45 57.5671C225.186 56.6187 225.597 55.458 225.621 54.2574C225.706 52.803 225.432 51.35 224.822 50.0269C224.213 48.7037 223.286 47.5512 222.125 46.671C213.814 43.4542 204.61 39.9585 196.689 37.5785C189.418 35.4215 183.673 33.8596 182.52 33.6551C125.771 19.9698 86.1095 33.339 59.4269 53.8483C20.8255 83.5989 8.68359 128.225 8.68359 128.225C31.5219 107.609 58.0932 91.5526 86.9648 80.9213C119.914 69.0211 166.324 66.046 209.37 82.3345" fill="url(#paint1_linear_67_15)"/>
<path d="M209.37 82.3905C212.913 73.3015 218.016 64.901 224.449 57.5674C225.186 56.619 225.597 55.4582 225.621 54.2576C225.716 52.802 225.446 51.3456 224.836 50.0208C224.225 48.696 223.294 47.5446 222.125 46.6712C222.125 46.6712 221.158 46.0204 220.619 45.7415L204.814 37.6903C199.924 35.3288 200.984 33.5252 199.236 28.3932C198.653 26.8081 197.944 25.2723 197.116 23.8005C196.666 22.9956 195.939 22.3812 195.071 22.0712C185.086 18.464 161.601 18.464 159.333 0C153.402 4.23987 149.354 10.6219 148.046 17.7946C46.8386 10.078 0 65.8232 0 65.8232C19.0345 58.5669 39.1415 54.5203 59.5012 53.8485C77.2107 53.1424 94.9479 54.0448 112.494 56.5447C154.554 62.3089 195.796 76.1243 209.444 82.3905H209.37ZM191.315 29.732C191.619 29.6228 191.941 29.5746 192.264 29.5903C192.587 29.606 192.903 29.6853 193.195 29.8234C193.487 29.9616 193.749 30.1561 193.965 30.3957C194.182 30.6352 194.349 30.9152 194.457 31.2195L196.558 37.5787C196.558 37.5787 187.15 34.5665 182.259 33.6182L191.315 29.732Z" fill="url(#paint2_linear_67_15)"/>
<defs>
<linearGradient id="paint0_linear_67_15" x1="52.6039" y1="119.765" x2="225.957" y2="46.5228" gradientUnits="userSpaceOnUse">
<stop stop-color="#F5BF5D"/>
<stop offset="0.4" stop-color="#EB5FA6" stop-opacity="0.7"/>
<stop offset="0.52" stop-color="#D959A1" stop-opacity="0.73"/>
<stop offset="0.72" stop-color="#AA4794" stop-opacity="0.83"/>
<stop offset="0.96" stop-color="#5D2B7E" stop-opacity="0.98"/>
<stop offset="1" stop-color="#51277B"/>
</linearGradient>
<linearGradient id="paint1_linear_67_15" x1="2.60332" y1="114.391" x2="222.999" y2="32.2048" gradientUnits="userSpaceOnUse">
<stop stop-color="#F5BF5D"/>
<stop offset="0.53" stop-color="#EB5FA6" stop-opacity="0.7"/>
<stop offset="0.6" stop-color="#DB59A2" stop-opacity="0.72"/>
<stop offset="0.71" stop-color="#B04995" stop-opacity="0.78"/>
<stop offset="0.84" stop-color="#6A3082" stop-opacity="0.87"/>
<stop offset="0.89" stop-color="#51277B" stop-opacity="0.9"/>
</linearGradient>
<linearGradient id="paint2_linear_67_15" x1="3.70023" y1="80.1964" x2="215.059" y2="34.5664" gradientUnits="userSpaceOnUse">
<stop stop-color="#F5BF5D"/>
<stop offset="0.43" stop-color="#EB5FA6" stop-opacity="0.92"/>
<stop offset="0.51" stop-color="#DF5BA3" stop-opacity="0.93"/>
<stop offset="0.64" stop-color="#C0509A" stop-opacity="0.94"/>
<stop offset="0.82" stop-color="#8E3D8C" stop-opacity="0.97"/>
<stop offset="1" stop-color="#51277B"/>
</linearGradient>
</defs>
</svg>
