<svg width="318" height="160" viewBox="0 0 318 160" fill="none" xmlns="http://www.w3.org/2000/svg">
<g filter="url(#filter0_f_1856_6)">
<rect x="50" y="50" width="60" height="60" rx="15" fill="#406AFF"/>
<path d="M64.574 91L70.064 83.47L64.619 75.985H69.134L72.314 80.35L75.509 75.985H80.024L74.579 83.47L80.069 91H75.554L72.314 86.56L69.089 91H64.574ZM88.9394 91.39C87.6694 91.39 86.5244 91.09 85.5044 90.49C84.4844 89.89 83.6744 89.085 83.0744 88.075C82.4744 87.055 82.1744 85.925 82.1744 84.685H85.8344C85.8344 85.245 85.9644 85.755 86.2244 86.215C86.4944 86.675 86.8644 87.045 87.3344 87.325C87.8044 87.595 88.3394 87.73 88.9394 87.73C89.4894 87.73 89.9994 87.595 90.4694 87.325C90.9494 87.045 91.3344 86.675 91.6244 86.215C91.9144 85.755 92.0594 85.245 92.0594 84.685C92.0594 83.955 91.8644 83.35 91.4744 82.87C91.0844 82.38 90.5394 82.015 89.8394 81.775C89.1494 81.535 88.3444 81.415 87.4244 81.415V78.595C88.6644 78.595 89.6444 78.36 90.3644 77.89C91.0944 77.42 91.4594 76.73 91.4594 75.82C91.4594 75.35 91.3394 74.92 91.0994 74.53C90.8594 74.14 90.5394 73.83 90.1394 73.6C89.7494 73.36 89.3194 73.24 88.8494 73.24C88.3694 73.24 87.9044 73.36 87.4544 73.6C87.0044 73.83 86.6344 74.14 86.3444 74.53C86.0644 74.92 85.9244 75.35 85.9244 75.82H82.2644C82.2644 74.96 82.4394 74.155 82.7894 73.405C83.1394 72.645 83.6194 71.98 84.2294 71.41C84.8494 70.84 85.5494 70.395 86.3294 70.075C87.1194 69.745 87.9444 69.58 88.8044 69.58C89.9344 69.58 90.9794 69.86 91.9394 70.42C92.8994 70.98 93.6694 71.73 94.2494 72.67C94.8294 73.61 95.1194 74.66 95.1194 75.82C95.1194 76.63 94.9294 77.425 94.5494 78.205C94.1694 78.985 93.6294 79.535 92.9294 79.855C93.5394 80.075 94.0494 80.445 94.4594 80.965C94.8694 81.475 95.1794 82.06 95.3894 82.72C95.6094 83.37 95.7194 84.025 95.7194 84.685C95.7194 85.915 95.4094 87.04 94.7894 88.06C94.1694 89.07 93.3444 89.88 92.3144 90.49C91.2944 91.09 90.1694 91.39 88.9394 91.39Z" fill="white"/>
</g>
<g filter="url(#filter1_dd_1856_6)">
<rect x="40" y="40" width="261" height="80" rx="25" fill="#242526" shape-rendering="crispEdges"/>
<rect x="50" y="50" width="60" height="60" rx="15" fill="#406AFF"/>
<path d="M64.574 91L70.064 83.47L64.619 75.985H69.134L72.314 80.35L75.509 75.985H80.024L74.579 83.47L80.069 91H75.554L72.314 86.56L69.089 91H64.574ZM88.9394 91.39C87.6694 91.39 86.5244 91.09 85.5044 90.49C84.4844 89.89 83.6744 89.085 83.0744 88.075C82.4744 87.055 82.1744 85.925 82.1744 84.685H85.8344C85.8344 85.245 85.9644 85.755 86.2244 86.215C86.4944 86.675 86.8644 87.045 87.3344 87.325C87.8044 87.595 88.3394 87.73 88.9394 87.73C89.4894 87.73 89.9994 87.595 90.4694 87.325C90.9494 87.045 91.3344 86.675 91.6244 86.215C91.9144 85.755 92.0594 85.245 92.0594 84.685C92.0594 83.955 91.8644 83.35 91.4744 82.87C91.0844 82.38 90.5394 82.015 89.8394 81.775C89.1494 81.535 88.3444 81.415 87.4244 81.415V78.595C88.6644 78.595 89.6444 78.36 90.3644 77.89C91.0944 77.42 91.4594 76.73 91.4594 75.82C91.4594 75.35 91.3394 74.92 91.0994 74.53C90.8594 74.14 90.5394 73.83 90.1394 73.6C89.7494 73.36 89.3194 73.24 88.8494 73.24C88.3694 73.24 87.9044 73.36 87.4544 73.6C87.0044 73.83 86.6344 74.14 86.3444 74.53C86.0644 74.92 85.9244 75.35 85.9244 75.82H82.2644C82.2644 74.96 82.4394 74.155 82.7894 73.405C83.1394 72.645 83.6194 71.98 84.2294 71.41C84.8494 70.84 85.5494 70.395 86.3294 70.075C87.1194 69.745 87.9444 69.58 88.8044 69.58C89.9344 69.58 90.9794 69.86 91.9394 70.42C92.8994 70.98 93.6694 71.73 94.2494 72.67C94.8294 73.61 95.1194 74.66 95.1194 75.82C95.1194 76.63 94.9294 77.425 94.5494 78.205C94.1694 78.985 93.6294 79.535 92.9294 79.855C93.5394 80.075 94.0494 80.445 94.4594 80.965C94.8694 81.475 95.1794 82.06 95.3894 82.72C95.6094 83.37 95.7194 84.025 95.7194 84.685C95.7194 85.915 95.4094 87.04 94.7894 88.06C94.1694 89.07 93.3444 89.88 92.3144 90.49C91.2944 91.09 90.1694 91.39 88.9394 91.39Z" fill="white"/>
<path d="M137.03 72.77V79.16H147.17V82.46H137.03V90.5H133.13V69.5H148.46V72.77H137.03ZM161.807 90.8C159.667 90.8 157.737 90.34 156.017 89.42C154.297 88.48 152.947 87.19 151.967 85.55C150.987 83.89 150.497 82.04 150.497 80C150.497 77.96 150.987 76.12 151.967 74.48C152.947 72.82 154.297 71.53 156.017 70.61C157.737 69.67 159.667 69.2 161.807 69.2C163.947 69.2 165.877 69.67 167.597 70.61C169.317 71.53 170.667 72.81 171.647 74.45C172.627 76.09 173.117 77.94 173.117 80C173.117 82.06 172.627 83.91 171.647 85.55C170.667 87.19 169.317 88.48 167.597 89.42C165.877 90.34 163.947 90.8 161.807 90.8ZM161.807 87.38C163.207 87.38 164.467 87.07 165.587 86.45C166.707 85.81 167.587 84.93 168.227 83.81C168.867 82.67 169.187 81.4 169.187 80C169.187 78.6 168.867 77.34 168.227 76.22C167.587 75.08 166.707 74.2 165.587 73.58C164.467 72.94 163.207 72.62 161.807 72.62C160.407 72.62 159.147 72.94 158.027 73.58C156.907 74.2 156.027 75.08 155.387 76.22C154.747 77.34 154.427 78.6 154.427 80C154.427 81.4 154.747 82.67 155.387 83.81C156.027 84.93 156.907 85.81 158.027 86.45C159.147 87.07 160.407 87.38 161.807 87.38ZM190.991 90.5L186.701 84.35C186.521 84.37 186.251 84.38 185.891 84.38H181.151V90.5H177.251V69.5H185.891C187.711 69.5 189.291 69.8 190.631 70.4C191.991 71 193.031 71.86 193.751 72.98C194.471 74.1 194.831 75.43 194.831 76.97C194.831 78.55 194.441 79.91 193.661 81.05C192.901 82.19 191.801 83.04 190.361 83.6L195.191 90.5H190.991ZM190.901 76.97C190.901 75.63 190.461 74.6 189.581 73.88C188.701 73.16 187.411 72.8 185.711 72.8H181.151V81.17H185.711C187.411 81.17 188.701 80.81 189.581 80.09C190.461 79.35 190.901 78.31 190.901 76.97ZM205.704 90.8C204.084 90.8 202.514 90.57 200.994 90.11C199.494 89.65 198.304 89.04 197.424 88.28L198.774 85.25C199.634 85.93 200.684 86.49 201.924 86.93C203.184 87.35 204.444 87.56 205.704 87.56C207.264 87.56 208.424 87.31 209.184 86.81C209.964 86.31 210.354 85.65 210.354 84.83C210.354 84.23 210.134 83.74 209.694 83.36C209.274 82.96 208.734 82.65 208.074 82.43C207.414 82.21 206.514 81.96 205.374 81.68C203.774 81.3 202.474 80.92 201.474 80.54C200.494 80.16 199.644 79.57 198.924 78.77C198.224 77.95 197.874 76.85 197.874 75.47C197.874 74.31 198.184 73.26 198.804 72.32C199.444 71.36 200.394 70.6 201.654 70.04C202.934 69.48 204.494 69.2 206.334 69.2C207.614 69.2 208.874 69.36 210.114 69.68C211.354 70 212.424 70.46 213.324 71.06L212.094 74.09C211.174 73.55 210.214 73.14 209.214 72.86C208.214 72.58 207.244 72.44 206.304 72.44C204.764 72.44 203.614 72.7 202.854 73.22C202.114 73.74 201.744 74.43 201.744 75.29C201.744 75.89 201.954 76.38 202.374 76.76C202.814 77.14 203.364 77.44 204.024 77.66C204.684 77.88 205.584 78.13 206.724 78.41C208.284 78.77 209.564 79.15 210.564 79.55C211.564 79.93 212.414 80.52 213.114 81.32C213.834 82.12 214.194 83.2 214.194 84.56C214.194 85.72 213.874 86.77 213.234 87.71C212.614 88.65 211.664 89.4 210.384 89.96C209.104 90.52 207.544 90.8 205.704 90.8ZM231.681 85.64H221.181L219.111 90.5H215.091L224.541 69.5H228.381L237.861 90.5H233.781L231.681 85.64ZM230.391 82.58L226.431 73.4L222.501 82.58H230.391ZM254.579 79.76H258.269V88.13C257.189 88.99 255.929 89.65 254.489 90.11C253.049 90.57 251.569 90.8 250.049 90.8C247.909 90.8 245.979 90.34 244.259 89.42C242.539 88.48 241.189 87.19 240.209 85.55C239.229 83.91 238.739 82.06 238.739 80C238.739 77.94 239.229 76.09 240.209 74.45C241.189 72.81 242.539 71.53 244.259 70.61C245.999 69.67 247.949 69.2 250.109 69.2C251.869 69.2 253.469 69.49 254.909 70.07C256.349 70.65 257.559 71.5 258.539 72.62L256.079 75.02C254.479 73.42 252.549 72.62 250.289 72.62C248.809 72.62 247.489 72.93 246.329 73.55C245.189 74.17 244.289 75.04 243.629 76.16C242.989 77.28 242.669 78.56 242.669 80C242.669 81.4 242.989 82.66 243.629 83.78C244.289 84.9 245.189 85.78 246.329 86.42C247.489 87.06 248.799 87.38 250.259 87.38C251.899 87.38 253.339 87.02 254.579 86.3V79.76ZM279.163 87.23V90.5H263.413V69.5H278.743V72.77H267.313V78.23H277.453V81.44H267.313V87.23H279.163Z" fill="white"/>
</g>
<defs>
<filter id="filter0_f_1856_6" x="0" y="0" width="160" height="160" filterUnits="userSpaceOnUse" color-interpolation-filters="sRGB">
<feFlood flood-opacity="0" result="BackgroundImageFix"/>
<feBlend mode="normal" in="SourceGraphic" in2="BackgroundImageFix" result="shape"/>
<feGaussianBlur stdDeviation="25" result="effect1_foregroundBlur_1856_6"/>
</filter>
<filter id="filter1_dd_1856_6" x="23" y="23" width="295" height="114" filterUnits="userSpaceOnUse" color-interpolation-filters="sRGB">
<feFlood flood-opacity="0" result="BackgroundImageFix"/>
<feColorMatrix in="SourceAlpha" type="matrix" values="0 0 0 0 0 0 0 0 0 0 0 0 0 0 0 0 0 0 127 0" result="hardAlpha"/>
<feOffset dx="-5" dy="-5"/>
<feGaussianBlur stdDeviation="6"/>
<feComposite in2="hardAlpha" operator="out"/>
<feColorMatrix type="matrix" values="0 0 0 0 1 0 0 0 0 1 0 0 0 0 1 0 0 0 0.03 0"/>
<feBlend mode="normal" in2="BackgroundImageFix" result="effect1_dropShadow_1856_6"/>
<feColorMatrix in="SourceAlpha" type="matrix" values="0 0 0 0 0 0 0 0 0 0 0 0 0 0 0 0 0 0 127 0" result="hardAlpha"/>
<feOffset dx="5" dy="5"/>
<feGaussianBlur stdDeviation="6"/>
<feComposite in2="hardAlpha" operator="out"/>
<feColorMatrix type="matrix" values="0 0 0 0 0 0 0 0 0 0 0 0 0 0 0 0 0 0 0.15 0"/>
<feBlend mode="normal" in2="effect1_dropShadow_1856_6" result="effect2_dropShadow_1856_6"/>
<feBlend mode="normal" in="SourceGraphic" in2="effect2_dropShadow_1856_6" result="shape"/>
</filter>
</defs>
</svg>
