<svg width="309" height="160" viewBox="0 0 309 160" fill="none" xmlns="http://www.w3.org/2000/svg">
<g filter="url(#filter0_f_1856_5)">
<rect x="50" y="50" width="60" height="60" rx="15" fill="#7737FF"/>
<path d="M63.5633 91L69.0533 83.47L63.6083 75.985H68.1233L71.3033 80.35L74.4983 75.985H79.0133L73.5683 83.47L79.0583 91H74.5433L71.3033 86.56L68.0783 91H63.5633ZM90.4037 91V85.915H81.4637V82.24L89.5487 70H94.0637V82.255H95.8337V85.915H94.0637V91H90.4037ZM85.7087 82.24L90.4037 82.255L90.3887 74.995L85.7087 82.24Z" fill="white"/>
</g>
<g filter="url(#filter1_dd_1856_5)">
<rect x="40" y="40" width="252" height="80" rx="25" fill="#242526" shape-rendering="crispEdges"/>
<rect x="50" y="50" width="60" height="60" rx="15" fill="#7737FF"/>
<path d="M63.5633 91L69.0533 83.47L63.6083 75.985H68.1233L71.3033 80.35L74.4983 75.985H79.0133L73.5683 83.47L79.0583 91H74.5433L71.3033 86.56L68.0783 91H63.5633ZM90.4037 91V85.915H81.4637V82.24L89.5487 70H94.0637V82.255H95.8337V85.915H94.0637V91H90.4037ZM85.7087 82.24L90.4037 82.255L90.3887 74.995L85.7087 82.24Z" fill="white"/>
<path d="M132.649 91V69.1818H146.626V72.495H136.601V78.4183H145.668V81.7315H136.601V91H132.649ZM169.723 80.0909C169.723 82.4418 169.283 84.4553 168.402 86.1314C167.528 87.8004 166.335 89.0788 164.822 89.9666C163.317 90.8544 161.609 91.2983 159.698 91.2983C157.788 91.2983 156.076 90.8544 154.563 89.9666C153.057 89.0717 151.864 87.7898 150.984 86.1207C150.11 84.4446 149.673 82.4347 149.673 80.0909C149.673 77.7401 150.11 75.7301 150.984 74.0611C151.864 72.3849 153.057 71.103 154.563 70.2152C156.076 69.3274 157.788 68.8835 159.698 68.8835C161.609 68.8835 163.317 69.3274 164.822 70.2152C166.335 71.103 167.528 72.3849 168.402 74.0611C169.283 75.7301 169.723 77.7401 169.723 80.0909ZM165.749 80.0909C165.749 78.4361 165.49 77.0405 164.972 75.9041C164.46 74.7607 163.75 73.8977 162.841 73.3153C161.932 72.7259 160.884 72.4311 159.698 72.4311C158.512 72.4311 157.464 72.7259 156.555 73.3153C155.646 73.8977 154.932 74.7607 154.414 75.9041C153.903 77.0405 153.647 78.4361 153.647 80.0909C153.647 81.7457 153.903 83.1449 154.414 84.2884C154.932 85.4247 155.646 86.2876 156.555 86.8771C157.464 87.4595 158.512 87.7507 159.698 87.7507C160.884 87.7507 161.932 87.4595 162.841 86.8771C163.75 86.2876 164.46 85.4247 164.972 84.2884C165.49 83.1449 165.749 81.7457 165.749 80.0909ZM173.46 91V69.1818H181.641C183.318 69.1818 184.724 69.473 185.86 70.0554C187.004 70.6378 187.867 71.4545 188.449 72.5057C189.038 73.5497 189.333 74.7678 189.333 76.1598C189.333 77.5589 189.035 78.7734 188.438 79.8033C187.849 80.826 186.979 81.6179 185.828 82.179C184.678 82.733 183.264 83.0099 181.588 83.0099H175.761V79.7287H181.055C182.036 79.7287 182.838 79.5937 183.463 79.3239C184.088 79.0469 184.55 78.6456 184.848 78.12C185.153 77.5874 185.306 76.9339 185.306 76.1598C185.306 75.3857 185.153 74.7251 184.848 74.1783C184.543 73.6243 184.078 73.2053 183.453 72.9212C182.828 72.63 182.021 72.4844 181.034 72.4844H177.412V91H173.46ZM184.731 81.1136L190.132 91H185.722L180.416 81.1136H184.731ZM204.829 75.1797C204.729 74.2493 204.31 73.5249 203.571 73.0064C202.84 72.4879 201.888 72.2287 200.716 72.2287C199.892 72.2287 199.186 72.353 198.596 72.6016C198.007 72.8501 197.556 73.1875 197.243 73.6136C196.931 74.0398 196.771 74.5263 196.764 75.0732C196.764 75.5277 196.867 75.9219 197.073 76.2557C197.286 76.5895 197.574 76.8736 197.936 77.108C198.298 77.3352 198.699 77.527 199.14 77.6832C199.58 77.8395 200.024 77.9709 200.471 78.0774L202.517 78.5888C203.341 78.7805 204.133 79.0398 204.892 79.3665C205.66 79.6932 206.345 80.1051 206.949 80.6023C207.559 81.0994 208.042 81.6996 208.397 82.4027C208.753 83.1058 208.93 83.9297 208.93 84.8743C208.93 86.1527 208.603 87.2784 207.95 88.2514C207.297 89.2173 206.352 89.9737 205.116 90.5206C203.888 91.0604 202.4 91.3303 200.652 91.3303C198.955 91.3303 197.481 91.0675 196.231 90.5419C194.988 90.0163 194.015 89.2493 193.312 88.2408C192.616 87.2322 192.24 86.0036 192.183 84.5547H196.071C196.128 85.3146 196.363 85.9467 196.775 86.451C197.187 86.9553 197.723 87.3317 198.383 87.5803C199.051 87.8288 199.797 87.9531 200.62 87.9531C201.48 87.9531 202.233 87.8253 202.879 87.5696C203.532 87.3068 204.044 86.9446 204.413 86.483C204.782 86.0142 204.971 85.4673 204.978 84.8423C204.971 84.2741 204.804 83.8054 204.477 83.4361C204.15 83.0597 203.692 82.7472 203.103 82.4986C202.52 82.2429 201.839 82.0156 201.057 81.8168L198.575 81.1776C196.778 80.7159 195.358 80.0163 194.314 79.0788C193.277 78.1342 192.758 76.8807 192.758 75.3182C192.758 74.0327 193.106 72.907 193.802 71.9411C194.505 70.9751 195.461 70.2259 196.668 69.6932C197.875 69.1534 199.243 68.8835 200.77 68.8835C202.318 68.8835 203.674 69.1534 204.839 69.6932C206.011 70.2259 206.931 70.968 207.598 71.9197C208.266 72.8643 208.611 73.951 208.632 75.1797H204.829ZM214.904 91H210.685L218.366 69.1818H223.246L230.937 91H226.719L220.891 73.6562H220.721L214.904 91ZM215.043 82.4453H226.548V85.62H215.043V82.4453ZM247.402 76.1491C247.225 75.5739 246.98 75.0589 246.667 74.6044C246.362 74.1428 245.992 73.7486 245.559 73.4219C245.133 73.0952 244.643 72.8501 244.089 72.6868C243.535 72.5163 242.931 72.4311 242.278 72.4311C241.106 72.4311 240.062 72.7259 239.146 73.3153C238.23 73.9048 237.509 74.7713 236.983 75.9148C236.465 77.0511 236.206 78.4361 236.206 80.0696C236.206 81.7173 236.465 83.1129 236.983 84.2564C237.502 85.3999 238.223 86.2699 239.146 86.8665C240.069 87.456 241.142 87.7507 242.363 87.7507C243.471 87.7507 244.43 87.5376 245.24 87.1115C246.056 86.6854 246.685 86.0817 247.125 85.3004C247.566 84.5121 247.786 83.5888 247.786 82.5305L248.681 82.669H242.757V79.5795H251.61V82.2003C251.61 84.0682 251.213 85.6839 250.417 87.0476C249.622 88.4112 248.528 89.4624 247.136 90.201C245.744 90.9325 244.146 91.2983 242.342 91.2983C240.332 91.2983 238.567 90.8473 237.047 89.9453C235.534 89.0362 234.352 87.7472 233.5 86.0781C232.654 84.402 232.232 82.4134 232.232 80.1122C232.232 78.3509 232.48 76.7777 232.978 75.3928C233.482 74.0078 234.185 72.8324 235.087 71.8665C235.989 70.8935 237.047 70.1548 238.262 69.6506C239.476 69.1392 240.797 68.8835 242.225 68.8835C243.432 68.8835 244.558 69.0611 245.602 69.4162C246.646 69.7642 247.573 70.2614 248.382 70.9077C249.199 71.554 249.87 72.321 250.396 73.2088C250.921 74.0966 251.266 75.0767 251.429 76.1491H247.402ZM255.432 91V69.1818H269.623V72.495H259.385V78.4183H268.888V81.7315H259.385V87.6868H269.708V91H255.432Z" fill="white"/>
</g>
<defs>
<filter id="filter0_f_1856_5" x="0" y="0" width="160" height="160" filterUnits="userSpaceOnUse" color-interpolation-filters="sRGB">
<feFlood flood-opacity="0" result="BackgroundImageFix"/>
<feBlend mode="normal" in="SourceGraphic" in2="BackgroundImageFix" result="shape"/>
<feGaussianBlur stdDeviation="25" result="effect1_foregroundBlur_1856_5"/>
</filter>
<filter id="filter1_dd_1856_5" x="23" y="23" width="286" height="114" filterUnits="userSpaceOnUse" color-interpolation-filters="sRGB">
<feFlood flood-opacity="0" result="BackgroundImageFix"/>
<feColorMatrix in="SourceAlpha" type="matrix" values="0 0 0 0 0 0 0 0 0 0 0 0 0 0 0 0 0 0 127 0" result="hardAlpha"/>
<feOffset dx="-5" dy="-5"/>
<feGaussianBlur stdDeviation="6"/>
<feComposite in2="hardAlpha" operator="out"/>
<feColorMatrix type="matrix" values="0 0 0 0 1 0 0 0 0 1 0 0 0 0 1 0 0 0 0.03 0"/>
<feBlend mode="normal" in2="BackgroundImageFix" result="effect1_dropShadow_1856_5"/>
<feColorMatrix in="SourceAlpha" type="matrix" values="0 0 0 0 0 0 0 0 0 0 0 0 0 0 0 0 0 0 127 0" result="hardAlpha"/>
<feOffset dx="5" dy="5"/>
<feGaussianBlur stdDeviation="6"/>
<feComposite in2="hardAlpha" operator="out"/>
<feColorMatrix type="matrix" values="0 0 0 0 0 0 0 0 0 0 0 0 0 0 0 0 0 0 0.15 0"/>
<feBlend mode="normal" in2="effect1_dropShadow_1856_5" result="effect2_dropShadow_1856_5"/>
<feBlend mode="normal" in="SourceGraphic" in2="effect2_dropShadow_1856_5" result="shape"/>
</filter>
</defs>
</svg>
