<svg width="310" height="162" viewBox="0 0 310 162" fill="none" xmlns="http://www.w3.org/2000/svg">
<g filter="url(#filter0_f_1856_8)">
<rect x="51" y="51" width="60" height="60" rx="15" fill="#FFA243"/>
<path d="M57.0139 87L60.3079 82.482L57.0409 77.991H59.7499L61.6579 80.61L63.5749 77.991H66.2839L63.0169 82.482L66.3109 87H63.6019L61.6579 84.336L59.7229 87H57.0139ZM73.9462 87.234C73.0702 87.234 72.2542 87.063 71.4982 86.721C70.7482 86.379 70.0942 85.908 69.5362 85.308C68.9782 84.702 68.5402 84.006 68.2222 83.22C67.9102 82.428 67.7542 81.582 67.7542 80.682C67.7542 79.734 67.9222 78.864 68.2582 78.072C68.6002 77.28 69.0652 76.593 69.6532 76.011C70.2412 75.429 70.9072 74.979 71.6512 74.661C72.4012 74.343 73.1812 74.184 73.9912 74.184C74.8972 74.184 75.7762 74.397 76.6282 74.823C77.4862 75.243 78.2422 75.894 78.8962 76.776L76.9342 77.829C76.5322 77.337 76.0702 76.971 75.5482 76.731C75.0322 76.485 74.5042 76.362 73.9642 76.362C73.4362 76.362 72.9292 76.47 72.4432 76.686C71.9632 76.902 71.5342 77.208 71.1562 77.604C70.7842 77.994 70.4902 78.456 70.2742 78.99C70.0582 79.518 69.9502 80.097 69.9502 80.727C69.9502 81.321 70.0552 81.882 70.2652 82.41C70.4752 82.932 70.7632 83.391 71.1292 83.787C71.5012 84.177 71.9302 84.483 72.4162 84.705C72.9022 84.927 73.4242 85.038 73.9822 85.038C74.3542 85.038 74.7172 84.981 75.0712 84.867C75.4312 84.747 75.7672 84.576 76.0792 84.354C76.3972 84.132 76.6792 83.862 76.9252 83.544C77.1772 83.226 77.3872 82.866 77.5552 82.464H75.2602V80.547H80.1382C80.1622 81.465 80.0182 82.326 79.7062 83.13C79.3942 83.934 78.9532 84.645 78.3832 85.263C77.8132 85.881 77.1502 86.364 76.3942 86.712C75.6382 87.06 74.8222 87.234 73.9462 87.234ZM85.6269 87.234C84.7989 87.234 84.0429 87.021 83.3589 86.595C82.6809 86.169 82.1379 85.599 81.7299 84.885C81.3279 84.165 81.1269 83.37 81.1269 82.5C81.1269 81.84 81.2439 81.225 81.4779 80.655C81.7119 80.079 82.0329 79.575 82.4409 79.143C82.8549 78.705 83.3349 78.363 83.8809 78.117C84.4269 77.871 85.0089 77.748 85.6269 77.748C86.4549 77.748 87.2079 77.961 87.8859 78.387C88.5699 78.813 89.1129 79.386 89.5149 80.106C89.9229 80.826 90.1269 81.624 90.1269 82.5C90.1269 83.154 90.0099 83.766 89.7759 84.336C89.5419 84.906 89.2179 85.41 88.8039 85.848C88.3959 86.28 87.9189 86.619 87.3729 86.865C86.8329 87.111 86.2509 87.234 85.6269 87.234ZM85.6269 85.038C86.0649 85.038 86.4579 84.921 86.8059 84.687C87.1539 84.453 87.4269 84.144 87.6249 83.76C87.8289 83.376 87.9309 82.956 87.9309 82.5C87.9309 82.032 87.8259 81.606 87.6159 81.222C87.4119 80.832 87.1329 80.523 86.7789 80.295C86.4309 80.061 86.0469 79.944 85.6269 79.944C85.1949 79.944 84.8049 80.061 84.4569 80.295C84.1089 80.529 83.8329 80.841 83.6289 81.231C83.4249 81.621 83.3229 82.044 83.3229 82.5C83.3229 82.974 83.4279 83.403 83.6379 83.787C83.8479 84.171 84.1269 84.477 84.4749 84.705C84.8289 84.927 85.2129 85.038 85.6269 85.038ZM91.4052 87V73.5H93.6012V87H91.4052ZM102.428 73.5H104.624V87H102.428V85.875C102.14 86.277 101.777 86.604 101.339 86.856C100.901 87.108 100.394 87.234 99.8179 87.234C99.1639 87.234 98.5519 87.111 97.9819 86.865C97.4119 86.619 96.9079 86.28 96.4699 85.848C96.0379 85.41 95.6989 84.906 95.4529 84.336C95.2069 83.766 95.0839 83.154 95.0839 82.5C95.0839 81.846 95.2069 81.234 95.4529 80.664C95.6989 80.094 96.0379 79.593 96.4699 79.161C96.9079 78.723 97.4119 78.381 97.9819 78.135C98.5519 77.889 99.1639 77.766 99.8179 77.766C100.394 77.766 100.901 77.892 101.339 78.144C101.777 78.39 102.14 78.717 102.428 79.125V73.5ZM99.8449 85.119C100.313 85.119 100.727 85.002 101.087 84.768C101.447 84.534 101.729 84.219 101.933 83.823C102.137 83.421 102.239 82.98 102.239 82.5C102.239 82.014 102.137 81.573 101.933 81.177C101.729 80.775 101.444 80.457 101.078 80.223C100.718 79.989 100.307 79.872 99.8449 79.872C99.3829 79.872 98.9599 79.992 98.5759 80.232C98.1979 80.466 97.8949 80.781 97.6669 81.177C97.4449 81.573 97.3339 82.014 97.3339 82.5C97.3339 82.986 97.4479 83.427 97.6759 83.823C97.9039 84.219 98.2069 84.534 98.5849 84.768C98.9689 85.002 99.3889 85.119 99.8449 85.119Z" fill="white"/>
</g>
<g filter="url(#filter1_dd_1856_8)">
<rect x="41" y="41" width="252" height="80" rx="25" fill="#242526" shape-rendering="crispEdges"/>
<rect x="41" y="41" width="252" height="80" rx="25" fill="black" fill-opacity="0.2" shape-rendering="crispEdges"/>
<rect x="51" y="51" width="60" height="60" rx="15" fill="#FFA243"/>
<path d="M57.0139 87L60.3079 82.482L57.0409 77.991H59.7499L61.6579 80.61L63.5749 77.991H66.2839L63.0169 82.482L66.3109 87H63.6019L61.6579 84.336L59.7229 87H57.0139ZM73.9462 87.234C73.0702 87.234 72.2542 87.063 71.4982 86.721C70.7482 86.379 70.0942 85.908 69.5362 85.308C68.9782 84.702 68.5402 84.006 68.2222 83.22C67.9102 82.428 67.7542 81.582 67.7542 80.682C67.7542 79.734 67.9222 78.864 68.2582 78.072C68.6002 77.28 69.0652 76.593 69.6532 76.011C70.2412 75.429 70.9072 74.979 71.6512 74.661C72.4012 74.343 73.1812 74.184 73.9912 74.184C74.8972 74.184 75.7762 74.397 76.6282 74.823C77.4862 75.243 78.2422 75.894 78.8962 76.776L76.9342 77.829C76.5322 77.337 76.0702 76.971 75.5482 76.731C75.0322 76.485 74.5042 76.362 73.9642 76.362C73.4362 76.362 72.9292 76.47 72.4432 76.686C71.9632 76.902 71.5342 77.208 71.1562 77.604C70.7842 77.994 70.4902 78.456 70.2742 78.99C70.0582 79.518 69.9502 80.097 69.9502 80.727C69.9502 81.321 70.0552 81.882 70.2652 82.41C70.4752 82.932 70.7632 83.391 71.1292 83.787C71.5012 84.177 71.9302 84.483 72.4162 84.705C72.9022 84.927 73.4242 85.038 73.9822 85.038C74.3542 85.038 74.7172 84.981 75.0712 84.867C75.4312 84.747 75.7672 84.576 76.0792 84.354C76.3972 84.132 76.6792 83.862 76.9252 83.544C77.1772 83.226 77.3872 82.866 77.5552 82.464H75.2602V80.547H80.1382C80.1622 81.465 80.0182 82.326 79.7062 83.13C79.3942 83.934 78.9532 84.645 78.3832 85.263C77.8132 85.881 77.1502 86.364 76.3942 86.712C75.6382 87.06 74.8222 87.234 73.9462 87.234ZM85.6269 87.234C84.7989 87.234 84.0429 87.021 83.3589 86.595C82.6809 86.169 82.1379 85.599 81.7299 84.885C81.3279 84.165 81.1269 83.37 81.1269 82.5C81.1269 81.84 81.2439 81.225 81.4779 80.655C81.7119 80.079 82.0329 79.575 82.4409 79.143C82.8549 78.705 83.3349 78.363 83.8809 78.117C84.4269 77.871 85.0089 77.748 85.6269 77.748C86.4549 77.748 87.2079 77.961 87.8859 78.387C88.5699 78.813 89.1129 79.386 89.5149 80.106C89.9229 80.826 90.1269 81.624 90.1269 82.5C90.1269 83.154 90.0099 83.766 89.7759 84.336C89.5419 84.906 89.2179 85.41 88.8039 85.848C88.3959 86.28 87.9189 86.619 87.3729 86.865C86.8329 87.111 86.2509 87.234 85.6269 87.234ZM85.6269 85.038C86.0649 85.038 86.4579 84.921 86.8059 84.687C87.1539 84.453 87.4269 84.144 87.6249 83.76C87.8289 83.376 87.9309 82.956 87.9309 82.5C87.9309 82.032 87.8259 81.606 87.6159 81.222C87.4119 80.832 87.1329 80.523 86.7789 80.295C86.4309 80.061 86.0469 79.944 85.6269 79.944C85.1949 79.944 84.8049 80.061 84.4569 80.295C84.1089 80.529 83.8329 80.841 83.6289 81.231C83.4249 81.621 83.3229 82.044 83.3229 82.5C83.3229 82.974 83.4279 83.403 83.6379 83.787C83.8479 84.171 84.1269 84.477 84.4749 84.705C84.8289 84.927 85.2129 85.038 85.6269 85.038ZM91.4052 87V73.5H93.6012V87H91.4052ZM102.428 73.5H104.624V87H102.428V85.875C102.14 86.277 101.777 86.604 101.339 86.856C100.901 87.108 100.394 87.234 99.8179 87.234C99.1639 87.234 98.5519 87.111 97.9819 86.865C97.4119 86.619 96.9079 86.28 96.4699 85.848C96.0379 85.41 95.6989 84.906 95.4529 84.336C95.2069 83.766 95.0839 83.154 95.0839 82.5C95.0839 81.846 95.2069 81.234 95.4529 80.664C95.6989 80.094 96.0379 79.593 96.4699 79.161C96.9079 78.723 97.4119 78.381 97.9819 78.135C98.5519 77.889 99.1639 77.766 99.8179 77.766C100.394 77.766 100.901 77.892 101.339 78.144C101.777 78.39 102.14 78.717 102.428 79.125V73.5ZM99.8449 85.119C100.313 85.119 100.727 85.002 101.087 84.768C101.447 84.534 101.729 84.219 101.933 83.823C102.137 83.421 102.239 82.98 102.239 82.5C102.239 82.014 102.137 81.573 101.933 81.177C101.729 80.775 101.444 80.457 101.078 80.223C100.718 79.989 100.307 79.872 99.8449 79.872C99.3829 79.872 98.9599 79.992 98.5759 80.232C98.1979 80.466 97.8949 80.781 97.6669 81.177C97.4449 81.573 97.3339 82.014 97.3339 82.5C97.3339 82.986 97.4479 83.427 97.6759 83.823C97.9039 84.219 98.2069 84.534 98.5849 84.768C98.9689 85.002 99.3889 85.119 99.8449 85.119Z" fill="white"/>
<path d="M133.649 92V70.1818H147.626V73.495H137.601V79.4183H146.668V82.7315H137.601V92H133.649ZM170.723 81.0909C170.723 83.4418 170.283 85.4553 169.402 87.1314C168.528 88.8004 167.335 90.0788 165.822 90.9666C164.317 91.8544 162.609 92.2983 160.698 92.2983C158.788 92.2983 157.076 91.8544 155.563 90.9666C154.057 90.0717 152.864 88.7898 151.984 87.1207C151.11 85.4446 150.673 83.4347 150.673 81.0909C150.673 78.7401 151.11 76.7301 151.984 75.0611C152.864 73.3849 154.057 72.103 155.563 71.2152C157.076 70.3274 158.788 69.8835 160.698 69.8835C162.609 69.8835 164.317 70.3274 165.822 71.2152C167.335 72.103 168.528 73.3849 169.402 75.0611C170.283 76.7301 170.723 78.7401 170.723 81.0909ZM166.749 81.0909C166.749 79.4361 166.49 78.0405 165.972 76.9041C165.46 75.7607 164.75 74.8977 163.841 74.3153C162.932 73.7259 161.884 73.4311 160.698 73.4311C159.512 73.4311 158.464 73.7259 157.555 74.3153C156.646 74.8977 155.932 75.7607 155.414 76.9041C154.903 78.0405 154.647 79.4361 154.647 81.0909C154.647 82.7457 154.903 84.1449 155.414 85.2884C155.932 86.4247 156.646 87.2876 157.555 87.8771C158.464 88.4595 159.512 88.7507 160.698 88.7507C161.884 88.7507 162.932 88.4595 163.841 87.8771C164.75 87.2876 165.46 86.4247 165.972 85.2884C166.49 84.1449 166.749 82.7457 166.749 81.0909ZM174.46 92V70.1818H182.641C184.318 70.1818 185.724 70.473 186.86 71.0554C188.004 71.6378 188.867 72.4545 189.449 73.5057C190.038 74.5497 190.333 75.7678 190.333 77.1598C190.333 78.5589 190.035 79.7734 189.438 80.8033C188.849 81.826 187.979 82.6179 186.828 83.179C185.678 83.733 184.264 84.0099 182.588 84.0099H176.761V80.7287H182.055C183.036 80.7287 183.838 80.5937 184.463 80.3239C185.088 80.0469 185.55 79.6456 185.848 79.12C186.153 78.5874 186.306 77.9339 186.306 77.1598C186.306 76.3857 186.153 75.7251 185.848 75.1783C185.543 74.6243 185.078 74.2053 184.453 73.9212C183.828 73.63 183.021 73.4844 182.034 73.4844H178.412V92H174.46ZM185.731 82.1136L191.132 92H186.722L181.416 82.1136H185.731ZM205.829 76.1797C205.729 75.2493 205.31 74.5249 204.571 74.0064C203.84 73.4879 202.888 73.2287 201.716 73.2287C200.892 73.2287 200.186 73.353 199.596 73.6016C199.007 73.8501 198.556 74.1875 198.243 74.6136C197.931 75.0398 197.771 75.5263 197.764 76.0732C197.764 76.5277 197.867 76.9219 198.073 77.2557C198.286 77.5895 198.574 77.8736 198.936 78.108C199.298 78.3352 199.699 78.527 200.14 78.6832C200.58 78.8395 201.024 78.9709 201.471 79.0774L203.517 79.5888C204.341 79.7805 205.133 80.0398 205.892 80.3665C206.66 80.6932 207.345 81.1051 207.949 81.6023C208.559 82.0994 209.042 82.6996 209.397 83.4027C209.753 84.1058 209.93 84.9297 209.93 85.8743C209.93 87.1527 209.603 88.2784 208.95 89.2514C208.297 90.2173 207.352 90.9737 206.116 91.5206C204.888 92.0604 203.4 92.3303 201.652 92.3303C199.955 92.3303 198.481 92.0675 197.231 91.5419C195.988 91.0163 195.015 90.2493 194.312 89.2408C193.616 88.2322 193.24 87.0036 193.183 85.5547H197.071C197.128 86.3146 197.363 86.9467 197.775 87.451C198.187 87.9553 198.723 88.3317 199.383 88.5803C200.051 88.8288 200.797 88.9531 201.62 88.9531C202.48 88.9531 203.233 88.8253 203.879 88.5696C204.532 88.3068 205.044 87.9446 205.413 87.483C205.782 87.0142 205.971 86.4673 205.978 85.8423C205.971 85.2741 205.804 84.8054 205.477 84.4361C205.15 84.0597 204.692 83.7472 204.103 83.4986C203.52 83.2429 202.839 83.0156 202.057 82.8168L199.575 82.1776C197.778 81.7159 196.358 81.0163 195.314 80.0788C194.277 79.1342 193.758 77.8807 193.758 76.3182C193.758 75.0327 194.106 73.907 194.802 72.9411C195.505 71.9751 196.461 71.2259 197.668 70.6932C198.875 70.1534 200.243 69.8835 201.77 69.8835C203.318 69.8835 204.674 70.1534 205.839 70.6932C207.011 71.2259 207.931 71.968 208.598 72.9197C209.266 73.8643 209.611 74.951 209.632 76.1797H205.829ZM215.904 92H211.685L219.366 70.1818H224.246L231.937 92H227.719L221.891 74.6562H221.721L215.904 92ZM216.043 83.4453H227.548V86.62H216.043V83.4453ZM248.402 77.1491C248.225 76.5739 247.98 76.0589 247.667 75.6044C247.362 75.1428 246.992 74.7486 246.559 74.4219C246.133 74.0952 245.643 73.8501 245.089 73.6868C244.535 73.5163 243.931 73.4311 243.278 73.4311C242.106 73.4311 241.062 73.7259 240.146 74.3153C239.23 74.9048 238.509 75.7713 237.983 76.9148C237.465 78.0511 237.206 79.4361 237.206 81.0696C237.206 82.7173 237.465 84.1129 237.983 85.2564C238.502 86.3999 239.223 87.2699 240.146 87.8665C241.069 88.456 242.142 88.7507 243.363 88.7507C244.471 88.7507 245.43 88.5376 246.24 88.1115C247.056 87.6854 247.685 87.0817 248.125 86.3004C248.566 85.5121 248.786 84.5888 248.786 83.5305L249.681 83.669H243.757V80.5795H252.61V83.2003C252.61 85.0682 252.213 86.6839 251.417 88.0476C250.622 89.4112 249.528 90.4624 248.136 91.201C246.744 91.9325 245.146 92.2983 243.342 92.2983C241.332 92.2983 239.567 91.8473 238.047 90.9453C236.534 90.0362 235.352 88.7472 234.5 87.0781C233.654 85.402 233.232 83.4134 233.232 81.1122C233.232 79.3509 233.48 77.7777 233.978 76.3928C234.482 75.0078 235.185 73.8324 236.087 72.8665C236.989 71.8935 238.047 71.1548 239.262 70.6506C240.476 70.1392 241.797 69.8835 243.225 69.8835C244.432 69.8835 245.558 70.0611 246.602 70.4162C247.646 70.7642 248.573 71.2614 249.382 71.9077C250.199 72.554 250.87 73.321 251.396 74.2088C251.921 75.0966 252.266 76.0767 252.429 77.1491H248.402ZM256.432 92V70.1818H270.623V73.495H260.385V79.4183H269.888V82.7315H260.385V88.6868H270.708V92H256.432Z" fill="white"/>
</g>
<defs>
<filter id="filter0_f_1856_8" x="0" y="0" width="162" height="162" filterUnits="userSpaceOnUse" color-interpolation-filters="sRGB">
<feFlood flood-opacity="0" result="BackgroundImageFix"/>
<feBlend mode="normal" in="SourceGraphic" in2="BackgroundImageFix" result="shape"/>
<feGaussianBlur stdDeviation="25.5" result="effect1_foregroundBlur_1856_8"/>
</filter>
<filter id="filter1_dd_1856_8" x="24" y="24" width="286" height="114" filterUnits="userSpaceOnUse" color-interpolation-filters="sRGB">
<feFlood flood-opacity="0" result="BackgroundImageFix"/>
<feColorMatrix in="SourceAlpha" type="matrix" values="0 0 0 0 0 0 0 0 0 0 0 0 0 0 0 0 0 0 127 0" result="hardAlpha"/>
<feOffset dx="-5" dy="-5"/>
<feGaussianBlur stdDeviation="6"/>
<feComposite in2="hardAlpha" operator="out"/>
<feColorMatrix type="matrix" values="0 0 0 0 1 0 0 0 0 1 0 0 0 0 1 0 0 0 0.03 0"/>
<feBlend mode="normal" in2="BackgroundImageFix" result="effect1_dropShadow_1856_8"/>
<feColorMatrix in="SourceAlpha" type="matrix" values="0 0 0 0 0 0 0 0 0 0 0 0 0 0 0 0 0 0 127 0" result="hardAlpha"/>
<feOffset dx="5" dy="5"/>
<feGaussianBlur stdDeviation="6"/>
<feComposite in2="hardAlpha" operator="out"/>
<feColorMatrix type="matrix" values="0 0 0 0 0 0 0 0 0 0 0 0 0 0 0 0 0 0 0.15 0"/>
<feBlend mode="normal" in2="effect1_dropShadow_1856_8" result="effect2_dropShadow_1856_8"/>
<feBlend mode="normal" in="SourceGraphic" in2="effect2_dropShadow_1856_8" result="shape"/>
</filter>
</defs>
</svg>
