<svg viewBox="0 0 21 15" fill="white" xmlns="http://www.w3.org/2000/svg">
<path d="M17.5815 1.24659C16.3349 0.665494 14.9853 0.243729 13.5794 4.3112e-05C13.5671 -0.0003511 13.5548 0.00196212 13.5435 0.00682017C13.5322 0.0116782 13.522 0.0189631 13.5138 0.0281609C13.3451 0.337455 13.1483 0.740474 13.0171 1.04977C11.5259 0.824827 10.0094 0.824827 8.51825 1.04977C8.38704 0.731102 8.19021 0.337455 8.01213 0.0281609C8.00276 0.00941586 7.97464 4.3112e-05 7.94653 4.3112e-05C6.54065 0.243729 5.20038 0.665494 3.94446 1.24659C3.93508 1.24659 3.92571 1.25596 3.91634 1.26534C1.36701 5.07996 0.664071 8.79149 1.01085 12.4655C1.01085 12.4843 1.02023 12.503 1.03897 12.5124C2.72603 13.7496 4.34748 14.4994 5.95018 14.9961C5.9783 15.0055 6.00641 14.9961 6.01579 14.9774C6.39069 14.4619 6.7281 13.9183 7.01865 13.3465C7.03739 13.3091 7.01865 13.2716 6.98116 13.2622C6.44692 13.056 5.94081 12.8123 5.44406 12.5311C5.40657 12.5124 5.40657 12.4562 5.43469 12.428C5.53779 12.3531 5.64088 12.2687 5.74398 12.1937C5.76273 12.175 5.79084 12.175 5.80959 12.1844C9.03374 13.6558 12.5109 13.6558 15.6976 12.1844C15.7164 12.175 15.7445 12.175 15.7632 12.1937C15.8663 12.2781 15.9694 12.3531 16.0725 12.4374C16.11 12.4655 16.11 12.5218 16.0631 12.5405C15.5758 12.8311 15.0603 13.0654 14.526 13.2716C14.4886 13.2809 14.4792 13.3278 14.4886 13.3559C14.7885 13.9276 15.1259 14.4713 15.4914 14.9867C15.5195 14.9961 15.5476 15.0055 15.5758 14.9961C17.1878 14.4994 18.8093 13.7496 20.4963 12.5124C20.5151 12.503 20.5245 12.4843 20.5245 12.4655C20.9369 8.21977 19.8403 4.53636 17.619 1.26534C17.6096 1.25596 17.6002 1.24659 17.5815 1.24659V1.24659ZM7.50602 10.2255C6.54065 10.2255 5.73461 9.3351 5.73461 8.23851C5.73461 7.14192 6.5219 6.25153 7.50602 6.25153C8.49951 6.25153 9.2868 7.1513 9.27743 8.23851C9.27743 9.3351 8.49013 10.2255 7.50602 10.2255ZM14.0387 10.2255C13.0733 10.2255 12.2673 9.3351 12.2673 8.23851C12.2673 7.14192 13.0546 6.25153 14.0387 6.25153C15.0322 6.25153 15.8195 7.1513 15.8101 8.23851C15.8101 9.3351 15.0322 10.2255 14.0387 10.2255Z" />
</svg>
