<svg viewBox="0 0 14 12" fill="none" xmlns="http://www.w3.org/2000/svg">
<path fill-rule="evenodd" clip-rule="evenodd" d="M11.9153 0.775647L0.840901 5.16845C0.763795 5.19891 0.698061 5.25258 0.65279 5.32204C0.607519 5.39149 0.584948 5.4733 0.588198 5.55614C0.591449 5.63898 0.62036 5.71877 0.670934 5.78447C0.721508 5.85016 0.791245 5.89852 0.870501 5.92285L3.6617 6.78685L4.7937 10.29C4.81434 10.3541 4.85079 10.4118 4.89967 10.458C4.94855 10.5042 5.00829 10.5373 5.07336 10.5543C5.13843 10.5713 5.20674 10.5716 5.27196 10.5552C5.33718 10.5388 5.39721 10.5062 5.4465 10.4604L7.0865 8.93725L10.1977 11.2268C10.251 11.266 10.3132 11.2914 10.3787 11.3006C10.4443 11.3099 10.511 11.3027 10.5731 11.2798C10.6352 11.2569 10.6906 11.2189 10.7344 11.1694C10.7782 11.1198 10.809 11.0601 10.8241 10.9956L12.9897 1.70205C13.023 1.55973 13.0166 1.41103 12.9714 1.27206C12.9261 1.1331 12.8436 1.0092 12.7329 0.91381C12.6221 0.818418 12.4874 0.755181 12.3433 0.730965C12.1991 0.706749 12.0511 0.721679 11.9153 0.775647ZM5.4321 7.51565L5.0865 9.58765L4.2865 6.68685L12.1025 1.58685L5.4321 7.51565Z" fill="white"/>
</svg>
