<svg viewBox="0 0 13 10" fill="none" xmlns="http://www.w3.org/2000/svg">
<path fill-rule="evenodd" clip-rule="evenodd" d="M12.196 1.33802C11.7542 1.5333 11.286 1.66216 10.8064 1.72041C11.3119 1.41754 11.69 0.941324 11.8704 0.380416C11.4032 0.658016 10.8864 0.860415 10.3336 0.967615C9.96928 0.577843 9.48636 0.319363 8.95995 0.232357C8.43353 0.145352 7.89312 0.234695 7.42273 0.486499C6.95233 0.738302 6.5783 1.13846 6.35878 1.62476C6.13926 2.11106 6.08654 2.65627 6.20884 3.17562C5.24572 3.12795 4.30347 2.87774 3.44358 2.44131C2.58369 2.00489 1.82548 1.39206 1.21844 0.642816C0.908163 1.17641 0.813212 1.8083 0.952962 2.40952C1.09271 3.01074 1.45663 3.53597 1.97044 3.87802C1.57044 3.86762 1.19604 3.75802 0.870438 3.57562V3.60522C0.870245 4.1645 1.06358 4.70661 1.41764 5.13956C1.77169 5.5725 2.26465 5.86959 2.81284 5.98042C2.60523 6.03661 2.39111 6.06512 2.17604 6.06521C2.02084 6.06521 1.86884 6.05082 1.72084 6.02042C1.87556 6.50181 2.17691 6.92279 2.58272 7.22445C2.98852 7.52611 3.47848 7.69337 3.98404 7.70282C3.48176 8.09767 2.90648 8.38947 2.29117 8.56149C1.67587 8.7335 1.03266 8.78235 0.398438 8.70522C1.50072 9.42252 2.78812 9.80309 4.10324 9.80042C8.56084 9.80042 10.996 6.10842 10.996 2.90522C10.996 2.80042 10.9928 2.69562 10.988 2.59322C11.462 2.24987 11.8711 1.82483 12.196 1.33802Z" fill="white"/>
</svg>
