<svg viewBox="0 0 14 10" fill="none" xmlns="http://www.w3.org/2000/svg">
<path d="M13.3265 1.70212C13.1744 1.11473 12.7285 0.65169 12.1631 0.493523C11.1301 0.199951 6.99829 0.199951 6.99829 0.199951C6.99829 0.199951 2.86659 0.199951 1.83365 0.482393C1.27911 0.640393 0.822379 1.11481 0.670269 1.70212C0.398438 2.77498 0.398438 4.99995 0.398438 4.99995C0.398438 4.99995 0.398438 7.23613 0.670269 8.29778C0.82254 8.88509 1.26823 9.34813 1.83373 9.50629C2.87747 9.79995 6.99845 9.79995 6.99845 9.79995C6.99845 9.79995 11.1301 9.79995 12.1631 9.51751C12.7286 9.35942 13.1744 8.89639 13.3266 8.30908C13.5984 7.23613 13.5984 5.01125 13.5984 5.01125C13.5984 5.01125 13.6093 2.77498 13.3265 1.70212ZM5.6828 7.05545V2.94445L9.11864 4.99995L5.6828 7.05545Z" fill="white"/>
</svg>
