<svg width="826" height="51" viewBox="0 0 826 51" fill="none" xmlns="http://www.w3.org/2000/svg">
<path fill-rule="evenodd" clip-rule="evenodd" d="M6.59276 0.443568C6.97952 -0.148019 7.60659 -0.148019 7.99335 0.443568L14.296 10.084C14.6828 10.6756 14.6828 11.6348 14.296 12.2263C13.9093 12.8179 13.2822 12.8179 12.8954 12.2263L8.28343 5.1719V9.08899C8.28343 30.5625 19.6641 47.9702 33.703 47.9702H798.6C812.639 47.9702 824.019 30.5625 824.019 9.08899V1.51473C824.019 0.6781 824.463 -0.00012207 825.01 -0.00012207C825.557 -0.00012207 826 0.6781 826 1.51473V9.08899C826 32.2357 813.732 50.9999 798.6 50.9999H33.703C18.5702 50.9999 6.30269 32.2357 6.30269 9.08899V5.1719L1.69067 12.2263C1.30391 12.8179 0.676838 12.8179 0.290073 12.2263C-0.0966911 11.6348 -0.0966911 10.6756 0.290073 10.084L6.59276 0.443568Z" fill="#28CBD7"/>
</svg>
