<svg id="Layer_2" data-name="Layer 2" xmlns="http://www.w3.org/2000/svg" viewBox="0 0 25 25"><defs><style>.cls-1{fill:#fdc637;fill-rule:evenodd;}</style></defs><path class="cls-1" d="M7,3.18a10.92,10.92,0,0,1,16.28,8,.8.8,0,1,1-1.58.22A9.33,9.33,0,0,0,4.41,8H7.5a.8.8,0,0,1,0,1.6h-5a.8.8,0,0,1-.8-.8v-5a.8.8,0,0,1,1.6,0v3A10.81,10.81,0,0,1,7,3.18ZM2.39,13a.79.79,0,0,1,.9.68,9.33,9.33,0,0,0,17.3,3.41H17.5a.8.8,0,0,1,0-1.6h5a.8.8,0,0,1,.8.8v5a.8.8,0,0,1-1.6,0v-3A10.81,10.81,0,0,1,18,21.82a10.92,10.92,0,0,1-16.28-8A.79.79,0,0,1,2.39,13Z"/></svg>