<svg id="Layer_3" data-name="Layer 3" xmlns="http://www.w3.org/2000/svg" viewBox="0 0 25 25"><defs><style>.cls-1{fill:#13aafe;}</style></defs><path class="cls-1" d="M12.5,24.85a.79.79,0,0,1-.77-.77v-2l-1,1a.74.74,0,0,1-.54.23.76.76,0,0,1-.55-.23.79.79,0,0,1,0-1.09l2.09-2.09V13.84l-5.25,3-.76,2.85a.78.78,0,0,1-1,.55.74.74,0,0,1-.47-.36.76.76,0,0,1-.07-.59L4.59,18,2.86,19a.73.73,0,0,1-.58.07.74.74,0,0,1-.47-.36.76.76,0,0,1,.28-1.05l1.73-1-1.37-.36a.87.87,0,0,1-.27-.14A.67.67,0,0,1,2,15.9a.77.77,0,0,1-.1-.29.76.76,0,0,1,0-.3A.84.84,0,0,1,2,15a.87.87,0,0,1,.23-.2.7.7,0,0,1,.29-.09.61.61,0,0,1,.3,0l2.85.76,5.25-3-5.25-3-2.86.76a.76.76,0,0,1-.57-.08.74.74,0,0,1-.36-.47.78.78,0,0,1,.54-.94l1.36-.36-1.73-1a.74.74,0,0,1-.23-.2.68.68,0,0,1-.13-.27.61.61,0,0,1,0-.3.75.75,0,0,1,.09-.29A.87.87,0,0,1,2,6.09,1,1,0,0,1,2.27,6a1.08,1.08,0,0,1,.31,0,.94.94,0,0,1,.28.1L4.59,7,4.23,5.68a.82.82,0,0,1,0-.31.77.77,0,0,1,.1-.29.72.72,0,0,1,.2-.23.84.84,0,0,1,.27-.13.76.76,0,0,1,.3,0,.77.77,0,0,1,.29.1.74.74,0,0,1,.23.2.9.9,0,0,1,.13.28l.76,2.85,5.25,3V5.1L9.64,3a.67.67,0,0,1-.16-.25.72.72,0,0,1-.06-.29.94.94,0,0,1,.05-.3.81.81,0,0,1,.42-.42.8.8,0,0,1,.3-.06.72.72,0,0,1,.29.06.74.74,0,0,1,.25.17l1,1v-2A.74.74,0,0,1,12,.38.74.74,0,0,1,12.5.15a.76.76,0,0,1,.55.23.78.78,0,0,1,.23.54v2l1-1a.78.78,0,0,1,.55-.23.76.76,0,0,1,.55.23.79.79,0,0,1,0,1.09L13.28,5.1v6.06l5.24-3,.77-2.85a.74.74,0,0,1,.36-.47.81.81,0,0,1,.59-.08.8.8,0,0,1,.47.36.81.81,0,0,1,.07.59L20.42,7l1.73-1A.73.73,0,0,1,22.73,6a.77.77,0,0,1,.47.36.73.73,0,0,1,.07.58.76.76,0,0,1-.35.47l-1.73,1,1.36.36a.78.78,0,0,1,.55.95.85.85,0,0,1-.36.47.76.76,0,0,1-.59.07L19.3,9.47l-5.25,3,5.25,3,2.85-.76a.76.76,0,0,1,.59.07.85.85,0,0,1,.36.47.81.81,0,0,1-.08.59.78.78,0,0,1-.47.36l-1.36.36,1.73,1a.76.76,0,0,1,.35.47.73.73,0,0,1-.08.58.72.72,0,0,1-.46.36.76.76,0,0,1-.59-.07l-1.72-1,.36,1.36a.65.65,0,0,1,0,.31.75.75,0,0,1-.09.29.87.87,0,0,1-.2.23.84.84,0,0,1-.27.13.81.81,0,0,1-.31,0,.67.67,0,0,1-.28-.1.74.74,0,0,1-.23-.2.72.72,0,0,1-.13-.28l-.77-2.85-5.24-3V19.9L15.36,22a.74.74,0,0,1,.23.54.77.77,0,0,1-.77.78.76.76,0,0,1-.55-.23l-1-1v2a.77.77,0,0,1-.22.54A.76.76,0,0,1,12.5,24.85Z"/></svg>