<svg id="Layer_5" data-name="Layer 5" xmlns="http://www.w3.org/2000/svg" viewBox="0 0 25 25"><defs><style>.cls-1{fill:#32f196;}</style></defs><path class="cls-1" d="M11.4,14.49v4.24a.49.49,0,0,0,.4.52.52.52,0,0,0,.62-.22l3.9-5.88a.52.52,0,0,0,0-.57.51.51,0,0,0-.48-.29H13.6V8.06a.48.48,0,0,0-.4-.52.51.51,0,0,0-.62.22l-3.9,5.88a.51.51,0,0,0,0,.57.5.5,0,0,0,.48.28Zm1.1,8.8a8.83,8.83,0,0,1-6.15-2.43A8.49,8.49,0,0,1,3.7,14.27a10.56,10.56,0,0,1,2-5.66,33.36,33.36,0,0,1,6-6.6,1.19,1.19,0,0,1,.38-.22,1.25,1.25,0,0,1,.88,0,1.24,1.24,0,0,1,.39.22,33.59,33.59,0,0,1,6,6.6,10.56,10.56,0,0,1,2,5.66,8.49,8.49,0,0,1-2.65,6.59A8.83,8.83,0,0,1,12.5,23.29Z"/></svg>