<svg viewBox="0 0 12 13" fill="#2CFF4E" xmlns="http://www.w3.org/2000/svg">
<path fill-rule="evenodd" clip-rule="evenodd" d="M6 12.5C9.31371 12.5 12 9.81371 12 6.5C12 3.18629 9.31371 0.5 6 0.5C2.68629 0.5 0 3.18629 0 6.5C0 9.81371 2.68629 12.5 6 12.5ZM9.85355 4.85355C10.0488 4.65829 10.0488 4.34171 9.85355 4.14645C9.65829 3.95118 9.34171 3.95118 9.14645 4.14645L5.5 7.79289L3.35355 5.64645C3.15829 5.45118 2.84171 5.45118 2.64645 5.64645C2.45118 5.84171 2.45118 6.15829 2.64645 6.35355L5.14645 8.85355C5.34171 9.04882 5.65829 9.04882 5.85355 8.85355L9.85355 4.85355Z" />
</svg>
