<svg viewBox="0 0 12 13" fill="#FFD600" xmlns="http://www.w3.org/2000/svg">
<path fill-rule="evenodd" clip-rule="evenodd" d="M11.505 6.5C11.2316 6.5 11.0125 6.72216 10.9856 6.99421C10.9047 7.8105 10.6242 8.59716 10.1657 9.28341C9.61516 10.1073 8.8327 10.7494 7.91724 11.1286C7.00179 11.5078 5.99444 11.607 5.0226 11.4137C4.05075 11.2204 3.15806 10.7433 2.4574 10.0426C1.75674 9.34194 1.27958 8.44925 1.08627 7.4774C0.892957 6.50556 0.992171 5.49821 1.37137 4.58276C1.75056 3.6673 2.39271 2.88484 3.2166 2.33434C3.90284 1.87581 4.6895 1.59535 5.50579 1.51443C5.77784 1.48747 6 1.26838 6 0.995C6 0.721619 5.77801 0.497877 5.50556 0.520404C5.33592 0.53443 5.16725 0.555646 5 0.583916C4.16919 0.724353 3.37341 1.03889 2.66658 1.51118C1.67989 2.17047 0.910851 3.10754 0.456725 4.2039C0.00259972 5.30026 -0.11622 6.50665 0.115291 7.67054C0.346802 8.83443 0.918247 9.90352 1.75736 10.7426C2.59648 11.5818 3.66557 12.1532 4.82946 12.3847C5.99335 12.6162 7.19974 12.4974 8.2961 12.0433C9.39246 11.5891 10.3295 10.8201 10.9888 9.83342C11.4611 9.12659 11.7756 8.33081 11.9161 7.5C11.9444 7.33275 11.9656 7.16408 11.9796 6.99444C12.0021 6.72199 11.7784 6.5 11.505 6.5Z" />
</svg>
