<svg viewBox="0 0 12 13" fill="#E1444D" xmlns="http://www.w3.org/2000/svg">
<path fill-rule="evenodd" clip-rule="evenodd" d="M12 6.5C12 9.81371 9.31371 12.5 6 12.5C2.68629 12.5 0 9.81371 0 6.5C0 3.18629 2.68629 0.5 6 0.5C9.31371 0.5 12 3.18629 12 6.5ZM2.64645 3.14645C2.84171 2.95118 3.15829 2.95118 3.35355 3.14645L6 5.79289L8.64645 3.14645C8.84171 2.95118 9.15829 2.95118 9.35355 3.14645C9.54882 3.34171 9.54882 3.65829 9.35355 3.85355L6.70711 6.5L9.35355 9.14645C9.54882 9.34171 9.54882 9.65829 9.35355 9.85355C9.15829 10.0488 8.84171 10.0488 8.64645 9.85355L6 7.20711L3.35355 9.85355C3.15829 10.0488 2.84171 10.0488 2.64645 9.85355C2.45118 9.65829 2.45118 9.34171 2.64645 9.14645L5.29289 6.5L2.64645 3.85355C2.45118 3.65829 2.45118 3.34171 2.64645 3.14645Z" />
</svg>
