<svg viewBox="0 0 14 13" stroke="#406AFF" fill="none" xmlns="http://www.w3.org/2000/svg">
<path d="M5.7951 7.7049L13 0.5M5.7951 7.7049L8.08757 12.2898C8.11631 12.3525 8.16244 12.4057 8.2205 12.4429C8.27855 12.4802 8.34608 12.5 8.41507 12.5C8.48405 12.5 8.55158 12.4802 8.60963 12.4429C8.66769 12.4057 8.71382 12.3525 8.74256 12.2898L13 0.5M5.7951 7.7049L1.21017 5.41243C1.14746 5.38369 1.09432 5.33756 1.05706 5.2795C1.0198 5.22145 1 5.15392 1 5.08493C1 5.01595 1.0198 4.94842 1.05706 4.89037C1.09432 4.83231 1.14746 4.78618 1.21017 4.75744L13 0.5"  stroke-linecap="round" stroke-linejoin="round"/>
</svg>
