<svg id="Layer_1" data-name="Layer 1" xmlns="http://www.w3.org/2000/svg" viewBox="0 0 38 40"><defs><style>.cls-1{fill:#37f3ff;}</style></defs><path class="cls-1" d="M12.85,7.64V32.79H7V12.31H2V7.64Z"/><path class="cls-1" d="M36,28.05v4.74H17V29l9.7-9.16a10.54,10.54,0,0,0,2.08-2.52,4.7,4.7,0,0,0,.54-2.12,2.73,2.73,0,0,0-1-2.3,4.6,4.6,0,0,0-3-.82,6.72,6.72,0,0,0-3,.64,5.57,5.57,0,0,0-2.23,1.87l-4.24-2.73a9.74,9.74,0,0,1,4.06-3.41,13.36,13.36,0,0,1,5.93-1.26,11.87,11.87,0,0,1,4.88.93A7.18,7.18,0,0,1,34,10.73a6.55,6.55,0,0,1,1.19,3.92,8.84,8.84,0,0,1-.86,3.84A14.89,14.89,0,0,1,31,22.59l-5.78,5.46Z"/></svg>