<svg id="Layer_1" data-name="Layer 1" xmlns="http://www.w3.org/2000/svg" viewBox="0 0 38 40"><defs><style>.cls-1{fill:#f0bd0e;}</style></defs><path class="cls-1" d="M5.82,20l0,7.74,6.58,3.86v4.53L2,30V17.74Zm0-7.74v4.51L2,14.51V10L5.82,7.73,9.67,10ZM15.16,10,19,7.73,22.84,10,19,12.26Z"/><path class="cls-1" d="M8.59,26.13V21.6l3.83,2.27v4.51Zm6.57,7.1L19,35.49l3.85-2.26v4.51L19,40l-3.83-2.26ZM28.33,10l3.83-2.27L36,10v4.51l-3.84,2.26V12.26Zm3.83,17.74,0-7.74L36,17.74V30L25.59,36.13V31.6Z"/><path class="cls-1" d="M29.41,26.13l-3.83,2.25V23.87l3.83-2.27Z"/><path class="cls-1" d="M29.41,13.87l0,4.53-6.59,3.86V30L19,32.26,15.18,30V22.26L8.59,18.4V13.87l3.85-2.27L19,15.49l6.59-3.89,3.85,2.27ZM8.59,6.13,19,0,29.41,6.13,25.58,8.4,19,4.51,12.42,8.4Z"/></svg>