<svg id="Layer_1" data-name="Layer 1" xmlns="http://www.w3.org/2000/svg" viewBox="0 0 38 40"><defs><style>.cls-1{fill:#53ff37;}</style></defs><path class="cls-1" d="M9.13,21.16A6.79,6.79,0,0,1,4,19.08a7.82,7.82,0,0,1-2-5.66,8.77,8.77,0,0,1,.92-4.11A6.42,6.42,0,0,1,5.42,6.64a7.29,7.29,0,0,1,3.71-.95A6.81,6.81,0,0,1,14.32,7.8a7.81,7.81,0,0,1,2,5.62,7.86,7.86,0,0,1-2,5.66A6.86,6.86,0,0,1,9.13,21.16ZM25.64,6.05h5.74L12.32,34H6.58ZM9.13,17.37a2,2,0,0,0,1.72-1,5.55,5.55,0,0,0,.63-3,5.57,5.57,0,0,0-.63-3,2,2,0,0,0-1.72-1,2,2,0,0,0-1.71,1,5.36,5.36,0,0,0-.64,2.95,5.56,5.56,0,0,0,.64,3A2,2,0,0,0,9.13,17.37Zm19.7,16.94a6.85,6.85,0,0,1-5.18-2.07,7.89,7.89,0,0,1-2-5.66,7.79,7.79,0,0,1,2-5.62,6.77,6.77,0,0,1,5.15-2.12A6.81,6.81,0,0,1,34,21a7.76,7.76,0,0,1,2,5.62,7.82,7.82,0,0,1-2,5.66A6.88,6.88,0,0,1,28.83,34.31Zm0-3.78a2,2,0,0,0,1.71-1,5.47,5.47,0,0,0,.64-3,5.44,5.44,0,0,0-.64-3,2,2,0,0,0-1.71-1,2,2,0,0,0-1.72,1,5.55,5.55,0,0,0-.63,3,5.57,5.57,0,0,0,.63,3A2,2,0,0,0,28.83,30.53Z"/></svg>