<svg id="Layer_1" data-name="Layer 1" xmlns="http://www.w3.org/2000/svg" viewBox="0 0 38 40"><defs><style>.cls-1{fill:#ffc737;fill-rule:evenodd;}</style></defs><path class="cls-1" d="M10.36,5.33A17.2,17.2,0,0,1,36,17.85a2,2,0,0,1-3.94.55,13.22,13.22,0,0,0-23.74-6h3.18a2,2,0,1,1,0,4H4a2,2,0,0,1-2-2V6.86a2,2,0,1,1,4,0V9A17.08,17.08,0,0,1,10.36,5.33Z"/><path class="cls-1" d="M3.71,19.91A2,2,0,0,1,6,21.6a13.23,13.23,0,0,0,19.71,9.63,13.4,13.4,0,0,0,4-3.61H26.51a2,2,0,0,1,0-4H34a2,2,0,0,1,2,2v7.51a2,2,0,1,1-4,0V31.05a17.2,17.2,0,0,1-30-8.9A2,2,0,0,1,3.71,19.91Z"/></svg>