<svg id="Layer_1" data-name="Layer 1" xmlns="http://www.w3.org/2000/svg" viewBox="0 0 38 40"><defs><style>.cls-1{fill:#247cff;}</style></defs><path class="cls-1" d="M30.69,9.52V6.44a2.92,2.92,0,0,0,1.46-2.52V3.19a.73.73,0,0,0-.73-.73H6.58a.73.73,0,0,0-.73.73v.73A2.92,2.92,0,0,0,7.31,6.44V9.52a10.21,10.21,0,0,0,3.39,7.6L13.89,20,10.7,22.88a10.21,10.21,0,0,0-3.39,7.6v3.08a2.92,2.92,0,0,0-1.46,2.52v.73a.73.73,0,0,0,.73.73H31.42a.73.73,0,0,0,.73-.73v-.73a2.92,2.92,0,0,0-1.46-2.52V30.48a10.21,10.21,0,0,0-3.39-7.6L24.11,20l3.19-2.88A10.21,10.21,0,0,0,30.69,9.52ZM25.35,15l-4.4,4a1.46,1.46,0,0,0,0,2.18l4.4,4a7.3,7.3,0,0,1,2.42,5.43v2.67H25.94l-6.36-8.47a.74.74,0,0,0-1.16,0l-6.36,8.47H10.23V30.48a7.3,7.3,0,0,1,2.42-5.43l4.4-4a1.46,1.46,0,0,0,0-2.18l-4.4-4a7.3,7.3,0,0,1-2.42-5.43V6.85H27.77V9.52A7.3,7.3,0,0,1,25.35,15Z"/><path class="cls-1" d="M24,12.69H14a.71.71,0,0,0-.66.44.72.72,0,0,0,.12.78l5.09,4.7a.73.73,0,0,0,1,0l5.09-4.7a.72.72,0,0,0,.12-.78A.71.71,0,0,0,24,12.69Z"/></svg>