<svg viewBox="0 0 24 24" fill="none" xmlns="http://www.w3.org/2000/svg">
<circle cx="12" cy="12" r="12" fill="white"/>
<path d="M10.7482 9.53331V6.86664H5.81486C5.71486 6.86664 5.64819 6.9333 5.64819 7.0333V10.8C5.64819 10.9 5.71486 10.9667 5.81486 10.9667H7.71486V17.8333C7.71486 17.9333 7.78153 18 7.88153 18H10.9815C11.0815 18 11.1482 17.9333 11.1482 17.8333V9.53331H10.7482Z" fill="#29AEFF"/>
<path d="M14.1816 6H12.9815H9.74823C9.64822 6 9.58154 6.06667 9.58154 6.16667V16.9667C9.58154 17.0667 9.64822 17.1333 9.74823 17.1333H12.8482C12.9482 17.1333 13.0149 17.0667 13.0149 16.9667V14.2334H14.2149C16.4815 14.2334 18.3149 12.4 18.3149 10.1333C18.3149 7.83334 16.4482 6 14.1816 6Z" fill="#2761E7"/>
</svg>
