<svg viewBox="0 0 24 24" fill="none" xmlns="http://www.w3.org/2000/svg">
<circle cx="12" cy="12" r="12" fill="white"/>
<path d="M8.10222 9.4412C10.2549 7.25292 13.745 7.25292 15.8976 9.4412L16.1567 9.70456C16.2643 9.81398 16.2643 9.99137 16.1567 10.1008L15.2704 11.0017C15.2166 11.0564 15.1294 11.0564 15.0756 11.0017L14.719 10.6393C13.2173 9.11268 10.7825 9.11268 9.28078 10.6393L8.89898 11.0274C8.84517 11.0821 8.75791 11.0821 8.7041 11.0274L7.81786 10.1265C7.71023 10.0171 7.71023 9.83968 7.81786 9.73027L8.10222 9.4412ZM17.7304 11.3044L18.5192 12.1062C18.6268 12.2156 18.6268 12.393 18.5192 12.5024L14.9626 16.1179C14.855 16.2273 14.6805 16.2273 14.5729 16.1179C14.5729 16.1179 14.5729 16.1179 14.5729 16.1179L12.0486 13.5519C12.0217 13.5245 11.9781 13.5245 11.9512 13.5519C11.9512 13.5519 11.9512 13.5519 11.9512 13.5519L9.42704 16.1179C9.31941 16.2273 9.1449 16.2273 9.03727 16.1179C9.03727 16.1179 9.03727 16.1179 9.03727 16.1179L5.48063 12.5024C5.37299 12.393 5.37299 12.2156 5.48063 12.1062L6.26938 11.3043C6.37701 11.1949 6.55152 11.1949 6.65915 11.3043L9.1834 13.8704C9.21031 13.8978 9.25394 13.8978 9.28085 13.8704C9.28085 13.8704 9.28085 13.8704 9.28085 13.8704L11.805 11.3043C11.9126 11.1949 12.0871 11.1949 12.1947 11.3043C12.1947 11.3043 12.1947 11.3043 12.1948 11.3043L14.719 13.8704C14.7459 13.8978 14.7895 13.8978 14.8164 13.8704L17.3407 11.3044C17.4483 11.195 17.6228 11.195 17.7304 11.3044Z" fill="#006FFF"/>
</svg>
