<svg id="instruction_bnb" xmlns="http://www.w3.org/2000/svg" viewBox="0 0 200 200"><defs><style>.cls-1{fill:#f0b90b;}.cls-2{fill:none;stroke:#f0b90b;stroke-miterlimit:10;stroke-width:12px;}</style></defs><polygon class="cls-1" points="60.24 100 43.87 116.31 27.5 100 43.87 83.69 60.24 100"/><polygon class="cls-1" points="100 60.4 128.06 88.35 144.44 72.05 100 27.79 55.56 72.05 71.94 88.35 100 60.4"/><polygon class="cls-1" points="156.13 83.69 139.76 100 156.13 116.31 172.5 100 156.13 83.69"/><polygon class="cls-1" points="100 139.6 71.94 111.65 55.56 127.95 100 172.21 144.44 127.95 128.06 111.65 100 139.6"/><polygon class="cls-1" points="100 116.31 116.37 100 100 83.69 83.63 100 100 116.31"/><circle class="cls-2" cx="100" cy="100" r="91.21"/></svg>