<svg id="b15c5c62-63be-46bc-ab11-b75a37a955c2" data-name="Слой 1" xmlns="http://www.w3.org/2000/svg" viewBox="0 0 93.38 93.38"><path d="M41.5,25.94l5.19,2.59,5.19-2.59m-5.19-5.19V37.61l7.78,4.46" fill="none" stroke="#fff" stroke-linecap="round" stroke-linejoin="round"/><path d="M62.07,31.82l.35,5.79,4.84,3.2m1.9-7.09-14.6,8.43,0,9" fill="none" stroke="#fff" stroke-linecap="round" stroke-linejoin="round"/><path d="M67.26,52.57l-4.84,3.2-.35,5.79m7.08-1.9-14.6-8.43L46.8,55.74" fill="none" stroke="#fff" stroke-linecap="round" stroke-linejoin="round"/><rect width="93.38" height="93.38" rx="21.79" fill="#4563ac" fill-opacity="0.3"/><rect x="1.56" y="1.56" width="90.27" height="90.27" rx="20.23" fill="none" stroke="#4563ac"/><path d="M51.88,67.44l-5.19-2.59L41.5,67.44m5.19,5.19V55.77l-7.78-4.46" fill="none" stroke="#fff" stroke-linecap="round" stroke-linejoin="round"/><path d="M31.31,61.56,31,55.77l-4.84-3.2m-1.9,7.09,14.6-8.43,0-9" fill="none" stroke="#fff" stroke-linecap="round" stroke-linejoin="round"/><path d="M26.13,40.81,31,37.61l.35-5.79m-7.09,1.9,14.6,8.43,7.76-4.51" fill="none" stroke="#fff" stroke-linecap="round" stroke-linejoin="round"/></svg>