<svg id="e68a9f23-8a9b-4b61-89e5-20fa56ec5329" data-name="Слой 1" xmlns="http://www.w3.org/2000/svg" viewBox="0 0 86.11 86.11"><path d="M76.15,43.06v33.1a9.46,9.46,0,0,1-9.45,9.45H19.41A9.46,9.46,0,0,1,10,76.16V43.06" fill="#5cc5ec" fill-opacity="0.5"/><path d="M76.15,43.06v33.1a9.46,9.46,0,0,1-9.45,9.45H19.41A9.46,9.46,0,0,1,10,76.16V43.06" fill="none" stroke="#5cc5ec" stroke-linecap="round" stroke-linejoin="round"/><path d="M80.88,24.14H5.23A4.73,4.73,0,0,0,.5,28.87v9.46a4.73,4.73,0,0,0,4.73,4.73H80.88a4.73,4.73,0,0,0,4.73-4.73V28.87A4.73,4.73,0,0,0,80.88,24.14Z" fill="#5cc5ec" stroke="#5cc5ec" stroke-linecap="round" stroke-linejoin="round"/><path d="M21.78,24.14A11.82,11.82,0,1,1,21.78.5c4.56-.08,9,2.14,12.82,6.35s6.75,10.25,8.46,17.29c1.71-7,4.65-13.07,8.45-17.29S59.77.42,64.33.5a11.82,11.82,0,1,1,0,23.64" fill="none" stroke="#5cc5ec" stroke-linecap="round" stroke-linejoin="round"/><path d="M43.06,24.14V85.61" fill="none" stroke="#5cc5ec" stroke-linecap="round" stroke-linejoin="round"/></svg>