<svg id="b40f10cd-d9fd-4387-b16f-4225cc4c2594" data-name="Слой 1" xmlns="http://www.w3.org/2000/svg" viewBox="0 0 830.02 491.29"><rect x="677.57" y="169.51" width="152.45" height="152.45" rx="12.7" fill="#4563ac"/><rect y="338.84" width="152.45" height="152.45" rx="12.7" fill="#4563ac"/><g opacity="0.5"><path d="M23.29,465.18a2.83,2.83,0,1,0-2.82-2.82A2.82,2.82,0,0,0,23.29,465.18Z" fill="none" stroke="#fff" stroke-linecap="round" stroke-linejoin="round"/><path d="M19.06,472.24v-1.41A2.82,2.82,0,0,1,21.88,468H24.7a2.83,2.83,0,0,1,2.83,2.83v1.41" fill="none" stroke="#fff" stroke-linecap="round" stroke-linejoin="round"/><path d="M28.23,459.62a2.81,2.81,0,0,1,1.53,1,2.83,2.83,0,0,1,0,3.46,2.74,2.74,0,0,1-1.53,1" fill="none" stroke="#fff" stroke-linecap="round" stroke-linejoin="round"/><path d="M31.76,472.24v-1.41a2.75,2.75,0,0,0-.6-1.72,2.71,2.71,0,0,0-1.52-1" fill="none" stroke="#fff" stroke-linecap="round" stroke-linejoin="round"/></g><path d="M46.09,470.12a.33.33,0,0,1-.22-.08.38.38,0,0,1-.08-.23v-7.65l-2.28,1.75a.27.27,0,0,1-.2.08.29.29,0,0,1-.23-.13l-.33-.42a.35.35,0,0,1-.06-.19.27.27,0,0,1,.13-.24l2.94-2.28a.61.61,0,0,1,.36-.1h.63a.27.27,0,0,1,.22.1.27.27,0,0,1,.09.22v8.86A.33.33,0,0,1,47,470a.33.33,0,0,1-.22.08Zm5.75,0a.29.29,0,0,1-.21-.08.32.32,0,0,1-.08-.23v-7.65l-2.28,1.75a.27.27,0,0,1-.2.08.29.29,0,0,1-.23-.13l-.33-.42a.37.37,0,0,1-.07-.19.28.28,0,0,1,.14-.24l2.94-2.28a.6.6,0,0,1,.35-.1h.64a.27.27,0,0,1,.22.1.27.27,0,0,1,.09.22v8.86a.33.33,0,0,1-.09.23.33.33,0,0,1-.22.08Z" fill="#fff"/><g opacity="0.5"><path d="M85.26,465.18A5.72,5.72,0,0,0,76.74,461a5.64,5.64,0,0,0-2.42,2.75M74,460.94v2.83h2.82" fill="none" stroke="#fff" stroke-linecap="round" stroke-linejoin="round"/><path d="M74,466.59a5.72,5.72,0,0,0,8.52,4.16A5.64,5.64,0,0,0,84.91,468m.35,2.83V468H82.44" fill="none" stroke="#fff" stroke-linecap="round" stroke-linejoin="round"/></g><path d="M100.71,470.26a3.87,3.87,0,0,1-1.88-.44,3.15,3.15,0,0,1-1.21-1.19,3.36,3.36,0,0,1-.4-1.63,4.41,4.41,0,0,1,.93-2.49l2.59-3.61s0,0,.07-.09a.38.38,0,0,1,.16-.12.4.4,0,0,1,.22-.06h.66a.21.21,0,0,1,.19.1.24.24,0,0,1,.08.2.32.32,0,0,1-.07.18l-2,2.76a3.67,3.67,0,0,1,.78-.08,3.32,3.32,0,0,1,1.74.45,3.15,3.15,0,0,1,1.58,2.75,3.33,3.33,0,0,1-.42,1.63,3.09,3.09,0,0,1-1.19,1.19A3.66,3.66,0,0,1,100.71,470.26Zm0-1.13a2.53,2.53,0,0,0,1.1-.24,2.06,2.06,0,0,0,.8-.72,2.21,2.21,0,0,0,.29-1.17,2,2,0,0,0-.31-1.14,1.94,1.94,0,0,0-.8-.73,2.46,2.46,0,0,0-2.16,0,1.94,1.94,0,0,0-.8.73,2.11,2.11,0,0,0-.3,1.14,2.21,2.21,0,0,0,.3,1.17,2,2,0,0,0,.8.72A2.44,2.44,0,0,0,100.7,469.13Z" fill="#fff"/><circle cx="29.64" cy="401.52" r="12.7" fill="#fff"/><circle cx="76.23" cy="401.52" r="12.7" fill="#fff" fill-opacity="0.2"/><circle cx="122.81" cy="401.52" r="12.7" fill="#fff" fill-opacity="0.2"/><rect x="169.39" y="338.84" width="152.45" height="152.45" rx="12.7" fill="#4563ac"/><circle cx="199.03" cy="401.52" r="12.7" fill="#fff"/><circle cx="245.62" cy="401.52" r="12.7" fill="#fff"/><circle cx="292.2" cy="401.52" r="12.7" fill="#fff" fill-opacity="0.2"/><g opacity="0.5"><path d="M192.68,465.18a2.83,2.83,0,1,0-2.82-2.82A2.83,2.83,0,0,0,192.68,465.18Z" fill="none" stroke="#fff" stroke-linecap="round" stroke-linejoin="round"/><path d="M188.45,472.24v-1.41a2.82,2.82,0,0,1,2.82-2.83h2.82a2.83,2.83,0,0,1,2.83,2.83v1.41" fill="none" stroke="#fff" stroke-linecap="round" stroke-linejoin="round"/><path d="M197.62,459.62a2.81,2.81,0,0,1,1.53,1,2.79,2.79,0,0,1,0,3.46,2.74,2.74,0,0,1-1.53,1" fill="none" stroke="#fff" stroke-linecap="round" stroke-linejoin="round"/><path d="M201.15,472.24v-1.41a2.81,2.81,0,0,0-2.12-2.72" fill="none" stroke="#fff" stroke-linecap="round" stroke-linejoin="round"/></g><path d="M212.71,470.12a.28.28,0,0,1-.31-.31v-.41a.78.78,0,0,1,.34-.59l3-2.95a8.74,8.74,0,0,0,1.38-1.39,2,2,0,0,0,.38-1.15,1.68,1.68,0,0,0-.45-1.25,1.72,1.72,0,0,0-1.3-.46,1.78,1.78,0,0,0-1.29.47,2.18,2.18,0,0,0-.58,1.28.35.35,0,0,1-.14.23.37.37,0,0,1-.21.08h-.65a.32.32,0,0,1-.21-.08.29.29,0,0,1-.08-.19,3.24,3.24,0,0,1,.38-1.38,2.82,2.82,0,0,1,1.07-1.1,3.2,3.2,0,0,1,1.71-.44,3,3,0,0,1,2.28.8,2.79,2.79,0,0,1,.77,2,2.9,2.9,0,0,1-.42,1.54,5.87,5.87,0,0,1-1.29,1.44L214.38,469h4.27a.32.32,0,0,1,.23.08.34.34,0,0,1,.08.23v.52a.33.33,0,0,1-.09.23.33.33,0,0,1-.22.08Z" fill="#fff"/><g opacity="0.5"><path d="M251.26,465.18a5.72,5.72,0,0,0-10.94-1.41m-.35-2.83v2.83h2.82" fill="none" stroke="#fff" stroke-linecap="round" stroke-linejoin="round"/><path d="M240,466.59a5.7,5.7,0,0,0,4.93,4.88,5.72,5.72,0,0,0,6-3.47m.35,2.83V468h-2.82" fill="none" stroke="#fff" stroke-linecap="round" stroke-linejoin="round"/></g><path d="M266.3,470.12a.31.31,0,0,1-.22-.08.38.38,0,0,1-.08-.23v-7.65l-2.28,1.75a.27.27,0,0,1-.2.08.29.29,0,0,1-.23-.13l-.33-.42a.35.35,0,0,1-.06-.19A.27.27,0,0,1,263,463l2.94-2.28a.6.6,0,0,1,.35-.1H267a.27.27,0,0,1,.22.1.27.27,0,0,1,.09.22v8.86a.33.33,0,0,1-.09.23.33.33,0,0,1-.22.08Z" fill="#fff"/><rect x="508.35" y="169.51" width="152.45" height="152.45" rx="12.7" fill="#4563ac"/><circle cx="537.99" cy="232.18" r="12.7" fill="#fff"/><circle cx="584.58" cy="232.18" r="12.7" fill="#fff"/><circle cx="631.16" cy="232.18" r="12.7" fill="#fff" fill-opacity="0.2"/><rect y="169.51" width="152.45" height="152.45" rx="12.7" fill="#4563ac"/><g opacity="0.5"><path d="M23.29,295.85A2.83,2.83,0,1,0,20.47,293,2.83,2.83,0,0,0,23.29,295.85Z" fill="none" stroke="#fff" stroke-linecap="round" stroke-linejoin="round"/><path d="M19.06,302.9v-1.41a2.8,2.8,0,0,1,.82-2,2.83,2.83,0,0,1,2-.83H24.7a2.83,2.83,0,0,1,2.83,2.82v1.41" fill="none" stroke="#fff" stroke-linecap="round" stroke-linejoin="round"/><path d="M28.23,290.29a2.81,2.81,0,0,1,1.53,1,2.77,2.77,0,0,1,.59,1.73,2.81,2.81,0,0,1-2.12,2.73" fill="none" stroke="#fff" stroke-linecap="round" stroke-linejoin="round"/><path d="M31.76,302.9v-1.41a2.79,2.79,0,0,0-.6-1.72,2.75,2.75,0,0,0-1.52-1" fill="none" stroke="#fff" stroke-linecap="round" stroke-linejoin="round"/></g><path d="M46.09,300.79a.33.33,0,0,1-.22-.08.38.38,0,0,1-.08-.23v-7.65l-2.28,1.75a.32.32,0,0,1-.2.08.29.29,0,0,1-.23-.13l-.33-.42a.38.38,0,0,1-.06-.19.3.3,0,0,1,.13-.25l2.94-2.27a.61.61,0,0,1,.36-.1h.63a.27.27,0,0,1,.22.1.26.26,0,0,1,.09.21v8.87a.33.33,0,0,1-.09.23.33.33,0,0,1-.22.08Zm5.75,0a.29.29,0,0,1-.21-.08.32.32,0,0,1-.08-.23v-7.65l-2.28,1.75a.32.32,0,0,1-.2.08.29.29,0,0,1-.23-.13l-.33-.42a.4.4,0,0,1-.07-.19.31.31,0,0,1,.14-.25l2.94-2.27a.6.6,0,0,1,.35-.1h.64a.27.27,0,0,1,.22.1.26.26,0,0,1,.09.21v8.87a.33.33,0,0,1-.09.23.33.33,0,0,1-.22.08Z" fill="#fff"/><g opacity="0.5"><path d="M85.26,295.85A5.72,5.72,0,0,0,80.33,291a5.72,5.72,0,0,0-6,3.48M74,291.61v2.83h2.82" fill="none" stroke="#fff" stroke-linecap="round" stroke-linejoin="round"/><path d="M74,297.26a5.72,5.72,0,0,0,10.94,1.41m.35,2.82v-2.82H82.44" fill="none" stroke="#fff" stroke-linecap="round" stroke-linejoin="round"/></g><path d="M100.71,300.92a3.87,3.87,0,0,1-1.88-.43,3.22,3.22,0,0,1-1.21-1.19,3.36,3.36,0,0,1-.4-1.63,4.39,4.39,0,0,1,.93-2.49l2.59-3.61.07-.09a.31.31,0,0,1,.16-.12.4.4,0,0,1,.22-.06h.66a.21.21,0,0,1,.19.1.24.24,0,0,1,.08.2.38.38,0,0,1-.07.18l-2,2.76a3.67,3.67,0,0,1,.78-.08,3.32,3.32,0,0,1,1.74.45,2.94,2.94,0,0,1,1.16,1.16,3.1,3.1,0,0,1,.42,1.59,3.26,3.26,0,0,1-.42,1.62,3,3,0,0,1-1.19,1.2A3.76,3.76,0,0,1,100.71,300.92Zm0-1.12a2.4,2.4,0,0,0,1.1-.25,2,2,0,0,0,.8-.71,2.21,2.21,0,0,0,.29-1.17,2,2,0,0,0-.31-1.14,1.88,1.88,0,0,0-.8-.73,2.37,2.37,0,0,0-2.16,0,1.88,1.88,0,0,0-.8.73,2.11,2.11,0,0,0-.3,1.14,2.21,2.21,0,0,0,.3,1.17,1.9,1.9,0,0,0,.8.71A2.32,2.32,0,0,0,100.7,299.8Z" fill="#fff"/><circle cx="29.64" cy="232.18" r="12.7" fill="#fff"/><circle cx="76.23" cy="232.18" r="12.7" fill="#fff" fill-opacity="0.2"/><circle cx="122.81" cy="232.18" r="12.7" fill="#fff" fill-opacity="0.2"/><rect x="338.78" y="169.51" width="152.45" height="152.45" rx="12.7" fill="#4563ac"/><g opacity="0.5"><path d="M362.07,295.85a2.83,2.83,0,1,0-2.82-2.83A2.83,2.83,0,0,0,362.07,295.85Z" fill="none" stroke="#fff" stroke-linecap="round" stroke-linejoin="round"/><path d="M357.84,302.9v-1.41a2.83,2.83,0,0,1,2.82-2.82h2.83a2.83,2.83,0,0,1,2.82,2.82v1.41" fill="none" stroke="#fff" stroke-linecap="round" stroke-linejoin="round"/><path d="M367,290.29a2.81,2.81,0,0,1,1.53,1,2.78,2.78,0,0,1,.6,1.73,2.83,2.83,0,0,1-2.13,2.73" fill="none" stroke="#fff" stroke-linecap="round" stroke-linejoin="round"/><path d="M370.54,302.9v-1.41a2.79,2.79,0,0,0-2.11-2.71" fill="none" stroke="#fff" stroke-linecap="round" stroke-linejoin="round"/></g><path d="M385.14,300.92a4.49,4.49,0,0,1-1.83-.34,2.9,2.9,0,0,1-1.18-.9,2.19,2.19,0,0,1-.42-1.16.26.26,0,0,1,.08-.19.32.32,0,0,1,.21-.08h.61a.43.43,0,0,1,.24.07.42.42,0,0,1,.15.23,1.42,1.42,0,0,0,.76,1,3.19,3.19,0,0,0,1.39.28,2.37,2.37,0,0,0,1.55-.46,1.62,1.62,0,0,0,.58-1.34c0-1.1-.67-1.65-2-1.65H384a.32.32,0,0,1-.23-.09.31.31,0,0,1-.08-.23v-.35a.49.49,0,0,1,.15-.35l2.64-2.93h-4a.31.31,0,0,1-.23-.08.26.26,0,0,1-.08-.22v-.48a.28.28,0,0,1,.08-.23.29.29,0,0,1,.23-.1h5.36a.34.34,0,0,1,.33.33v.44a.53.53,0,0,1-.14.32l-2.64,3h.22a3.45,3.45,0,0,1,2.18.72,2.43,2.43,0,0,1,.81,2,2.68,2.68,0,0,1-.44,1.54,2.8,2.8,0,0,1-1.22,1A4.42,4.42,0,0,1,385.14,300.92Z" fill="#fff"/><g opacity="0.5"><path d="M420.66,295.85a5.72,5.72,0,0,0-8.53-4.17,5.81,5.81,0,0,0-2.42,2.76m-.35-2.83v2.83h2.83" fill="none" stroke="#fff" stroke-linecap="round" stroke-linejoin="round"/><path d="M409.36,297.26a5.72,5.72,0,0,0,10.94,1.41m.36,2.82v-2.82h-2.83" fill="none" stroke="#fff" stroke-linecap="round" stroke-linejoin="round"/></g><path d="M436.23,300.92a3.09,3.09,0,0,1-2.56-1,4.56,4.56,0,0,1-.86-2.69v-2.37a4.31,4.31,0,0,1,.86-2.65,3.7,3.7,0,0,1,5.12,0,4.25,4.25,0,0,1,.87,2.65c0,.26,0,.66,0,1.21s0,.92,0,1.16a4.5,4.5,0,0,1-.87,2.69A3.08,3.08,0,0,1,436.23,300.92Zm0-1.12a1.84,1.84,0,0,0,1.57-.69,3.3,3.3,0,0,0,.56-1.95c0-.27,0-.64,0-1.13s0-.87,0-1.11a3.22,3.22,0,0,0-.57-1.94,2.09,2.09,0,0,0-3.12,0,3.22,3.22,0,0,0-.55,1.94l0,1.11,0,1.13a3.23,3.23,0,0,0,.55,1.95A1.84,1.84,0,0,0,436.23,299.8Z" fill="#fff"/><circle cx="368.43" cy="232.18" r="12.7" fill="#fff"/><circle cx="415.01" cy="232.18" r="12.7" fill="#fae054"/><circle cx="461.59" cy="232.18" r="12.7" fill="#fff" fill-opacity="0.2"/><rect x="508.35" y="337.46" width="152.45" height="152.45" rx="12.7" fill="#fff" fill-opacity="0.1"/><rect x="338.78" y="337.46" width="152.45" height="152.45" rx="12.7" fill="#fff" fill-opacity="0.1"/><g opacity="0.5"><path d="M700,295.85a2.83,2.83,0,1,0-2.82-2.83A2.83,2.83,0,0,0,700,295.85Z" fill="none" stroke="#fff" stroke-linecap="round" stroke-linejoin="round"/><path d="M695.73,302.9v-1.41a2.8,2.8,0,0,1,.82-2,2.83,2.83,0,0,1,2-.83h2.82a2.83,2.83,0,0,1,2.83,2.82v1.41" fill="none" stroke="#fff" stroke-linecap="round" stroke-linejoin="round"/><path d="M704.9,290.29a2.81,2.81,0,0,1,1.53,1A2.78,2.78,0,0,1,707,293a2.83,2.83,0,0,1-2.13,2.73" fill="none" stroke="#fff" stroke-linecap="round" stroke-linejoin="round"/><path d="M708.43,302.9v-1.41a2.79,2.79,0,0,0-.6-1.72,2.75,2.75,0,0,0-1.52-1" fill="none" stroke="#fff" stroke-linecap="round" stroke-linejoin="round"/></g><path d="M723,300.92a4.43,4.43,0,0,1-1.83-.34,2.83,2.83,0,0,1-1.18-.9,2.19,2.19,0,0,1-.42-1.16.26.26,0,0,1,.08-.19.3.3,0,0,1,.21-.08h.61a.45.45,0,0,1,.24.07.42.42,0,0,1,.15.23,1.42,1.42,0,0,0,.76,1,3.16,3.16,0,0,0,1.39.28,2.39,2.39,0,0,0,1.55-.46,1.62,1.62,0,0,0,.58-1.34c0-1.1-.67-1.65-2-1.65h-1.27a.32.32,0,0,1-.23-.09.31.31,0,0,1-.08-.23v-.35a.52.52,0,0,1,.14-.35l2.65-2.93h-4a.31.31,0,0,1-.23-.08.27.27,0,0,1-.09-.22v-.48a.32.32,0,0,1,.32-.33h5.36a.34.34,0,0,1,.33.33v.44a.53.53,0,0,1-.14.32l-2.64,3h.22a3.45,3.45,0,0,1,2.18.72,2.43,2.43,0,0,1,.81,2,2.62,2.62,0,0,1-.45,1.54,2.69,2.69,0,0,1-1.22,1A4.33,4.33,0,0,1,723,300.92Z" fill="#fff"/><g opacity="0.5"><path d="M758.54,295.85a5.72,5.72,0,0,0-4.93-4.89,5.78,5.78,0,0,0-3.59.72,5.71,5.71,0,0,0-2.42,2.76m-.35-2.83v2.83h2.82" fill="none" stroke="#fff" stroke-linecap="round" stroke-linejoin="round"/><path d="M747.25,297.26a5.72,5.72,0,0,0,10.94,1.41m.35,2.82v-2.82h-2.82" fill="none" stroke="#fff" stroke-linecap="round" stroke-linejoin="round"/></g><path d="M774.12,300.92a3.09,3.09,0,0,1-2.56-1,4.5,4.5,0,0,1-.86-2.69v-2.37a4.25,4.25,0,0,1,.86-2.65,3.7,3.7,0,0,1,5.12,0,4.25,4.25,0,0,1,.87,2.65c0,.26,0,.66,0,1.21s0,.92,0,1.16a4.5,4.5,0,0,1-.87,2.69A3.08,3.08,0,0,1,774.12,300.92Zm0-1.12a1.86,1.86,0,0,0,1.57-.69,3.3,3.3,0,0,0,.56-1.95c0-.27,0-.64,0-1.13s0-.87,0-1.11a3.22,3.22,0,0,0-.57-1.94,1.84,1.84,0,0,0-1.56-.7,1.82,1.82,0,0,0-1.56.7,3.29,3.29,0,0,0-.56,1.94v2.24a3.3,3.3,0,0,0,.56,1.95A1.84,1.84,0,0,0,774.12,299.8Z" fill="#fff"/><circle cx="706.31" cy="232.18" r="12.7" fill="#fff"/><circle cx="752.9" cy="232.18" r="12.7" fill="#fff"/><circle cx="799.48" cy="232.18" r="12.7" fill="#fff" fill-opacity="0.2"/><g opacity="0.5"><path d="M531.46,295.85a2.83,2.83,0,1,0-2.82-2.83A2.83,2.83,0,0,0,531.46,295.85Z" fill="none" stroke="#fff" stroke-linecap="round" stroke-linejoin="round"/><path d="M527.23,302.9v-1.41a2.83,2.83,0,0,1,2.82-2.82h2.83a2.83,2.83,0,0,1,2.82,2.82v1.41" fill="none" stroke="#fff" stroke-linecap="round" stroke-linejoin="round"/><path d="M536.41,290.29a2.88,2.88,0,0,1,1.53,1,2.83,2.83,0,0,1,.59,1.73,2.81,2.81,0,0,1-2.12,2.73" fill="none" stroke="#fff" stroke-linecap="round" stroke-linejoin="round"/><path d="M539.93,302.9v-1.41a2.84,2.84,0,0,0-.59-1.72,2.78,2.78,0,0,0-1.52-1" fill="none" stroke="#fff" stroke-linecap="round" stroke-linejoin="round"/></g><path d="M554.53,300.92a4.49,4.49,0,0,1-1.83-.34,3,3,0,0,1-1.18-.9,2.19,2.19,0,0,1-.42-1.16.23.23,0,0,1,.09-.19.28.28,0,0,1,.2-.08H552a.43.43,0,0,1,.24.07.34.34,0,0,1,.15.23,1.42,1.42,0,0,0,.76,1,3.21,3.21,0,0,0,1.4.28,2.36,2.36,0,0,0,1.54-.46,1.62,1.62,0,0,0,.58-1.34c0-1.1-.67-1.65-2-1.65h-1.27a.32.32,0,0,1-.23-.09.36.36,0,0,1-.08-.23v-.35a.49.49,0,0,1,.15-.35l2.64-2.93h-4a.31.31,0,0,1-.23-.08.26.26,0,0,1-.08-.22v-.48a.28.28,0,0,1,.08-.23.29.29,0,0,1,.23-.1h5.37a.32.32,0,0,1,.32.33v.44a.51.51,0,0,1-.13.32l-2.65,3H555a3.45,3.45,0,0,1,2.18.72,2.43,2.43,0,0,1,.81,2,2.61,2.61,0,0,1-.44,1.54,2.8,2.8,0,0,1-1.22,1A4.42,4.42,0,0,1,554.53,300.92Z" fill="#fff"/><g opacity="0.5"><path d="M590.05,295.85a5.71,5.71,0,0,0-10.94-1.41m-.36-2.83v2.83h2.83" fill="none" stroke="#fff" stroke-linecap="round" stroke-linejoin="round"/><path d="M578.75,297.26a5.75,5.75,0,0,0,1.64,3.27,5.71,5.71,0,0,0,9.3-1.86m.36,2.82v-2.82h-2.83" fill="none" stroke="#fff" stroke-linecap="round" stroke-linejoin="round"/></g><path d="M605.62,300.92a3.11,3.11,0,0,1-2.56-1,4.49,4.49,0,0,1-.85-2.69l0-1.16,0-1.21a4.24,4.24,0,0,1,.85-2.65,3.7,3.7,0,0,1,5.12,0,4.25,4.25,0,0,1,.87,2.65c0,.26,0,.66,0,1.21s0,.92,0,1.16a4.5,4.5,0,0,1-.87,2.69A3.07,3.07,0,0,1,605.62,300.92Zm0-1.12a1.84,1.84,0,0,0,1.57-.69,3.23,3.23,0,0,0,.56-1.95c0-.27,0-.64,0-1.13s0-.87,0-1.11a3.22,3.22,0,0,0-.57-1.94,2.09,2.09,0,0,0-3.12,0,3.22,3.22,0,0,0-.55,1.94l0,1.11,0,1.13a3.23,3.23,0,0,0,.55,1.95A1.84,1.84,0,0,0,605.62,299.8Z" fill="#fff"/><rect x="169.39" y="169.51" width="152.45" height="152.45" rx="12.7" fill="#4563ac"/><circle cx="199.03" cy="232.18" r="12.7" fill="#fff"/><circle cx="245.62" cy="232.18" r="12.7" fill="#fff"/><circle cx="292.2" cy="232.18" r="12.7" fill="#fff" fill-opacity="0.2"/><g opacity="0.5"><path d="M192.68,295.85a2.83,2.83,0,1,0-2.82-2.83A2.83,2.83,0,0,0,192.68,295.85Z" fill="none" stroke="#fff" stroke-linecap="round" stroke-linejoin="round"/><path d="M188.45,302.9v-1.41a2.8,2.8,0,0,1,.82-2,2.83,2.83,0,0,1,2-.83h2.82a2.83,2.83,0,0,1,2.83,2.82v1.41" fill="none" stroke="#fff" stroke-linecap="round" stroke-linejoin="round"/><path d="M197.62,290.29a2.81,2.81,0,0,1,1.53,1,2.78,2.78,0,0,1,.6,1.73,2.83,2.83,0,0,1-2.13,2.73" fill="none" stroke="#fff" stroke-linecap="round" stroke-linejoin="round"/><path d="M201.15,302.9v-1.41a2.84,2.84,0,0,0-.59-1.72,2.81,2.81,0,0,0-1.53-1" fill="none" stroke="#fff" stroke-linecap="round" stroke-linejoin="round"/></g><path d="M212.71,300.79a.28.28,0,0,1-.31-.31v-.41a.82.82,0,0,1,.34-.6l3-2.94a9.18,9.18,0,0,0,1.38-1.39,2,2,0,0,0,.38-1.16,1.67,1.67,0,0,0-.45-1.24,1.72,1.72,0,0,0-1.3-.46,1.78,1.78,0,0,0-1.29.47,2.18,2.18,0,0,0-.58,1.28.37.37,0,0,1-.14.23.37.37,0,0,1-.21.08h-.65a.32.32,0,0,1-.21-.08.29.29,0,0,1-.08-.19,3.33,3.33,0,0,1,.38-1.39,2.87,2.87,0,0,1,1.07-1.09,3.2,3.2,0,0,1,1.71-.44,3,3,0,0,1,2.28.8,2.77,2.77,0,0,1,.77,2,2.9,2.9,0,0,1-.42,1.54,6.26,6.26,0,0,1-1.29,1.44l-2.67,2.71h4.27a.28.28,0,0,1,.31.31v.52a.33.33,0,0,1-.09.23.33.33,0,0,1-.22.08Z" fill="#fff"/><g opacity="0.5"><path d="M251.26,295.85a5.63,5.63,0,0,0-1.64-3.28,5.71,5.71,0,0,0-3.29-1.61,5.72,5.72,0,0,0-6,3.48m-.35-2.83v2.83h2.82" fill="none" stroke="#fff" stroke-linecap="round" stroke-linejoin="round"/><path d="M240,297.26a5.72,5.72,0,0,0,10.94,1.41m.35,2.82v-2.82h-2.82" fill="none" stroke="#fff" stroke-linecap="round" stroke-linejoin="round"/></g><path d="M266.3,300.79a.31.31,0,0,1-.22-.08.38.38,0,0,1-.08-.23v-7.65l-2.28,1.75a.32.32,0,0,1-.2.08.29.29,0,0,1-.23-.13l-.33-.42a.38.38,0,0,1-.06-.19.3.3,0,0,1,.13-.25L266,291.4a.6.6,0,0,1,.35-.1H267a.27.27,0,0,1,.22.1.26.26,0,0,1,.09.21v8.87a.33.33,0,0,1-.09.23.33.33,0,0,1-.22.08Z" fill="#fff"/><rect x="508.35" width="152.45" height="152.45" rx="12.7" fill="#4563ac"/><circle cx="537.99" cy="62.67" r="12.7" fill="#fff"/><circle cx="584.58" cy="62.67" r="12.7" fill="#fff" fill-opacity="0.2"/><circle cx="631.16" cy="62.67" r="12.7" fill="#fff" fill-opacity="0.2"/><rect width="152.45" height="152.45" rx="12.7" fill="#4563ac"/><path d="M18.43,29.64a.29.29,0,0,1-.22-.08.36.36,0,0,1-.08-.23V20.47a.33.33,0,0,1,.08-.22.29.29,0,0,1,.22-.09h.68a.26.26,0,0,1,.21.09.29.29,0,0,1,.09.22v8h4.52a.29.29,0,0,1,.23.09.26.26,0,0,1,.1.22v.51a.29.29,0,0,1-.1.23.31.31,0,0,1-.23.08Zm8.36,0a.5.5,0,0,1-.5-.34L23.76,23s0-.08,0-.14a.28.28,0,0,1,.08-.2A.25.25,0,0,1,24,22.6h.63a.34.34,0,0,1,.32.21l2.09,5.41,2.08-5.41a.48.48,0,0,1,.11-.15.43.43,0,0,1,.22-.06h.62a.22.22,0,0,1,.19.08.24.24,0,0,1,.08.2l0,.14L27.83,29.3a.51.51,0,0,1-.5.34Zm5.35,0a.31.31,0,0,1-.23-.08.32.32,0,0,1-.09-.23v-9a.3.3,0,0,1,.09-.23.36.36,0,0,1,.23-.08h.59a.33.33,0,0,1,.31.31v9a.32.32,0,0,1-.09.23.27.27,0,0,1-.22.08Zm9,0a.29.29,0,0,1-.22-.08.36.36,0,0,1-.08-.23V21.69l-2.28,1.75a.32.32,0,0,1-.2.08.31.31,0,0,1-.23-.14L37.8,23a.33.33,0,0,1-.06-.19.27.27,0,0,1,.13-.24l2.94-2.28a.69.69,0,0,1,.36-.09h.63a.28.28,0,0,1,.22.09.29.29,0,0,1,.09.22v8.86a.32.32,0,0,1-.09.23.27.27,0,0,1-.22.08Z" fill="#fff" opacity="0.5" style="isolation:isolate"/><g opacity="0.5"><path d="M23.29,126.34a2.83,2.83,0,1,0-2.82-2.83A2.83,2.83,0,0,0,23.29,126.34Z" fill="none" stroke="#fff" stroke-linecap="round" stroke-linejoin="round"/><path d="M19.06,133.4V132a2.8,2.8,0,0,1,.82-2,2.83,2.83,0,0,1,2-.83H24.7A2.83,2.83,0,0,1,27.53,132v1.42" fill="none" stroke="#fff" stroke-linecap="round" stroke-linejoin="round"/><path d="M28.23,120.78a2.81,2.81,0,0,1,1.53,1,2.82,2.82,0,0,1-1.53,4.46" fill="none" stroke="#fff" stroke-linecap="round" stroke-linejoin="round"/><path d="M31.76,133.4V132a2.84,2.84,0,0,0-2.12-2.71" fill="none" stroke="#fff" stroke-linecap="round" stroke-linejoin="round"/></g><path d="M46.09,131.28a.33.33,0,0,1-.22-.08.38.38,0,0,1-.08-.23v-7.65l-2.28,1.75a.27.27,0,0,1-.2.08.29.29,0,0,1-.23-.13l-.33-.42a.38.38,0,0,1-.06-.19.3.3,0,0,1,.13-.25l2.94-2.27a.61.61,0,0,1,.36-.1h.63a.27.27,0,0,1,.22.1.26.26,0,0,1,.09.21V131a.33.33,0,0,1-.09.23.33.33,0,0,1-.22.08Zm5.75,0a.29.29,0,0,1-.21-.08.32.32,0,0,1-.08-.23v-7.65l-2.28,1.75a.27.27,0,0,1-.2.08.29.29,0,0,1-.23-.13l-.33-.42a.4.4,0,0,1-.07-.19.31.31,0,0,1,.14-.25l2.94-2.27a.6.6,0,0,1,.35-.1h.64a.27.27,0,0,1,.22.1.26.26,0,0,1,.09.21V131a.33.33,0,0,1-.09.23.33.33,0,0,1-.22.08Z" fill="#fff"/><g opacity="0.5"><path d="M85.26,126.34a5.72,5.72,0,0,0-1.64-3.28,5.71,5.71,0,0,0-6.88-.89,5.71,5.71,0,0,0-2.42,2.76M74,122.1v2.83h2.82" fill="none" stroke="#fff" stroke-linecap="round" stroke-linejoin="round"/><path d="M74,127.75a5.72,5.72,0,0,0,10.94,1.41m.35,2.82v-2.82H82.44" fill="none" stroke="#fff" stroke-linecap="round" stroke-linejoin="round"/></g><path d="M100.71,131.41a3.87,3.87,0,0,1-1.88-.43,3.22,3.22,0,0,1-1.21-1.19,3.36,3.36,0,0,1-.4-1.63,4.39,4.39,0,0,1,.93-2.49l2.59-3.61.07-.09a.31.31,0,0,1,.16-.12.4.4,0,0,1,.22-.06h.66a.21.21,0,0,1,.19.1.24.24,0,0,1,.08.2.34.34,0,0,1-.07.18l-2,2.76a3.67,3.67,0,0,1,.78-.08,3.32,3.32,0,0,1,1.74.45,3,3,0,0,1,1.16,1.16,3.1,3.1,0,0,1,.42,1.59,3.26,3.26,0,0,1-.42,1.62,3,3,0,0,1-1.19,1.2A3.76,3.76,0,0,1,100.71,131.41Zm0-1.12a2.53,2.53,0,0,0,1.1-.24,2.06,2.06,0,0,0,.8-.72,2.21,2.21,0,0,0,.29-1.17,2,2,0,0,0-.31-1.14,1.88,1.88,0,0,0-.8-.73,2.37,2.37,0,0,0-2.16,0,1.88,1.88,0,0,0-.8.73,2.11,2.11,0,0,0-.3,1.14,2.21,2.21,0,0,0,.3,1.17,2,2,0,0,0,.8.72A2.44,2.44,0,0,0,100.7,130.29Z" fill="#fff"/><circle cx="29.64" cy="62.67" r="12.7" fill="#fff"/><circle cx="76.23" cy="62.67" r="12.7" fill="#fff" fill-opacity="0.2"/><circle cx="122.81" cy="62.67" r="12.7" fill="#fff" fill-opacity="0.2"/><rect x="338.78" width="152.45" height="152.45" rx="12.7" fill="#4563ac"/><path d="M357.21,29.64a.25.25,0,0,1-.21-.08.32.32,0,0,1-.09-.23V20.47a.29.29,0,0,1,.09-.22.26.26,0,0,1,.21-.09h.68a.29.29,0,0,1,.22.09.33.33,0,0,1,.08.22v8h4.52a.29.29,0,0,1,.23.09.26.26,0,0,1,.1.22v.51a.29.29,0,0,1-.1.23.31.31,0,0,1-.23.08Zm8.36,0a.5.5,0,0,1-.5-.34L362.55,23a.46.46,0,0,1,0-.14.28.28,0,0,1,.08-.2.25.25,0,0,1,.19-.08h.63a.34.34,0,0,1,.32.21l2.09,5.41,2.09-5.41a.36.36,0,0,1,.11-.15.37.37,0,0,1,.21-.06h.63a.25.25,0,0,1,.19.08.28.28,0,0,1,.08.2l0,.14-2.51,6.28a.5.5,0,0,1-.5.34Zm5.35,0a.28.28,0,0,1-.31-.31v-9a.3.3,0,0,1,.08-.23.36.36,0,0,1,.23-.08h.59a.25.25,0,0,1,.22.1.24.24,0,0,1,.1.21v9a.29.29,0,0,1-.1.23.26.26,0,0,1-.22.08Zm9.27.14a4.49,4.49,0,0,1-1.83-.34,2.92,2.92,0,0,1-1.18-.91,2.16,2.16,0,0,1-.42-1.15.26.26,0,0,1,.08-.19.32.32,0,0,1,.21-.08h.61a.36.36,0,0,1,.24.07.31.31,0,0,1,.15.23,1.41,1.41,0,0,0,.76,1,3.21,3.21,0,0,0,1.4.29,2.41,2.41,0,0,0,1.54-.46,1.64,1.64,0,0,0,.58-1.34c0-1.11-.67-1.66-2-1.66H379a.31.31,0,0,1-.23-.08.36.36,0,0,1-.08-.23v-.35a.47.47,0,0,1,.15-.35l2.64-2.93h-4a.36.36,0,0,1-.23-.08.29.29,0,0,1-.08-.22v-.49a.3.3,0,0,1,.08-.23.32.32,0,0,1,.23-.09h5.36a.32.32,0,0,1,.24.09.3.3,0,0,1,.09.23v.45a.45.45,0,0,1-.14.31l-2.64,3h.22a3.45,3.45,0,0,1,2.18.72,2.43,2.43,0,0,1,.81,2,2.71,2.71,0,0,1-.44,1.54,2.8,2.8,0,0,1-1.22,1A4.42,4.42,0,0,1,380.19,29.78Z" fill="#fff" opacity="0.5" style="isolation:isolate"/><g opacity="0.5"><path d="M362.07,126.34a2.83,2.83,0,1,0-2.82-2.83A2.83,2.83,0,0,0,362.07,126.34Z" fill="none" stroke="#fff" stroke-linecap="round" stroke-linejoin="round"/><path d="M357.84,133.4V132a2.83,2.83,0,0,1,2.82-2.82h2.83a2.83,2.83,0,0,1,2.82,2.82v1.42" fill="none" stroke="#fff" stroke-linecap="round" stroke-linejoin="round"/><path d="M367,120.78a2.81,2.81,0,0,1,1.53,1,2.82,2.82,0,0,1-1.53,4.46" fill="none" stroke="#fff" stroke-linecap="round" stroke-linejoin="round"/><path d="M370.54,133.4V132a2.81,2.81,0,0,0-2.11-2.71" fill="none" stroke="#fff" stroke-linecap="round" stroke-linejoin="round"/></g><path d="M385.14,131.41a4.49,4.49,0,0,1-1.83-.34,2.9,2.9,0,0,1-1.18-.9,2.19,2.19,0,0,1-.42-1.15.23.23,0,0,1,.08-.19.29.29,0,0,1,.21-.09h.61a.43.43,0,0,1,.24.07.42.42,0,0,1,.15.23,1.42,1.42,0,0,0,.76,1,3.19,3.19,0,0,0,1.39.28,2.37,2.37,0,0,0,1.55-.46,1.61,1.61,0,0,0,.58-1.34c0-1.1-.67-1.65-2-1.65H384a.36.36,0,0,1-.23-.08.32.32,0,0,1-.08-.23v-.36a.49.49,0,0,1,.15-.35l2.64-2.93h-4a.31.31,0,0,1-.23-.08.25.25,0,0,1-.08-.21v-.49a.28.28,0,0,1,.08-.23.29.29,0,0,1,.23-.1h5.36a.34.34,0,0,1,.33.33v.44a.53.53,0,0,1-.14.32l-2.64,3h.22a3.45,3.45,0,0,1,2.18.72,2.43,2.43,0,0,1,.81,2,2.74,2.74,0,0,1-.44,1.55,2.85,2.85,0,0,1-1.22,1A4.42,4.42,0,0,1,385.14,131.41Z" fill="#fff"/><g opacity="0.5"><path d="M420.66,126.34a5.72,5.72,0,0,0-11-1.41m-.35-2.83v2.83h2.83" fill="none" stroke="#fff" stroke-linecap="round" stroke-linejoin="round"/><path d="M409.36,127.75a5.72,5.72,0,0,0,10.94,1.41m.36,2.82v-2.82h-2.83" fill="none" stroke="#fff" stroke-linecap="round" stroke-linejoin="round"/></g><path d="M436.23,131.41a3.09,3.09,0,0,1-2.56-1,4.56,4.56,0,0,1-.86-2.69v-2.37a4.31,4.31,0,0,1,.86-2.65,3.7,3.7,0,0,1,5.12,0,4.25,4.25,0,0,1,.87,2.65c0,.26,0,.66,0,1.21s0,.92,0,1.16a4.5,4.5,0,0,1-.87,2.69A3.08,3.08,0,0,1,436.23,131.41Zm0-1.12a1.84,1.84,0,0,0,1.57-.69,3.3,3.3,0,0,0,.56-1.95c0-.27,0-.64,0-1.13s0-.87,0-1.11a3.22,3.22,0,0,0-.57-1.94,2.09,2.09,0,0,0-3.12,0,3.22,3.22,0,0,0-.55,1.94l0,1.11,0,1.13a3.23,3.23,0,0,0,.55,1.95A1.84,1.84,0,0,0,436.23,130.29Z" fill="#fff"/><circle cx="368.43" cy="62.67" r="12.7" fill="#fff"/><circle cx="415.01" cy="62.67" r="12.7" fill="#fae054"/><circle cx="461.59" cy="62.67" r="12.7" fill="#fff" fill-opacity="0.2"/><rect x="676.67" width="152.45" height="152.45" rx="12.7" fill="#4563ac"/><path d="M695.1,29.64a.29.29,0,0,1-.22-.08.36.36,0,0,1-.08-.23V20.47a.33.33,0,0,1,.08-.22.29.29,0,0,1,.22-.09h.68a.26.26,0,0,1,.21.09.29.29,0,0,1,.09.22v8h4.52a.29.29,0,0,1,.23.09.26.26,0,0,1,.1.22v.51a.29.29,0,0,1-.1.23.31.31,0,0,1-.23.08Zm8.36,0a.5.5,0,0,1-.5-.34L700.44,23a.46.46,0,0,1,0-.14.28.28,0,0,1,.08-.2.25.25,0,0,1,.19-.08h.63a.34.34,0,0,1,.32.21l2.09,5.41,2.09-5.41a.33.33,0,0,1,.1-.15.43.43,0,0,1,.22-.06h.62a.22.22,0,0,1,.19.08.24.24,0,0,1,.08.2l0,.14L704.5,29.3a.51.51,0,0,1-.5.34Zm5.35,0a.31.31,0,0,1-.23-.08.32.32,0,0,1-.09-.23v-9a.3.3,0,0,1,.09-.23.36.36,0,0,1,.23-.08h.59a.33.33,0,0,1,.31.31v9a.32.32,0,0,1-.09.23.27.27,0,0,1-.22.08Z" fill="#fff" opacity="0.5" style="isolation:isolate"/><g opacity="0.5"><path d="M700,126.34a2.83,2.83,0,1,0-2.82-2.83A2.83,2.83,0,0,0,700,126.34Z" fill="none" stroke="#fff" stroke-linecap="round" stroke-linejoin="round"/><path d="M695.73,133.4V132a2.8,2.8,0,0,1,.82-2,2.83,2.83,0,0,1,2-.83h2.82A2.83,2.83,0,0,1,704.2,132v1.42" fill="none" stroke="#fff" stroke-linecap="round" stroke-linejoin="round"/><path d="M704.9,120.78a2.81,2.81,0,0,1,1.53,1,2.82,2.82,0,0,1-1.53,4.46" fill="none" stroke="#fff" stroke-linecap="round" stroke-linejoin="round"/><path d="M708.43,133.4V132a2.84,2.84,0,0,0-2.12-2.71" fill="none" stroke="#fff" stroke-linecap="round" stroke-linejoin="round"/></g><path d="M723,131.41a4.43,4.43,0,0,1-1.83-.34,2.83,2.83,0,0,1-1.18-.9,2.19,2.19,0,0,1-.42-1.15.23.23,0,0,1,.08-.19.27.27,0,0,1,.21-.09h.61a.45.45,0,0,1,.24.07.42.42,0,0,1,.15.23,1.42,1.42,0,0,0,.76,1,3.16,3.16,0,0,0,1.39.28,2.39,2.39,0,0,0,1.55-.46,1.61,1.61,0,0,0,.58-1.34c0-1.1-.67-1.65-2-1.65h-1.27a.36.36,0,0,1-.23-.08.32.32,0,0,1-.08-.23v-.36a.52.52,0,0,1,.14-.35l2.65-2.93h-4a.31.31,0,0,1-.23-.08.26.26,0,0,1-.09-.21v-.49a.32.32,0,0,1,.32-.33h5.36a.34.34,0,0,1,.33.33v.44a.53.53,0,0,1-.14.32l-2.64,3h.22a3.45,3.45,0,0,1,2.18.72,2.43,2.43,0,0,1,.81,2,2.67,2.67,0,0,1-.45,1.55,2.73,2.73,0,0,1-1.22,1A4.33,4.33,0,0,1,723,131.41Z" fill="#fff"/><g opacity="0.5"><path d="M758.54,126.34a5.71,5.71,0,0,0-10.94-1.41m-.35-2.83v2.83h2.82" fill="none" stroke="#fff" stroke-linecap="round" stroke-linejoin="round"/><path d="M747.25,127.75a5.72,5.72,0,0,0,10.94,1.41m.35,2.82v-2.82h-2.82" fill="none" stroke="#fff" stroke-linecap="round" stroke-linejoin="round"/></g><path d="M774.12,131.41a3.09,3.09,0,0,1-2.56-1,4.5,4.5,0,0,1-.86-2.69v-2.37a4.25,4.25,0,0,1,.86-2.65,3.7,3.7,0,0,1,5.12,0,4.25,4.25,0,0,1,.87,2.65c0,.26,0,.66,0,1.21s0,.92,0,1.16a4.5,4.5,0,0,1-.87,2.69A3.08,3.08,0,0,1,774.12,131.41Zm0-1.12a1.86,1.86,0,0,0,1.57-.69,3.3,3.3,0,0,0,.56-1.95c0-.27,0-.64,0-1.13s0-.87,0-1.11a3.22,3.22,0,0,0-.57-1.94,1.84,1.84,0,0,0-1.56-.7,1.82,1.82,0,0,0-1.56.7,3.29,3.29,0,0,0-.56,1.94v2.24a3.3,3.3,0,0,0,.56,1.95A1.84,1.84,0,0,0,774.12,130.29Z" fill="#fff"/><circle cx="706.31" cy="62.67" r="12.7" fill="#fff"/><circle cx="752.9" cy="62.67" r="12.7" fill="#fae054"/><circle cx="799.48" cy="62.67" r="12.7" fill="#fff" fill-opacity="0.2"/><g opacity="0.5"><path d="M531.46,126.34a2.83,2.83,0,1,0-2.82-2.83A2.83,2.83,0,0,0,531.46,126.34Z" fill="none" stroke="#fff" stroke-linecap="round" stroke-linejoin="round"/><path d="M527.23,133.4V132a2.83,2.83,0,0,1,2.82-2.82h2.83A2.83,2.83,0,0,1,535.7,132v1.42" fill="none" stroke="#fff" stroke-linecap="round" stroke-linejoin="round"/><path d="M536.41,120.78a2.88,2.88,0,0,1,1.53,1,2.83,2.83,0,0,1,0,3.46,2.86,2.86,0,0,1-1.53,1" fill="none" stroke="#fff" stroke-linecap="round" stroke-linejoin="round"/><path d="M539.93,133.4V132a2.79,2.79,0,0,0-.59-1.71,2.75,2.75,0,0,0-1.52-1" fill="none" stroke="#fff" stroke-linecap="round" stroke-linejoin="round"/></g><path d="M554.53,131.41a4.49,4.49,0,0,1-1.83-.34,3,3,0,0,1-1.18-.9,2.19,2.19,0,0,1-.42-1.15.21.21,0,0,1,.09-.19.25.25,0,0,1,.2-.09H552a.43.43,0,0,1,.24.07.34.34,0,0,1,.15.23,1.42,1.42,0,0,0,.76,1,3.21,3.21,0,0,0,1.4.28,2.36,2.36,0,0,0,1.54-.46,1.61,1.61,0,0,0,.58-1.34c0-1.1-.67-1.65-2-1.65h-1.27a.36.36,0,0,1-.23-.08.38.38,0,0,1-.08-.23v-.36a.49.49,0,0,1,.15-.35l2.64-2.93h-4a.31.31,0,0,1-.23-.08.25.25,0,0,1-.08-.21v-.49a.28.28,0,0,1,.08-.23.29.29,0,0,1,.23-.1h5.37a.32.32,0,0,1,.32.33v.44a.51.51,0,0,1-.13.32l-2.65,3H555a3.45,3.45,0,0,1,2.18.72,2.43,2.43,0,0,1,.81,2,2.66,2.66,0,0,1-.44,1.55,2.85,2.85,0,0,1-1.22,1A4.42,4.42,0,0,1,554.53,131.41Z" fill="#fff"/><g opacity="0.5"><path d="M590.05,126.34a5.71,5.71,0,0,0-10.94-1.41m-.36-2.83v2.83h2.83" fill="none" stroke="#fff" stroke-linecap="round" stroke-linejoin="round"/><path d="M578.75,127.75a5.75,5.75,0,0,0,1.64,3.27,5.71,5.71,0,0,0,9.3-1.86m.36,2.82v-2.82h-2.83" fill="none" stroke="#fff" stroke-linecap="round" stroke-linejoin="round"/></g><path d="M605.62,131.41a3.11,3.11,0,0,1-2.56-1,4.49,4.49,0,0,1-.85-2.69l0-1.16,0-1.21a4.24,4.24,0,0,1,.85-2.65,3.7,3.7,0,0,1,5.12,0,4.25,4.25,0,0,1,.87,2.65c0,.26,0,.66,0,1.21s0,.92,0,1.16a4.5,4.5,0,0,1-.87,2.69A3.07,3.07,0,0,1,605.62,131.41Zm0-1.12a1.84,1.84,0,0,0,1.57-.69,3.23,3.23,0,0,0,.56-1.95c0-.27,0-.64,0-1.13s0-.87,0-1.11a3.22,3.22,0,0,0-.57-1.94,2.09,2.09,0,0,0-3.12,0,3.22,3.22,0,0,0-.55,1.94l0,1.11,0,1.13a3.23,3.23,0,0,0,.55,1.95A1.84,1.84,0,0,0,605.62,130.29Z" fill="#fff"/><path d="M526.6,29.64a.32.32,0,0,1-.23-.08.36.36,0,0,1-.08-.23V20.47a.33.33,0,0,1,.08-.22.33.33,0,0,1,.23-.09h.72a.31.31,0,0,1,.31.31v8h4.5a.29.29,0,0,1,.23.1.26.26,0,0,1,.1.23v.54a.29.29,0,0,1-.1.23.31.31,0,0,1-.23.08Zm8.39,0a.5.5,0,0,1-.5-.34L532,23l0-.14a.28.28,0,0,1,.08-.2.26.26,0,0,1,.21-.08h.65a.34.34,0,0,1,.33.23l2.06,5.34,2.06-5.34a.36.36,0,0,1,.33-.23h.66a.22.22,0,0,1,.19.08.23.23,0,0,1,.1.2l0,.14-2.52,6.28a.51.51,0,0,1-.5.34Zm5.37,0a.32.32,0,0,1-.23-.08.36.36,0,0,1-.08-.23v-9a.29.29,0,0,1,.08-.21.3.3,0,0,1,.23-.1H541a.27.27,0,0,1,.22.1.26.26,0,0,1,.09.21v9a.32.32,0,0,1-.09.23.29.29,0,0,1-.22.08Zm10.73,0a.3.3,0,0,1-.23-.08.32.32,0,0,1-.09-.23V27.38h-4.39a.38.38,0,0,1-.23-.08.36.36,0,0,1-.08-.23v-.54a.69.69,0,0,1,.15-.41l4.07-5.73a.36.36,0,0,1,.2-.16.6.6,0,0,1,.3-.07h1a.28.28,0,0,1,.22.09.29.29,0,0,1,.09.22V26.2h1.22a.29.29,0,0,1,.23.1.24.24,0,0,1,.1.21v.56a.29.29,0,0,1-.1.23.29.29,0,0,1-.21.08h-1.24v1.95a.32.32,0,0,1-.09.23.27.27,0,0,1-.22.08Zm-.3-3.41V21.58l-3.27,4.65Z" fill="#fff" opacity="0.5" style="isolation:isolate"/><path d="M18.43,199a.29.29,0,0,1-.22-.08.36.36,0,0,1-.08-.23v-8.86a.33.33,0,0,1,.08-.22.29.29,0,0,1,.22-.09h.68a.26.26,0,0,1,.21.09.29.29,0,0,1,.09.22v8h4.52a.29.29,0,0,1,.23.09.27.27,0,0,1,.1.22v.51a.29.29,0,0,1-.1.23.31.31,0,0,1-.23.08Zm8.36,0a.5.5,0,0,1-.5-.33l-2.53-6.29s0-.07,0-.14a.28.28,0,0,1,.08-.2A.29.29,0,0,1,24,192h.63a.34.34,0,0,1,.32.21l2.09,5.41,2.08-5.41a.35.35,0,0,1,.33-.21h.62a.26.26,0,0,1,.19.08.24.24,0,0,1,.08.2l0,.14-2.51,6.29a.52.52,0,0,1-.5.33Zm5.35,0a.31.31,0,0,1-.23-.08.32.32,0,0,1-.09-.23v-9a.32.32,0,0,1,.09-.23.36.36,0,0,1,.23-.08h.59a.33.33,0,0,1,.31.31v9A.32.32,0,0,1,33,199a.27.27,0,0,1-.22.08Zm9.42.14a3.87,3.87,0,0,1-1.88-.43,3.1,3.1,0,0,1-1.21-1.2,3.33,3.33,0,0,1-.41-1.62,4.38,4.38,0,0,1,.94-2.5l2.59-3.6.06-.1a.52.52,0,0,1,.17-.12.46.46,0,0,1,.21,0h.67a.23.23,0,0,1,.19.09.32.32,0,0,1,.08.21.32.32,0,0,1-.07.17l-2,2.77a3.25,3.25,0,0,1,.79-.08,3.34,3.34,0,0,1,1.73.44,3,3,0,0,1,1.17,1.17A3.09,3.09,0,0,1,45,195.9a3.33,3.33,0,0,1-.42,1.63,3,3,0,0,1-1.19,1.19A3.71,3.71,0,0,1,41.56,199.17Zm0-1.12a2.49,2.49,0,0,0,1.09-.25,1.86,1.86,0,0,0,.8-.72,2.15,2.15,0,0,0,.3-1.16,2,2,0,0,0-.31-1.14,1.87,1.87,0,0,0-.8-.73,2.39,2.39,0,0,0-2.17,0,1.87,1.87,0,0,0-.8.73,2.08,2.08,0,0,0-.3,1.14,2.15,2.15,0,0,0,.3,1.16,1.91,1.91,0,0,0,.8.72A2.53,2.53,0,0,0,41.55,198.05Z" fill="#fff" opacity="0.5" style="isolation:isolate"/><path d="M18.43,368.43a.29.29,0,0,1-.22-.09.36.36,0,0,1-.08-.23v-8.86a.33.33,0,0,1,.08-.22.29.29,0,0,1,.22-.09h.68a.26.26,0,0,1,.21.09.29.29,0,0,1,.09.22v8h4.52a.29.29,0,0,1,.23.09.27.27,0,0,1,.1.22v.51a.29.29,0,0,1-.1.23.32.32,0,0,1-.23.09Zm8.36,0a.51.51,0,0,1-.5-.34l-2.53-6.29s0-.07,0-.14a.28.28,0,0,1,.08-.2.29.29,0,0,1,.19-.08h.63a.34.34,0,0,1,.32.22l2.09,5.4,2.08-5.4a.33.33,0,0,1,.11-.15.36.36,0,0,1,.22-.07h.62a.26.26,0,0,1,.19.08.24.24,0,0,1,.08.2l0,.14-2.51,6.29a.53.53,0,0,1-.5.34Zm5.35,0a.31.31,0,0,1-.32-.32v-9a.29.29,0,0,1,.09-.23.32.32,0,0,1,.23-.09h.59a.29.29,0,0,1,.22.1.28.28,0,0,1,.09.22v9a.32.32,0,0,1-.09.23.28.28,0,0,1-.22.09Zm9,0a.29.29,0,0,1-.22-.09.36.36,0,0,1-.08-.23v-7.64l-2.28,1.75a.32.32,0,0,1-.2.08.29.29,0,0,1-.23-.13l-.33-.42a.38.38,0,0,1-.06-.19.29.29,0,0,1,.13-.25L40.81,359a.69.69,0,0,1,.36-.09h.63A.28.28,0,0,1,42,359a.29.29,0,0,1,.09.22v8.86a.32.32,0,0,1-.09.23.28.28,0,0,1-.22.09Zm5.76,0a.27.27,0,0,1-.22-.09.31.31,0,0,1-.08-.23v-7.64l-2.28,1.75a.32.32,0,0,1-.2.08.29.29,0,0,1-.23-.13l-.33-.42a.4.4,0,0,1-.07-.19.3.3,0,0,1,.14-.25L46.57,359a.68.68,0,0,1,.35-.09h.64a.31.31,0,0,1,.31.31v8.86a.32.32,0,0,1-.09.23.29.29,0,0,1-.22.09Z" fill="#fff" opacity="0.5" style="isolation:isolate"/><path d="M187.82,199a.29.29,0,0,1-.22-.08.36.36,0,0,1-.08-.23v-8.86a.33.33,0,0,1,.08-.22.29.29,0,0,1,.22-.09h.68a.29.29,0,0,1,.22.09.33.33,0,0,1,.08.22v8h4.52a.29.29,0,0,1,.23.09.27.27,0,0,1,.1.22v.51a.29.29,0,0,1-.1.23.31.31,0,0,1-.23.08Zm8.36,0a.51.51,0,0,1-.5-.33l-2.52-6.29a.41.41,0,0,1,0-.14.28.28,0,0,1,.08-.2.29.29,0,0,1,.19-.08H194a.34.34,0,0,1,.32.21l2.09,5.41,2.09-5.41a.26.26,0,0,1,.1-.14.36.36,0,0,1,.22-.07h.62a.26.26,0,0,1,.19.08.25.25,0,0,1,.09.2l0,.14-2.51,6.29a.51.51,0,0,1-.5.33Zm5.35,0a.28.28,0,0,1-.31-.31v-9a.31.31,0,0,1,.08-.23.36.36,0,0,1,.23-.08h.59a.26.26,0,0,1,.22.1.27.27,0,0,1,.1.21v9a.33.33,0,0,1-.1.23.27.27,0,0,1-.22.08Zm7.29,0a.24.24,0,0,1-.2-.08.31.31,0,0,1-.07-.21l0-.13,3.39-7.92h-4.48a.28.28,0,0,1-.31-.31v-.51a.34.34,0,0,1,.08-.23.3.3,0,0,1,.23-.09H213a.29.29,0,0,1,.23.09.3.3,0,0,1,.08.23v.46a1.5,1.5,0,0,1-.1.53l-3.35,7.84a1.67,1.67,0,0,1-.15.24.29.29,0,0,1-.23.09Z" fill="#fff" opacity="0.5" style="isolation:isolate"/><path d="M187.82,368.43a.29.29,0,0,1-.22-.09.36.36,0,0,1-.08-.23v-8.86a.33.33,0,0,1,.08-.22.29.29,0,0,1,.22-.09h.68a.29.29,0,0,1,.22.09.33.33,0,0,1,.08.22v8h4.52a.29.29,0,0,1,.23.09.27.27,0,0,1,.1.22v.51a.29.29,0,0,1-.1.23.32.32,0,0,1-.23.09Zm8.36,0a.52.52,0,0,1-.5-.34l-2.52-6.29a.41.41,0,0,1,0-.14.28.28,0,0,1,.08-.2.29.29,0,0,1,.19-.08H194a.34.34,0,0,1,.32.22l2.09,5.4,2.09-5.4a.25.25,0,0,1,.1-.15.36.36,0,0,1,.22-.07h.62a.26.26,0,0,1,.19.08.25.25,0,0,1,.09.2l0,.14-2.51,6.29a.52.52,0,0,1-.5.34Zm5.35,0a.32.32,0,0,1-.23-.09.31.31,0,0,1-.08-.23v-9a.28.28,0,0,1,.08-.23.32.32,0,0,1,.23-.09h.59a.34.34,0,0,1,.32.32v9a.33.33,0,0,1-.1.23.28.28,0,0,1-.22.09Zm9,0a.29.29,0,0,1-.22-.09.36.36,0,0,1-.08-.23v-7.64L208,362.22a.32.32,0,0,1-.2.08.29.29,0,0,1-.23-.13l-.32-.42a.32.32,0,0,1-.07-.19.29.29,0,0,1,.13-.25L210.2,359a.69.69,0,0,1,.36-.09h.63a.28.28,0,0,1,.22.09.3.3,0,0,1,.1.22v8.86a.33.33,0,0,1-.1.23.28.28,0,0,1-.22.09Zm3,0a.32.32,0,0,1-.23-.09.36.36,0,0,1-.08-.23v-.4a.79.79,0,0,1,.34-.6l2.95-2.94a8.44,8.44,0,0,0,1.39-1.4,2,2,0,0,0,.37-1.15,1.65,1.65,0,0,0-.44-1.24,2,2,0,0,0-2.59,0,2.12,2.12,0,0,0-.58,1.27.36.36,0,0,1-.14.23.33.33,0,0,1-.22.09h-.65a.25.25,0,0,1-.2-.09.26.26,0,0,1-.08-.19,3.18,3.18,0,0,1,.38-1.38,2.82,2.82,0,0,1,1.07-1.1,3.29,3.29,0,0,1,1.71-.43,3,3,0,0,1,2.27.8,2.72,2.72,0,0,1,.78,2,2.9,2.9,0,0,1-.42,1.54,6.5,6.5,0,0,1-1.29,1.44l-2.67,2.71h4.27a.3.3,0,0,1,.23.08.32.32,0,0,1,.08.23v.51a.29.29,0,0,1-.1.23.26.26,0,0,1-.21.09Z" fill="#fff" opacity="0.5" style="isolation:isolate"/><path d="M357.21,199A.25.25,0,0,1,357,199a.32.32,0,0,1-.09-.23v-8.86a.29.29,0,0,1,.09-.22.26.26,0,0,1,.21-.09h.68a.29.29,0,0,1,.22.09.33.33,0,0,1,.08.22v8h4.52a.29.29,0,0,1,.23.09.27.27,0,0,1,.1.22v.51a.29.29,0,0,1-.1.23.31.31,0,0,1-.23.08Zm8.36,0a.51.51,0,0,1-.5-.33l-2.52-6.29a.41.41,0,0,1,0-.14.28.28,0,0,1,.08-.2.29.29,0,0,1,.19-.08h.63a.34.34,0,0,1,.32.21l2.09,5.41,2.09-5.41a.29.29,0,0,1,.11-.14.31.31,0,0,1,.21-.07h.63a.29.29,0,0,1,.19.08.28.28,0,0,1,.08.2l0,.14-2.51,6.29a.51.51,0,0,1-.5.33Zm5.35,0a.28.28,0,0,1-.31-.31v-9a.31.31,0,0,1,.08-.23.36.36,0,0,1,.23-.08h.59a.25.25,0,0,1,.22.1.24.24,0,0,1,.1.21v9a.29.29,0,0,1-.1.23.26.26,0,0,1-.22.08Zm9.56.14a4.73,4.73,0,0,1-1.85-.34,2.82,2.82,0,0,1-1.24-1,2.62,2.62,0,0,1-.45-1.52,2.46,2.46,0,0,1,.39-1.39,2.69,2.69,0,0,1,1.09-.94,2.33,2.33,0,0,1-.84-.81,2.39,2.39,0,0,1-.3-1.21,2.22,2.22,0,0,1,.88-1.86,4.24,4.24,0,0,1,4.62,0,2.22,2.22,0,0,1,.88,1.87,2.31,2.31,0,0,1-.3,1.19,2.41,2.41,0,0,1-.82.83,2.63,2.63,0,0,1,1.07.94,2.4,2.4,0,0,1,.4,1.4,2.66,2.66,0,0,1-.44,1.52,2.86,2.86,0,0,1-1.26,1A4.63,4.63,0,0,1,380.48,199.17Zm0-5.66a2.5,2.5,0,0,0,1.39-.44,1.26,1.26,0,0,0,.57-1.08,1.28,1.28,0,0,0-.57-1.1,2.23,2.23,0,0,0-1.39-.42,2.27,2.27,0,0,0-1.41.42,1.3,1.3,0,0,0-.56,1.1,1.33,1.33,0,0,0,.56,1.11A2.33,2.33,0,0,0,380.48,193.51Zm0,4.6a2.6,2.6,0,0,0,1.6-.48,1.64,1.64,0,0,0,0-2.61,2.6,2.6,0,0,0-1.6-.48,2.67,2.67,0,0,0-1.63.48,1.65,1.65,0,0,0,0,2.61A2.67,2.67,0,0,0,380.48,198.11Z" fill="#fff" opacity="0.5" style="isolation:isolate"/><path d="M526.6,199a.25.25,0,0,1-.21-.08.31.31,0,0,1-.08-.23v-8.86a.29.29,0,0,1,.08-.22.26.26,0,0,1,.21-.09h.68a.29.29,0,0,1,.22.09.33.33,0,0,1,.08.22v8h4.53a.32.32,0,0,1,.23.09.29.29,0,0,1,.09.22v.51a.32.32,0,0,1-.09.23.32.32,0,0,1-.23.08Zm8.36,0a.52.52,0,0,1-.5-.33l-2.52-6.29a.41.41,0,0,1,0-.14.25.25,0,0,1,.09-.2.26.26,0,0,1,.19-.08h.62a.34.34,0,0,1,.32.21l2.09,5.41,2.09-5.41a.29.29,0,0,1,.11-.14.31.31,0,0,1,.21-.07h.63a.29.29,0,0,1,.19.08.28.28,0,0,1,.08.2l0,.14L536,198.7a.51.51,0,0,1-.5.33Zm5.35,0a.31.31,0,0,1-.23-.08.36.36,0,0,1-.08-.23v-9a.28.28,0,0,1,.31-.31h.6a.35.35,0,0,1,.31.31v9a.29.29,0,0,1-.1.23.25.25,0,0,1-.21.08Zm7.89,0a.24.24,0,0,1-.2-.08.31.31,0,0,1-.07-.21.35.35,0,0,1,.05-.18l2.09-2.9a3.52,3.52,0,0,1-2.47-.37,3.09,3.09,0,0,1-1.12-1.15,3.27,3.27,0,0,1-.38-1.53,3.31,3.31,0,0,1,.38-1.54,3.15,3.15,0,0,1,1.15-1.2,3.66,3.66,0,0,1,1.86-.46,3.6,3.6,0,0,1,1.85.45,3,3,0,0,1,1.17,1.18,3.18,3.18,0,0,1,.39,1.54,3.05,3.05,0,0,1-.27,1.32,7,7,0,0,1-.69,1.18l-2.63,3.68a1.29,1.29,0,0,1-.19.21.38.38,0,0,1-.24.06Zm1.29-4.36a2.17,2.17,0,0,0,1.07-.26,2,2,0,0,0,.77-.71,2.09,2.09,0,0,0,.29-1.09,2.12,2.12,0,0,0-.29-1.1,2,2,0,0,0-.77-.73,2.31,2.31,0,0,0-2.13,0,2,2,0,0,0-.76.73,2.12,2.12,0,0,0-.28,1.1,1.93,1.93,0,0,0,1,1.8A2.11,2.11,0,0,0,549.49,194.67Z" fill="#fff" opacity="0.5" style="isolation:isolate"/><path d="M696,199a.25.25,0,0,1-.21-.08.31.31,0,0,1-.08-.23v-8.86a.29.29,0,0,1,.08-.22.26.26,0,0,1,.21-.09h.68a.29.29,0,0,1,.22.09.33.33,0,0,1,.08.22v8h4.53a.3.3,0,0,1,.23.09.29.29,0,0,1,.09.22v.51a.32.32,0,0,1-.09.23.32.32,0,0,1-.23.08Zm8.36,0a.52.52,0,0,1-.5-.33l-2.52-6.29a.49.49,0,0,1,0-.14.24.24,0,0,1,.08-.2.27.27,0,0,1,.19-.08h.62a.36.36,0,0,1,.33.21l2.08,5.41,2.09-5.41a.29.29,0,0,1,.11-.14A.31.31,0,0,1,707,192h.63a.29.29,0,0,1,.19.08.28.28,0,0,1,.08.2l0,.14-2.51,6.29a.5.5,0,0,1-.5.33Zm5.35,0a.31.31,0,0,1-.23-.08.36.36,0,0,1-.08-.23v-9a.28.28,0,0,1,.31-.31h.6a.35.35,0,0,1,.31.31v9a.29.29,0,0,1-.1.23.25.25,0,0,1-.21.08Zm9,0a.25.25,0,0,1-.21-.08.31.31,0,0,1-.08-.23v-7.64l-2.28,1.75a.32.32,0,0,1-.2.08.32.32,0,0,1-.24-.14l-.32-.42a.28.28,0,0,1-.07-.19.29.29,0,0,1,.14-.24l2.94-2.28a.65.65,0,0,1,.35-.09h.64a.26.26,0,0,1,.21.09.27.27,0,0,1,.1.22v8.86a.29.29,0,0,1-.1.23.25.25,0,0,1-.21.08Zm6.3.14a3.08,3.08,0,0,1-2.56-1,4.46,4.46,0,0,1-.85-2.68l0-1.16,0-1.21a4.29,4.29,0,0,1,.85-2.66,3.11,3.11,0,0,1,2.56-1,3.07,3.07,0,0,1,2.56,1,4.3,4.3,0,0,1,.87,2.66c0,.25,0,.65,0,1.21s0,.92,0,1.16a4.4,4.4,0,0,1-.87,2.68A3,3,0,0,1,725,199.17Zm0-1.12a1.83,1.83,0,0,0,1.57-.7,3.23,3.23,0,0,0,.56-1.95c0-.26,0-.63,0-1.12s0-.87,0-1.11a3.22,3.22,0,0,0-.57-1.94,1.82,1.82,0,0,0-1.56-.71,1.85,1.85,0,0,0-1.56.71,3.29,3.29,0,0,0-.55,1.94l0,1.11,0,1.12a3.3,3.3,0,0,0,.55,1.95A1.84,1.84,0,0,0,725,198.05Z" fill="#fff" opacity="0.5" style="isolation:isolate"/><rect x="169.39" width="152.45" height="152.45" rx="12.7" fill="#4563ac"/><path d="M187.82,29.64a.29.29,0,0,1-.22-.08.36.36,0,0,1-.08-.23V20.47a.33.33,0,0,1,.08-.22.29.29,0,0,1,.22-.09h.68a.29.29,0,0,1,.22.09.33.33,0,0,1,.08.22v8h4.52a.29.29,0,0,1,.23.09.26.26,0,0,1,.1.22v.51a.29.29,0,0,1-.1.23.31.31,0,0,1-.23.08Zm8.36,0a.5.5,0,0,1-.5-.34L193.16,23a.46.46,0,0,1,0-.14.28.28,0,0,1,.08-.2.25.25,0,0,1,.19-.08H194a.34.34,0,0,1,.32.21l2.09,5.41,2.09-5.41a.33.33,0,0,1,.1-.15.43.43,0,0,1,.22-.06h.62a.22.22,0,0,1,.19.08.25.25,0,0,1,.09.2l0,.14-2.51,6.28a.5.5,0,0,1-.5.34Zm5.35,0a.28.28,0,0,1-.31-.31v-9a.3.3,0,0,1,.08-.23.36.36,0,0,1,.23-.08h.59a.26.26,0,0,1,.22.1.27.27,0,0,1,.1.21v9a.33.33,0,0,1-.1.23.27.27,0,0,1-.22.08Zm6.24,0a.35.35,0,0,1-.24-.08.36.36,0,0,1-.08-.23v-.4a.82.82,0,0,1,.34-.6l3-2.94a8.28,8.28,0,0,0,1.38-1.4,2,2,0,0,0,.38-1.15,1.69,1.69,0,0,0-.45-1.25,2,2,0,0,0-2.59,0,2.15,2.15,0,0,0-.58,1.27.33.33,0,0,1-.14.23.31.31,0,0,1-.21.08h-.65a.28.28,0,0,1-.21-.08.27.27,0,0,1-.08-.19,3.24,3.24,0,0,1,.38-1.38,2.89,2.89,0,0,1,1.07-1.1,3.19,3.19,0,0,1,1.71-.43,3,3,0,0,1,2.28.8,2.75,2.75,0,0,1,.77,2,2.93,2.93,0,0,1-.42,1.55,6,6,0,0,1-1.29,1.43l-2.67,2.72h4.27a.28.28,0,0,1,.31.31v.51a.32.32,0,0,1-.09.23.29.29,0,0,1-.22.08Z" fill="#fff" opacity="0.5" style="isolation:isolate"/><circle cx="245.62" cy="62.67" r="12.7" fill="#fff"/><circle cx="292.2" cy="62.67" r="12.7" fill="#fff" fill-opacity="0.2"/><g opacity="0.5"><path d="M192.68,126.34a2.83,2.83,0,1,0-2.82-2.83A2.83,2.83,0,0,0,192.68,126.34Z" fill="none" stroke="#fff" stroke-linecap="round" stroke-linejoin="round"/><path d="M188.45,133.4V132a2.8,2.8,0,0,1,.82-2,2.83,2.83,0,0,1,2-.83h2.82a2.83,2.83,0,0,1,2.83,2.82v1.42" fill="none" stroke="#fff" stroke-linecap="round" stroke-linejoin="round"/><path d="M197.62,120.78a2.81,2.81,0,0,1,1.53,1,2.82,2.82,0,0,1-1.53,4.46" fill="none" stroke="#fff" stroke-linecap="round" stroke-linejoin="round"/><path d="M201.15,133.4V132a2.81,2.81,0,0,0-2.12-2.71" fill="none" stroke="#fff" stroke-linecap="round" stroke-linejoin="round"/></g><path d="M212.71,131.28a.28.28,0,0,1-.31-.31v-.41a.82.82,0,0,1,.34-.6l3-2.94a9.18,9.18,0,0,0,1.38-1.39,2,2,0,0,0,.38-1.15,1.68,1.68,0,0,0-.45-1.25,1.72,1.72,0,0,0-1.3-.46,1.78,1.78,0,0,0-1.29.47,2.18,2.18,0,0,0-.58,1.28.35.35,0,0,1-.14.23.37.37,0,0,1-.21.08h-.65a.32.32,0,0,1-.21-.08.29.29,0,0,1-.08-.19,3.33,3.33,0,0,1,.38-1.39,2.87,2.87,0,0,1,1.07-1.09,3.2,3.2,0,0,1,1.71-.44,3,3,0,0,1,2.28.8,2.79,2.79,0,0,1,.77,2,2.9,2.9,0,0,1-.42,1.54,6.26,6.26,0,0,1-1.29,1.44l-2.67,2.71h4.27a.32.32,0,0,1,.23.08.34.34,0,0,1,.08.23V131a.33.33,0,0,1-.09.23.33.33,0,0,1-.22.08Z" fill="#fff"/><g opacity="0.5"><path d="M251.26,126.34a5.66,5.66,0,0,0-1.64-3.28,5.71,5.71,0,0,0-9.3,1.87M240,122.1v2.83h2.82" fill="none" stroke="#fff" stroke-linecap="round" stroke-linejoin="round"/><path d="M240,127.75a5.72,5.72,0,0,0,10.94,1.41m.35,2.82v-2.82h-2.82" fill="none" stroke="#fff" stroke-linecap="round" stroke-linejoin="round"/></g><path d="M266.3,131.28a.31.31,0,0,1-.22-.08A.38.38,0,0,1,266,131v-7.65l-2.28,1.75a.27.27,0,0,1-.2.08.29.29,0,0,1-.23-.13l-.33-.42a.38.38,0,0,1-.06-.19.3.3,0,0,1,.13-.25l2.94-2.27a.6.6,0,0,1,.35-.1H267a.27.27,0,0,1,.22.1.26.26,0,0,1,.09.21V131a.33.33,0,0,1-.09.23.33.33,0,0,1-.22.08Z" fill="#fff"/><path d="M718.53,29.41a4,4,0,0,1-1.76-.36,2.85,2.85,0,0,1-1.14-.95,2.41,2.41,0,0,1-.42-1.28v0a.22.22,0,0,1,.08-.18.32.32,0,0,1,.19-.07h.66a.36.36,0,0,1,.37.3,1.83,1.83,0,0,0,.74,1.1,2.39,2.39,0,0,0,1.28.35,2.2,2.2,0,0,0,1.53-.55,2.06,2.06,0,0,0,.61-1.56,1.82,1.82,0,0,0-.61-1.44,2.24,2.24,0,0,0-1.53-.54,2.15,2.15,0,0,0-.79.12,3,3,0,0,0-.61.35l-.3.21a.6.6,0,0,1-.24.05h-.65a.37.37,0,0,1-.22-.08.27.27,0,0,1-.08-.22l.42-4.51c0-.23.14-.34.34-.34h4.69a.28.28,0,0,1,.31.31v.5a.25.25,0,0,1-.1.22.25.25,0,0,1-.21.08h-3.9l-.25,2.73a3,3,0,0,1,1.75-.46,3.7,3.7,0,0,1,1.65.36,2.73,2.73,0,0,1,1.18,1,2.91,2.91,0,0,1,.45,1.63,3.27,3.27,0,0,1-.45,1.74,2.84,2.84,0,0,1-1.22,1.1A4.11,4.11,0,0,1,718.53,29.41Z" fill="#fff" opacity="0.5" style="isolation:isolate"/><rect x="676.67" y="337.46" width="152.45" height="152.45" rx="12.7" fill="#fff" fill-opacity="0.1"/><circle cx="199.03" cy="62.67" r="12.7" fill="#fff"/></svg>