<svg id="a501ef13-c1af-4588-90a4-8511fc6eb8eb" data-name="Слой 1" xmlns="http://www.w3.org/2000/svg" xmlns:xlink="http://www.w3.org/1999/xlink" viewBox="0 0 423.94 394.72"><defs><pattern id="e5c60f3f-48c2-4875-b2ec-48ce43826a92" data-name="New Pattern Swatch 4" width="43.63" height="39.78" patternTransform="translate(-0.64 -13.56) scale(1.37)" patternUnits="userSpaceOnUse" viewBox="0 0 43.63 39.78"><rect width="43.63" height="39.78" fill="none"/><rect width="43.63" height="39.78" fill="#90c255"/></pattern></defs><g id="b1042054-1e48-4b3f-8e39-500308c3d821" data-name="text"><path d="M0,192.73c0-7,0-10.48,1.35-13.15a12.48,12.48,0,0,1,5.46-5.44c2.67-1.36,6.15-1.36,13.14-1.36H404c7,0,10.48,0,13.15,1.36a12.51,12.51,0,0,1,5.45,5.44c1.35,2.67,1.35,6.16,1.35,13.15v182c0,7,0,10.48-1.35,13.15a12.51,12.51,0,0,1-5.45,5.44c-2.67,1.36-6.16,1.36-13.15,1.36H20c-7,0-10.47,0-13.14-1.36a12.48,12.48,0,0,1-5.46-5.44C0,385.25,0,381.76,0,374.77Z" fill="#4563ac"/><line x1="104.18" y1="288.74" x2="107.02" y2="288.74" fill="none" stroke="#fae054" stroke-linecap="round" stroke-miterlimit="10" stroke-width="2"/><line x1="128.61" y1="288.74" x2="131.45" y2="288.74" fill="none" stroke="#fae054" stroke-linecap="round" stroke-miterlimit="10" stroke-width="2"/><line x1="137.43" y1="288.74" x2="194.25" y2="288.74" fill="none" stroke="#fae054" stroke-linecap="round" stroke-miterlimit="10" stroke-width="2" stroke-dasharray="5.26 5.26"/><line x1="197.25" y1="288.74" x2="200.09" y2="288.74" fill="none" stroke="#fae054" stroke-linecap="round" stroke-miterlimit="10" stroke-width="2"/><line x1="220.72" y1="288.74" x2="223.56" y2="288.74" fill="none" stroke="#fae054" stroke-linecap="round" stroke-miterlimit="10" stroke-width="2"/><line x1="229.54" y1="288.74" x2="280.55" y2="288.74" fill="none" stroke="#fae054" stroke-linecap="round" stroke-miterlimit="10" stroke-width="2" stroke-dasharray="5.26 5.26"/><circle cx="118.46" cy="288.74" r="24.94" transform="translate(-185.52 359.42) rotate(-80.78)" fill="#fff" fill-opacity="0.2"/><circle cx="210.73" cy="288.74" r="24.94" fill="#fff" fill-opacity="0.2"/><path d="M207.82,287.06l-1.2-1.14,4.11-4.14,1.21,1.24Z" fill="#fff" fill-rule="evenodd"/><path d="M207.82,292.84l-1.19-1.14,7-7,1.21,1.24Z" fill="#fff" fill-rule="evenodd"/><path d="M204.93,290l-1.21-1.2,1.21-1.23,1.2,1.23Z" fill="#fff" fill-rule="evenodd"/><path d="M210.73,295.74l-1.2-1.2,7-7,1.21,1.23Z" fill="#fff" fill-rule="evenodd"/><circle cx="305.49" cy="288.74" r="24.94" fill="#a8afd9" fill-opacity="0.2"/><circle cx="210.73" cy="288.74" r="24.94" fill="none" stroke="#fff" stroke-miterlimit="10"/><circle cx="305.49" cy="288.74" r="24.94" fill="none" stroke="#fff" stroke-miterlimit="10"/><circle cx="118.46" cy="288.74" r="24.94" transform="translate(-185.52 359.42) rotate(-80.78)" fill="none" stroke="#fff" stroke-miterlimit="10"/><path d="M115.56,287.06l-1.2-1.14,4.1-4.14,1.21,1.24Z" fill="#fff" fill-rule="evenodd"/><path d="M115.55,292.84l-1.13-1.2,7-7,1.21,1.24Z" fill="#fff" fill-rule="evenodd"/><path d="M112.66,290l-1.21-1.2,1.21-1.23,1.2,1.23Z" fill="#fff" fill-rule="evenodd"/><path d="M118.46,295.74l-1.2-1.2,7-7,1.2,1.23Z" fill="#fff" fill-rule="evenodd"/><g opacity="0.5"><path d="M131.89,369.26a4.19,4.19,0,0,0-6.27-3.05,4.11,4.11,0,0,0-1.77,2m-.26-2.08v2.08h2.08" fill="none" stroke="#fff" stroke-linecap="round" stroke-linejoin="round"/><path d="M123.59,370.31a4.2,4.2,0,0,0,4.74,3.58,4,4,0,0,0,1.53-.53,4.22,4.22,0,0,0,1.78-2m.25,2.08v-2.08h-2.07" fill="none" stroke="#fff" stroke-linecap="round" stroke-linejoin="round"/></g><g opacity="0.5"><path d="M346.75,367.71v-1.56a.54.54,0,0,0-.52-.52H341a1,1,0,0,0-1,1h0m0,0a1.06,1.06,0,0,0,1,1h6.23a.54.54,0,0,1,.38.15.55.55,0,0,1,.14.37v1.55M340,366.69v6.23a1,1,0,0,0,1,1.05h6.23a.59.59,0,0,0,.38-.16.55.55,0,0,0,.14-.37v-1.55" fill="none" stroke="#fff" stroke-linecap="round" stroke-linejoin="round"/><path d="M348.31,369.78v2.08h-2.08a1.05,1.05,0,0,1-.74-.3,1,1,0,0,1,0-1.47h0a1.11,1.11,0,0,1,.74-.31Z" fill="none" stroke="#fff" stroke-linecap="round" stroke-linejoin="round"/></g><g opacity="0.5"><path d="M23.38,369.26a2.08,2.08,0,1,0-2.08-2.08,2.08,2.08,0,0,0,2.08,2.08Z" fill="none" stroke="#fff" stroke-linecap="round" stroke-linejoin="round"/><path d="M20.27,374.47v-1.05a2.09,2.09,0,0,1,2.08-2.08h2.08a2,2,0,0,1,1.46.61,2.14,2.14,0,0,1,.62,1.47v1.05" fill="none" stroke="#fff" stroke-linecap="round" stroke-linejoin="round"/><path d="M27,365.17a2.15,2.15,0,0,1,1.14.75,2.23,2.23,0,0,1,.43,1.27,2.26,2.26,0,0,1-.43,1.28,2.19,2.19,0,0,1-1.14.74" fill="none" stroke="#fff" stroke-linecap="round" stroke-linejoin="round"/><path d="M29.62,374.47v-1.05a2.08,2.08,0,0,0-1.58-2" fill="none" stroke="#fff" stroke-linecap="round" stroke-linejoin="round"/></g><path d="M146.79,368.16a3.14,3.14,0,0,1,0,3.24,1.56,1.56,0,0,1-1.37.65,1.51,1.51,0,0,1-1-.41,5.38,5.38,0,0,1-.87-1.14,5,5,0,0,1-.86,1.14,1.46,1.46,0,0,1-1,.41,1.59,1.59,0,0,1-1.39-.65,3.14,3.14,0,0,1,0-3.24,1.57,1.57,0,0,1,1.38-.65,1.46,1.46,0,0,1,1,.39,4.49,4.49,0,0,1,.87,1.07,4.18,4.18,0,0,1,.85-1.07,1.71,1.71,0,0,1,2.4.23l0,0Zm-5.93.5a1.84,1.84,0,0,0-.29,1.14,1.8,1.8,0,0,0,.3,1.13.9.9,0,0,0,.75.39,1,1,0,0,0,.76-.41,7.3,7.3,0,0,0,.68-1.14,6.58,6.58,0,0,0-.68-1.06,1,1,0,0,0-.76-.4.93.93,0,0,0-.73.35Zm3.79,0a5.2,5.2,0,0,0-.67,1,5.79,5.79,0,0,0,.71,1.13.89.89,0,0,0,.72.41.87.87,0,0,0,.75-.39,2.23,2.23,0,0,0,0-2.21.9.9,0,0,0-.75-.39,1,1,0,0,0-.76.41Z" fill="#fff"/><text transform="translate(357.77 373.17)" font-size="9.81" fill="#fff" font-family="Rubik-Regular, Rubik" style="isolation:isolate">200%</text><text transform="translate(34.87 373.17)" font-size="9.81" fill="#fff" font-family="Rubik-Regular, Rubik" style="isolation:isolate">6</text><g opacity="0.5"><g style="isolation:isolate"><text transform="translate(18.71 354.92)" font-size="9.81" fill="#fff" font-family="Rubik-Regular, Rubik" letter-spacing="-0.01em" style="isolation:isolate">Па<tspan x="12.16" y="0" letter-spacing="-0.02em">р</tspan><tspan x="17.81" y="0" letter-spacing="-0.01em">тнеров</tspan></text><text style="isolation:isolate"/><text transform="translate(57.87 354.92)" font-size="9.81" fill="#fff" font-family="Rubik-Regular, Rubik" letter-spacing="-0.02em" style="isolation:isolate"> </text><text style="isolation:isolate"/><text style="isolation:isolate"/><text style="isolation:isolate"/><text transform="translate(72.81 354.92)" font-size="9.81" fill="#fff" font-family="Rubik-Regular, Rubik" style="isolation:isolate"> </text><text style="isolation:isolate"/><text style="isolation:isolate"/><text style="isolation:isolate"/></g></g><g opacity="0.5"><g style="isolation:isolate"><text transform="translate(121.79 354.92)" font-size="9.81" fill="#fff" font-family="Rubik-Regular, Rubik" letter-spacing="-0.02em" style="isolation:isolate">Р<tspan x="6.1" y="0" letter-spacing="-0.01em">е-циклов</tspan></text><text style="isolation:isolate"/><text transform="translate(160.95 354.92)" font-size="9.81" fill="#fff" font-family="Rubik-Regular, Rubik" letter-spacing="-0.02em" style="isolation:isolate"> </text><text style="isolation:isolate"/><text style="isolation:isolate"/><text style="isolation:isolate"/><text transform="translate(175.89 354.92)" font-size="9.81" fill="#fff" font-family="Rubik-Regular, Rubik" style="isolation:isolate"> </text><text style="isolation:isolate"/><text style="isolation:isolate"/><text style="isolation:isolate"/></g></g><g opacity="0.5"><g style="isolation:isolate"><text transform="translate(339.51 354.92)" font-size="9.81" fill="#fff" font-family="Rubik-Regular, Rubik" letter-spacing="-0.02em" style="isolation:isolate">Д<tspan x="6.76" y="0" letter-spacing="-0.03em">ох</tspan><tspan x="17.26" y="0" letter-spacing="-0.02em">о</tspan><tspan x="22.75" y="0" letter-spacing="-0.01em">д за 1 цикл</tspan></text><text style="isolation:isolate"/><text transform="translate(378.66 354.92)" font-size="9.81" fill="#fff" font-family="Rubik-Regular, Rubik" letter-spacing="-0.02em" style="isolation:isolate"> </text><text style="isolation:isolate"/><text style="isolation:isolate"/><text style="isolation:isolate"/><text transform="translate(393.6 354.92)" font-size="9.81" fill="#fff" font-family="Rubik-Regular, Rubik" style="isolation:isolate"> </text><text style="isolation:isolate"/><text style="isolation:isolate"/><text style="isolation:isolate"/></g></g><path d="M320.39,285.25a15.31,15.31,0,0,0-29.56-.5m-1.78-7.4.84,7.5,7.51-.84" fill="none" stroke-linecap="round" stroke-linejoin="round" stroke-width="2" stroke="url(#e5c60f3f-48c2-4875-b2ec-48ce43826a92)"/><path d="M290.76,292.37a15.31,15.31,0,0,0,29.53.49m1.78,7.41-.84-7.51-7.52.84" fill="none" stroke-linecap="round" stroke-linejoin="round" stroke-width="2" stroke="url(#e5c60f3f-48c2-4875-b2ec-48ce43826a92)"/></g><g id="a0a75b28-4400-4e1d-944a-5db3da193751" data-name="text"><path d="M88.17,10.57c0-3.69,0-5.52.94-6.94A7.78,7.78,0,0,1,92.79.75C94.6,0,97,0,101.69,0H361.9c4.73,0,7.09,0,8.91.71a7.8,7.8,0,0,1,3.68,2.89c.94,1.41.94,3.24.94,6.94v96c0,3.68,0,5.52-.94,6.93a7.72,7.72,0,0,1-3.68,2.88c-1.82.72-4.18.72-8.91.72H101.69c-4.68,0-7.09,0-8.9-.72a7.7,7.7,0,0,1-3.69-2.88c-.93-1.41-.93-3.25-.93-6.93Z" fill="#4563ac"/><circle cx="138.29" cy="74.18" r="24.94" fill="#fff"/><path d="M230.55,49.24a24.94,24.94,0,1,0,24.94,25A24.94,24.94,0,0,0,230.55,49.24Zm0,40.66a15.73,15.73,0,1,1,15.72-15.73h0A15.71,15.71,0,0,1,230.56,89.9Z" fill="#fff"/><circle cx="230.55" cy="74.18" r="15.73" fill="#fff" fill-opacity="0.2"/><path d="M227.65,72.5l-1.21-1.13,4.11-4.14,1.25,1.18Z" fill="#fff" fill-rule="evenodd"/><path d="M227.65,78.3l-1.21-1.21,7-7,1.22,1.23Z" fill="#fff" fill-rule="evenodd"/><path d="M224.74,75.4l-1.2-1.21,1.2-1.22,1.2,1.22Z" fill="#fff" fill-rule="evenodd"/><path d="M230.55,81.18l-1.21-1.13,7-7.08,1.2,1.22Z" fill="#fff" fill-rule="evenodd"/><circle cx="325.31" cy="74.18" r="24.94" fill="#fff" fill-opacity="0.2"/><path d="M330.53,73.52A5.3,5.3,0,0,0,329,70.45,5.44,5.44,0,0,0,326,69a5.3,5.3,0,0,0-5.57,3.21m-.33-2.61v2.61h2.61" fill="none" stroke="#fff" stroke-linecap="round" stroke-linejoin="round"/><path d="M320.08,74.83a5.31,5.31,0,0,0,10.15,1.33m.31,2.61V76.13h-2.61" fill="none" stroke="#fff" stroke-linecap="round" stroke-linejoin="round"/><path d="M138.29,73.42a3,3,0,1,0-3.07-3,3,3,0,0,0,3.07,3Z" fill="none" stroke="#1a1b1c" stroke-miterlimit="10"/><path d="M133.75,81V79.46a3,3,0,0,1,3-3h3a3,3,0,0,1,3,3V81" fill="none" stroke="#1a1b1c" stroke-miterlimit="10"/><path d="M311.14,258.36s17.54-89.58-52.72-159.83" fill="none" stroke="#fae054" stroke-linecap="round" stroke-miterlimit="10" stroke-width="3" stroke-dasharray="5 10"/><path d="M256.64,97.23v16.32" fill="none" stroke="#fae054" stroke-linecap="round" stroke-miterlimit="10" stroke-width="3"/><path d="M273,97.23H256.64" fill="none" stroke="#fae054" stroke-linecap="round" stroke-miterlimit="10" stroke-width="3"/></g><circle cx="118.58" cy="288.57" r="24.94" fill="#fff"/><path d="M114.59,287.17a2.21,2.21,0,1,0-2.21-2.21h0a2.19,2.19,0,0,0,2.2,2.2Z" fill="none" stroke="#1a1b1c" stroke-miterlimit="10"/><path d="M111.27,292.69v-1.1a2.21,2.21,0,0,1,2.21-2.21h2.19a2.2,2.2,0,0,1,2.21,2.2h0v1.1" fill="none" stroke="#1a1b1c" stroke-miterlimit="10"/><text transform="translate(120.21 292.44)" font-size="13.35" fill="#1a1b1c" font-family="Rubik-Regular, Rubik">1</text><circle cx="210.82" cy="288.57" r="24.94" fill="#fff"/><path d="M205.77,287.53a2.21,2.21,0,1,0-2.21-2.21h0a2.21,2.21,0,0,0,2.2,2.2Z" fill="none" stroke="#1a1b1c" stroke-miterlimit="10"/><path d="M202.46,293.05v-1.11a2.19,2.19,0,0,1,2.2-2.2h2.19a2.19,2.19,0,0,1,2.21,2.19h0v1.11" fill="none" stroke="#1a1b1c" stroke-miterlimit="10"/><text transform="translate(211.39 292.8)" font-size="13.35" fill="#1a1b1c" font-family="Rubik-Regular, Rubik">2</text><text transform="translate(301.78 293.44)" font-size="13.35" fill="#fff" font-family="Rubik-Regular, Rubik">3</text><text transform="translate(185.67 220.68)" font-size="39.77" fill="#fff" font-family="Rubik-Regular, Rubik">ID</text><text transform="translate(184.6 33.56)" font-size="25.55" fill="#fff" font-family="Rubik-Regular, Rubik">Upline</text></svg>