<svg id="b004cf15-3e40-45fe-8761-3281cbc51e8c" data-name="Слой 1" xmlns="http://www.w3.org/2000/svg" viewBox="0 0 45.4 64.63"><path d="M30.63,14.79v-3.2A3.34,3.34,0,0,1,34,8.18a3.41,3.41,0,0,1,3.34,3.41v3.2H52.6a3.31,3.31,0,0,1,3.34,3.34,3.35,3.35,0,0,1-3.34,3.34H21.69a4.48,4.48,0,0,0-4.48,4.47v7a4.48,4.48,0,0,0,4.48,4.47H44.86A11.11,11.11,0,0,1,55.94,48.51v7A11.11,11.11,0,0,1,44.86,66.61H37.38v2.87A3.39,3.39,0,0,1,34,72.82a3.32,3.32,0,0,1-3.41-3.34V66.61H13.88a3.31,3.31,0,0,1-3.34-3.34A3.25,3.25,0,0,1,13.88,60h31a4.53,4.53,0,0,0,4.47-4.54v-7A4.47,4.47,0,0,0,44.86,44H21.69A11.17,11.17,0,0,1,10.54,32.89V25.94A11.17,11.17,0,0,1,21.69,14.79Z" transform="translate(-10.54 -8.18)" fill="#f0ba10"/></svg>