<svg id="a9430c31-9176-4b18-8ab4-fb079ed1ad4c" data-name="Слой 1" xmlns="http://www.w3.org/2000/svg" xmlns:xlink="http://www.w3.org/1999/xlink" viewBox="0 0 742.6 431.58"><defs><pattern id="bb306118-7fa2-463b-92e6-0022967f9b8f" data-name="New Pattern Swatch 2" width="43.63" height="39.78" patternTransform="translate(117.7 -54.82) scale(0.56)" patternUnits="userSpaceOnUse" viewBox="0 0 43.63 39.78"><rect width="43.63" height="39.78" fill="none"/><rect width="43.63" height="39.78" fill="#90c255"/></pattern><pattern id="e823aa16-9714-402e-8f71-aec5e1b407e0" data-name="New Pattern Swatch 2" width="43.63" height="39.78" patternTransform="translate(97.61 -54.82) scale(0.56)" patternUnits="userSpaceOnUse" viewBox="0 0 43.63 39.78"><rect width="43.63" height="39.78" fill="none"/><rect width="43.63" height="39.78" fill="#90c255"/></pattern></defs><path d="M0,85.89C0,76.37,0,71.62,1.83,68a16.89,16.89,0,0,1,7.36-7.41c3.61-1.86,8.32-1.86,17.75-1.86H545.57c9.44,0,14.15,0,17.76,1.86A16.89,16.89,0,0,1,570.69,68c1.83,3.63,1.83,8.38,1.83,17.9V333.74c0,9.51,0,14.26-1.83,17.9a17,17,0,0,1-7.36,7.41c-3.61,1.85-8.32,1.85-17.76,1.85H26.94c-9.43,0-14.14,0-17.75-1.85a17,17,0,0,1-7.36-7.41C0,348,0,343.25,0,333.74Z" fill="#e28a3c"/><g opacity="0.8"><text transform="translate(227.05 114.19)" font-size="41.05" fill="#fff" font-family="Rubik-Medium, Rubik" font-weight="500">ID</text></g><text transform="translate(199.97 42.19)" font-size="49.63" fill="#f5a046" font-family="Rubik-Medium, Rubik" font-weight="500"><tspan letter-spacing="0em">x</tspan><tspan x="28.79" y="0">Gold</tspan></text><circle cx="71.91" cy="326.01" r="5.01" fill="#fff" fill-opacity="0.2"/><circle cx="111.98" cy="326.01" r="5.01" fill="#fff" fill-opacity="0.2"/><circle cx="152.06" cy="326.01" r="5.01" fill="#fff" fill-opacity="0.2"/><circle cx="192.14" cy="326.01" r="5.01" fill="#fff" fill-opacity="0.2"/><circle cx="261.66" cy="326.01" r="5.01" fill="#fff" fill-opacity="0.2"/><circle cx="301.74" cy="326.01" r="5.01" fill="#fff" fill-opacity="0.2"/><circle cx="341.81" cy="326.01" r="5.01" fill="#fff" fill-opacity="0.2"/><circle cx="381.89" cy="326.01" r="5.01" fill="#fff" fill-opacity="0.2"/><circle cx="91.95" cy="326.01" r="5.01" fill="#fff" fill-opacity="0.2"/><circle cx="132.02" cy="326.01" r="5.01" fill="#fff" fill-opacity="0.2"/><circle cx="172.1" cy="326.01" r="5.01" fill="#fff" fill-opacity="0.2"/><circle cx="212.17" cy="326.01" r="5.01" fill="#fff" fill-opacity="0.2"/><circle cx="281.7" cy="326.01" r="5.01" fill="#fff" fill-opacity="0.2"/><circle cx="321.77" cy="326.01" r="5.01" fill="#fff" fill-opacity="0.2"/><circle cx="361.85" cy="326.01" r="5.01" fill="#fff" fill-opacity="0.2"/><circle cx="401.93" cy="326.01" r="5.01" fill="#fff" fill-opacity="0.2"/><circle cx="181.44" cy="243" r="19.57" fill="#fff" fill-opacity="0.2"/><circle cx="101.7" cy="243.01" r="19.57" transform="translate(-161 262.64) rotate(-71.56)" fill="#fff" fill-opacity="0.2"/><circle cx="82.11" cy="294.85" r="9.71" fill="#fff" fill-opacity="0.2"/><circle cx="161.88" cy="294.85" r="9.71" fill="#fff" fill-opacity="0.2"/><circle cx="121.24" cy="294.85" r="9.71" fill="#fff" fill-opacity="0.2"/><circle cx="201.01" cy="294.85" r="9.71" fill="#fff" fill-opacity="0.2"/><circle cx="141.63" cy="170.76" r="30.1" fill="#fff" fill-opacity="0.2"/><circle cx="370.8" cy="243" r="19.57" fill="#fff" fill-opacity="0.2"/><circle cx="291.05" cy="243.01" r="19.57" transform="translate(-31.53 442.28) rotate(-71.56)" fill="#fff" fill-opacity="0.2"/><circle cx="271.47" cy="294.85" r="9.71" fill="#fff" fill-opacity="0.2"/><circle cx="351.24" cy="294.85" r="9.71" fill="#fff" fill-opacity="0.2"/><circle cx="310.6" cy="294.85" r="9.71" fill="#fff" fill-opacity="0.2"/><circle cx="390.37" cy="294.85" r="9.71" fill="#fff" fill-opacity="0.2"/><circle cx="330.99" cy="170.76" r="30.1" fill="#fff" fill-opacity="0.2"/><line x1="174.87" y1="172.63" x2="301.1" y2="172.63" fill="none" opacity="0.1" stroke-linecap="round" stroke-miterlimit="10" stroke-width="2" stroke-dasharray="5.26 5.26" stroke="#fff"/><line x1="203.44" y1="243.71" x2="270.28" y2="243.71" fill="none" opacity="0.1" stroke-linecap="round" stroke-miterlimit="10" stroke-width="2" stroke-dasharray="5.26 5.26" stroke="#fff"/><line x1="123.67" y1="243.71" x2="162.43" y2="243.71" fill="none" opacity="0.1" stroke-linecap="round" stroke-miterlimit="10" stroke-width="2" stroke-dasharray="5.26 5.26" stroke="#fff"/><line x1="312.7" y1="243.71" x2="351.47" y2="243.71" fill="none" opacity="0.1" stroke-linecap="round" stroke-miterlimit="10" stroke-width="2" stroke-dasharray="5.26 5.26" stroke="#fff"/><line x1="395.7" y1="243.71" x2="457.05" y2="243.71" fill="none" opacity="0.1" stroke-linecap="round" stroke-miterlimit="10" stroke-width="2" stroke-dasharray="5.26 5.26" stroke="#fff"/><line x1="97.7" y1="294.9" x2="108.88" y2="294.9" fill="none" opacity="0.1" stroke-linecap="round" stroke-miterlimit="10" stroke-width="2" stroke-dasharray="5.26 5.26" stroke="#fff"/><line x1="287.31" y1="294.9" x2="298.49" y2="294.9" fill="none" opacity="0.1" stroke-linecap="round" stroke-miterlimit="10" stroke-width="2" stroke-dasharray="5.26 5.26" stroke="#fff"/><line x1="327" y1="294.9" x2="338.19" y2="294.9" fill="none" opacity="0.1" stroke-linecap="round" stroke-miterlimit="10" stroke-width="2" stroke-dasharray="5.26 5.26" stroke="#fff"/><line x1="366.33" y1="294.9" x2="377.51" y2="294.9" fill="none" opacity="0.1" stroke-linecap="round" stroke-miterlimit="10" stroke-width="2" stroke-dasharray="5.26 5.26" stroke="#fff"/><line x1="405.1" y1="294.9" x2="464.04" y2="294.9" fill="none" opacity="0.1" stroke-linecap="round" stroke-miterlimit="10" stroke-width="2" stroke-dasharray="5.26 5.26" stroke="#fff"/><line x1="405.1" y1="324.51" x2="464.04" y2="324.51" fill="none" opacity="0.1" stroke-linecap="round" stroke-miterlimit="10" stroke-width="2" stroke-dasharray="5.26 5.26" stroke="#fff"/><line x1="137.71" y1="294.9" x2="148.89" y2="294.9" fill="none" opacity="0.1" stroke-linecap="round" stroke-miterlimit="10" stroke-width="2" stroke-dasharray="5.26 5.26" stroke="#fff"/><line x1="177.72" y1="294.9" x2="188.9" y2="294.9" fill="none" opacity="0.1" stroke-linecap="round" stroke-miterlimit="10" stroke-width="2" stroke-dasharray="5.26 5.26" stroke="#fff"/><line x1="217.79" y1="294.9" x2="259.53" y2="294.9" fill="none" opacity="0.1" stroke-linecap="round" stroke-miterlimit="10" stroke-width="2" stroke-dasharray="5.26 5.26" stroke="#fff"/><line x1="365.72" y1="172.63" x2="458.45" y2="172.63" fill="none" opacity="0.1" stroke-linecap="round" stroke-miterlimit="10" stroke-width="2" stroke-dasharray="5.26 5.26" stroke="#fff"/><line x1="83.92" y1="172.63" x2="110.74" y2="172.63" fill="none" opacity="0.1" stroke-linecap="round" stroke-miterlimit="10" stroke-width="2" stroke-dasharray="5.26 5.26" stroke="#fff"/><path d="M141.63,181a10.27,10.27,0,1,0-10.27-10.26A10.27,10.27,0,0,0,141.63,181Z" fill="none" stroke="#fff" stroke-linecap="round" stroke-linejoin="round"/><path d="M141.63,166.19l-4.56,4.57" fill="none" stroke="#fff" stroke-linecap="round" stroke-linejoin="round"/><path d="M141.63,166.19v9.13" fill="none" stroke="#fff" stroke-linecap="round" stroke-linejoin="round"/><path d="M146.19,170.76l-4.56-4.57" fill="none" stroke="#fff" stroke-linecap="round" stroke-linejoin="round"/><path d="M331,181a10.27,10.27,0,1,0-10.27-10.26A10.27,10.27,0,0,0,331,181Z" fill="none" stroke="#fff" stroke-linecap="round" stroke-linejoin="round"/><path d="M331,166.19l-4.56,4.57" fill="none" stroke="#fff" stroke-linecap="round" stroke-linejoin="round"/><path d="M331,166.19v9.13" fill="none" stroke="#fff" stroke-linecap="round" stroke-linejoin="round"/><path d="M335.55,170.76,331,166.19" fill="none" stroke="#fff" stroke-linecap="round" stroke-linejoin="round"/><path d="M407.57,324.66a5.83,5.83,0,0,0-11.26-.19m-.68-2.82.32,2.86,2.86-.32" fill="none" stroke-linecap="round" stroke-linejoin="round" stroke="url(#bb306118-7fa2-463b-92e6-0022967f9b8f)"/><path d="M396.28,327.37a5.83,5.83,0,0,0,11.25.19m.68,2.82-.32-2.86-2.86.32" fill="none" stroke-linecap="round" stroke-linejoin="round" stroke="url(#bb306118-7fa2-463b-92e6-0022967f9b8f)"/><path d="M387.49,324.66a5.84,5.84,0,0,0-11.27-.19m-.67-2.82.31,2.86,2.87-.32" fill="none" stroke-linecap="round" stroke-linejoin="round" stroke="url(#e823aa16-9714-402e-8f71-aec5e1b407e0)"/><path d="M376.2,327.37a5.83,5.83,0,0,0,11.25.19m.68,2.82-.32-2.86-2.87.32" fill="none" stroke-linecap="round" stroke-linejoin="round" stroke="url(#e823aa16-9714-402e-8f71-aec5e1b407e0)"/><g opacity="0.5"><path d="M112.13,388.05a5.35,5.35,0,1,0-5.35-5.35,5.35,5.35,0,0,0,5.35,5.35Z" fill="none" stroke="#fff" stroke-linecap="round" stroke-linejoin="round"/><path d="M104.13,401.42v-2.69a5.36,5.36,0,0,1,5.34-5.34h5.34a5.28,5.28,0,0,1,3.77,1.58,5.38,5.38,0,0,1,1.58,3.76v2.69" fill="none" stroke="#fff" stroke-linecap="round" stroke-linejoin="round"/><path d="M121.47,377.53a5.39,5.39,0,0,1,2.92,1.93,5.44,5.44,0,0,1,1.11,3.27,5.51,5.51,0,0,1-1.11,3.27,5.34,5.34,0,0,1-2.92,1.9" fill="none" stroke="#fff" stroke-linecap="round" stroke-linejoin="round"/><path d="M128.16,401.42v-2.69a5.32,5.32,0,0,0-1.14-3.24,5.23,5.23,0,0,0-2.92-1.9" fill="none" stroke="#fff" stroke-linecap="round" stroke-linejoin="round"/></g><text transform="translate(61.25 396.62)" font-size="24" fill="#fff" font-family="Rubik-Regular, Rubik" style="isolation:isolate">30</text><text transform="translate(429.24 404.75)" font-size="37.29" fill="#e28a3c" font-family="Rubik-Medium, Rubik" font-weight="500">1020%</text><g opacity="0.82"><text transform="translate(474.73 241.89) scale(1.08 1)" font-size="30" fill="#fff" font-family="Rubik-Medium, Rubik" font-weight="500">20%</text></g><g opacity="0.5"><text transform="translate(474.73 170.26) scale(1.08 1)" font-size="14" fill="#fff" font-family="Rubik-Medium, Rubik" font-weight="500">UPLINE</text></g><g opacity="0.82"><text transform="translate(474.73 297.04) scale(1.08 1)" font-size="30" fill="#fff" font-family="Rubik-Medium, Rubik" font-weight="500">30%</text></g><g opacity="0.82"><text transform="translate(474.73 331.02) scale(1.08 1)" font-size="30" fill="#fff" font-family="Rubik-Medium, Rubik" font-weight="500">50%</text></g><text transform="translate(591.96 171.1)" opacity="0.58" font-size="22" fill="#fff" font-family="Rubik-Regular, Rubik">line 1, 2 sp<tspan x="104.17" y="0" letter-spacing="-0.01em">o</tspan><tspan x="116.71" y="0">ts</tspan></text><text transform="translate(591.96 242.83)" opacity="0.58" font-size="22" fill="#fff" font-family="Rubik-Regular, Rubik">line 2, 4 sp<tspan x="108.33" y="0" letter-spacing="-0.01em">o</tspan><tspan x="120.87" y="0">ts</tspan></text><text transform="translate(591.96 291.9)" opacity="0.58" font-size="22" fill="#fff" font-family="Rubik-Regular, Rubik">line 3, 8 sp<tspan x="108.61" y="0" letter-spacing="-0.01em">o</tspan><tspan x="121.15" y="0">ts</tspan></text><text transform="translate(592.45 331.02)" opacity="0.58" font-size="22" fill="#fff" font-family="Rubik-Regular, Rubik">line <tspan x="41.58" y="0" letter-spacing="-0.01em">4</tspan><tspan x="54.74" y="0">, 16 sp</tspan><tspan x="117.68" y="0" letter-spacing="-0.01em">o</tspan><tspan x="130.22" y="0">ts</tspan></text><g opacity="0.5"><text transform="translate(326.3 386.58)" font-size="20" fill="#fff" font-family="Rubik-Regular, Rubik">N<tspan x="13.88" y="0" letter-spacing="0em">e</tspan><tspan x="24.94" y="0">t p</tspan><tspan x="49.78" y="0" letter-spacing="-0.01em">r</tspan><tspan x="57.12" y="0" letter-spacing="-0.01em">o</tspan><tspan x="68.5" y="0">fit</tspan><tspan x="0" y="20">pe</tspan><tspan x="23.1" y="20" letter-spacing="-0.02em">r</tspan><tspan x="30.2" y="20"> </tspan><tspan x="35.08" y="20" letter-spacing="-0.02em">c</tspan><tspan x="45.86" y="20" letter-spacing="-0.02em">y</tspan><tspan x="56.6" y="20">cle</tspan></text></g><g opacity="0.5"><text transform="translate(147 386.58)" font-size="20" fill="#fff" font-family="Rubik-Regular, Rubik">Numbe<tspan x="66.72" y="0" letter-spacing="-0.02em">r</tspan><tspan x="73.82" y="0"> </tspan><tspan x="78.7" y="0" letter-spacing="-0.01em">o</tspan><tspan x="90.08" y="0" letter-spacing="-0.02em">f</tspan><tspan x="97.42" y="0" xml:space="preserve"> sp</tspan><tspan x="124.38" y="0" letter-spacing="-0.01em">o</tspan><tspan x="135.78" y="0">ts </tspan><tspan x="0" y="20">in</tspan><tspan x="16.96" y="20" letter-spacing="-0.02em"> </tspan><tspan x="21.42" y="20">the </tspan><tspan x="57.58" y="20" letter-spacing="-0.02em">c</tspan><tspan x="68.36" y="20" letter-spacing="-0.02em">y</tspan><tspan x="79.1" y="20">cle</tspan></text></g></svg>