<svg id="ab5095d8-fd64-4192-917a-71b30f0463ee" data-name="Слой 1" xmlns="http://www.w3.org/2000/svg" xmlns:xlink="http://www.w3.org/1999/xlink" viewBox="0 0 732.76 386.5"><defs><pattern id="f783d092-afc7-4fc4-b483-04a8277a07c8" data-name="New Pattern Swatch 2" width="43.63" height="39.78" patternTransform="translate(71.91 13.27) scale(0.66)" patternUnits="userSpaceOnUse" viewBox="0 0 43.63 39.78"><rect width="43.63" height="39.78" fill="none"/><rect width="43.63" height="39.78" fill="#90c255"/></pattern></defs><path d="M0,82.2C0,74.1,0,70.06,1.83,67a16,16,0,0,1,7.36-6.31c3.61-1.58,8.32-1.58,17.75-1.58H545.57c9.44,0,14.15,0,17.76,1.58A16,16,0,0,1,570.69,67c1.83,3.1,1.83,7.14,1.83,15.24V293.27c0,8.1,0,12.14-1.83,15.24a15.83,15.83,0,0,1-7.36,6.31c-3.61,1.58-8.32,1.58-17.76,1.58H26.94c-9.43,0-14.14,0-17.75-1.58a15.83,15.83,0,0,1-7.36-6.31C0,305.41,0,301.37,0,293.27Z" fill="#554c9a"/><g opacity="0.8"><text transform="translate(227.05 124.19)" font-size="41.05" fill="#fff" font-family="Rubik-Medium, Rubik" font-weight="500">ID</text></g><text transform="translate(241.68 42.19)" font-size="49.63" fill="#655ca5" font-family="Rubik-Medium, Rubik" font-weight="500">x4</text><circle cx="131.74" cy="184.11" r="30.1" fill="#fff" fill-opacity="0.2"/><circle cx="348.47" cy="184.11" r="30.1" fill="#fff" fill-opacity="0.2"/><circle cx="170.87" cy="256.35" r="19.57" fill="#fff" fill-opacity="0.2"/><circle cx="387.6" cy="256.35" r="19.57" fill="#fff" fill-opacity="0.2"/><circle cx="309.34" cy="256.35" r="19.57" fill="#fff" fill-opacity="0.2"/><circle cx="92.61" cy="256.35" r="19.57" fill="#fff" fill-opacity="0.2"/><path d="M394.35,254.75a7,7,0,0,0-13.46-.23m-.81-3.37.38,3.42,3.43-.38" fill="none" stroke-linecap="round" stroke-linejoin="round" stroke="url(#f783d092-afc7-4fc4-b483-04a8277a07c8)"/><path d="M380.86,258a7,7,0,0,0,13.45.23m.81,3.37-.39-3.42-3.42.38" fill="none" stroke-linecap="round" stroke-linejoin="round" stroke="url(#f783d092-afc7-4fc4-b483-04a8277a07c8)"/><path d="M348.47,194.37a10.26,10.26,0,1,0-10.26-10.26A10.26,10.26,0,0,0,348.47,194.37Z" fill="none" stroke="#fff" stroke-linecap="round" stroke-linejoin="round"/><path d="M348.47,179.55l-4.56,4.56" fill="none" stroke="#fff" stroke-linecap="round" stroke-linejoin="round"/><path d="M348.47,179.55v9.12" fill="none" stroke="#fff" stroke-linecap="round" stroke-linejoin="round"/><path d="M353,184.11l-4.56-4.56" fill="none" stroke="#fff" stroke-linecap="round" stroke-linejoin="round"/><path d="M131.74,194.37a10.26,10.26,0,1,0-10.26-10.26A10.26,10.26,0,0,0,131.74,194.37Z" fill="none" stroke="#fff" stroke-linecap="round" stroke-linejoin="round"/><path d="M131.74,179.55l-4.56,4.56" fill="none" stroke="#fff" stroke-linecap="round" stroke-linejoin="round"/><path d="M131.74,179.55v9.12" fill="none" stroke="#fff" stroke-linecap="round" stroke-linejoin="round"/><path d="M136.3,184.11l-4.56-4.56" fill="none" stroke="#fff" stroke-linecap="round" stroke-linejoin="round"/><line x1="168.93" y1="183.78" x2="316.02" y2="183.78" fill="none" opacity="0.1" stroke-linecap="round" stroke-miterlimit="10" stroke-width="2" stroke-dasharray="4.97 4.97" stroke="#fff"/><line x1="412.19" y1="257.58" x2="458.45" y2="257.58" fill="none" opacity="0.1" stroke-linecap="round" stroke-miterlimit="10" stroke-width="2" stroke-dasharray="4.97 4.97" stroke="#fff"/><line x1="331.31" y1="257.58" x2="366.72" y2="257.58" fill="none" opacity="0.1" stroke-linecap="round" stroke-miterlimit="10" stroke-width="2" stroke-dasharray="4.97 4.97" stroke="#fff"/><line x1="115.11" y1="257.58" x2="150.52" y2="257.58" fill="none" opacity="0.1" stroke-linecap="round" stroke-miterlimit="10" stroke-width="2" stroke-dasharray="4.97 4.97" stroke="#fff"/><line x1="196.37" y1="257.58" x2="290.55" y2="257.58" fill="none" opacity="0.1" stroke-linecap="round" stroke-miterlimit="10" stroke-width="2" stroke-dasharray="4.97 4.97" stroke="#fff"/><line x1="382" y1="183.78" x2="457.53" y2="183.78" fill="none" opacity="0.1" stroke-linecap="round" stroke-miterlimit="10" stroke-width="2" stroke-dasharray="4.97 4.97" stroke="#fff"/><text transform="translate(61.24 354.43)" font-size="25" fill="#fff" font-family="Rubik-Regular, Rubik" style="isolation:isolate">6</text><g opacity="0.5"><path d="M102.13,343.08a5.34,5.34,0,1,0-5.35-5.34,5.34,5.34,0,0,0,5.35,5.34Z" fill="none" stroke="#fff" stroke-linecap="round" stroke-linejoin="round"/><path d="M94.13,356.46v-2.69a5.36,5.36,0,0,1,5.34-5.34h5.34a5.23,5.23,0,0,1,3.77,1.57,5.4,5.4,0,0,1,1.58,3.77v2.69" fill="none" stroke="#fff" stroke-linecap="round" stroke-linejoin="round"/><path d="M111.47,332.57a5.39,5.39,0,0,1,2.92,1.93,5.44,5.44,0,0,1,1.11,3.27,5.51,5.51,0,0,1-1.11,3.27,5.34,5.34,0,0,1-2.92,1.9" fill="none" stroke="#fff" stroke-linecap="round" stroke-linejoin="round"/><path d="M118.16,356.46v-2.69a5.37,5.37,0,0,0-4.06-5.14" fill="none" stroke="#fff" stroke-linecap="round" stroke-linejoin="round"/></g><text transform="translate(445.24 359.79)" font-size="37.29" fill="#554c9a" font-family="Rubik-Medium, Rubik" font-weight="500">300%</text><g opacity="0.82"><text transform="translate(460.96 259.36) scale(1.08 1)" font-size="30" fill="#fff" font-family="Rubik-Medium, Rubik" font-weight="500">100%</text></g><g opacity="0.5"><text transform="translate(480.96 187.73) scale(1.08 1)" font-size="14" fill="#fff" font-family="Rubik-Medium, Rubik" font-weight="500">UPLINE</text></g><text transform="translate(591.96 192.67)" opacity="0.58" font-size="22" fill="#fff" font-family="Rubik-Regular, Rubik">line 1, 2 sp<tspan x="104.17" y="0" letter-spacing="-0.01em">o</tspan><tspan x="116.71" y="0">ts</tspan></text><text transform="translate(591.96 264.4)" opacity="0.58" font-size="22" fill="#fff" font-family="Rubik-Regular, Rubik">line 2, 4 sp<tspan x="108.33" y="0" letter-spacing="-0.01em">o</tspan><tspan x="120.87" y="0">ts</tspan></text><g opacity="0.5"><text transform="translate(336.3 341.5)" font-size="20" fill="#fff" font-family="Rubik-Regular, Rubik">N<tspan x="13.88" y="0" letter-spacing="0em">e</tspan><tspan x="24.94" y="0">t p</tspan><tspan x="49.78" y="0" letter-spacing="-0.01em">r</tspan><tspan x="57.12" y="0" letter-spacing="-0.01em">o</tspan><tspan x="68.5" y="0">fit</tspan><tspan x="0" y="20">pe</tspan><tspan x="23.1" y="20" letter-spacing="-0.02em">r</tspan><tspan x="30.2" y="20"> </tspan><tspan x="35.08" y="20" letter-spacing="-0.02em">c</tspan><tspan x="45.86" y="20" letter-spacing="-0.02em">y</tspan><tspan x="56.6" y="20">cle</tspan></text></g><g opacity="0.5"><text transform="translate(137 341.5)" font-size="20" fill="#fff" font-family="Rubik-Regular, Rubik">Numbe<tspan x="66.72" y="0" letter-spacing="-0.02em">r</tspan><tspan x="73.82" y="0"> </tspan><tspan x="78.7" y="0" letter-spacing="-0.01em">o</tspan><tspan x="90.08" y="0" letter-spacing="-0.02em">f</tspan><tspan x="97.42" y="0" xml:space="preserve"> sp</tspan><tspan x="124.38" y="0" letter-spacing="-0.01em">o</tspan><tspan x="135.78" y="0">ts </tspan><tspan x="0" y="20">in</tspan><tspan x="16.96" y="20" letter-spacing="-0.02em"> </tspan><tspan x="21.42" y="20">the </tspan><tspan x="57.58" y="20" letter-spacing="-0.02em">c</tspan><tspan x="68.36" y="20" letter-spacing="-0.02em">y</tspan><tspan x="79.1" y="20">cle</tspan></text></g></svg>