<svg id="a36ae8e2-98fd-49cf-a777-235c3c45c987" data-name="Слой 1" xmlns="http://www.w3.org/2000/svg" xmlns:xlink="http://www.w3.org/1999/xlink" viewBox="0 0 725.4 391.9"><defs><pattern id="e01b2ee1-1a02-47ed-bf92-bbe08f53a99a" data-name="New Pattern Swatch 2" width="43.63" height="39.78" patternTransform="translate(-145.96 -16.52) scale(1.37)" patternUnits="userSpaceOnUse" viewBox="0 0 43.63 39.78"><rect width="43.63" height="39.78" fill="none"/><rect width="43.63" height="39.78" fill="#90c255"/></pattern></defs><path d="M155.05,85.19c0-8.1,0-12.15,1.82-15.24a15.78,15.78,0,0,1,7.34-6.31c3.59-1.59,8.28-1.59,17.68-1.59H698.55c9.41,0,14.1,0,17.69,1.59A15.83,15.83,0,0,1,723.58,70c1.82,3.09,1.82,7.14,1.82,15.24V296.25c0,8.1,0,12.15-1.82,15.24a15.83,15.83,0,0,1-7.34,6.31c-3.59,1.58-8.28,1.58-17.69,1.58H181.89c-9.4,0-14.09,0-17.68-1.58a15.78,15.78,0,0,1-7.34-6.31c-1.82-3.09-1.82-7.14-1.82-15.24Z" fill="#4563ac"/><text transform="translate(385.84 124.19)" opacity="0.8" font-size="41.05" fill="#fff" font-family="Rubik-Medium, Rubik" font-weight="500">ID</text><text transform="translate(390.16 42.19)" font-size="49.63" fill="#4563ac" font-family="Rubik-Medium, Rubik" font-weight="500">x3</text><line x1="228.42" y1="216.48" x2="249.73" y2="216.48" fill="none" opacity="0.1" stroke-linecap="round" stroke-miterlimit="10" stroke-width="2" stroke-dasharray="4.69 4.69" stroke="#fff"/><line x1="548.12" y1="216.48" x2="591.72" y2="216.48" fill="none" opacity="0.1" stroke-linecap="round" stroke-miterlimit="10" stroke-width="2" stroke-dasharray="4.69 4.69" stroke="#fff"/><circle cx="514.86" cy="216.48" r="31.13" fill="#fff" fill-opacity="0.2"/><line x1="314.27" y1="216.48" x2="363.6" y2="216.48" fill="none" opacity="0.1" stroke-linecap="round" stroke-miterlimit="10" stroke-width="2" stroke-dasharray="5.26 5.26" stroke="#fff"/><line x1="430.33" y1="216.48" x2="484.87" y2="216.48" fill="none" opacity="0.1" stroke-linecap="round" stroke-miterlimit="10" stroke-width="2" stroke-dasharray="5.26 5.26" stroke="#fff"/><path d="M393,214.38l-1.5-1.42,5.13-5.16,1.51,1.55Z" fill="#fff" fill-rule="evenodd"/><path d="M393,221.6l-1.48-1.42,8.73-8.76,1.5,1.54Z" fill="#fff" fill-rule="evenodd"/><path d="M389.35,218l-1.51-1.51,1.51-1.53,1.5,1.53Z" fill="#fff" fill-rule="evenodd"/><path d="M396.59,225.21l-1.5-1.49,8.74-8.76,1.51,1.53Z" fill="#fff" fill-rule="evenodd"/><circle cx="396.59" cy="216.48" r="31.13" fill="#fff" fill-opacity="0.2"/><circle cx="281.44" cy="216.48" r="31.13" transform="translate(22.67 459.6) rotate(-80.78)" fill="#fff" fill-opacity="0.2"/><path d="M277.82,214.38l-1.5-1.42,5.12-5.16,1.5,1.55Z" fill="#fff" fill-rule="evenodd"/><path d="M277.81,221.6l-1.42-1.51,8.73-8.76,1.52,1.55Z" fill="#fff" fill-rule="evenodd"/><path d="M274.19,218l-1.5-1.51,1.5-1.53,1.5,1.53Z" fill="#fff" fill-rule="evenodd"/><path d="M281.44,225.21l-1.51-1.49,8.75-8.76,1.51,1.53Z" fill="#fff" fill-rule="evenodd"/><path d="M528.85,213.12a14.34,14.34,0,0,0-27.69-.47m-1.67-6.93.79,7,7-.79" fill="none" stroke-linecap="round" stroke-linejoin="round" stroke-width="2" stroke="url(#e01b2ee1-1a02-47ed-bf92-bbe08f53a99a)"/><path d="M501.09,219.79a14.35,14.35,0,0,0,27.67.46m1.67,6.94-.79-7-7,.79" fill="none" stroke-linecap="round" stroke-linejoin="round" stroke-width="2" stroke="url(#e01b2ee1-1a02-47ed-bf92-bbe08f53a99a)"/><text transform="translate(182.64 357.41)" font-size="25" fill="#fff" font-family="Rubik-Regular, Rubik" style="isolation:isolate">3 </text><text transform="translate(593.41 366.77)" font-size="37.29" fill="#4563ac" font-family="Rubik-Medium, Rubik" font-weight="500">200%</text><g opacity="0.82"><text transform="translate(611.72 219.99) scale(1.08 1)" font-size="30" fill="#fff" font-family="Rubik-Medium, Rubik" font-weight="500">100%</text></g><g opacity="0.5"><text transform="translate(493.76 346.9)" font-size="20" fill="#fff" font-family="Rubik-Regular, Rubik">N<tspan x="13.88" y="0" letter-spacing="0em">e</tspan><tspan x="24.94" y="0">t p</tspan><tspan x="49.78" y="0" letter-spacing="-0.01em">r</tspan><tspan x="57.12" y="0" letter-spacing="-0.01em">o</tspan><tspan x="68.5" y="0">fit</tspan><tspan x="0" y="20">pe</tspan><tspan x="23.1" y="20" letter-spacing="-0.02em">r</tspan><tspan x="30.2" y="20"> </tspan><tspan x="35.08" y="20" letter-spacing="-0.02em">c</tspan><tspan x="45.86" y="20" letter-spacing="-0.02em">y</tspan><tspan x="56.6" y="20">cle</tspan></text></g><g opacity="0.5"><text transform="translate(254.45 346.9)" font-size="20" fill="#fff" font-family="Rubik-Regular, Rubik">Numbe<tspan x="66.72" y="0" letter-spacing="-0.02em">r</tspan><tspan x="73.82" y="0"> </tspan><tspan x="78.7" y="0" letter-spacing="-0.01em">o</tspan><tspan x="90.08" y="0" letter-spacing="-0.02em">f</tspan><tspan x="97.42" y="0" xml:space="preserve"> sp</tspan><tspan x="124.38" y="0" letter-spacing="-0.01em">o</tspan><tspan x="135.78" y="0">ts </tspan><tspan x="0" y="20">in</tspan><tspan x="16.96" y="20" letter-spacing="-0.02em"> </tspan><tspan x="21.42" y="20">the </tspan><tspan x="57.58" y="20" letter-spacing="-0.02em">c</tspan><tspan x="68.36" y="20" letter-spacing="-0.02em">y</tspan><tspan x="79.1" y="20">cle</tspan></text></g><g opacity="0.5"><path d="M223.53,346.07a5.35,5.35,0,1,0-5.35-5.35,5.35,5.35,0,0,0,5.35,5.35Z" fill="none" stroke="#fff" stroke-linecap="round" stroke-linejoin="round"/><path d="M215.53,359.44v-2.69a5.36,5.36,0,0,1,5.34-5.34h5.34A5.24,5.24,0,0,1,230,353a5.38,5.38,0,0,1,1.58,3.76v2.69" fill="none" stroke="#fff" stroke-linecap="round" stroke-linejoin="round"/><path d="M232.87,335.55a5.39,5.39,0,0,1,2.92,1.93,5.44,5.44,0,0,1,1.11,3.27,5.51,5.51,0,0,1-1.11,3.27,5.34,5.34,0,0,1-2.92,1.9" fill="none" stroke="#fff" stroke-linecap="round" stroke-linejoin="round"/><path d="M239.56,359.44v-2.69a5.32,5.32,0,0,0-1.14-3.24,5.23,5.23,0,0,0-2.92-1.9" fill="none" stroke="#fff" stroke-linecap="round" stroke-linejoin="round"/></g><text transform="translate(0 218)" opacity="0.58" font-size="22" fill="#fff" font-family="Rubik-Regular, Rubik">line 1, 3 sp<tspan x="104.45" y="0" letter-spacing="-0.01em">o</tspan><tspan x="116.99" y="0">ts</tspan></text></svg>