<svg id="bcc4daf8-8c3f-4a21-a192-1a7ea008e80f" data-name="Слой 1" xmlns="http://www.w3.org/2000/svg" viewBox="0 0 854.85 494.68"><text transform="translate(189.74 25.97)" font-size="30.55" fill="#4563ac" font-family="Rubik-Medium, Rubik" font-weight="500">x3</text><rect x="1.5" y="42.35" width="413.75" height="173.49" rx="12" fill="none" stroke="#4563ac" stroke-miterlimit="10" stroke-width="3"/><rect x="439.6" y="42.35" width="413.75" height="173.49" rx="12" fill="none" stroke="#544c9a" stroke-miterlimit="10" stroke-width="3"/><rect x="1.5" y="284.6" width="413.75" height="208.58" rx="12" fill="none" stroke="#bd2463" stroke-miterlimit="10" stroke-width="3"/><rect x="439.6" y="284.6" width="413.75" height="208.58" rx="12" fill="none" stroke="#e28a3c" stroke-miterlimit="10" stroke-width="3"/><circle cx="310.24" cy="129.09" r="27.17" fill="#fff" opacity="0.3"/><line x1="135.17" y1="129.09" x2="178.22" y2="129.09" fill="none" opacity="0.1" stroke-linecap="round" stroke-miterlimit="10" stroke-width="2" stroke-dasharray="5.26 5.26" stroke="#fff"/><line x1="236.46" y1="129.09" x2="284.07" y2="129.09" fill="none" opacity="0.1" stroke-linecap="round" stroke-miterlimit="10" stroke-width="2" stroke-dasharray="5.26 5.26" stroke="#fff"/><circle cx="207.02" cy="129.09" r="27.17" fill="#fff" opacity="0.3"/><circle cx="106.51" cy="129.09" r="27.17" transform="translate(-37.98 213.55) rotate(-80.78)" fill="#fff" opacity="0.3"/><path d="M556.07,75.89a26.27,26.27,0,1,1-26.27,26.27A26.27,26.27,0,0,1,556.07,75.89ZM719,102.16a26.28,26.28,0,1,0,26.27-26.27A26.27,26.27,0,0,0,719,102.16ZM573.15,165.22a17.08,17.08,0,1,0,17.08-17.08A17.07,17.07,0,0,0,573.15,165.22Zm189.16,0a17.08,17.08,0,1,0,17.08-17.08A17.08,17.08,0,0,0,762.31,165.22Zm-68.31,0a17.08,17.08,0,1,0,17.08-17.08A17.08,17.08,0,0,0,694,165.22Zm-189.16,0a17.08,17.08,0,1,0,17.08-17.08A17.08,17.08,0,0,0,504.84,165.22Z" fill="#fff" opacity="0.3"/><line x1="588.53" y1="101.87" x2="716.91" y2="101.87" fill="none" opacity="0.1" stroke-linecap="round" stroke-miterlimit="10" stroke-width="2" stroke-dasharray="4.97 4.97" stroke="#fff"/><line x1="730.25" y1="166.29" x2="761.16" y2="166.29" fill="none" opacity="0.1" stroke-linecap="round" stroke-miterlimit="10" stroke-width="2" stroke-dasharray="4.97 4.97" stroke="#fff"/><line x1="541.55" y1="166.29" x2="572.46" y2="166.29" fill="none" opacity="0.1" stroke-linecap="round" stroke-miterlimit="10" stroke-width="2" stroke-dasharray="4.97 4.97" stroke="#fff"/><line x1="612.48" y1="166.29" x2="694.68" y2="166.29" fill="none" opacity="0.1" stroke-linecap="round" stroke-miterlimit="10" stroke-width="2" stroke-dasharray="4.97 4.97" stroke="#fff"/><line x1="154.81" y1="339.73" x2="264.98" y2="339.73" fill="none" opacity="0.1" stroke-linecap="round" stroke-miterlimit="10" stroke-width="2" stroke-dasharray="5.26 5.26" stroke="#fff"/><line x1="179.74" y1="401.76" x2="238.09" y2="401.76" fill="none" opacity="0.1" stroke-linecap="round" stroke-miterlimit="10" stroke-width="2" stroke-dasharray="5.26 5.26" stroke="#fff"/><line x1="110.12" y1="401.76" x2="143.96" y2="401.76" fill="none" opacity="0.1" stroke-linecap="round" stroke-miterlimit="10" stroke-width="2" stroke-dasharray="5.26 5.26" stroke="#fff"/><line x1="275.11" y1="401.76" x2="308.95" y2="401.76" fill="none" opacity="0.1" stroke-linecap="round" stroke-miterlimit="10" stroke-width="2" stroke-dasharray="5.26 5.26" stroke="#fff"/><text transform="translate(627.66 25.97)" font-size="30.55" fill="#544c9a" font-family="Rubik-Medium, Rubik" font-weight="500">x4</text><text transform="translate(180.38 269.22)" font-size="30.55" fill="#bd2463" font-family="Rubik-Medium, Rubik" font-weight="500">xXх</text><text transform="translate(596.44 269.22)" font-size="30.55" fill="#e28a3c" font-family="Rubik-Medium, Rubik" font-weight="500"><tspan letter-spacing="0em">x</tspan><tspan x="17.72" y="0">GOLD</tspan></text><line x1="592.32" y1="328.19" x2="702.49" y2="328.19" fill="none" opacity="0.1" stroke-linecap="round" stroke-miterlimit="10" stroke-width="2" stroke-dasharray="5.26 5.26" stroke="#fff"/><line x1="617.25" y1="390.22" x2="675.6" y2="390.22" fill="none" opacity="0.1" stroke-linecap="round" stroke-miterlimit="10" stroke-width="2" stroke-dasharray="5.26 5.26" stroke="#fff"/><line x1="547.63" y1="390.22" x2="581.46" y2="390.22" fill="none" opacity="0.1" stroke-linecap="round" stroke-miterlimit="10" stroke-width="2" stroke-dasharray="5.26 5.26" stroke="#fff"/><line x1="712.62" y1="390.22" x2="746.45" y2="390.22" fill="none" opacity="0.1" stroke-linecap="round" stroke-miterlimit="10" stroke-width="2" stroke-dasharray="5.26 5.26" stroke="#fff"/><line x1="524.96" y1="434.9" x2="534.72" y2="434.9" fill="none" opacity="0.1" stroke-linecap="round" stroke-miterlimit="10" stroke-width="2" stroke-dasharray="5.26 5.26" stroke="#fff"/><line x1="690.45" y1="434.9" x2="700.21" y2="434.9" fill="none" opacity="0.1" stroke-linecap="round" stroke-miterlimit="10" stroke-width="2" stroke-dasharray="5.26 5.26" stroke="#fff"/><line x1="725.1" y1="434.9" x2="734.86" y2="434.9" fill="none" opacity="0.1" stroke-linecap="round" stroke-miterlimit="10" stroke-width="2" stroke-dasharray="5.26 5.26" stroke="#fff"/><line x1="759.43" y1="434.9" x2="769.19" y2="434.9" fill="none" opacity="0.1" stroke-linecap="round" stroke-miterlimit="10" stroke-width="2" stroke-dasharray="5.26 5.26" stroke="#fff"/><line x1="559.88" y1="434.9" x2="569.64" y2="434.9" fill="none" opacity="0.1" stroke-linecap="round" stroke-miterlimit="10" stroke-width="2" stroke-dasharray="5.26 5.26" stroke="#fff"/><line x1="594.8" y1="434.9" x2="604.56" y2="434.9" fill="none" opacity="0.1" stroke-linecap="round" stroke-miterlimit="10" stroke-width="2" stroke-dasharray="5.26 5.26" stroke="#fff"/><line x1="628.03" y1="434.9" x2="664.47" y2="434.9" fill="none" opacity="0.1" stroke-linecap="round" stroke-miterlimit="10" stroke-width="2" stroke-dasharray="5.26 5.26" stroke="#fff"/><circle cx="598.06" cy="389.6" r="17.08" fill="#fff" opacity="0.3"/><circle cx="528.45" cy="389.61" r="17.08" transform="translate(-8.29 767.73) rotate(-71.56)" fill="#fff" opacity="0.3"/><circle cx="511.36" cy="434.86" r="8.48" fill="#fff" opacity="0.3"/><circle cx="545.51" cy="434.86" r="8.48" fill="#fff" opacity="0.3"/><circle cx="615.13" cy="434.86" r="8.48" fill="#fff" opacity="0.3"/><circle cx="563.3" cy="326.55" r="26.27" fill="#fff" opacity="0.3"/><circle cx="763.33" cy="389.6" r="17.08" fill="#fff" opacity="0.3"/><circle cx="693.73" cy="389.61" r="17.08" transform="translate(104.72 924.52) rotate(-71.56)" fill="#fff" opacity="0.3"/><circle cx="676.63" cy="434.86" r="8.48" fill="#fff" opacity="0.3"/><circle cx="746.25" cy="434.86" r="8.48" fill="#fff" opacity="0.3"/><circle cx="710.79" cy="434.86" r="8.48" fill="#fff" opacity="0.3"/><circle cx="780.41" cy="434.86" r="8.48" fill="#fff" opacity="0.3"/><circle cx="728.58" cy="326.55" r="26.27" fill="#fff" opacity="0.3"/><circle cx="160.55" cy="401.14" r="17.08" fill="#fff" opacity="0.3"/><circle cx="90.94" cy="401.16" r="17.08" transform="translate(-318.38 360.57) rotate(-71.56)" fill="#fff" opacity="0.3"/><circle cx="73.85" cy="446.4" r="8.48" fill="#fff" opacity="0.3"/><circle cx="143.47" cy="446.4" r="8.48" fill="#fff" opacity="0.3"/><circle cx="108" cy="446.4" r="8.48" fill="#fff" opacity="0.3"/><circle cx="177.62" cy="446.4" r="8.48" fill="#fff" opacity="0.3"/><circle cx="125.8" cy="338.09" r="26.27" fill="#fff" opacity="0.3"/><circle cx="325.82" cy="401.14" r="17.08" fill="#fff" opacity="0.3"/><circle cx="256.22" cy="401.16" r="17.08" transform="translate(-205.38 517.36) rotate(-71.56)" fill="#fff" opacity="0.3"/><circle cx="239.12" cy="446.4" r="8.48" fill="#fff" opacity="0.3"/><circle cx="308.75" cy="446.4" r="8.48" fill="#fff" opacity="0.3"/><circle cx="273.28" cy="446.4" r="8.48" fill="#fff" opacity="0.3"/><circle cx="342.9" cy="446.4" r="8.48" fill="#fff" opacity="0.3"/><circle cx="291.07" cy="338.09" r="26.27" fill="#fff" opacity="0.3"/><circle cx="500.7" cy="462.64" r="4.46" fill="#fff" opacity="0.3"/><circle cx="536.37" cy="462.64" r="4.46" fill="#fff" opacity="0.3"/><circle cx="572.04" cy="462.64" r="4.46" fill="#fff" opacity="0.3"/><circle cx="607.71" cy="462.64" r="4.46" fill="#fff" opacity="0.3"/><circle cx="669.59" cy="462.64" r="4.46" fill="#fff" opacity="0.3"/><circle cx="705.27" cy="462.64" r="4.46" fill="#fff" opacity="0.3"/><circle cx="740.94" cy="462.64" r="4.46" fill="#fff" opacity="0.3"/><circle cx="776.61" cy="462.64" r="4.46" fill="#fff" opacity="0.3"/><circle cx="518.54" cy="462.64" r="4.46" fill="#fff" opacity="0.3"/><circle cx="554.21" cy="462.64" r="4.46" fill="#fff" opacity="0.3"/><circle cx="589.88" cy="462.64" r="4.46" fill="#fff" opacity="0.3"/><circle cx="625.55" cy="462.64" r="4.46" fill="#fff" opacity="0.3"/><circle cx="687.43" cy="462.64" r="4.46" fill="#fff" opacity="0.3"/><circle cx="723.1" cy="462.64" r="4.46" fill="#fff" opacity="0.3"/><circle cx="758.77" cy="462.64" r="4.46" fill="#fff" opacity="0.3"/><circle cx="794.44" cy="462.64" r="4.46" fill="#fff" opacity="0.3"/></svg>