<svg id="b3ec2922-e6cf-4a23-93ec-d4eb84d8d738" data-name="Слой 1" xmlns="http://www.w3.org/2000/svg" xmlns:xlink="http://www.w3.org/1999/xlink" viewBox="0 0 736.4 429.88"><defs><pattern id="f708b23e-733e-49f7-b74c-7ee9d2909767" data-name="New Pattern Swatch 2" width="43.63" height="39.78" patternTransform="translate(-31.91 -63.76) scale(0.56)" patternUnits="userSpaceOnUse" viewBox="0 0 43.63 39.78"><rect width="43.63" height="39.78" fill="none"/><rect width="43.63" height="39.78" fill="#90c255"/></pattern><pattern id="afa00113-441e-48f8-990e-6a5ccbf13865" data-name="New Pattern Swatch 2" width="43.63" height="39.78" patternTransform="translate(-51.46 -115.69) scale(0.56)" patternUnits="userSpaceOnUse" viewBox="0 0 43.63 39.78"><rect width="43.63" height="39.78" fill="none"/><rect width="43.63" height="39.78" fill="#90c255"/></pattern></defs><path d="M166.06,85.89c0-9.52,0-14.27,1.82-17.9a16.88,16.88,0,0,1,7.33-7.41c3.59-1.86,8.29-1.86,17.69-1.86H709.56c9.4,0,14.09,0,17.69,1.86A16.88,16.88,0,0,1,734.58,68c1.82,3.63,1.82,8.38,1.82,17.9V333.74c0,9.51,0,14.26-1.82,17.9a16.93,16.93,0,0,1-7.33,7.41c-3.6,1.85-8.29,1.85-17.69,1.85H192.9c-9.4,0-14.1,0-17.69-1.85a16.93,16.93,0,0,1-7.33-7.41c-1.82-3.64-1.82-8.39-1.82-17.9Z" fill="#cc3d8f"/><g opacity="0.8"><text transform="translate(397.36 114.19)" font-size="41.05" fill="#fff" font-family="Rubik-Medium, Rubik" font-weight="500">ID</text></g><text transform="translate(379.98 42.19)" font-size="49.63" fill="#cc3d8f" font-family="Rubik-Medium, Rubik" font-weight="500">xXx</text><circle cx="343.75" cy="243" r="19.57" fill="#fff" fill-opacity="0.2"/><circle cx="264.01" cy="243.01" r="19.57" transform="matrix(0.32, -0.95, 0.95, 0.32, -50.02, 416.62)" fill="#fff" fill-opacity="0.2"/><circle cx="244.42" cy="294.85" r="9.71" fill="#fff" fill-opacity="0.2"/><circle cx="324.19" cy="294.85" r="9.71" fill="#fff" fill-opacity="0.2"/><circle cx="283.55" cy="294.85" r="9.71" fill="#fff" fill-opacity="0.2"/><circle cx="363.32" cy="294.85" r="9.71" fill="#fff" fill-opacity="0.2"/><circle cx="303.94" cy="170.75" r="30.1" fill="#fff" fill-opacity="0.2"/><circle cx="533.11" cy="243" r="19.57" fill="#fff" fill-opacity="0.2"/><circle cx="453.37" cy="243.01" r="19.57" transform="translate(79.45 596.26) rotate(-71.56)" fill="#fff" fill-opacity="0.2"/><circle cx="433.78" cy="294.85" r="9.71" fill="#fff" fill-opacity="0.2"/><circle cx="513.55" cy="294.85" r="9.71" fill="#fff" fill-opacity="0.2"/><circle cx="472.91" cy="294.85" r="9.71" fill="#fff" fill-opacity="0.2"/><circle cx="552.68" cy="294.85" r="9.71" fill="#fff" fill-opacity="0.2"/><circle cx="493.3" cy="170.75" r="30.1" fill="#fff" fill-opacity="0.2"/><line x1="337.18" y1="172.63" x2="463.41" y2="172.63" fill="none" opacity="0.1" stroke-linecap="round" stroke-miterlimit="10" stroke-width="2" stroke-dasharray="5.26 5.26" stroke="#fff"/><line x1="365.75" y1="243.71" x2="432.59" y2="243.71" fill="none" opacity="0.1" stroke-linecap="round" stroke-miterlimit="10" stroke-width="2" stroke-dasharray="5.26 5.26" stroke="#fff"/><line x1="285.98" y1="243.71" x2="324.74" y2="243.71" fill="none" opacity="0.1" stroke-linecap="round" stroke-miterlimit="10" stroke-width="2" stroke-dasharray="5.26 5.26" stroke="#fff"/><line x1="475.01" y1="243.71" x2="513.78" y2="243.71" fill="none" opacity="0.1" stroke-linecap="round" stroke-miterlimit="10" stroke-width="2" stroke-dasharray="5.26 5.26" stroke="#fff"/><line x1="558.01" y1="243.71" x2="613.27" y2="243.71" fill="none" opacity="0.1" stroke-linecap="round" stroke-miterlimit="10" stroke-width="2" stroke-dasharray="5.26 5.26" stroke="#fff"/><line x1="260.01" y1="294.9" x2="271.19" y2="294.9" fill="none" opacity="0.1" stroke-linecap="round" stroke-miterlimit="10" stroke-width="2" stroke-dasharray="5.26 5.26" stroke="#fff"/><line x1="449.62" y1="294.9" x2="460.8" y2="294.9" fill="none" opacity="0.1" stroke-linecap="round" stroke-miterlimit="10" stroke-width="2" stroke-dasharray="5.26 5.26" stroke="#fff"/><line x1="489.32" y1="294.9" x2="500.5" y2="294.9" fill="none" opacity="0.1" stroke-linecap="round" stroke-miterlimit="10" stroke-width="2" stroke-dasharray="5.26 5.26" stroke="#fff"/><line x1="528.64" y1="294.9" x2="539.82" y2="294.9" fill="none" opacity="0.1" stroke-linecap="round" stroke-miterlimit="10" stroke-width="2" stroke-dasharray="5.26 5.26" stroke="#fff"/><line x1="574.25" y1="294.9" x2="613.27" y2="294.9" fill="none" opacity="0.1" stroke-linecap="round" stroke-miterlimit="10" stroke-width="2" stroke-dasharray="5.26 5.26" stroke="#fff"/><line x1="300.02" y1="294.9" x2="311.2" y2="294.9" fill="none" opacity="0.1" stroke-linecap="round" stroke-miterlimit="10" stroke-width="2" stroke-dasharray="5.26 5.26" stroke="#fff"/><line x1="340.03" y1="294.9" x2="351.21" y2="294.9" fill="none" opacity="0.1" stroke-linecap="round" stroke-miterlimit="10" stroke-width="2" stroke-dasharray="5.26 5.26" stroke="#fff"/><line x1="380.1" y1="294.9" x2="421.85" y2="294.9" fill="none" opacity="0.1" stroke-linecap="round" stroke-miterlimit="10" stroke-width="2" stroke-dasharray="5.26 5.26" stroke="#fff"/><line x1="528.03" y1="172.63" x2="613.27" y2="172.63" fill="none" opacity="0.1" stroke-linecap="round" stroke-miterlimit="10" stroke-width="2" stroke-dasharray="5.26 5.26" stroke="#fff"/><line x1="246.23" y1="172.63" x2="273.06" y2="172.63" fill="none" opacity="0.1" stroke-linecap="round" stroke-miterlimit="10" stroke-width="2" stroke-dasharray="5.26 5.26" stroke="#fff"/><path d="M303.94,181a10.27,10.27,0,1,0-10.26-10.27A10.26,10.26,0,0,0,303.94,181Z" fill="none" stroke="#fff" stroke-linecap="round" stroke-linejoin="round"/><path d="M303.94,166.19l-4.56,4.56" fill="none" stroke="#fff" stroke-linecap="round" stroke-linejoin="round"/><path d="M303.94,166.19v9.12" fill="none" stroke="#fff" stroke-linecap="round" stroke-linejoin="round"/><path d="M308.5,170.75l-4.56-4.56" fill="none" stroke="#fff" stroke-linecap="round" stroke-linejoin="round"/><path d="M493.3,181A10.27,10.27,0,1,0,483,170.75,10.26,10.26,0,0,0,493.3,181Z" fill="none" stroke="#fff" stroke-linecap="round" stroke-linejoin="round"/><path d="M493.3,166.19l-4.56,4.56" fill="none" stroke="#fff" stroke-linecap="round" stroke-linejoin="round"/><path d="M493.3,166.19v9.12" fill="none" stroke="#fff" stroke-linecap="round" stroke-linejoin="round"/><path d="M497.86,170.75l-4.56-4.56" fill="none" stroke="#fff" stroke-linecap="round" stroke-linejoin="round"/><path d="M558.31,293.59a5.84,5.84,0,0,0-11.27-.2m-.67-2.82.32,2.86,2.86-.32" fill="none" stroke-linecap="round" stroke-linejoin="round" stroke="url(#f708b23e-733e-49f7-b74c-7ee9d2909767)"/><path d="M547,296.3a5.83,5.83,0,0,0,11.25.18m.68,2.83-.32-2.87-2.86.32" fill="none" stroke-linecap="round" stroke-linejoin="round" stroke="url(#f708b23e-733e-49f7-b74c-7ee9d2909767)"/><path d="M538.76,241.65a5.83,5.83,0,0,0-11.26-.19m-.68-2.82.32,2.86,2.87-.32" fill="none" stroke-linecap="round" stroke-linejoin="round" stroke="url(#afa00113-441e-48f8-990e-6a5ccbf13865)"/><path d="M527.48,244.36a5.83,5.83,0,0,0,11.25.19m.67,2.83-.32-2.87-2.86.32" fill="none" stroke-linecap="round" stroke-linejoin="round" stroke="url(#afa00113-441e-48f8-990e-6a5ccbf13865)"/><g opacity="0.82"><text transform="translate(639.11 245.95) scale(1.08 1)" font-size="30" fill="#fff" font-family="Rubik-Medium, Rubik" font-weight="500">30%</text></g><g opacity="0.5"><text transform="translate(639.11 174.31) scale(1.08 1)" font-size="14" fill="#fff" font-family="Rubik-Medium, Rubik" font-weight="500">UPLINE</text></g><g opacity="0.82"><text transform="translate(639.11 301.09) scale(1.08 1)" font-size="30" fill="#fff" font-family="Rubik-Medium, Rubik" font-weight="500">70%</text></g><g opacity="0.5"><path d="M243.79,388.05a5.35,5.35,0,1,0-5.35-5.35,5.35,5.35,0,0,0,5.35,5.35Z" fill="none" stroke="#fff" stroke-linecap="round" stroke-linejoin="round"/><path d="M235.79,401.42v-2.69a5.37,5.37,0,0,1,5.34-5.34h5.34a5.24,5.24,0,0,1,3.77,1.58,5.38,5.38,0,0,1,1.58,3.76v2.69" fill="none" stroke="#fff" stroke-linecap="round" stroke-linejoin="round"/><path d="M253.13,377.53a5.37,5.37,0,0,1,4,5.2,5.51,5.51,0,0,1-1.11,3.27,5.34,5.34,0,0,1-2.92,1.9" fill="none" stroke="#fff" stroke-linecap="round" stroke-linejoin="round"/><path d="M259.82,401.42v-2.69a5.32,5.32,0,0,0-1.14-3.24,5.23,5.23,0,0,0-2.92-1.9" fill="none" stroke="#fff" stroke-linecap="round" stroke-linejoin="round"/></g><text transform="translate(192.91 396.61)" font-size="24" fill="#fff" font-family="Rubik-Regular, Rubik" style="isolation:isolate">14</text><text transform="translate(610.68 404.75)" font-size="37.29" fill="#bd2463" font-family="Rubik-Medium, Rubik" font-weight="500">580%</text><text transform="translate(9.81 172.63)" opacity="0.58" font-size="22" fill="#fff" font-family="Rubik-Regular, Rubik">line 1, 2 sp<tspan x="104.17" y="0" letter-spacing="-0.01em">o</tspan><tspan x="116.71" y="0" xml:space="preserve">ts  </tspan></text><text transform="translate(0 293.43)" opacity="0.58" font-size="22" fill="#fff" font-family="Rubik-Regular, Rubik">line 3, 8 sp<tspan x="108.61" y="0" letter-spacing="-0.01em">o</tspan><tspan x="121.15" y="0" xml:space="preserve">ts   </tspan></text><g opacity="0.5"><text transform="translate(515.75 384.88)" font-size="20" fill="#fff" font-family="Rubik-Regular, Rubik">N<tspan x="13.88" y="0" letter-spacing="0em">e</tspan><tspan x="24.94" y="0">t p</tspan><tspan x="49.78" y="0" letter-spacing="-0.01em">r</tspan><tspan x="57.12" y="0" letter-spacing="-0.01em">o</tspan><tspan x="68.5" y="0">fit</tspan><tspan x="0" y="20">pe</tspan><tspan x="23.1" y="20" letter-spacing="-0.02em">r</tspan><tspan x="30.2" y="20"> </tspan><tspan x="35.08" y="20" letter-spacing="-0.02em">c</tspan><tspan x="45.86" y="20" letter-spacing="-0.02em">y</tspan><tspan x="56.6" y="20">cle</tspan></text></g><g opacity="0.5"><text transform="translate(276.45 384.88)" font-size="20" fill="#fff" font-family="Rubik-Regular, Rubik">Numbe<tspan x="66.72" y="0" letter-spacing="-0.02em">r</tspan><tspan x="73.82" y="0"> </tspan><tspan x="78.7" y="0" letter-spacing="-0.01em">o</tspan><tspan x="90.08" y="0" letter-spacing="-0.02em">f</tspan><tspan x="97.42" y="0" xml:space="preserve"> sp</tspan><tspan x="124.38" y="0" letter-spacing="-0.01em">o</tspan><tspan x="135.78" y="0">ts </tspan><tspan x="0" y="20">in</tspan><tspan x="16.96" y="20" letter-spacing="-0.02em"> </tspan><tspan x="21.42" y="20">the </tspan><tspan x="57.58" y="20" letter-spacing="-0.02em">c</tspan><tspan x="68.36" y="20" letter-spacing="-0.02em">y</tspan><tspan x="79.1" y="20">cle</tspan></text></g></svg>