<svg id="a98a0cf1-fab9-4cd0-8505-2e7f69031441" data-name="Слой 1" xmlns="http://www.w3.org/2000/svg" xmlns:xlink="http://www.w3.org/1999/xlink" viewBox="0 0 555.58 50.77"><defs><pattern id="e778663d-3c75-458c-beb1-644a0122ef5d" data-name="New Pattern Swatch 1" width="50.27" height="50.27" patternUnits="userSpaceOnUse" viewBox="0 0 50.27 50.27"><rect width="50.27" height="50.27" fill="none"/><rect width="50.27" height="50.27" fill="#f0ba10"/></pattern></defs><line x1="0.75" y1="17.11" x2="515.89" y2="17.11" fill="none" stroke="#fff" opacity="0.5" stroke-linejoin="round" stroke-width="1.5" stroke-dasharray="5.26 5.26" stroke-linecap="round"/><circle cx="450.07" cy="17.23" r="17.23" transform="translate(361.7 458.73) rotate(-80.78)" fill="#42ad4b"/><path d="M459.67,16.09A9.77,9.77,0,0,0,441,13.67m-.6-4.81v4.81h4.82" transform="translate(0.75)" fill="none" stroke="#fff" stroke-linecap="round" stroke-linejoin="round" stroke-width="2"/><path d="M440.38,18.5a9.77,9.77,0,0,0,18.69,2.41m.6,4.82V20.91h-4.82" transform="translate(0.75)" fill="none" stroke="#fff" stroke-linecap="round" stroke-linejoin="round" stroke-width="2"/><path d="M15,17.1A14.09,14.09,0,1,0,29.05,3,14.09,14.09,0,0,0,15,17.1Zm102.83,0A14.09,14.09,0,1,0,131.88,3,14.09,14.09,0,0,0,117.79,17.1Zm-58.53,0A14.09,14.09,0,1,0,73.35,3,14.09,14.09,0,0,0,59.26,17.1Zm102.83,0A14.09,14.09,0,1,0,176.18,3,14.09,14.09,0,0,0,162.09,17.1Zm113.55,0A14.09,14.09,0,1,0,289.73,3,14.09,14.09,0,0,0,275.64,17.1Zm103.45,0A14.09,14.09,0,1,0,393.18,3,14.09,14.09,0,0,0,379.09,17.1Zm-59.15,0A14.09,14.09,0,1,0,334,3,14.09,14.09,0,0,0,319.94,17.1Z" transform="translate(0.75)" fill="#f9b03d"/><text transform="translate(12.54 47.42)" font-size="13.41" font-family="Rubik-Medium, Rubik" font-weight="500" letter-spacing="0.01em" fill="url(#e778663d-3c75-458c-beb1-644a0122ef5d)">70%</text><text transform="translate(64.97 47.42)" font-size="13.41" font-family="Rubik-Medium, Rubik" font-weight="500" letter-spacing="0.01em" fill="url(#e778663d-3c75-458c-beb1-644a0122ef5d)">70%</text><text transform="translate(116.19 47.42)" font-size="13.41" font-family="Rubik-Medium, Rubik" font-weight="500" letter-spacing="0.01em" fill="url(#e778663d-3c75-458c-beb1-644a0122ef5d)">70%</text><text transform="translate(276.39 47.42)" font-size="13.41" font-family="Rubik-Medium, Rubik" font-weight="500" letter-spacing="0.01em" fill="url(#e778663d-3c75-458c-beb1-644a0122ef5d)">70%</text><text transform="translate(328.82 47.42)" font-size="13.41" font-family="Rubik-Medium, Rubik" font-weight="500" letter-spacing="0.01em" fill="url(#e778663d-3c75-458c-beb1-644a0122ef5d)">70%</text><text transform="translate(380.04 47.42)" font-size="13.41" font-family="Rubik-Medium, Rubik" font-weight="500" letter-spacing="0.01em" fill="url(#e778663d-3c75-458c-beb1-644a0122ef5d)">70%</text><text transform="translate(168.62 47.42)" font-size="13.41" font-family="Rubik-Medium, Rubik" font-weight="500" letter-spacing="0.01em" fill="url(#e778663d-3c75-458c-beb1-644a0122ef5d)">70%</text><text transform="translate(536.53 26.79)" font-size="30" fill="#fff" font-family="Rubik-Medium, Rubik" font-weight="500">3</text></svg>