<svg id="fbc24a3e-755c-4522-bf30-14e06331169a" data-name="Слой 1" xmlns="http://www.w3.org/2000/svg" xmlns:xlink="http://www.w3.org/1999/xlink" viewBox="0 0 150.35 90.47"><defs><pattern id="a9f52c9e-2be3-418c-8dfd-aec5a78f6579" data-name="New Pattern Swatch 1" width="50.27" height="50.27" patternTransform="translate(45 -6.46)" patternUnits="userSpaceOnUse" viewBox="0 0 50.27 50.27"><rect width="50.27" height="50.27" fill="none"/><rect width="50.27" height="50.27" fill="#f0ba10"/></pattern><pattern id="b9597233-9225-485f-82da-71a76355c1bb" data-name="New Pattern Swatch 1" width="50.27" height="50.27" patternUnits="userSpaceOnUse" viewBox="0 0 50.27 50.27"><rect width="50.27" height="50.27" fill="none"/><rect width="50.27" height="50.27" fill="#f0ba10"/></pattern></defs><text transform="translate(69.45 84.22)" font-size="25" fill="#fff" font-family="Rubik-Regular, Rubik" letter-spacing="0.01em">100%</text><circle cx="25.59" cy="25.59" r="25.09" fill="#fff" stroke="#a7a0cf" stroke-miterlimit="10"/><circle cx="74.21" cy="25.59" r="25.09" fill="#fff" stroke="#a7a0cf" stroke-miterlimit="10"/><circle cx="124.76" cy="25.59" r="25.09" fill="#fff" stroke="#a7a0cf" stroke-miterlimit="10"/><text transform="translate(16.21 36.41)" font-size="32" fill="#544c9a" font-family="Rubik-Medium, Rubik" font-weight="500" letter-spacing="0.01em">3</text><text transform="translate(63.68 36.41)" font-size="32" fill="#544c9a" font-family="Rubik-Medium, Rubik" font-weight="500" letter-spacing="0.01em">5</text><text transform="translate(111.1 36.41)" font-size="32" fill="#544c9a" font-family="Rubik-Medium, Rubik" font-weight="500" letter-spacing="0.01em">4</text><circle cx="35.43" cy="71.55" r="15.2" fill="url(#a9f52c9e-2be3-418c-8dfd-aec5a78f6579)"/><path d="M34.93,55.85a15.2,15.2,0,1,1-15.2,15.2A15.2,15.2,0,0,1,34.93,55.85Z" transform="translate(0.5 0.5)" fill-opacity="0.2" stroke="#fff" stroke-miterlimit="10" fill="url(#b9597233-9225-485f-82da-71a76355c1bb)"/><path d="M39.59,68.16V65.61a.9.9,0,0,0-.86-.86H30.19a1.72,1.72,0,0,0-1.72,1.71h0m0,0a1.75,1.75,0,0,0,.51,1.2,1.61,1.61,0,0,0,1.21.5H40.43a.88.88,0,0,1,.61.27.83.83,0,0,1,.25.59v2.56M28.47,66.5V76.74a1.72,1.72,0,0,0,1.72,1.72H40.43A.87.87,0,0,0,41,78.2a.86.86,0,0,0,.25-.6V75" transform="translate(0.5 0.5)" fill="none" stroke="#fff" stroke-linecap="round" stroke-linejoin="round"/><path d="M42.15,71.58V75H38.73a1.74,1.74,0,0,1-1.22-.5,1.71,1.71,0,0,1,0-2.41h0a1.8,1.8,0,0,1,1.22-.51Z" transform="translate(0.5 0.5)" fill="none" stroke="#fff" stroke-linecap="round" stroke-linejoin="round"/></svg>