<svg id="b39d2670-3260-48c0-9ffa-155d36321f23" data-name="Слой 1" xmlns="http://www.w3.org/2000/svg" xmlns:xlink="http://www.w3.org/1999/xlink" viewBox="0 0 690.71 649.66"><defs><pattern id="b73ecf47-098a-49ba-a129-d07237ccdad5" data-name="New Pattern Swatch 1" width="50.27" height="50.27" patternTransform="translate(-565.41 -1.36)" patternUnits="userSpaceOnUse" viewBox="0 0 50.27 50.27"><rect width="50.27" height="50.27" fill="none"/><rect width="50.27" height="50.27" fill="#f0ba10"/></pattern><pattern id="f99ed998-8be6-42c6-83d6-66f6011c6138" data-name="New Pattern Swatch 4" width="43.63" height="39.78" patternTransform="translate(-0.64 -13.56) scale(1.37)" patternUnits="userSpaceOnUse" viewBox="0 0 43.63 39.78"><rect width="43.63" height="39.78" fill="none"/><rect width="43.63" height="39.78" fill="#90c255"/></pattern></defs><rect y="462.25" width="690.71" height="185.45" rx="14.01" fill="#242526"/><text transform="translate(28.49 514.16)" font-size="30" fill="#fff" font-family="Rubik-Medium, Rubik" font-weight="500">L<tspan x="17.64" y="0" letter-spacing="-0.02em">e</tspan><tspan x="34.26" y="0" letter-spacing="-0.02em">v</tspan><tspan x="51.27" y="0">els:</tspan><tspan x="100.32" y="0" xml:space="preserve" fill="#a099cb"> 12</tspan><tspan x="139.2" y="0" fill="#544c9a"> </tspan><tspan x="146.04" y="0" xml:space="preserve" fill="url(#b73ecf47-098a-49ba-a129-d07237ccdad5)">      </tspan><tspan x="187.08" y="0">Lines:</tspan><tspan x="272.4" y="0" fill="#4462ac"> </tspan><tspan x="279.24" y="0" fill="#a099cb">2</tspan><tspan x="297.6" y="0" xml:space="preserve" fill="url(#b73ecf47-098a-49ba-a129-d07237ccdad5)">        </tspan><tspan x="352.31" y="0">Sp</tspan><tspan x="390.32" y="0" letter-spacing="-0.01em">o</tspan><tspan x="407.99" y="0">ts:</tspan><tspan x="444.95" y="0" fill="url(#b73ecf47-098a-49ba-a129-d07237ccdad5)"> </tspan><tspan x="451.79" y="0" fill="#a099cb">6</tspan><tspan fill="#a099cb"><tspan x="0" y="32">Line 1 - 2 sp</tspan><tspan x="169.65" y="32" letter-spacing="-0.01em">o</tspan><tspan x="187.32" y="32">ts</tspan><tspan x="0" y="64">Line 2 - 4 sp</tspan><tspan x="175.38" y="64" letter-spacing="-0.01em">o</tspan><tspan x="193.05" y="64">ts</tspan></tspan><tspan x="0" y="96">Yield pe</tspan><tspan x="114.36" y="96" letter-spacing="-0.02em">r</tspan><tspan x="126.24" y="96"> </tspan><tspan x="133.08" y="96" letter-spacing="-0.02em">c</tspan><tspan x="149.88" y="96" letter-spacing="-0.02em">y</tspan><tspan x="166.89" y="96">cle:</tspan><tspan x="217.65" y="96" xml:space="preserve" fill="url(#b73ecf47-098a-49ba-a129-d07237ccdad5)">  </tspan><tspan x="231.33" y="96" fill="#a099cb">300%</tspan></text><rect x="0.34" width="690.37" height="436.76" rx="14.01" fill="#544c9a"/><line x1="95.58" y1="172.28" x2="533.09" y2="172.28" fill="none" stroke="#fff" opacity="0.5" stroke-linejoin="round" stroke-width="1.5" stroke-dasharray="5.26 5.26" stroke-linecap="round"/><text transform="translate(305.8 73.34)" font-size="52" fill="#fff" font-family="Rubik-Medium, Rubik" font-weight="500">ID</text><text transform="translate(18.2 174.33)" font-size="22" fill="#fff" font-family="Rubik-Regular, Rubik">1 Line</text><text transform="translate(18.2 311.01)" font-size="22" fill="#fff" font-family="Rubik-Regular, Rubik">2 Line</text><text transform="translate(113.05 367.81)" font-size="22" fill="#fff" font-family="Rubik-Regular, Rubik" letter-spacing="0.01em">100%</text><text transform="translate(380.61 367.94)" font-size="22" fill="#fff" font-family="Rubik-Regular, Rubik" letter-spacing="0.01em">100%</text><text transform="translate(237.73 367.81)" font-size="22" fill="#fff" font-family="Rubik-Regular, Rubik" letter-spacing="0.01em">100%</text><text transform="translate(515.85 367.76)" font-size="20" font-family="Rubik-Regular, Rubik" letter-spacing="0.01em" fill="url(#f99ed998-8be6-42c6-83d6-66f6011c6138)">100%</text><text transform="translate(167.66 228.14)" font-size="20" fill="#a7a0cf" font-family="Rubik-Regular, Rubik" letter-spacing="0.01em">100%</text><text transform="translate(435.12 228.14)" font-size="20" fill="#a7a0cf" font-family="Rubik-Regular, Rubik" letter-spacing="0.01em">100%</text><path d="M506.22,357a12.75,12.75,0,0,0-24.62-.42m-1.48-6.16.7,6.25,6.25-.7" fill="none" stroke-linecap="round" stroke-linejoin="round" stroke-width="2" stroke="url(#f99ed998-8be6-42c6-83d6-66f6011c6138)"/><path d="M481.54,363a12.75,12.75,0,0,0,24.59.41m1.49,6.17-.7-6.26-6.26.7" fill="none" stroke-linecap="round" stroke-linejoin="round" stroke-width="2" stroke="url(#f99ed998-8be6-42c6-83d6-66f6011c6138)"/><circle cx="206.26" cy="166.33" r="38.6" fill="#a7a0cf"/><circle cx="266.44" cy="308.96" r="25.09" fill="#fff"/><circle cx="146.08" cy="308.96" r="25.09" fill="#fff"/><circle cx="465.87" cy="166.33" r="38.6" fill="#a7a0cf"/><line x1="95.58" y1="308.96" x2="588.14" y2="308.96" fill="none" stroke="#fff" opacity="0.5" stroke-linejoin="round" stroke-width="1.5" stroke-dasharray="5.26 5.26" stroke-linecap="round"/><circle cx="526.05" cy="308.96" r="25.09" fill="#a7a0cf"/><circle cx="405.7" cy="308.96" r="25.09" fill="#fff"/><circle cx="237.73" cy="136.85" r="15.2" fill="#9188c1"/><circle cx="237.73" cy="136.85" r="15.2" fill="none" stroke="#fff" stroke-miterlimit="10"/><path d="M237.73,129.81l-7,7" fill="none" stroke="#fff" stroke-linecap="round" stroke-linejoin="round" stroke-width="2"/><path d="M237.73,129.81v14.08" fill="none" stroke="#fff" stroke-linecap="round" stroke-linejoin="round" stroke-width="2"/><path d="M244.78,136.85l-7.05-7" fill="none" stroke="#fff" stroke-linecap="round" stroke-linejoin="round" stroke-width="2"/><circle cx="494.46" cy="136.85" r="15.2" fill="#9188c1"/><circle cx="494.46" cy="136.85" r="15.2" fill="none" stroke="#fff" stroke-miterlimit="10"/><path d="M494.46,129.81l-7,7" fill="none" stroke="#fff" stroke-linecap="round" stroke-linejoin="round" stroke-width="2"/><path d="M494.46,129.81v14.08" fill="none" stroke="#fff" stroke-linecap="round" stroke-linejoin="round" stroke-width="2"/><path d="M501.51,136.85l-7.05-7" fill="none" stroke="#fff" stroke-linecap="round" stroke-linejoin="round" stroke-width="2"/><text transform="translate(199.27 177.01)" font-size="32" fill="#544c9a" font-family="Rubik-Medium, Rubik" font-weight="500" letter-spacing="0.01em">1</text><text transform="translate(456.69 177.01)" font-size="32" fill="#544c9a" font-family="Rubik-Medium, Rubik" font-weight="500" letter-spacing="0.01em">2</text><text transform="translate(136.91 321.1)" font-size="32" fill="#544c9a" font-family="Rubik-Medium, Rubik" font-weight="500" letter-spacing="0.01em">3</text><text transform="translate(393.87 321.1)" font-size="32" fill="#544c9a" font-family="Rubik-Medium, Rubik" font-weight="500" letter-spacing="0.01em">4</text><text transform="translate(255.86 321.1)" font-size="32" fill="#544c9a" font-family="Rubik-Medium, Rubik" font-weight="500" letter-spacing="0.01em">5</text><text transform="translate(514.95 321.1)" font-size="32" fill="#fff" font-family="Rubik-Medium, Rubik" font-weight="500" letter-spacing="0.01em">6</text><path d="M554.76,302.15a29.64,29.64,0,0,0-57.23-1m-3.44-14.32,1.62,14.52,14.55-1.62" fill="none" stroke-linecap="round" stroke-linejoin="round" stroke-width="3" stroke="url(#f99ed998-8be6-42c6-83d6-66f6011c6138)"/><path d="M497.4,315.91a29.63,29.63,0,0,0,57.16,1M558,331.22l-1.63-14.55-14.55,1.63" fill="none" stroke-linecap="round" stroke-linejoin="round" stroke-width="3" stroke="url(#f99ed998-8be6-42c6-83d6-66f6011c6138)"/><text transform="translate(593.14 311.23)" font-size="31" fill="#fff" font-family="Rubik-Regular, Rubik" letter-spacing="0.01em">100%</text><text transform="translate(587.41 174.33)" font-size="27" fill="#fff" font-family="Rubik-Regular, Rubik" letter-spacing="0.01em">upline</text></svg>