<svg id="a71dbcb3-5d43-4126-9765-605695687fe8" data-name="Слой 1" xmlns="http://www.w3.org/2000/svg" viewBox="0 0 95.42 116.6"><path d="M20.63,96.5V91.75A1.67,1.67,0,0,0,19,90.16H3.19A3.19,3.19,0,0,0,0,93.35H0m0,0a3.16,3.16,0,0,0,.94,2.22,3,3,0,0,0,2.25.93h19a1.63,1.63,0,0,1,1.14.49,1.58,1.58,0,0,1,.45,1.11v4.75M0,93.42v19a3.18,3.18,0,0,0,3.19,3.18h19a1.58,1.58,0,0,0,1.14-.48,1.6,1.6,0,0,0,.45-1.11v-4.75" transform="translate(1)" fill="none" stroke="#fff" stroke-linecap="round" stroke-linejoin="round" stroke-width="2"/><path d="M25.38,102.85v6.34H19a3.19,3.19,0,0,1-2.25-.94,3.15,3.15,0,0,1,0-4.46h0a3.22,3.22,0,0,1,2.25-.93Z" transform="translate(1)" fill="none" stroke="#fff" stroke-linecap="round" stroke-linejoin="round" stroke-width="2"/><text transform="translate(39.67 110.72)" font-size="22" fill="#fff" font-family="Rubik-Regular, Rubik" letter-spacing="0.01em">100%</text><circle cx="41.49" cy="39.43" r="39.43" transform="translate(-3.08 74.07) rotate(-80.78)" fill="#fff"/><text transform="translate(36.09 50.89)" font-size="32" fill="#4563ac" font-family="Rubik-Medium, Rubik" font-weight="500" letter-spacing="0.01em">1</text></svg>