<svg id="e72135dc-dbfb-4d21-bfc2-78eaef030584" data-name="Слой 1" xmlns="http://www.w3.org/2000/svg" xmlns:xlink="http://www.w3.org/1999/xlink" viewBox="0 0 685.02 597.36"><defs><pattern id="b496871d-9753-4003-8534-848d0311a2b4" data-name="New Pattern Swatch 1" width="50.27" height="50.27" patternTransform="translate(-565.41 -1.36)" patternUnits="userSpaceOnUse" viewBox="0 0 50.27 50.27"><rect width="50.27" height="50.27" fill="none"/><rect width="50.27" height="50.27" fill="#f0ba10"/></pattern><pattern id="b9abb886-45b6-405a-8305-2baae4357a86" data-name="New Pattern Swatch 2" width="43.63" height="39.78" patternTransform="translate(-0.64 -13.56) scale(1.37)" patternUnits="userSpaceOnUse" viewBox="0 0 43.63 39.78"><rect width="43.63" height="39.78" fill="none"/><rect width="43.63" height="39.78" fill="#90c255"/></pattern></defs><rect y="447.25" width="670.3" height="150.11" rx="14.01" fill="#242526"/><rect y="86.78" width="670.3" height="329.16" rx="14.01" fill="#4462ac"/><text transform="translate(28.49 501.16)" font-size="30" fill="#fff" font-family="Rubik-Medium, Rubik" font-weight="500">L<tspan x="17.64" y="0" letter-spacing="-0.02em">e</tspan><tspan x="34.26" y="0" letter-spacing="-0.02em">v</tspan><tspan x="51.27" y="0">els:</tspan><tspan x="100.32" y="0" fill="url(#b496871d-9753-4003-8534-848d0311a2b4)"> </tspan><tspan x="107.16" y="0" fill="#4462ac">12</tspan><tspan x="139.2" y="0" xml:space="preserve" fill="url(#b496871d-9753-4003-8534-848d0311a2b4)">       </tspan><tspan x="187.08" y="0">Lines:</tspan><tspan x="272.4" y="0" xml:space="preserve" fill="#4462ac"> 1</tspan><tspan x="292.92" y="0" xml:space="preserve" fill="url(#b496871d-9753-4003-8534-848d0311a2b4)">         </tspan><tspan x="354.47" y="0">Sp</tspan><tspan x="392.48" y="0" letter-spacing="-0.01em">o</tspan><tspan x="410.15" y="0">ts:</tspan><tspan x="447.11" y="0" fill="url(#b496871d-9753-4003-8534-848d0311a2b4)"> </tspan><tspan x="453.95" y="0" fill="#4462ac">3</tspan><tspan x="0" y="48">Yield pe</tspan><tspan x="114.36" y="48" letter-spacing="-0.02em">r</tspan><tspan x="126.24" y="48"> </tspan><tspan x="133.08" y="48" letter-spacing="-0.02em">c</tspan><tspan x="149.88" y="48" letter-spacing="-0.02em">y</tspan><tspan x="166.89" y="48">cle:</tspan><tspan x="217.65" y="48" xml:space="preserve" fill="url(#b496871d-9753-4003-8534-848d0311a2b4)">  </tspan><tspan x="231.33" y="48" fill="#4462ac">200%</tspan></text><rect width="670.3" height="65.11" rx="14.02" fill="#242526"/><text transform="translate(284.68 42.92)" opacity="0.5" font-size="30" fill="#fff" font-family="Rubik-Medium, Rubik" font-weight="500">Upline</text><line x1="103.69" y1="279.06" x2="552.34" y2="279.06" fill="none" stroke="#fff" opacity="0.5" stroke-linejoin="round" stroke-width="1.5" stroke-dasharray="5.26 5.26" stroke-linecap="round"/><path d="M454,293h10a14,14,0,0,0,14-14V45.7a14,14,0,0,0-14-14H415.23" fill="none" stroke-linecap="round" stroke-linejoin="round" stroke-width="2" stroke="url(#b9abb886-45b6-405a-8305-2baae4357a86)"/><polygon points="420.85 24.27 417.7 31.68 420.85 39.08 403.29 31.68 420.85 24.27" fill="url(#b9abb886-45b6-405a-8305-2baae4357a86)"/><circle cx="180.97" cy="275.11" r="39.43" transform="translate(-119.58 409.68) rotate(-80.78)" fill="#fff"/><text transform="translate(295.38 156.12)" font-size="52" fill="#fff" font-family="Rubik-Medium, Rubik" font-weight="500">ID</text><path d="M490,268.75a18.17,18.17,0,0,0-35.09-.6m-2.11-8.78,1,8.9,8.92-1" fill="none" stroke-linecap="round" stroke-linejoin="round" stroke-width="2" stroke="url(#b9abb886-45b6-405a-8305-2baae4357a86)"/><path d="M454.79,277.19a18.17,18.17,0,0,0,35,.59m2.11,8.79-1-8.92-8.92,1" fill="none" stroke-linecap="round" stroke-linejoin="round" stroke-width="2" stroke="url(#b9abb886-45b6-405a-8305-2baae4357a86)"/><text transform="translate(29.85 281.11)" font-size="22" fill="#fff" font-family="Rubik-Regular, Rubik">1 Line</text><circle cx="326.86" cy="275.11" r="39.43" fill="#fff"/><text transform="translate(318.16 284.82)" font-size="32" fill="#4563ac" font-family="Rubik-Medium, Rubik" font-weight="500" letter-spacing="0.01em">2 </text><circle cx="476.69" cy="275.11" r="39.43" fill="#677fbf"/><text transform="translate(467.74 284.88)" font-size="32" fill="#fff" font-family="Rubik-Medium, Rubik" font-weight="500" letter-spacing="0.01em">3</text><path d="M516.52,265.83a39.69,39.69,0,0,0-76.65-1.31m-4.62-19.18,2.18,19.45,19.48-2.18" fill="none" stroke-linecap="round" stroke-linejoin="round" stroke-width="3" stroke="url(#b9abb886-45b6-405a-8305-2baae4357a86)"/><path d="M439.7,284.27a39.7,39.7,0,0,0,76.56,1.29m4.61,19.21-2.17-19.49-19.49,2.18" fill="none" stroke-linecap="round" stroke-linejoin="round" stroke-width="3" stroke="url(#b9abb886-45b6-405a-8305-2baae4357a86)"/><path d="M153.2,348.28v-4.75a1.67,1.67,0,0,0-1.59-1.6H135.76a3.19,3.19,0,0,0-3.19,3.19h0m0,0a3.19,3.19,0,0,0,.94,2.22,3.07,3.07,0,0,0,2.25.94h19a1.66,1.66,0,0,1,1.15.48,1.65,1.65,0,0,1,.45,1.11v4.75m-23.79-9.43v19a3.19,3.19,0,0,0,3.19,3.19h19a1.67,1.67,0,0,0,1.15-.49,1.61,1.61,0,0,0,.45-1.11V361" fill="none" stroke="#fff" stroke-linecap="round" stroke-linejoin="round" stroke-width="2"/><path d="M158,354.62V361h-6.34a3.23,3.23,0,0,1-2.26-.93,3.16,3.16,0,0,1,0-4.46h0a3.24,3.24,0,0,1,2.26-.94Z" fill="none" stroke="#fff" stroke-linecap="round" stroke-linejoin="round" stroke-width="2"/><text transform="translate(171.25 362.49)" font-size="22" fill="#fff" font-family="Rubik-Regular, Rubik" letter-spacing="0.01em">100%</text><text transform="translate(569.13 280.76)" font-size="31" fill="#fff" font-family="Rubik-Regular, Rubik" letter-spacing="0.01em">100%</text><path d="M300.39,348.24v-4.75a1.67,1.67,0,0,0-1.6-1.59H283a3.19,3.19,0,0,0-3.19,3.19h0m0,0a3.16,3.16,0,0,0,.94,2.22,3,3,0,0,0,2.25.93h19a1.63,1.63,0,0,1,1.14.49,1.57,1.57,0,0,1,.45,1.11v4.75m-23.78-9.43v19a3.19,3.19,0,0,0,3.19,3.19h19a1.58,1.58,0,0,0,1.14-.48,1.6,1.6,0,0,0,.45-1.11V361" fill="none" stroke="#fff" stroke-linecap="round" stroke-linejoin="round" stroke-width="2"/><path d="M305.14,354.59v6.34h-6.35a3.19,3.19,0,0,1-2.25-.94,3.15,3.15,0,0,1,0-4.46h0a3.22,3.22,0,0,1,2.25-.93Z" fill="none" stroke="#fff" stroke-linecap="round" stroke-linejoin="round" stroke-width="2"/><text transform="translate(318.43 362.46)" font-size="22" fill="#fff" font-family="Rubik-Regular, Rubik" letter-spacing="0.01em">100%</text><text transform="translate(174.57 286.57)" font-size="32" fill="#4563ac" font-family="Rubik-Medium, Rubik" font-weight="500" letter-spacing="0.01em">1</text><text transform="translate(475.17 364.2)" font-size="22" font-family="Rubik-Regular, Rubik" letter-spacing="0.01em" fill="url(#b9abb886-45b6-405a-8305-2baae4357a86)">100%</text><path d="M456.7,351.65a12.74,12.74,0,0,0-24.61-.42m-1.49-6.16.7,6.25,6.26-.7" fill="none" stroke-linecap="round" stroke-linejoin="round" stroke-width="2" stroke="url(#b9abb886-45b6-405a-8305-2baae4357a86)"/><path d="M432,357.58a12.75,12.75,0,0,0,24.59.41m1.48,6.17-.7-6.26-6.25.7" fill="none" stroke-linecap="round" stroke-linejoin="round" stroke-width="2" stroke="url(#b9abb886-45b6-405a-8305-2baae4357a86)"/></svg>