<svg id="a3d20d81-e1d6-4e83-8e01-720b9c0b1c8c" data-name="Слой 1" xmlns="http://www.w3.org/2000/svg" xmlns:xlink="http://www.w3.org/1999/xlink" viewBox="0 0 101.33 125.79"><defs><pattern id="a106f732-b931-411d-ac7a-a92993c61f6a" data-name="New Pattern Swatch 4" width="43.63" height="39.78" patternTransform="translate(-0.64 -13.56) scale(1.37)" patternUnits="userSpaceOnUse" viewBox="0 0 43.63 39.78"><rect width="43.63" height="39.78" fill="none"/><rect width="43.63" height="39.78" fill="#90c255"/></pattern></defs><text transform="translate(45.58 118.82)" font-size="22" font-family="Rubik-Regular, Rubik" letter-spacing="0.01em" fill="url(#a106f732-b931-411d-ac7a-a92993c61f6a)">100%</text><g opacity="0.5"><circle cx="43.94" cy="40.84" r="39.43" fill="#fff"/></g><text transform="translate(34.98 50.61)" font-size="32" fill="#fff" font-family="Rubik-Medium, Rubik" font-weight="500" letter-spacing="0.01em">3</text><path d="M81.27,30.15A39.7,39.7,0,0,0,4.61,28.84M0,9.66,2.18,29.11l19.48-2.18" transform="translate(1.5 1.41)" fill="none" stroke-linecap="round" stroke-linejoin="round" stroke-width="3" stroke="url(#a106f732-b931-411d-ac7a-a92993c61f6a)"/><path d="M4.44,48.59A39.7,39.7,0,0,0,81,49.88m4.62,19.21L83.44,49.6,64,51.78" transform="translate(1.5 1.41)" fill="none" stroke-linecap="round" stroke-linejoin="round" stroke-width="3" stroke="url(#a106f732-b931-411d-ac7a-a92993c61f6a)"/><path d="M27.62,107.87A12.75,12.75,0,0,0,3,107.45m-1.48-6.16.7,6.24,6.26-.69" transform="translate(1.5 1.41)" fill="none" stroke-linecap="round" stroke-linejoin="round" stroke-width="2" stroke="url(#a106f732-b931-411d-ac7a-a92993c61f6a)"/><path d="M3,113.79a12.74,12.74,0,0,0,24.58.41M29,120.37l-.7-6.25-6.26.7" transform="translate(1.5 1.41)" fill="none" stroke-linecap="round" stroke-linejoin="round" stroke-width="2" stroke="url(#a106f732-b931-411d-ac7a-a92993c61f6a)"/></svg>