<svg id="e7b311f7-9489-481f-9e5b-92ded616e4d7" data-name="Слой 1" xmlns="http://www.w3.org/2000/svg" xmlns:xlink="http://www.w3.org/1999/xlink" viewBox="0 0 897.79 781.84"><defs><pattern id="e51b52c7-ff58-49de-a67f-f83cdd8a7620" data-name="New Pattern Swatch 1" width="50.27" height="50.27" patternTransform="translate(-565.41 -1.36)" patternUnits="userSpaceOnUse" viewBox="0 0 50.27 50.27"><rect width="50.27" height="50.27" fill="none"/><rect width="50.27" height="50.27" fill="#f0ba10"/></pattern><pattern id="a6f7d9cb-4916-4d70-941b-aaab7809f014" data-name="New Pattern Swatch 2" width="43.63" height="39.78" patternTransform="translate(-0.64 -13.56) scale(1.37)" patternUnits="userSpaceOnUse" viewBox="0 0 43.63 39.78"><rect width="43.63" height="39.78" fill="none"/><rect width="43.63" height="39.78" fill="#90c255"/></pattern></defs><rect y="547.8" width="897.79" height="234.04" rx="14.01" fill="#242526"/><text transform="translate(29.31 597.77) scale(1.03 1)" font-size="30" fill="#fff" font-family="Rubik-Medium, Rubik" font-weight="500">L<tspan x="17.64" y="0" letter-spacing="-0.02em">e</tspan><tspan x="34.26" y="0" letter-spacing="-0.02em">v</tspan><tspan x="51.27" y="0">els:</tspan><tspan x="100.32" y="0" fill="#a099cb"> </tspan><tspan x="107.16" y="0" fill="#d877ae">12</tspan><tspan x="139.2" y="0" fill="#544c9a"> </tspan><tspan x="146.04" y="0" xml:space="preserve" fill="url(#e51b52c7-ff58-49de-a67f-f83cdd8a7620)">      </tspan><tspan x="187.08" y="0">Lines:</tspan><tspan x="272.4" y="0" fill="#4462ac"> </tspan><tspan x="279.23" y="0" fill="#d877ae">3</tspan><tspan x="298.28" y="0" fill="#544c9a"> </tspan><tspan x="305.12" y="0" xml:space="preserve" fill="url(#e51b52c7-ff58-49de-a67f-f83cdd8a7620)">       </tspan><tspan x="353" y="0">Sp</tspan><tspan x="391.01" y="0" letter-spacing="-0.01em">o</tspan><tspan x="408.68" y="0">ts:</tspan><tspan x="445.64" y="0" fill="url(#e51b52c7-ff58-49de-a67f-f83cdd8a7620)"> </tspan><tspan x="452.48" y="0" fill="#d877ae">14</tspan><tspan fill="#d877ae"><tspan x="0" y="38">Line 1 — 2 sp</tspan><tspan x="178.05" y="38" letter-spacing="-0.01em">o</tspan><tspan x="195.72" y="38">ts </tspan><tspan x="231.33" y="38" letter-spacing="-0.02em">(</tspan><tspan x="241.71" y="38">to</tspan><tspan x="272.73" y="38" letter-spacing="-0.02em"> </tspan><tspan x="278.97" y="38">the upline partne</tspan><tspan x="527.75" y="38" letter-spacing="-0.04em">r</tspan><tspan x="539.03" y="38">)</tspan><tspan x="0" y="76">Line 2 — 4 sp</tspan><tspan x="183.78" y="76" letter-spacing="-0.01em">o</tspan><tspan x="201.45" y="76">ts (30%)</tspan><tspan x="0" y="114">Line 3 — 8 sp</tspan><tspan x="184.56" y="114" letter-spacing="-0.01em">o</tspan><tspan x="202.23" y="114">ts (70%)</tspan></tspan><tspan x="0" y="152">Yield pe</tspan><tspan x="114.36" y="152" letter-spacing="-0.02em">r</tspan><tspan x="126.24" y="152"> </tspan><tspan x="133.08" y="152" letter-spacing="-0.02em">c</tspan><tspan x="149.88" y="152" letter-spacing="-0.02em">y</tspan><tspan x="166.89" y="152">cle:</tspan><tspan x="217.65" y="152" xml:space="preserve" fill="#d877ae">  580%</tspan></text><path d="M733,508.76H-138c-7,0-12.61-6.71-12.61-25.66V7.24C-150.58,9.66-144.93,3-138,3H733c7,0,12.62,6.7,12.62,4.28V483.1C745.62,502.05,740,508.76,733,508.76Z" transform="translate(152.16 -2.96)" fill="#cc3d8f"/><line x1="32.05" y1="153.28" x2="853.2" y2="153.28" fill="none" stroke="#fff" opacity="0.5" stroke-linejoin="round" stroke-width="1.5" stroke-dasharray="5.26 5.26" stroke-linecap="round"/><circle cx="265.66" cy="154.29" r="39.64" fill="#e4a9cd"/><circle cx="600.97" cy="154.29" r="39.64" fill="#e4a9cd"/><text transform="translate(33.3 140.37)" font-size="22" fill="#fff" font-family="Rubik-Regular, Rubik">1 Line</text><text transform="translate(33.5 261.89)" font-size="22" fill="#fff" font-family="Rubik-Regular, Rubik">2 Line</text><text transform="translate(30.04 387.68)" font-size="22" fill="#fff" font-family="Rubik-Regular, Rubik">3 Line</text><text transform="translate(697.21 354.02)" font-size="22" font-family="Rubik-Regular, Rubik" letter-spacing="0.01em" fill="url(#a6f7d9cb-4916-4d70-941b-aaab7809f014)">70%</text><text transform="translate(648.59 230.99)" font-size="22" font-family="Rubik-Regular, Rubik" letter-spacing="0.01em" fill="url(#a6f7d9cb-4916-4d70-941b-aaab7809f014)">30%</text><line x1="34.79" y1="269.96" x2="856.76" y2="269.96" fill="none" stroke="#fff" opacity="0.5" stroke-linejoin="round" stroke-width="1.5" stroke-dasharray="5.26 5.26" stroke-linecap="round"/><line x1="34.79" y1="394.87" x2="837.82" y2="394.87" fill="none" stroke="#fff" opacity="0.5" stroke-linejoin="round" stroke-width="1.5" stroke-dasharray="5.26 5.26" stroke-linecap="round"/><text transform="translate(431.54 70.93)" font-size="52" fill="#fff" font-family="Rubik-Medium, Rubik" font-weight="500">ID</text><path d="M195.48,239.27a35.37,35.37,0,1,1-35.37,35.37A35.37,35.37,0,0,1,195.48,239.27ZM25.64,309.58A35.37,35.37,0,1,0-3.61,269,35.37,35.37,0,0,0,25.64,309.58ZM-26.6,396.39a22.5,22.5,0,0,0,22.5,22.5,22.51,22.51,0,0,0,22.5-22.5,22.5,22.5,0,0,0-22.5-22.5A22.5,22.5,0,0,0-26.6,396.39Zm164.21,0a22.5,22.5,0,1,0,22.5-22.5A22.5,22.5,0,0,0,137.61,396.39Zm-93.47,0a22.5,22.5,0,1,0,22.5-22.5A22.5,22.5,0,0,0,44.14,396.39Zm164.21,0a22.5,22.5,0,1,0,22.5-22.5A22.5,22.5,0,0,0,208.35,396.39Z" transform="translate(152.16 -2.96)" fill="#fff"/><text transform="translate(257.66 164.78)" font-size="32" fill="#cc3d8f" font-family="Rubik-Medium, Rubik" font-weight="500" letter-spacing="0.01em">1</text><text transform="translate(174.29 283.95)" font-size="32" fill="#cc3d8f" font-family="Rubik-Medium, Rubik" font-weight="500" letter-spacing="0.01em">3</text><text transform="translate(336.97 283.95)" font-size="32" fill="#cc3d8f" font-family="Rubik-Medium, Rubik" font-weight="500" letter-spacing="0.01em">5</text><text transform="translate(140.96 400.72)" font-size="23" fill="#cc3d8f" font-family="Rubik-Medium, Rubik" font-weight="500" letter-spacing="0.01em">7</text><text transform="translate(207.17 402.43)" font-size="23" fill="#cc3d8f" font-family="Rubik-Medium, Rubik" font-weight="500" letter-spacing="0.01em">11</text><text transform="translate(305.5 402.43)" font-size="23" fill="#cc3d8f" font-family="Rubik-Medium, Rubik" font-weight="500" letter-spacing="0.01em">9</text><text transform="translate(369.45 402.43)" font-size="23" fill="#cc3d8f" font-family="Rubik-Medium, Rubik" font-weight="500" letter-spacing="0.01em">13</text><circle cx="296.15" cy="124.89" r="15.2" fill="#9188c1"/><circle cx="296.15" cy="124.89" r="15.2" fill="none" stroke="#fff" stroke-miterlimit="10"/><path d="M144,120.81l-7.05,7" transform="translate(152.16 -2.96)" fill="none" stroke="#fff" stroke-linecap="round" stroke-linejoin="round" stroke-width="2"/><path d="M144,120.81V134.9" transform="translate(152.16 -2.96)" fill="none" stroke="#fff" stroke-linecap="round" stroke-linejoin="round" stroke-width="2"/><path d="M151,127.86l-7-7" transform="translate(152.16 -2.96)" fill="none" stroke="#fff" stroke-linecap="round" stroke-linejoin="round" stroke-width="2"/><circle cx="726.55" cy="392.93" r="23.79" fill="#e4a9cd"/><path d="M601.6,389.43a28.09,28.09,0,0,0-54.25-.92m-3.27-13.58,1.54,13.77,13.79-1.54" transform="translate(152.16 -2.96)" fill="none" stroke-linecap="round" stroke-linejoin="round" stroke-width="3" stroke="url(#a6f7d9cb-4916-4d70-941b-aaab7809f014)"/><path d="M547.22,402.49a28.1,28.1,0,0,0,54.19.91m3.27,13.6-1.54-13.8-13.79,1.55" transform="translate(152.16 -2.96)" fill="none" stroke-linecap="round" stroke-linejoin="round" stroke-width="3" stroke="url(#a6f7d9cb-4916-4d70-941b-aaab7809f014)"/><circle cx="687.36" cy="271.42" r="30.43" fill="#e4a9cd"/><path d="M570,266.11a35.94,35.94,0,0,0-69.4-1.18m-4.18-17.37,2,17.62,17.64-2" transform="translate(152.16 -2.96)" fill="none" stroke-linecap="round" stroke-linejoin="round" stroke-width="3" stroke="url(#a6f7d9cb-4916-4d70-941b-aaab7809f014)"/><path d="M500.45,282.81A35.94,35.94,0,0,0,569.77,284M574,301.37l-2-17.64-17.64,2" transform="translate(152.16 -2.96)" fill="none" stroke-linecap="round" stroke-linejoin="round" stroke-width="3" stroke="url(#a6f7d9cb-4916-4d70-941b-aaab7809f014)"/><path d="M355.66,309.58A35.37,35.37,0,1,0,326.42,269,35.37,35.37,0,0,0,355.66,309.58Zm-52.24,86.81a22.5,22.5,0,1,0,22.5-22.5A22.5,22.5,0,0,0,303.42,396.39Zm165.21,0a22.5,22.5,0,1,0,22.5-22.5A22.5,22.5,0,0,0,468.63,396.39Zm-94.47,0a22.5,22.5,0,1,0,22.5-22.5A22.51,22.51,0,0,0,374.16,396.39Z" transform="translate(152.16 -2.96)" fill="#fff"/><text transform="translate(592.68 164.78)" font-size="32" fill="#cc3d8f" font-family="Rubik-Medium, Rubik" font-weight="500" letter-spacing="0.01em">2</text><text transform="translate(503.32 283.95)" font-size="32" fill="#cc3d8f" font-family="Rubik-Medium, Rubik" font-weight="500" letter-spacing="0.01em">4</text><text transform="translate(676.99 283.95)" font-size="32" fill="#cc3d8f" font-family="Rubik-Medium, Rubik" font-weight="500" letter-spacing="0.01em">6</text><text transform="translate(468.83 402.43)" font-size="23" fill="#cc3d8f" font-family="Rubik-Medium, Rubik" font-weight="500" letter-spacing="0.01em">8</text><text transform="translate(535.19 402.43)" font-size="23" fill="#cc3d8f" font-family="Rubik-Medium, Rubik" font-weight="500" letter-spacing="0.01em">12</text><text transform="translate(631.52 402.43)" font-size="23" fill="#cc3d8f" font-family="Rubik-Medium, Rubik" font-weight="500" letter-spacing="0.01em">10</text><text transform="translate(712.21 402.43)" font-size="23" fill="#cc3d8f" font-family="Rubik-Medium, Rubik" font-weight="500" letter-spacing="0.01em">14</text><circle cx="636.17" cy="124.89" r="15.2" fill="#9188c1"/><circle cx="636.17" cy="124.89" r="15.2" fill="none" stroke="#fff" stroke-miterlimit="10"/><path d="M484,120.81l-7,7" transform="translate(152.16 -2.96)" fill="none" stroke="#fff" stroke-linecap="round" stroke-linejoin="round" stroke-width="2"/><path d="M484,120.81V134.9" transform="translate(152.16 -2.96)" fill="none" stroke="#fff" stroke-linecap="round" stroke-linejoin="round" stroke-width="2"/><path d="M491.05,127.86l-7-7" transform="translate(152.16 -2.96)" fill="none" stroke="#fff" stroke-linecap="round" stroke-linejoin="round" stroke-width="2"/><text transform="translate(778.58 387.68)" font-size="35" fill="#fff" font-family="Rubik-Regular, Rubik" letter-spacing="0.01em">70%</text><text transform="translate(778.58 263.9)" font-size="35" fill="#fff" font-family="Rubik-Regular, Rubik" letter-spacing="0.01em">30%</text><text transform="translate(782.58 145.6)" font-size="26" fill="#fff" font-family="Rubik-Regular, Rubik" letter-spacing="0.01em">upline</text></svg>