<svg id="b8e0fd66-7aad-488b-96ff-6418eba36b77" data-name="Слой 1" xmlns="http://www.w3.org/2000/svg" xmlns:xlink="http://www.w3.org/1999/xlink" viewBox="0 0 553.89 74.8"><defs><pattern id="abf6e7cc-b606-4c89-9691-6cb7ecf95f61" data-name="New Pattern Swatch 1" width="50.27" height="50.27" patternUnits="userSpaceOnUse" viewBox="0 0 50.27 50.27"><rect width="50.27" height="50.27" fill="none"/><rect width="50.27" height="50.27" fill="#f0ba10"/></pattern></defs><line x1="0.75" y1="26.19" x2="515.89" y2="26.19" fill="none" stroke="#fff" opacity="0.5" stroke-linejoin="round" stroke-width="1.5" stroke-dasharray="5.26 5.26" stroke-linecap="round"/><circle cx="420.17" cy="22.17" r="22.15" transform="translate(331.73 433.36) rotate(-80.78)" fill="#42ad4b"/><text transform="translate(34.2 69.31)" font-size="21.95" font-family="Rubik-Medium, Rubik" font-weight="500" letter-spacing="0.01em" fill="url(#abf6e7cc-b606-4c89-9691-6cb7ecf95f61)">30%</text><text transform="translate(137.4 69.31)" font-size="21.95" font-family="Rubik-Medium, Rubik" font-weight="500" letter-spacing="0.01em" fill="url(#abf6e7cc-b606-4c89-9691-6cb7ecf95f61)">30%</text><text transform="translate(290.48 69.31)" font-size="21.95" font-family="Rubik-Medium, Rubik" font-weight="500" letter-spacing="0.01em" fill="url(#abf6e7cc-b606-4c89-9691-6cb7ecf95f61)">30%</text><path d="M432.52,20.69a12.55,12.55,0,0,0-24-3.1m-.77-6.19v6.19h6.2" transform="translate(0.75)" fill="none" stroke="#fff" stroke-linecap="round" stroke-linejoin="round" stroke-width="2"/><path d="M407.73,23.79a12.55,12.55,0,0,0,24,3.09m.78,6.2v-6.2h-6.2" transform="translate(0.75)" fill="none" stroke="#fff" stroke-linecap="round" stroke-linejoin="round" stroke-width="2"/><text transform="translate(535.53 30.13)" font-size="30" fill="#fff" font-family="Rubik-Medium, Rubik" font-weight="500">2</text><path d="M158.81,0a22.15,22.15,0,1,1-22.15,22.15A22.15,22.15,0,0,1,158.81,0ZM52.45,44A22.15,22.15,0,1,0,34.14,18.62,22.14,22.14,0,0,0,52.45,44Zm260.68,0a22.15,22.15,0,1,0-18.32-25.41A22.15,22.15,0,0,0,313.13,44Z" transform="translate(0.75)" fill="#f0ba10"/></svg>