<svg id="a200af9d-4b3e-4c1e-a312-ca00a51630a5" data-name="Слой 1" xmlns="http://www.w3.org/2000/svg" xmlns:xlink="http://www.w3.org/1999/xlink" viewBox="0 0 238.67 79.1"><defs><pattern id="a2d27377-4060-4f1c-8ac7-a13dd88b1fab" data-name="New Pattern Swatch 2" width="43.63" height="39.78" patternTransform="translate(-0.64 -13.56) scale(1.37)" patternUnits="userSpaceOnUse" viewBox="0 0 43.63 39.78"><rect width="43.63" height="39.78" fill="none"/><rect width="43.63" height="39.78" fill="#90c255"/></pattern></defs><text transform="translate(152.15 22.15)" font-size="26.06" font-family="Rubik-Regular, Rubik" letter-spacing="0.01em" fill="url(#a2d27377-4060-4f1c-8ac7-a13dd88b1fab)">50%</text><text transform="translate(46.08 22.15)" font-size="26.06" font-family="Rubik-Regular, Rubik" letter-spacing="0.01em" fill="url(#a2d27377-4060-4f1c-8ac7-a13dd88b1fab)">50%</text><line x1="0.75" y1="61.79" x2="237.92" y2="61.79" fill="none" stroke="#fff" opacity="0.5" stroke-linejoin="round" stroke-width="1.5" stroke-dasharray="5.26 5.26" stroke-linecap="round"/><circle cx="69.36" cy="57.28" r="17.76" fill="#fbcd9f"/><path d="M87.78,46.31a20.45,20.45,0,0,0-39.5-.67M45.9,35.75l1.12,10,10-1.13" transform="translate(0.75 6.4)" fill="none" stroke-linecap="round" stroke-linejoin="round" stroke-width="3" stroke="url(#a2d27377-4060-4f1c-8ac7-a13dd88b1fab)"/><path d="M48.19,55.81a20.45,20.45,0,0,0,39.45.66M90,66.37l-1.12-10-10,1.13" transform="translate(0.75 6.4)" fill="none" stroke-linecap="round" stroke-linejoin="round" stroke-width="3" stroke="url(#a2d27377-4060-4f1c-8ac7-a13dd88b1fab)"/><circle cx="175.14" cy="57.28" r="17.76" fill="#fbcd9f"/><path d="M193.28,46.31a20.45,20.45,0,0,0-39.5-.67m-2.37-9.89,1.12,10,10-1.13" transform="translate(0.75 6.4)" fill="none" stroke-linecap="round" stroke-linejoin="round" stroke-width="3" stroke="url(#a2d27377-4060-4f1c-8ac7-a13dd88b1fab)"/><path d="M153.7,55.81a20.45,20.45,0,0,0,39.44.66m2.38,9.9-1.12-10-10,1.13" transform="translate(0.75 6.4)" fill="none" stroke-linecap="round" stroke-linejoin="round" stroke-width="3" stroke="url(#a2d27377-4060-4f1c-8ac7-a13dd88b1fab)"/></svg>