<svg id="ba7a43f4-f672-4251-8fdd-6921f19e3eda" data-name="Слой 1" xmlns="http://www.w3.org/2000/svg" xmlns:xlink="http://www.w3.org/1999/xlink" viewBox="0 0 931.38 810.26"><defs><pattern id="ad41c092-d673-4be7-abf8-7cc3374ae1ad" data-name="New Pattern Swatch 1" width="50.27" height="50.27" patternTransform="translate(-565.41 -1.36)" patternUnits="userSpaceOnUse" viewBox="0 0 50.27 50.27"><rect width="50.27" height="50.27" fill="none"/><rect width="50.27" height="50.27" fill="#f0ba10"/></pattern><pattern id="e267a0fe-84b2-4f40-ae53-72705618da61" data-name="New Pattern Swatch 2" width="43.63" height="39.78" patternTransform="translate(-0.64 -13.56) scale(1.37)" patternUnits="userSpaceOnUse" viewBox="0 0 43.63 39.78"><rect width="43.63" height="39.78" fill="none"/><rect width="43.63" height="39.78" fill="#90c255"/></pattern></defs><rect x="0.63" y="536.8" width="930.74" height="273.45" rx="14.01" fill="#242526"/><text transform="translate(28.25 586.77)" font-size="30" fill="#fff" font-family="Rubik-Medium, Rubik" font-weight="500">L<tspan x="17.64" y="0" letter-spacing="-0.02em">e</tspan><tspan x="34.26" y="0" letter-spacing="-0.02em">v</tspan><tspan x="51.27" y="0">els:</tspan><tspan x="100.32" y="0" fill="#a099cb"> </tspan><tspan x="107.16" y="0" fill="#f9b977">15</tspan><tspan x="139.14" y="0" fill="#544c9a"> </tspan><tspan x="145.98" y="0" xml:space="preserve" fill="url(#ad41c092-d673-4be7-abf8-7cc3374ae1ad)">      </tspan><tspan x="187.02" y="0">Lines:</tspan><tspan x="272.34" y="0" fill="#4462ac"> </tspan><tspan x="279.18" y="0" fill="#f9b977">4</tspan><tspan x="298.59" y="0" fill="#544c9a"> </tspan><tspan x="305.43" y="0" xml:space="preserve" fill="url(#ad41c092-d673-4be7-abf8-7cc3374ae1ad)">       </tspan><tspan x="353.3" y="0">Sp</tspan><tspan x="391.31" y="0" letter-spacing="-0.01em">o</tspan><tspan x="408.98" y="0">ts:</tspan><tspan x="445.94" y="0" fill="url(#ad41c092-d673-4be7-abf8-7cc3374ae1ad)"> </tspan><tspan x="452.78" y="0" xml:space="preserve" fill="#f9b977"> 30</tspan><tspan fill="#f59f47"><tspan x="0" y="38">Line 1 — 2 sp</tspan><tspan x="178.05" y="38" letter-spacing="-0.01em">o</tspan><tspan x="195.72" y="38">ts </tspan><tspan x="231.33" y="38" letter-spacing="-0.02em">(</tspan><tspan x="241.71" y="38">to</tspan><tspan x="272.73" y="38" letter-spacing="-0.02em"> </tspan><tspan x="278.97" y="38">the upline partne</tspan><tspan x="527.75" y="38" letter-spacing="-0.04em">r</tspan><tspan x="539.04" y="38">)</tspan><tspan x="0" y="76">Line 2 — 4 sp</tspan><tspan x="183.78" y="76" letter-spacing="-0.01em">o</tspan><tspan x="201.45" y="76">ts (20%)</tspan><tspan x="0" y="114">Line 3 — 8 sp</tspan><tspan x="184.56" y="114" letter-spacing="-0.01em">o</tspan><tspan x="202.23" y="114">ts (30%)</tspan><tspan x="0" y="152">Line 4 — 16 sp</tspan><tspan x="197.7" y="152" letter-spacing="-0.01em">o</tspan><tspan x="215.37" y="152">ts (50%)</tspan></tspan><tspan x="0" y="190">Yield pe</tspan><tspan x="114.36" y="190" letter-spacing="-0.02em">r</tspan><tspan x="126.24" y="190"> </tspan><tspan x="133.08" y="190" letter-spacing="-0.02em">c</tspan><tspan x="149.88" y="190" letter-spacing="-0.02em">y</tspan><tspan x="166.89" y="190">cle:</tspan><tspan x="217.65" y="190" xml:space="preserve" fill="#d877ae">  </tspan><tspan x="231.33" y="190" fill="#f9b977">1020%</tspan></text><path d="M918.26,505.79H13.11C5.87,505.79,0,499.09,0,480.14V4.28C0,6.7,5.87,0,13.11,0H918.26c7.25,0,13.12,6.7,13.12,4.28V480.14C931.38,499.09,925.51,505.79,918.26,505.79Z" fill="#f59f47"/><line x1="30.47" y1="132.28" x2="881.23" y2="132.28" fill="none" stroke="#fff" opacity="0.5" stroke-linejoin="round" stroke-width="1.5" stroke-dasharray="5.26 5.26" stroke-linecap="round"/><circle cx="264.08" cy="133.29" r="39.64" fill="#fbcd9f"/><circle cx="609.39" cy="133.29" r="39.64" fill="#fbcd9f"/><text transform="translate(31.72 119.37)" font-size="22" fill="#fff" font-family="Rubik-Regular, Rubik">1 Line</text><text transform="translate(31.92 240.89)" font-size="22" fill="#fff" font-family="Rubik-Regular, Rubik">2 Line</text><text transform="translate(28.46 366.68)" font-size="22" fill="#fff" font-family="Rubik-Regular, Rubik">3 Line</text><text transform="translate(755.23 427)" font-size="15" font-family="Rubik-Regular, Rubik" letter-spacing="0.01em" fill="url(#e267a0fe-84b2-4f40-ae53-72705618da61)">50%</text><text transform="translate(401.06 427)" font-size="15" font-family="Rubik-Regular, Rubik" letter-spacing="0.01em" fill="url(#e267a0fe-84b2-4f40-ae53-72705618da61)">50%</text><line x1="33.31" y1="248.96" x2="884.92" y2="248.96" fill="none" stroke="#fff" opacity="0.5" stroke-linejoin="round" stroke-width="1.5" stroke-dasharray="5.26 5.26" stroke-linecap="round"/><line x1="33.21" y1="373.87" x2="884.92" y2="373.87" fill="none" stroke="#fff" opacity="0.5" stroke-linejoin="round" stroke-width="1.5" stroke-dasharray="5.26 5.26" stroke-linecap="round"/><text transform="translate(29.71 442.62)" font-size="22" fill="#fff" font-family="Rubik-Regular, Rubik">4 Line</text><line x1="34.54" y1="449.8" x2="886.24" y2="449.8" fill="none" stroke="#fff" opacity="0.5" stroke-linejoin="round" stroke-width="1.5" stroke-dasharray="5.26 5.26" stroke-linecap="round"/><text transform="translate(429.96 59.93)" font-size="52" fill="#fff" font-family="Rubik-Medium, Rubik" font-weight="500">ID</text><path d="M349.06,215.31a35.37,35.37,0,1,1-35.37,35.37A35.36,35.36,0,0,1,349.06,215.31ZM178.22,285.62A35.37,35.37,0,1,0,149,245,35.38,35.38,0,0,0,178.22,285.62ZM124,372.43a22.5,22.5,0,1,0,22.5-22.5A22.5,22.5,0,0,0,124,372.43Zm164.21,0a22.5,22.5,0,1,0,22.5-22.5A22.5,22.5,0,0,0,288.19,372.43Zm-83.47,0a22.5,22.5,0,1,0,22.5-22.5A22.51,22.51,0,0,0,204.72,372.43Zm166.21,0a22.5,22.5,0,1,0,22.5-22.5A22.51,22.51,0,0,0,370.93,372.43Z" fill="#fff"/><text transform="translate(256.08 143.78)" font-size="32" fill="#e28b03" font-family="Rubik-Medium, Rubik" font-weight="500" letter-spacing="0.01em">1</text><text transform="translate(172.71 262.95)" font-size="32" fill="#f59f47" font-family="Rubik-Medium, Rubik" font-weight="500" letter-spacing="0.01em">3</text><text transform="translate(338.38 262.95)" font-size="32" fill="#f59f47" font-family="Rubik-Medium, Rubik" font-weight="500" letter-spacing="0.01em">5</text><text transform="translate(139.38 379.72)" font-size="23" fill="#f59f47" font-family="Rubik-Medium, Rubik" font-weight="500" letter-spacing="0.01em">7</text><text transform="translate(214.59 381.43)" font-size="23" fill="#f59f47" font-family="Rubik-Medium, Rubik" font-weight="500" letter-spacing="0.01em">11</text><text transform="translate(303.92 381.43)" font-size="23" fill="#f59f47" font-family="Rubik-Medium, Rubik" font-weight="500" letter-spacing="0.01em">9</text><text transform="translate(113.01 479.17)" font-size="18" fill="#fff" font-family="Rubik-Medium, Rubik" font-weight="500" letter-spacing="0.01em">15</text><text transform="translate(152.34 479.17)" font-size="18" fill="#fff" font-family="Rubik-Medium, Rubik" font-weight="500" letter-spacing="0.01em">23</text><text transform="translate(194.9 479.17)" font-size="18" fill="#fff" font-family="Rubik-Medium, Rubik" font-weight="500" letter-spacing="0.01em">19</text><text transform="translate(234.88 479.17)" font-size="18" fill="#fff" font-family="Rubik-Medium, Rubik" font-weight="500" letter-spacing="0.01em">27</text><text transform="translate(282.15 479.17)" font-size="18" fill="#fff" font-family="Rubik-Medium, Rubik" font-weight="500" letter-spacing="0.01em">17</text><text transform="translate(321.16 479.17)" font-size="18" fill="#fff" font-family="Rubik-Medium, Rubik" font-weight="500" letter-spacing="0.01em">25</text><text transform="translate(363.42 479.17)" font-size="18" fill="#fff" font-family="Rubik-Medium, Rubik" font-weight="500" letter-spacing="0.01em">21</text><text transform="translate(402.96 479.17)" font-size="18" fill="#fff" font-family="Rubik-Medium, Rubik" font-weight="500" letter-spacing="0.01em">29</text><text transform="translate(464.54 479.17)" font-size="18" fill="#fff" font-family="Rubik-Medium, Rubik" font-weight="500" letter-spacing="0.01em">16</text><text transform="translate(501.86 479.17)" font-size="18" fill="#fff" font-family="Rubik-Medium, Rubik" font-weight="500" letter-spacing="0.01em">24</text><text transform="translate(546.68 479.17)" font-size="18" fill="#fff" font-family="Rubik-Medium, Rubik" font-weight="500" letter-spacing="0.01em">20</text><text transform="translate(583.58 479.17)" font-size="18" fill="#fff" font-family="Rubik-Medium, Rubik" font-weight="500" letter-spacing="0.01em">28</text><text transform="translate(636.77 479.17)" font-size="18" fill="#fff" font-family="Rubik-Medium, Rubik" font-weight="500" letter-spacing="0.01em">18</text><text transform="translate(676.6 479.17)" font-size="18" fill="#fff" font-family="Rubik-Medium, Rubik" font-weight="500" letter-spacing="0.01em">26</text><text transform="translate(717.54 479.17)" font-size="18" fill="#fff" font-family="Rubik-Medium, Rubik" font-weight="500" letter-spacing="0.01em">22</text><text transform="translate(757.85 479.17)" font-size="18" fill="#fff" font-family="Rubik-Medium, Rubik" font-weight="500" letter-spacing="0.01em">30</text><circle cx="294.57" cy="103.89" r="15.2" fill="#fbc58e"/><circle cx="294.57" cy="103.89" r="15.2" fill="none" stroke="#fff" stroke-miterlimit="10"/><path d="M294.57,96.85l-7,7" fill="none" stroke="#fff" stroke-linecap="round" stroke-linejoin="round" stroke-width="2"/><path d="M294.57,96.85v14.09" fill="none" stroke="#fff" stroke-linecap="round" stroke-linejoin="round" stroke-width="2"/><path d="M301.61,103.89l-7-7" fill="none" stroke="#fff" stroke-linecap="round" stroke-linejoin="round" stroke-width="2"/><circle cx="738.97" cy="371.93" r="23.79" fill="#fff"/><circle cx="699.78" cy="250.42" r="30.43" fill="#fff"/><path d="M516.25,285.62A35.37,35.37,0,1,0,487,245,35.38,35.38,0,0,0,516.25,285.62ZM467,372.43a22.5,22.5,0,1,0,22.5-22.5A22.51,22.51,0,0,0,467,372.43Zm170.21,0a22.5,22.5,0,1,0,22.5-22.5A22.51,22.51,0,0,0,637.21,372.43Zm-86.46,0a22.5,22.5,0,1,0,22.5-22.5A22.5,22.5,0,0,0,550.75,372.43Z" fill="#fff"/><text transform="translate(601.1 143.78)" font-size="32" fill="#e28b03" font-family="Rubik-Medium, Rubik" font-weight="500" letter-spacing="0.01em">2</text><text transform="translate(511.74 262.95)" font-size="32" fill="#f59f47" font-family="Rubik-Medium, Rubik" font-weight="500" letter-spacing="0.01em">4</text><text transform="translate(689.41 262.95)" font-size="32" fill="#f59f47" font-family="Rubik-Medium, Rubik" font-weight="500" letter-spacing="0.01em">6</text><text transform="translate(480.24 381.43)" font-size="23" fill="#f59f47" font-family="Rubik-Medium, Rubik" font-weight="500" letter-spacing="0.01em">8</text><text transform="translate(559.61 381.43)" font-size="23" fill="#f59f47" font-family="Rubik-Medium, Rubik" font-weight="500" letter-spacing="0.01em">12</text><text transform="translate(380.05 381.43)" font-size="23" fill="#f59f47" font-family="Rubik-Medium, Rubik" font-weight="500" letter-spacing="0.01em">13</text><text transform="translate(645.94 381.43)" font-size="23" fill="#f59f47" font-family="Rubik-Medium, Rubik" font-weight="500" letter-spacing="0.01em">10</text><text transform="translate(724.63 381.43)" font-size="23" fill="#f59f47" font-family="Rubik-Medium, Rubik" font-weight="500" letter-spacing="0.01em">14</text><circle cx="644.59" cy="103.89" r="15.2" fill="#fbc58e"/><circle cx="644.59" cy="103.89" r="15.2" fill="none" stroke="#fff" stroke-miterlimit="10"/><path d="M644.59,96.85l-7,7" fill="none" stroke="#fff" stroke-linecap="round" stroke-linejoin="round" stroke-width="2"/><path d="M644.59,96.85v14.09" fill="none" stroke="#fff" stroke-linecap="round" stroke-linejoin="round" stroke-width="2"/><path d="M651.64,103.89l-7-7" fill="none" stroke="#fff" stroke-linecap="round" stroke-linejoin="round" stroke-width="2"/><circle cx="122.8" cy="447.21" r="10.22" fill="#fff"/><circle cx="204.55" cy="447.21" r="10.22" fill="#fff"/><circle cx="291.3" cy="447.21" r="10.22" fill="#fff"/><circle cx="373.05" cy="447.21" r="10.22" fill="#fff"/><circle cx="475.33" cy="447.21" r="10.22" fill="#fff"/><circle cx="557.08" cy="447.21" r="10.22" fill="#fff"/><circle cx="645.83" cy="447.21" r="10.22" fill="#fff"/><circle cx="727.58" cy="447.21" r="10.22" fill="#fff"/><path d="M425.49,444.58a11.77,11.77,0,0,0-22.73-.39m-1.37-5.69.65,5.77,5.78-.64" fill="none" stroke-linecap="round" stroke-linejoin="round" stroke-width="3" stroke="url(#e267a0fe-84b2-4f40-ae53-72705618da61)"/><path d="M402.71,450.05a11.77,11.77,0,0,0,22.7.38m1.37,5.7-.64-5.78-5.78.64" fill="none" stroke-linecap="round" stroke-linejoin="round" stroke-width="3" stroke="url(#e267a0fe-84b2-4f40-ae53-72705618da61)"/><circle cx="163.67" cy="447.21" r="10.22" fill="#fff"/><circle cx="245.42" cy="447.21" r="10.22" fill="#fff"/><circle cx="332.17" cy="447.21" r="10.22" fill="#fff"/><circle cx="413.92" cy="447.21" r="10.22" fill="#fbcd9f"/><circle cx="516.2" cy="447.21" r="10.22" fill="#fff"/><circle cx="597.95" cy="447.21" r="10.22" fill="#fff"/><circle cx="686.7" cy="447.21" r="10.22" fill="#fff"/><circle cx="768.45" cy="447.21" r="10.22" fill="#fbcd9f"/><path d="M779.33,444.58a11.77,11.77,0,0,0-22.73-.39m-1.37-5.69.64,5.77,5.78-.64" fill="none" stroke-linecap="round" stroke-linejoin="round" stroke-width="3" stroke="url(#e267a0fe-84b2-4f40-ae53-72705618da61)"/><path d="M756.54,450.05a11.77,11.77,0,0,0,22.71.38m1.37,5.7-.65-5.78-5.78.64" fill="none" stroke-linecap="round" stroke-linejoin="round" stroke-width="3" stroke="url(#e267a0fe-84b2-4f40-ae53-72705618da61)"/><text transform="translate(826.54 361.59)" font-size="31" fill="#fff" font-family="Rubik-Regular, Rubik" letter-spacing="0.01em">30%</text><text transform="translate(825.42 444.27)" font-size="31" fill="#fff" font-family="Rubik-Regular, Rubik" letter-spacing="0.01em">50%</text><text transform="translate(824.06 237.8)" font-size="31" fill="#fff" font-family="Rubik-Regular, Rubik" letter-spacing="0.01em">20%</text><text transform="translate(803.42 124.51)" font-size="26" fill="#fff" font-family="Rubik-Regular, Rubik" letter-spacing="0.01em">upline</text></svg>