<svg id="a15e102f-c345-4b18-bf04-e259f6d2e45b" data-name="Слой 1" xmlns="http://www.w3.org/2000/svg" xmlns:xlink="http://www.w3.org/1999/xlink" viewBox="0 0 224.24 186.25"><defs><pattern id="e048f2be-9fdc-4941-bfd7-6b024ae73134" data-name="New Pattern Swatch 4" width="43.63" height="39.78" patternTransform="translate(-0.64 -13.56) scale(1.37)" patternUnits="userSpaceOnUse" viewBox="0 0 43.63 39.78"><rect width="43.63" height="39.78" fill="none"/><rect width="43.63" height="39.78" fill="#90c255"/></pattern></defs><text transform="translate(59.08 102.56)" font-size="25" font-family="Rubik-Regular, Rubik" letter-spacing="0.01em" fill="url(#e048f2be-9fdc-4941-bfd7-6b024ae73134)">30%</text><path d="M46.87,88.52a12.75,12.75,0,0,0-24.62-.42m-1.48-6.16.7,6.24,6.26-.7" transform="translate(0.75 1.5)" fill="none" stroke-linecap="round" stroke-linejoin="round" stroke-width="2" stroke="url(#e048f2be-9fdc-4941-bfd7-6b024ae73134)"/><path d="M22.2,94.44a12.75,12.75,0,0,0,24.59.41M48.27,101l-.7-6.25-6.26.7" transform="translate(0.75 1.5)" fill="none" stroke-linecap="round" stroke-linejoin="round" stroke-width="2" stroke="url(#e048f2be-9fdc-4941-bfd7-6b024ae73134)"/><line x1="0.75" y1="30.75" x2="223.49" y2="30.75" fill="none" stroke="#fff" opacity="0.5" stroke-linejoin="round" stroke-width="1.5" stroke-dasharray="5.26 5.26" stroke-linecap="round"/><circle cx="68.12" cy="30.75" r="25.09" fill="#de8fbd"/><text transform="translate(57.02 42.89)" font-size="28" fill="#cc3d8f" font-family="Rubik-Medium, Rubik" font-weight="500" letter-spacing="0.01em">6</text><path d="M96.08,22.44a29.64,29.64,0,0,0-57.23-1M35.41,7.14,37,21.66,51.58,20" transform="translate(0.75 1.5)" fill="none" stroke-linecap="round" stroke-linejoin="round" stroke-width="3" stroke="url(#e048f2be-9fdc-4941-bfd7-6b024ae73134)"/><path d="M38.72,36.2a29.63,29.63,0,0,0,57.16,1m3.45,14.34L97.7,37,83.15,38.59" transform="translate(0.75 1.5)" fill="none" stroke-linecap="round" stroke-linejoin="round" stroke-width="3" stroke="url(#e048f2be-9fdc-4941-bfd7-6b024ae73134)"/><line x1="0.75" y1="117.53" x2="223.49" y2="117.53" fill="none" stroke="#fff" opacity="0.5" stroke-linejoin="round" stroke-width="1.5" stroke-dasharray="5.26 5.26" stroke-linecap="round"/><text transform="translate(165.96 180)" font-size="25" font-family="Rubik-Regular, Rubik" letter-spacing="0.01em" fill="url(#e048f2be-9fdc-4941-bfd7-6b024ae73134)">70%</text><path d="M153.75,166a12.75,12.75,0,0,0-24.62-.42m-1.48-6.16.7,6.25,6.25-.7" transform="translate(0.75 1.5)" fill="none" stroke-linecap="round" stroke-linejoin="round" stroke-width="2" stroke="url(#e048f2be-9fdc-4941-bfd7-6b024ae73134)"/><path d="M129.08,171.88a12.74,12.74,0,0,0,24.58.42m1.49,6.17-.7-6.26-6.26.7" transform="translate(0.75 1.5)" fill="none" stroke-linecap="round" stroke-linejoin="round" stroke-width="2" stroke="url(#e048f2be-9fdc-4941-bfd7-6b024ae73134)"/><circle cx="175" cy="108.2" r="25.09" fill="#de8fbd"/><text transform="translate(159.9 120.34)" font-size="26" fill="#cc3d8f" font-family="Rubik-Medium, Rubik" font-weight="500" letter-spacing="0.01em">14</text><path d="M203,99.88a29.63,29.63,0,0,0-57.22-1m-3.45-14.32,1.63,14.53,14.55-1.63" transform="translate(0.75 1.5)" fill="none" stroke-linecap="round" stroke-linejoin="round" stroke-width="3" stroke="url(#e048f2be-9fdc-4941-bfd7-6b024ae73134)"/><path d="M145.6,113.65a29.64,29.64,0,0,0,57.16,1M206.21,129l-1.63-14.54L190,116" transform="translate(0.75 1.5)" fill="none" stroke-linecap="round" stroke-linejoin="round" stroke-width="3" stroke="url(#e048f2be-9fdc-4941-bfd7-6b024ae73134)"/></svg>