<svg id="bd002ccb-548b-4776-9033-976525825331" data-name="Слой 1" xmlns="http://www.w3.org/2000/svg" xmlns:xlink="http://www.w3.org/1999/xlink" viewBox="0 0 111.91 108.81"><defs><pattern id="a35338aa-fabf-414e-8f25-baa91c754ef7" data-name="New Pattern Swatch 4" width="43.63" height="39.78" patternTransform="translate(-0.64 -13.56) scale(1.37)" patternUnits="userSpaceOnUse" viewBox="0 0 43.63 39.78"><rect width="43.63" height="39.78" fill="none"/><rect width="43.63" height="39.78" fill="#90c255"/></pattern></defs><text transform="translate(48.56 102.56)" font-size="25" font-family="Rubik-Regular, Rubik" letter-spacing="0.01em" fill="url(#a35338aa-fabf-414e-8f25-baa91c754ef7)">100%</text><path d="M26.1,88.52A12.75,12.75,0,0,0,1.48,88.1M0,81.94l.7,6.24L7,87.48" transform="translate(1 1.5)" fill="none" stroke-linecap="round" stroke-linejoin="round" stroke-width="2" stroke="url(#a35338aa-fabf-414e-8f25-baa91c754ef7)"/><path d="M1.43,94.44A12.75,12.75,0,0,0,26,94.85M27.5,101l-.7-6.25-6.26.7" transform="translate(1 1.5)" fill="none" stroke-linecap="round" stroke-linejoin="round" stroke-width="2" stroke="url(#a35338aa-fabf-414e-8f25-baa91c754ef7)"/><circle cx="51.6" cy="30.75" r="25.09" fill="#a7a0cf"/><text transform="translate(40.5 42.89)" font-size="32" fill="#fff" font-family="Rubik-Medium, Rubik" font-weight="500" letter-spacing="0.01em">6</text><path d="M79.31,22.44a29.64,29.64,0,0,0-57.23-1M18.64,7.14l1.62,14.52L34.81,20" transform="translate(1 1.5)" fill="none" stroke-linecap="round" stroke-linejoin="round" stroke-width="3" stroke="url(#a35338aa-fabf-414e-8f25-baa91c754ef7)"/><path d="M22,36.2a29.63,29.63,0,0,0,57.16,1m3.45,14.34L80.93,37,66.38,38.59" transform="translate(1 1.5)" fill="none" stroke-linecap="round" stroke-linejoin="round" stroke-width="3" stroke="url(#a35338aa-fabf-414e-8f25-baa91c754ef7)"/></svg>