<svg id="b6f1506b-1f8c-451b-a9a2-6322086eb0f7" data-name="Слой 1" xmlns="http://www.w3.org/2000/svg" viewBox="0 0 56.06 62.48"><path d="M44.74,37.56l-.13.19c.31.32.65.62.94,1q7.08,8.36,14.16,16.74a4.82,4.82,0,0,1,1,4.68,5,5,0,0,1-8.59,1.76q-7.37-8.67-14.7-17.38a4.35,4.35,0,0,1-.29-.52l-.22.08c-.17.8-.41,1.59-.51,2.39a10.15,10.15,0,0,0,2.42,8q4.63,5.49,9.26,11A10.31,10.31,0,1,0,63.7,51.92c-3.06-3.6-6.1-7.22-9.16-10.83a10.13,10.13,0,0,0-8.08-3.67A16.61,16.61,0,0,0,44.74,37.56ZM31.89,38c-.12-.16-.19-.25-.27-.34l-7.51-8.89q-3.66-4.32-7.31-8.65a4.76,4.76,0,0,1-1.06-4.45A4.73,4.73,0,0,1,19.45,12a4.81,4.81,0,0,1,5,1.7c1.33,1.55,2.65,3.13,4,4.7l10.83,12.8c.08.1.18.2.32.35a10.26,10.26,0,0,0-1.78-10.31c-3.06-3.69-6.19-7.32-9.27-11a10.29,10.29,0,0,0-17.2,2.15,9.85,9.85,0,0,0,1.4,11.05c2.92,3.57,6,7,8.91,10.58a10.74,10.74,0,0,0,5.48,3.74A10.3,10.3,0,0,0,31.89,38Zm17.49,9.73a3,3,0,0,0-.78-2.26q-3.06-3.6-6.1-7.22L32.21,26.07a2.94,2.94,0,0,0-4.92.68,2.83,2.83,0,0,0,.47,3.19l3.61,4.28q3.45,4.08,6.92,8.15c2,2.32,3.91,4.66,5.88,7a2.95,2.95,0,0,0,5.21-1.65Z" transform="translate(-10.19 -6.55)" fill="#8e66a9"/><path d="M44.74,37.56a16.61,16.61,0,0,1,1.72-.14,10.13,10.13,0,0,1,8.08,3.67c3.06,3.61,6.1,7.23,9.16,10.83A10.31,10.31,0,1,1,48.1,65.39q-4.64-5.46-9.26-11a10.15,10.15,0,0,1-2.42-8c.1-.8.34-1.59.51-2.39l.22-.08a4.35,4.35,0,0,0,.29.52q7.34,8.7,14.7,17.38a5,5,0,0,0,8.59-1.76,4.82,4.82,0,0,0-1-4.68q-7.08-8.39-14.16-16.74c-.29-.35-.63-.65-.94-1Z" transform="translate(-10.19 -6.55)" fill="#8e66a9"/><path d="M31.89,38a10.3,10.3,0,0,1-4.82-.2A10.74,10.74,0,0,1,21.59,34c-2.95-3.54-6-7-8.91-10.58a9.85,9.85,0,0,1-1.4-11,10.29,10.29,0,0,1,17.2-2.15c3.08,3.67,6.21,7.3,9.27,11a10.26,10.26,0,0,1,1.78,10.31c-.14-.15-.24-.25-.32-.35L28.38,18.41c-1.32-1.57-2.64-3.15-4-4.7a4.81,4.81,0,0,0-5-1.7,4.73,4.73,0,0,0-3.71,3.64A4.76,4.76,0,0,0,16.8,20.1q3.64,4.33,7.31,8.65l7.51,8.89C31.7,37.73,31.77,37.82,31.89,38Z" transform="translate(-10.19 -6.55)" fill="#8e66a9"/><path d="M49.38,47.71a2.95,2.95,0,0,1-5.21,1.65c-2-2.33-3.92-4.67-5.88-7q-3.47-4.08-6.92-8.15l-3.61-4.28A3,3,0,0,1,30,25a2.79,2.79,0,0,1,2.19,1L42.5,38.23q3,3.62,6.1,7.22A3,3,0,0,1,49.38,47.71Z" transform="translate(-10.19 -6.55)" fill="#8e66a9"/></svg>