<svg id="e4e04ac0-f08c-4765-ba6a-8ab5555143d4" data-name="Слой 1" xmlns="http://www.w3.org/2000/svg" xmlns:xlink="http://www.w3.org/1999/xlink" viewBox="0 0 710.24 793.57"><defs><pattern id="aab99d80-c9c0-4fcb-9562-b8e7d2587c6c" data-name="New Pattern Swatch 1" width="50.27" height="50.27" patternUnits="userSpaceOnUse" viewBox="0 0 50.27 50.27"><rect width="50.27" height="50.27" fill="none"/><rect width="50.27" height="50.27" fill="#f0ba10"/></pattern><pattern id="bd1e60a3-6294-4a7a-9b27-3c0f3e135dac" data-name="New Pattern Swatch 1" width="50.27" height="50.27" patternTransform="translate(44.5 -6.96)" patternUnits="userSpaceOnUse" viewBox="0 0 50.27 50.27"><rect width="50.27" height="50.27" fill="none"/><rect width="50.27" height="50.27" fill="#f0ba10"/></pattern><linearGradient id="b064cf81-ebd3-4e15-b05c-4df8f64901ad" x1="210.78" y1="455.5" x2="223.68" y2="455.5" gradientTransform="translate(-163.7 -34.86) rotate(-10.59)" gradientUnits="userSpaceOnUse"><stop offset="0" stop-color="#fbbb49"/><stop offset="0.4" stop-color="#eb599b" stop-opacity="0.7"/><stop offset="0.53" stop-color="#d95397" stop-opacity="0.74"/><stop offset="0.73" stop-color="#a8428d" stop-opacity="0.84"/><stop offset="1" stop-color="#58267d"/><stop offset="1" stop-color="#57267d"/></linearGradient><linearGradient id="b4207b94-4ff1-4d17-afd6-f3981f8568c9" x1="210.78" y1="455.5" x2="223.68" y2="455.5" gradientTransform="translate(-163.7 -34.86) rotate(-10.59)" gradientUnits="userSpaceOnUse"><stop offset="0" stop-color="#f5c05d"/><stop offset="0.43" stop-color="#e461a0" stop-opacity="0.8"/><stop offset="0.53" stop-color="#d55b9c" stop-opacity="0.82"/><stop offset="0.7" stop-color="#ae4b92" stop-opacity="0.87"/><stop offset="0.91" stop-color="#6e3282" stop-opacity="0.96"/><stop offset="1" stop-color="#51267a"/></linearGradient><pattern id="f62565a2-b642-4d6b-b81c-ed6eeccd0dea" data-name="New Pattern Swatch 4" width="43.63" height="39.78" patternTransform="translate(-0.64 -13.56) scale(1.37)" patternUnits="userSpaceOnUse" viewBox="0 0 43.63 39.78"><rect width="43.63" height="39.78" fill="none"/><rect width="43.63" height="39.78" fill="#90c255"/></pattern></defs><path d="M459.47,602.15a15.36,15.36,0,0,0,15.35-15.35V539.15a15.35,15.35,0,0,0-15.35-15.35H87.17a15.35,15.35,0,0,0-15.35,15.35V586.8a15.35,15.35,0,0,0,15.35,15.35" fill="none" stroke="#4462ac" stroke-miterlimit="10" stroke-width="2" stroke-dasharray="5.26 5.26"/><rect y="561.05" width="200.63" height="200.63" rx="16.72" fill="#4563ac"/><path d="M24.25,600.06A.39.39,0,0,1,24,600a.44.44,0,0,1-.11-.3V588a.4.4,0,0,1,.11-.29.36.36,0,0,1,.28-.12h.9a.35.35,0,0,1,.28.12.4.4,0,0,1,.11.29v10.57h5.95a.36.36,0,0,1,.31.13.35.35,0,0,1,.12.28v.68a.41.41,0,0,1-.12.3.49.49,0,0,1-.31.11Zm11,0a.67.67,0,0,1-.66-.45l-3.31-8.27a.42.42,0,0,1,0-.18.38.38,0,0,1,.1-.27.36.36,0,0,1,.25-.1h.82a.44.44,0,0,1,.43.28l2.75,7.12,2.75-7.12a.41.41,0,0,1,.14-.19.47.47,0,0,1,.28-.09h.82a.33.33,0,0,1,.25.1.39.39,0,0,1,.11.27l0,.18-3.29,8.27a.67.67,0,0,1-.66.45Zm7,0a.38.38,0,0,1-.41-.41V587.81a.41.41,0,0,1,.11-.3.4.4,0,0,1,.3-.11h.79a.43.43,0,0,1,.41.41v11.84a.38.38,0,0,1-.13.3.38.38,0,0,1-.28.11Z" fill="#fff" opacity="0.5" style="isolation:isolate"/><g opacity="0.5"><path d="M30.65,727.31a3.72,3.72,0,1,0-3.71-3.71A3.72,3.72,0,0,0,30.65,727.31Z" fill="none" stroke="#fff" stroke-linecap="round" stroke-linejoin="round"/><path d="M25.08,736.6v-1.86A3.72,3.72,0,0,1,28.79,731h3.72a3.72,3.72,0,0,1,3.72,3.71v1.86" fill="none" stroke="#fff" stroke-linecap="round" stroke-linejoin="round"/><path d="M37.15,720a3.71,3.71,0,0,1,0,7.2" fill="none" stroke="#fff" stroke-linecap="round" stroke-linejoin="round"/><path d="M41.8,736.6v-1.86a3.72,3.72,0,0,0-.79-2.26,3.68,3.68,0,0,0-2-1.31" fill="none" stroke="#fff" stroke-linecap="round" stroke-linejoin="round"/></g><g opacity="0.5"><path d="M107.75,727.31a7.52,7.52,0,0,0-14.4-1.85m-.46-3.72v3.72H96.6" fill="none" stroke="#fff" stroke-linecap="round" stroke-linejoin="round"/><path d="M92.89,729.17A7.46,7.46,0,0,0,95,733.48,7.52,7.52,0,0,0,107.28,731m.47,3.71V731H104" fill="none" stroke="#fff" stroke-linecap="round" stroke-linejoin="round"/></g><path d="M128.24,734a4.07,4.07,0,0,1-3.37-1.33,6,6,0,0,1-1.12-3.53l0-1.54,0-1.59a5.71,5.71,0,0,1,1.12-3.49,4.87,4.87,0,0,1,6.75,0,5.65,5.65,0,0,1,1.14,3.49c0,.34,0,.87,0,1.59s0,1.21,0,1.54a5.9,5.9,0,0,1-1.14,3.53A4.05,4.05,0,0,1,128.24,734Zm0-1.48a2.42,2.42,0,0,0,2.07-.91A4.21,4.21,0,0,0,131,729c0-.35,0-.84,0-1.48s0-1.15,0-1.47a4.22,4.22,0,0,0-.74-2.55,2.76,2.76,0,0,0-4.11,0,4.36,4.36,0,0,0-.73,2.55l0,1.47,0,1.48a4.35,4.35,0,0,0,.73,2.56A2.42,2.42,0,0,0,128.24,732.51Z" fill="#fff"/><path d="M54.5,734a4,4,0,0,1-3.37-1.33A5.9,5.9,0,0,1,50,729.13l0-1.54L50,726a5.65,5.65,0,0,1,1.13-3.49,4.06,4.06,0,0,1,3.37-1.36,4.06,4.06,0,0,1,3.37,1.36A5.65,5.65,0,0,1,59,726c0,.34,0,.87,0,1.59s0,1.21,0,1.54a5.9,5.9,0,0,1-1.14,3.53A4,4,0,0,1,54.5,734Zm0-1.48a2.45,2.45,0,0,0,2.07-.91A4.35,4.35,0,0,0,57.3,729c0-.35,0-.84,0-1.48s0-1.15,0-1.47a4.29,4.29,0,0,0-.75-2.55,2.4,2.4,0,0,0-2-.92,2.38,2.38,0,0,0-2,.92,4.29,4.29,0,0,0-.74,2.55V729a4.28,4.28,0,0,0,.74,2.56A2.4,2.4,0,0,0,54.5,732.51Z" fill="#fff"/><circle cx="39.01" cy="643.53" r="16.72" fill="#fff" fill-opacity="0.2"/><circle cx="100.32" cy="643.53" r="16.72" fill="#fff" fill-opacity="0.2"/><circle cx="161.62" cy="643.53" r="16.72" fill="#fff" fill-opacity="0.2"/><circle cx="143.05" cy="592.96" r="7.92" fill="#f0ba10"/><g id="bc25434a-bb9d-45f0-b037-aab9844d354b" data-name="Layer 2"><g id="f88e0f20-ab58-4cd6-9f6b-f830c3bc4d6d" data-name="Layer 1-2"><path d="M143.05,587.41l1.37,1.4L141,592.26l-1.37-1.37Z" fill="#fff"/><path d="M145.13,589.49l1.36,1.4L141,596.42l-1.37-1.37Z" fill="#fff"/><path d="M138.89,591.57l1.37,1.4-1.37,1.37L137.52,593Z" fill="#fff"/><path d="M147.2,591.57l1.37,1.4-5.52,5.53-1.37-1.37Z" fill="#fff"/></g></g><path d="M59.51,599.91a.39.39,0,0,1-.29-.1.48.48,0,0,1-.1-.31V589.44l-3,2.3a.36.36,0,0,1-.27.11.38.38,0,0,1-.3-.18l-.43-.55a.43.43,0,0,1-.09-.25.37.37,0,0,1,.18-.32l3.87-3a.88.88,0,0,1,.46-.12h.84a.41.41,0,0,1,.41.41V599.5a.45.45,0,0,1-.12.31.39.39,0,0,1-.29.1Z" fill="#fff" opacity="0.5" style="isolation:isolate"/><text transform="translate(159.56 600.07)" font-size="21.18" fill="#fff" font-family="Rubik-Regular, Rubik">5</text><path d="M314.08,582.08c0-9.37,0-14.05,1.82-17.62a16.66,16.66,0,0,1,7.31-7.31c3.57-1.82,8.25-1.82,17.62-1.82H488c9.36,0,14,0,17.62,1.82a16.71,16.71,0,0,1,7.31,7.31c1.82,3.57,1.82,8.25,1.82,17.62V740.36c0,9.36,0,14-1.82,17.62a16.82,16.82,0,0,1-7.31,7.31c-3.58,1.82-8.26,1.82-17.62,1.82H340.83c-9.37,0-14.05,0-17.62-1.82A16.77,16.77,0,0,1,315.9,758c-1.82-3.58-1.82-8.26-1.82-17.62Z" fill="#4563ac"/><circle cx="392.1" cy="677.94" r="11.15" fill="#fff" fill-opacity="0.2"/><circle cx="481.27" cy="677.94" r="11.15" fill="#fff" fill-opacity="0.2"/><circle cx="347.52" cy="677.94" r="11.15" fill="#fff" fill-opacity="0.2"/><circle cx="436.69" cy="677.94" r="11.15" fill="#fff" fill-opacity="0.2"/><circle cx="369.81" cy="638.92" r="16.72" fill="#fff" fill-opacity="0.2"/><circle cx="458.98" cy="638.92" r="16.72" fill="#fff" fill-opacity="0.2"/><path d="M338.33,594.34a.38.38,0,0,1-.28-.11.4.4,0,0,1-.11-.3V582.27a.36.36,0,0,1,.11-.29.35.35,0,0,1,.28-.12h.89a.37.37,0,0,1,.29.12.4.4,0,0,1,.11.29v10.57h5.95a.39.39,0,0,1,.31.13.35.35,0,0,1,.12.28v.68a.41.41,0,0,1-.12.3.49.49,0,0,1-.31.11Zm11,0a.67.67,0,0,1-.66-.45l-3.32-8.27a.74.74,0,0,1,0-.18.37.37,0,0,1,.11-.27.35.35,0,0,1,.25-.1h.82a.45.45,0,0,1,.43.28l2.75,7.12,2.74-7.12a.46.46,0,0,1,.15-.2.51.51,0,0,1,.28-.08h.82a.33.33,0,0,1,.25.1.37.37,0,0,1,.11.27l0,.18-3.3,8.27a.67.67,0,0,1-.66.45Zm7,0a.38.38,0,0,1-.41-.41V582.09a.45.45,0,0,1,.11-.31.44.44,0,0,1,.3-.1h.78a.41.41,0,0,1,.41.41v11.84a.41.41,0,0,1-.12.3.4.4,0,0,1-.29.11Zm11.85,0a.4.4,0,0,1-.29-.11.44.44,0,0,1-.11-.3V583.87l-3,2.3a.4.4,0,0,1-.27.11.38.38,0,0,1-.3-.18l-.43-.55a.45.45,0,0,1-.09-.25.37.37,0,0,1,.18-.32l3.87-3a.85.85,0,0,1,.46-.12h.84a.38.38,0,0,1,.29.12.37.37,0,0,1,.12.29v11.66a.41.41,0,0,1-.12.3.42.42,0,0,1-.29.11Z" fill="#fff" opacity="0.5" style="isolation:isolate"/><g opacity="0.5"><path d="M344.73,732.74A3.72,3.72,0,1,0,341,729,3.72,3.72,0,0,0,344.73,732.74Z" fill="none" stroke="#fff" stroke-linecap="round" stroke-linejoin="round"/><path d="M339.16,742v-1.86a3.72,3.72,0,0,1,3.71-3.72h3.72a3.74,3.74,0,0,1,3.71,3.72V742" fill="none" stroke="#fff" stroke-linecap="round" stroke-linejoin="round"/><path d="M351.23,725.43a3.73,3.73,0,0,1,2,1.32A3.76,3.76,0,0,1,354,729a3.69,3.69,0,0,1-.78,2.27,3.74,3.74,0,0,1-2,1.33" fill="none" stroke="#fff" stroke-linecap="round" stroke-linejoin="round"/><path d="M355.88,742v-1.86a3.81,3.81,0,0,0-.79-2.27,3.77,3.77,0,0,0-2-1.31" fill="none" stroke="#fff" stroke-linecap="round" stroke-linejoin="round"/></g><g opacity="0.5"><path d="M426.28,732.74a7.42,7.42,0,0,0-2.16-4.31,7.52,7.52,0,0,0-12.23,2.45m-.47-3.71v3.71h3.72" fill="none" stroke="#fff" stroke-linecap="round" stroke-linejoin="round"/><path d="M411.42,734.59a7.52,7.52,0,0,0,14.4,1.86m.46,3.72v-3.72h-3.71" fill="none" stroke="#fff" stroke-linecap="round" stroke-linejoin="round"/></g><path d="M374,741.16a4.07,4.07,0,0,1-3.37-1.33,6,6,0,0,1-1.12-3.53l0-1.54,0-1.59a5.64,5.64,0,0,1,1.12-3.49,4.08,4.08,0,0,1,3.37-1.36,4,4,0,0,1,3.37,1.36,5.6,5.6,0,0,1,1.15,3.49c0,.34,0,.87,0,1.59s0,1.21,0,1.54a5.84,5.84,0,0,1-1.15,3.53A4,4,0,0,1,374,741.16Zm0-1.48a2.42,2.42,0,0,0,2.07-.91,4.21,4.21,0,0,0,.73-2.56c0-.35,0-.84,0-1.48s0-1.14,0-1.47a4.16,4.16,0,0,0-.75-2.55,2.41,2.41,0,0,0-2.05-.92,2.43,2.43,0,0,0-2.05.92,4.29,4.29,0,0,0-.73,2.55l0,1.47,0,1.48a4.28,4.28,0,0,0,.73,2.56A2.42,2.42,0,0,0,374,739.68Z" fill="#fff"/><path d="M442.25,741.16a4.06,4.06,0,0,1-3.37-1.33,5.9,5.9,0,0,1-1.12-3.53l0-1.54,0-1.59a5.64,5.64,0,0,1,1.12-3.49,4.86,4.86,0,0,1,6.74,0,5.53,5.53,0,0,1,1.14,3.49c0,.34,0,.87,0,1.59s0,1.21,0,1.54a5.9,5.9,0,0,1-1.14,3.53A4,4,0,0,1,442.25,741.16Zm0-1.48a2.42,2.42,0,0,0,2.07-.91,4.28,4.28,0,0,0,.73-2.56c0-.35,0-.84,0-1.48s0-1.14,0-1.47a4.16,4.16,0,0,0-.75-2.55,2.74,2.74,0,0,0-4.1,0,4.29,4.29,0,0,0-.73,2.55l0,1.47,0,1.48a4.28,4.28,0,0,0,.73,2.56A2.41,2.41,0,0,0,442.25,739.68Z" fill="#fff"/><circle cx="465.83" cy="588.5" r="7.92" fill="#f0ba10"/><g id="b3e2101f-ce77-40d9-8c3c-03bbdb2b6d79" data-name="Layer 2"><g id="f4e40419-576a-406f-932f-a14a96fd4248" data-name="Layer 1-2"><path d="M465.83,583l1.37,1.41-3.45,3.45-1.37-1.37Z" fill="#fff"/><path d="M467.91,585l1.37,1.41L463.75,592l-1.37-1.37Z" fill="#fff"/><path d="M461.67,587.11l1.37,1.4-1.37,1.37-1.37-1.37Z" fill="#fff"/><path d="M470,587.11l1.37,1.4L465.83,594l-1.37-1.37Z" fill="#fff"/></g></g><text transform="translate(482.34 595.61)" font-size="21.18" fill="#fff" font-family="Rubik-Regular, Rubik">5</text><rect x="22.29" y="5.72" width="200.63" height="200.63" rx="16.72" fill="#4563ac"/><path d="M46.55,44.73a.39.39,0,0,1-.29-.1.49.49,0,0,1-.11-.31V32.66a.42.42,0,0,1,.11-.29.37.37,0,0,1,.29-.12h.89a.35.35,0,0,1,.28.12.38.38,0,0,1,.11.29V43.24h6a.43.43,0,0,1,.43.41v.67a.46.46,0,0,1-.13.31.44.44,0,0,1-.3.1Zm11,0a.68.68,0,0,1-.66-.44L53.57,36a.62.62,0,0,1,0-.18.36.36,0,0,1,.11-.26.34.34,0,0,1,.25-.11h.82a.45.45,0,0,1,.43.29l2.74,7.11,2.75-7.11a.39.39,0,0,1,.14-.2.48.48,0,0,1,.29-.09h.82a.38.38,0,0,1,.25.11.35.35,0,0,1,.1.26l0,.18-3.3,8.28a.67.67,0,0,1-.66.44Zm7,0a.47.47,0,0,1-.3-.1.49.49,0,0,1-.11-.31V32.48a.41.41,0,0,1,.11-.3.48.48,0,0,1,.3-.11h.79a.45.45,0,0,1,.41.41V44.32a.42.42,0,0,1-.13.31.37.37,0,0,1-.28.1Z" fill="#fff" opacity="0.5" style="isolation:isolate"/><g opacity="0.5"><path d="M52.94,172a3.72,3.72,0,1,0-3.71-3.72A3.72,3.72,0,0,0,52.94,172Z" fill="none" stroke="#fff" stroke-linecap="round" stroke-linejoin="round"/><path d="M47.37,181.28v-1.86a3.72,3.72,0,0,1,3.72-3.72H54.8a3.72,3.72,0,0,1,3.72,3.72v1.86" fill="none" stroke="#fff" stroke-linecap="round" stroke-linejoin="round"/><path d="M59.45,164.68a3.72,3.72,0,0,1,0,7.2" fill="none" stroke="#fff" stroke-linecap="round" stroke-linejoin="round"/><path d="M64.09,181.28v-1.86a3.69,3.69,0,0,0-.78-2.26,3.76,3.76,0,0,0-2-1.32" fill="none" stroke="#fff" stroke-linecap="round" stroke-linejoin="round"/></g><g opacity="0.5"><path d="M130,172a7.53,7.53,0,0,0-14.4-1.86m-.46-3.72v3.72h3.71" fill="none" stroke="#fff" stroke-linecap="round" stroke-linejoin="round"/><path d="M115.18,173.84a7.53,7.53,0,0,0,14.4,1.86m.46,3.72V175.7h-3.72" fill="none" stroke="#fff" stroke-linecap="round" stroke-linejoin="round"/></g><path d="M150.54,178.67a4.05,4.05,0,0,1-3.37-1.34A5.94,5.94,0,0,1,146,173.8l0-1.54,0-1.58a5.66,5.66,0,0,1,1.13-3.5,4.88,4.88,0,0,1,6.74,0,5.66,5.66,0,0,1,1.14,3.5c0,.33,0,.86,0,1.58s0,1.22,0,1.54a5.88,5.88,0,0,1-1.14,3.53A4,4,0,0,1,150.54,178.67Zm0-1.48a2.48,2.48,0,0,0,2.07-.91,4.41,4.41,0,0,0,.73-2.57c0-.35,0-.84,0-1.48s0-1.14,0-1.46a4.25,4.25,0,0,0-.75-2.55,2.41,2.41,0,0,0-2.05-.93,2.39,2.39,0,0,0-2,.93,4.25,4.25,0,0,0-.74,2.55v2.94a4.34,4.34,0,0,0,.74,2.57A2.42,2.42,0,0,0,150.54,177.19Z" fill="#fff"/><circle cx="61.3" cy="88.2" r="16.72" fill="#fff"/><circle cx="122.61" cy="88.2" r="16.72" fill="#fff" fill-opacity="0.2"/><circle cx="183.91" cy="88.2" r="16.72" fill="#fff" fill-opacity="0.2"/><circle cx="165.34" cy="37.63" r="7.92" fill="#f0ba10"/><g id="afd6fb57-9559-4895-a6d4-234d2d845b5a" data-name="Layer 2"><g id="fc18d8e4-1835-4e93-92e4-1dbd1495bb57" data-name="Layer 1-2"><path d="M165.34,32.09l1.37,1.4-3.45,3.45-1.37-1.37Z" fill="#fff"/><path d="M167.42,34.16l1.37,1.41-5.53,5.52-1.37-1.36Z" fill="#fff"/><path d="M161.18,36.24l1.37,1.41L161.18,39l-1.37-1.37Z" fill="#fff"/><path d="M169.5,36.24l1.37,1.41-5.53,5.52L164,41.8Z" fill="#fff"/></g></g><path d="M81.8,44.59a.42.42,0,0,1-.29-.11.48.48,0,0,1-.1-.31V34.12l-3,2.3a.38.38,0,0,1-.57-.07l-.43-.56a.4.4,0,0,1-.09-.25.38.38,0,0,1,.18-.32l3.87-3a.81.81,0,0,1,.47-.13h.83a.43.43,0,0,1,.41.41V44.17a.45.45,0,0,1-.12.31.4.4,0,0,1-.29.11Z" fill="#fff" opacity="0.5" style="isolation:isolate"/><text transform="translate(181.85 44.75)" font-size="21.18" fill="#fff" font-family="Rubik-Regular, Rubik">5</text><path d="M314.08,26.75c0-9.36,0-14,1.82-17.62a16.71,16.71,0,0,1,7.31-7.31C326.78,0,331.46,0,340.83,0H488c9.36,0,14,0,17.62,1.82a16.77,16.77,0,0,1,7.31,7.31c1.82,3.58,1.82,8.26,1.82,17.62V185c0,9.36,0,14-1.82,17.62a16.77,16.77,0,0,1-7.31,7.31c-3.58,1.82-8.26,1.82-17.62,1.82H340.83c-9.37,0-14.05,0-17.62-1.82a16.71,16.71,0,0,1-7.31-7.31c-1.82-3.58-1.82-8.26-1.82-17.62Z" fill="#4563ac"/><circle cx="392.1" cy="122.61" r="11.15" fill="#fff" fill-opacity="0.2"/><circle cx="481.27" cy="122.61" r="11.15" fill="#fff" fill-opacity="0.2"/><circle cx="347.52" cy="122.61" r="11.15" fill="#fff" fill-opacity="0.2"/><circle cx="436.69" cy="122.61" r="11.15" fill="#fff" fill-opacity="0.2"/><circle cx="369.81" cy="83.6" r="16.72" fill="#fff"/><circle cx="458.98" cy="83.6" r="16.72" fill="#fff" fill-opacity="0.2"/><path d="M338.33,39a.34.34,0,0,1-.28-.11.4.4,0,0,1-.11-.3V26.94a.36.36,0,0,1,.11-.29.35.35,0,0,1,.28-.12h.89a.37.37,0,0,1,.29.12.4.4,0,0,1,.11.29V37.51h5.95a.42.42,0,0,1,.31.13.35.35,0,0,1,.12.28v.68a.41.41,0,0,1-.12.3.44.44,0,0,1-.31.11Zm11,0a.68.68,0,0,1-.66-.44l-3.32-8.28a.62.62,0,0,1,0-.18.36.36,0,0,1,.11-.26.32.32,0,0,1,.25-.11h.82a.45.45,0,0,1,.43.28l2.75,7.12L352.43,30a.44.44,0,0,1,.15-.19.45.45,0,0,1,.28-.09h.82a.31.31,0,0,1,.25.11.36.36,0,0,1,.11.26l0,.18-3.3,8.28A.68.68,0,0,1,350,39Zm7,0a.4.4,0,0,1-.3-.11.44.44,0,0,1-.11-.3V26.76a.41.41,0,0,1,.11-.3.44.44,0,0,1,.3-.11h.78a.37.37,0,0,1,.29.12.38.38,0,0,1,.12.29V38.6a.41.41,0,0,1-.12.3.36.36,0,0,1-.29.11Zm11.85,0a.36.36,0,0,1-.29-.11.44.44,0,0,1-.11-.3V28.54l-3,2.3a.36.36,0,0,1-.27.11.38.38,0,0,1-.3-.18l-.43-.55a.43.43,0,0,1-.09-.25.37.37,0,0,1,.18-.32l3.87-3a.85.85,0,0,1,.46-.12h.84a.38.38,0,0,1,.29.12.37.37,0,0,1,.12.29V38.6a.41.41,0,0,1-.12.3.38.38,0,0,1-.29.11Z" fill="#fff" opacity="0.5" style="isolation:isolate"/><g opacity="0.5"><path d="M344.73,177.42a3.72,3.72,0,1,0-3.72-3.73A3.73,3.73,0,0,0,344.73,177.42Z" fill="none" stroke="#fff" stroke-linecap="round" stroke-linejoin="round"/><path d="M339.16,186.7v-1.86a3.7,3.7,0,0,1,3.71-3.71h3.72a3.72,3.72,0,0,1,3.71,3.71v1.86" fill="none" stroke="#fff" stroke-linecap="round" stroke-linejoin="round"/><path d="M351.23,170.1a3.73,3.73,0,0,1,2,1.32,3.79,3.79,0,0,1,.78,2.28,3.74,3.74,0,0,1-.78,2.28,3.78,3.78,0,0,1-2,1.32" fill="none" stroke="#fff" stroke-linecap="round" stroke-linejoin="round"/><path d="M355.88,186.7v-1.86a3.74,3.74,0,0,0-2.79-3.58" fill="none" stroke="#fff" stroke-linecap="round" stroke-linejoin="round"/></g><g opacity="0.5"><path d="M426.28,177.42a7.45,7.45,0,0,0-2.16-4.32,7.52,7.52,0,0,0-12.23,2.45m-.47-3.71v3.71h3.72" fill="none" stroke="#fff" stroke-linecap="round" stroke-linejoin="round"/><path d="M411.42,179.27a7.53,7.53,0,0,0,14.4,1.86m.46,3.71v-3.71h-3.71" fill="none" stroke="#fff" stroke-linecap="round" stroke-linejoin="round"/></g><path d="M442.25,185.84a4.06,4.06,0,0,1-3.37-1.34,5.87,5.87,0,0,1-1.12-3.53l0-1.53,0-1.59a5.65,5.65,0,0,1,1.12-3.5,4.88,4.88,0,0,1,6.74,0,5.54,5.54,0,0,1,1.14,3.5c0,.33,0,.86,0,1.59s0,1.21,0,1.53a5.88,5.88,0,0,1-1.14,3.53A4,4,0,0,1,442.25,185.84Zm0-1.48a2.45,2.45,0,0,0,2.07-.91,4.31,4.31,0,0,0,.73-2.57c0-.34,0-.84,0-1.48s0-1.14,0-1.46a4.12,4.12,0,0,0-.75-2.55,2.72,2.72,0,0,0-4.1,0,4.25,4.25,0,0,0-.73,2.55l0,1.46,0,1.48a4.31,4.31,0,0,0,.73,2.57A2.44,2.44,0,0,0,442.25,184.36Z" fill="#fff"/><circle cx="465.83" cy="33.17" r="7.92" fill="#f0ba10"/><g id="bef6a0df-0b25-4c3c-a840-5c4c3d16131b" data-name="Layer 2"><g id="eb0ed18c-bf92-44da-af7e-3ab8e7068293" data-name="Layer 1-2"><path d="M465.83,27.63,467.2,29l-3.45,3.45-1.37-1.37Z" fill="#fff"/><path d="M467.91,29.71l1.37,1.4-5.53,5.53-1.37-1.37Z" fill="#fff"/><path d="M461.67,31.79l1.37,1.4-1.37,1.37-1.37-1.37Z" fill="#fff"/><path d="M470,31.79l1.37,1.4-5.53,5.53-1.37-1.37Z" fill="#fff"/></g></g><text transform="translate(482.34 40.29)" font-size="21.18" fill="#fff" font-family="Rubik-Regular, Rubik">5</text><circle cx="525.79" cy="369.62" r="10.2" fill="#f0ba10"/><g id="bbd111cb-2a25-45c9-a729-5f2ca87fcbff" data-name="Layer 2"><g id="bfb776b3-d5fa-44cf-9102-337f51df8b83" data-name="Layer 1-2"><path d="M525.79,362.48l1.77,1.8-4.44,4.45L521.35,367Z" fill="#fff"/><path d="M528.47,365.16l1.77,1.8-7.12,7.12-1.77-1.76Z" fill="#fff"/><path d="M531.15,367.83l1.77,1.81-7.13,7.12L524,375Z" fill="#fff"/></g></g><text transform="translate(547.06 378.79)" font-size="21.96" fill="#fff" font-family="Rubik-Regular, Rubik">10 BUSD</text><text transform="translate(85.37 784.08)" font-size="21.96" fill="#4563ac" font-family="Rubik-Regular, Rubik">x3</text><text transform="translate(406.62 788.08)" font-size="21.96" fill="#4563ac" font-family="Rubik-Regular, Rubik">x4</text><text transform="translate(246.71 549.23)" font-size="21.96" fill="#4563ac" font-family="Rubik-Regular, Rubik"><tspan letter-spacing="-0.08em">Y</tspan><tspan x="12.25" y="0">ou</tspan></text><text transform="translate(237.71 227.4)" font-size="21.96" fill="#fff" font-family="Rubik-Regular, Rubik">upline</text><line x1="269.38" y1="396.87" x2="269.38" y2="237.68" fill="none" stroke="#fff" stroke-miterlimit="10" stroke-width="2" stroke-dasharray="5.26 5.26"/><rect x="110.38" y="345.49" width="329.19" height="86.61" rx="8.93" fill="#343434" stroke-miterlimit="10" stroke="url(#aab99d80-c9c0-4fcb-9562-b8e7d2587c6c)"/><text transform="translate(253.86 407.12)" font-size="18.09" font-family="Rubik-Italic, Rubik" font-style="italic" fill="url(#aab99d80-c9c0-4fcb-9562-b8e7d2587c6c)">SMA<tspan x="37.86" y="0" letter-spacing="-0.01em">R</tspan><tspan x="49.44" y="0" letter-spacing="-0.02em">T</tspan><tspan x="59.2" y="0" xml:space="preserve" letter-spacing="0em"> CONT</tspan><tspan x="110.66" y="0" letter-spacing="-0.01em">R</tspan><tspan x="122.38" y="0" letter-spacing="-0.02em">A</tspan><tspan x="134.38" y="0" letter-spacing="-0.01em">C</tspan><tspan x="146.26" y="0" letter-spacing="-0.02em">T</tspan></text><g id="ed805f3d-fb91-49fd-bf5e-fb71d4b6edc1" data-name="Layer 2"><g id="fd4fd3e5-4a2b-4028-85d8-0e9c0b5b381b" data-name="Layer 1-2"><path d="M365.07,360.55l3.13,3.2-7.87,7.87-3.13-3.13Z" fill="url(#bd1e60a3-6294-4a7a-9b27-3c0f3e135dac)"/><path d="M369.81,365.29l3.13,3.2L360.33,381.1,357.2,378Z" fill="url(#bd1e60a3-6294-4a7a-9b27-3c0f3e135dac)"/><path d="M355.59,370l3.12,3.2-3.12,3.12-3.13-3.12Z" fill="url(#bd1e60a3-6294-4a7a-9b27-3c0f3e135dac)"/><path d="M374.56,370l3.12,3.2-12.61,12.61L362,382.72Z" fill="url(#bd1e60a3-6294-4a7a-9b27-3c0f3e135dac)"/></g></g><text transform="translate(167.33 410.79)" font-size="26.92" fill="#fff" font-family="Rubik-Italic, Rubik" font-style="italic">BUSD</text><polygon points="141.7 382.77 146.24 382.76 149.79 375.09 169.05 375.09 170.96 370.98 147.17 370.98 141.7 382.77" fill="#fff"/><polygon points="174.39 363.58 150.6 363.58 148.69 367.69 172.48 367.69 174.39 363.58" fill="#fff"/><polygon points="309.9 382.76 309.9 382.82 333.69 382.76 335.6 378.64 316.38 378.64 318.02 375.09 337.28 375.09 339.19 370.98 315.4 370.98 309.9 382.76" fill="#fff"/><polygon points="318.83 363.58 316.92 367.69 340.71 367.69 342.62 363.58 318.83 363.58" fill="#fff"/><path d="M171.66,378.65h0a2.89,2.89,0,0,0,2.62,4.11H189a7.11,7.11,0,0,0,6.44-4.12l5.06-10.95h0a2.89,2.89,0,0,0-2.63-4.11H183.17a7.08,7.08,0,0,0-6.44,4.11l-5.07,10.95M196,367.69l-5.06,10.95H176.19l5.08-10.95Z" fill="#fff"/><path d="M253.55,382.89" fill="#fff"/><path d="M253.61,382.76" fill="#fff"/><path d="M262,375.09h14.71l-3.54,7.67h4.47l7-15.07h0a2.9,2.9,0,0,0-2.63-4.11H267.28a7.08,7.08,0,0,0-6.44,4.11h19.24L278.56,371H259.3l-5.43,11.76v0h4.53Z" fill="#fff"/><path d="M283.79,378.64h0a2.9,2.9,0,0,0,2.63,4.11h14.72a7.09,7.09,0,0,0,6.44-4.12l3.54-7.66H295.73l-1.91,4.11h10.87l-.9,2a2.75,2.75,0,0,1-2.51,1.6H289.81a1,1,0,0,1-.86-1.34l3.72-8a2.74,2.74,0,0,1,2.5-1.6h17.51l1.91-4.11H295.3a7.11,7.11,0,0,0-6.44,4.11Z" fill="#fff"/><path d="M235.77,371l1.53-3.29h19.25c1.9-4.11-.05,0,1.9-4.11H239.2a7.08,7.08,0,0,0-6.44,4.11l-1.86,4.06a2.35,2.35,0,0,0,2.14,3.34h15.53l-1.63,3.55H227.68c-.88,1.92,0,0-2,4.11H245a7.09,7.09,0,0,0,6.44-4.12s2-4.21,2.14-4.62a2.42,2.42,0,0,0-2.35-3Z" fill="#fff"/><path d="M197.8,382.76h4.5l3.55-7.67h8.47l2.83,7.73h4.49l-2.77-7.73h2.3a6.45,6.45,0,0,0,5.71-3.83l1.65-3.56a2.89,2.89,0,0,0-2.62-4.11H206.59l-1.88,4.11H224L222.47,371H203.23Z" fill="#fff"/><polygon points="133.57 372.94 133.57 372.94 133.57 372.94 133.57 372.94" fill="url(#b064cf81-ebd3-4e15-b05c-4df8f64901ad)"/><polygon points="133.57 372.94 133.57 372.94 133.57 372.94 133.57 372.94" fill="url(#b4207b94-4ff1-4d17-afd6-f3981f8568c9)"/><path d="M375,185a.4.4,0,0,1-.29-.11.46.46,0,0,1-.11-.3V174.53l-3,2.3a.39.39,0,0,1-.27.1.37.37,0,0,1-.3-.17l-.43-.56a.4.4,0,0,1-.09-.25.38.38,0,0,1,.18-.32l3.87-3a.78.78,0,0,1,.46-.13h.84a.43.43,0,0,1,.41.41v11.67a.42.42,0,0,1-.12.3.4.4,0,0,1-.29.11Z" fill="#fff" style="isolation:isolate"/><path d="M77.4,180.54a.4.4,0,0,1-.29-.11.44.44,0,0,1-.11-.3V170.07l-3,2.3a.43.43,0,0,1-.27.11.38.38,0,0,1-.3-.18l-.43-.55a.45.45,0,0,1-.09-.25.4.4,0,0,1,.18-.33l3.87-3a.78.78,0,0,1,.46-.13h.84a.45.45,0,0,1,.41.41v11.67a.38.38,0,0,1-.13.3.38.38,0,0,1-.28.11Z" fill="#fff" style="isolation:isolate"/><line x1="270.73" y1="434.61" x2="270.73" y2="509.68" fill="none" stroke="#4462ac" stroke-miterlimit="10" stroke-width="2" stroke-dasharray="5.26 5.26"/><polygon points="270.73 523.8 262.6 503.9 270.73 508.62 278.86 503.9 270.73 523.8" fill="#4462ac"/><line x1="655.13" y1="388.59" x2="475.15" y2="388.59" fill="none" stroke-miterlimit="10" stroke-width="2" stroke="url(#f62565a2-b642-4d6b-b81c-ed6eeccd0dea)"/><polygon points="461.03 388.59 480.93 380.46 476.2 388.59 480.93 396.72 461.03 388.59" fill="url(#f62565a2-b642-4d6b-b81c-ed6eeccd0dea)"/><circle cx="370.23" cy="253.25" r="10.2" fill="#f0ba10"/><g id="a4b12acf-5e95-4be8-befd-1d3eab6b10da" data-name="Layer 2"><g id="f301345d-32b9-4043-b08b-5f190859c49e" data-name="Layer 1-2"><path d="M370.23,246.1l1.76,1.81-4.44,4.44-1.77-1.76Z" fill="#fff"/><path d="M372.9,248.78l1.77,1.81-7.12,7.12L365.78,256Z" fill="#fff"/><path d="M364.87,251.46l1.76,1.81L364.87,255l-1.77-1.76Z" fill="#fff"/><path d="M375.58,251.46l1.77,1.81-7.12,7.12-1.77-1.77Z" fill="#fff"/></g></g><text transform="translate(387.13 261.28)" font-size="21.96" fill="#fff" font-family="Rubik-Regular, Rubik">5 BUSD</text><circle cx="100.43" cy="254.14" r="10.2" fill="#f0ba10"/><g id="bdb88914-1abf-4cbf-acf9-3ea4deecdc43" data-name="Layer 2"><g id="ba93535e-5b1e-40af-8ea4-52d9f66ae679" data-name="Layer 1-2"><path d="M100.43,247l1.76,1.8-4.44,4.45L96,251.48Z" fill="#fff"/><path d="M103.11,249.68l1.76,1.8-7.12,7.12L96,256.84Z" fill="#fff"/><path d="M95.07,252.35l1.76,1.81-1.76,1.77-1.76-1.77Z" fill="#fff"/><path d="M105.78,252.35l1.77,1.81-7.12,7.12-1.77-1.76Z" fill="#fff"/></g></g><text transform="translate(119.46 263.31)" font-size="21.96" fill="#fff" font-family="Rubik-Regular, Rubik">5 BUSD</text><g opacity="0.5"><path d="M699.46,373.12v-9.29a3.26,3.26,0,0,0-3.12-3.12h-31a6.24,6.24,0,0,0-6.23,6.24h0m0,0a6.17,6.17,0,0,0,1.83,4.34,6,6,0,0,0,4.4,1.83h37.15a3.18,3.18,0,0,1,2.23.95,3.1,3.1,0,0,1,.89,2.17v9.28m-46.5-18.44v37.15a6.24,6.24,0,0,0,6.23,6.24h37.15a3.22,3.22,0,0,0,2.24-1,3.13,3.13,0,0,0,.88-2.17v-9.29" fill="none" stroke-linecap="round" stroke-linejoin="round" stroke-width="3" stroke="url(#f62565a2-b642-4d6b-b81c-ed6eeccd0dea)"/><path d="M708.74,385.52v12.41h-12.4a6.35,6.35,0,0,1-4.41-1.83,6.18,6.18,0,0,1,0-8.73l0,0a6.35,6.35,0,0,1,4.41-1.83Z" fill="none" stroke-linecap="round" stroke-linejoin="round" stroke-width="3" stroke="url(#f62565a2-b642-4d6b-b81c-ed6eeccd0dea)"/></g></svg>