<svg id="f0ac123e-a377-4ab9-b60a-a10364983975" data-name="Слой 1" xmlns="http://www.w3.org/2000/svg" xmlns:xlink="http://www.w3.org/1999/xlink" viewBox="0 0 34.78 34.79"><defs><pattern id="bbb7061a-59c7-4247-b1ed-f023e52d92ee" data-name="New Pattern Swatch 2" width="43.63" height="39.78" patternTransform="translate(6.45 -29.1)" patternUnits="userSpaceOnUse" viewBox="0 0 43.63 39.78"><rect width="43.63" height="39.78" fill="none"/><rect width="43.63" height="39.78" fill="#90c255"/></pattern></defs><path d="M31.5,43.22a14,14,0,0,0,7.56-25.81,13.37,13.37,0,0,1-1.18-.78,1.64,1.64,0,0,1-.56-2.44c.5-.76,1.27-.9,2.3-.33a16.76,16.76,0,0,1,9,12.49A17.26,17.26,0,0,1,36.9,45.71c-11.74,4-24.12-5.93-22.67-18.22a24.73,24.73,0,0,1,.95-4.22c.48-1.59,1.23-2.07,2.26-1.69s1.41,1.31.87,2.8a13.67,13.67,0,0,0-.4,8.34A14,14,0,0,0,31.5,43.22Z" transform="translate(-14.11 -11.82)" fill="url(#bbb7061a-59c7-4247-b1ed-f023e52d92ee)"/><path d="M18.84,16.34c.56.37,1.14.71,1.67,1.11Q26.8,22.22,33.05,27a2.64,2.64,0,0,1,.32,4,2.6,2.6,0,0,1-3.94-.22c-3.5-4.54-6.93-9.13-10.38-13.7a4.77,4.77,0,0,1-.34-.63Z" transform="translate(-14.11 -11.82)" fill="url(#bbb7061a-59c7-4247-b1ed-f023e52d92ee)"/><path d="M34.12,14.51a2.62,2.62,0,1,1-5.23-.15,2.62,2.62,0,0,1,5.23.15Z" transform="translate(-14.11 -11.82)" fill="url(#bbb7061a-59c7-4247-b1ed-f023e52d92ee)"/></svg>