<svg id="f94305d8-368c-44cb-9c4e-ee4e76c5e5ee" data-name="Слой 1" xmlns="http://www.w3.org/2000/svg" viewBox="0 0 55.42 43.29"><path d="M43.79,14.54C48.54,11.7,55.41,13,59.45,17.86h0a22.55,22.55,0,0,1,0,24A10.85,10.85,0,0,1,49.29,46.5a10.82,10.82,0,0,1-7.85-3.24A57.39,57.39,0,0,1,35,35a37.62,37.62,0,0,1-3.69,5.52c-.79,1.05-5.17-2.48-4.09-4.24a68.32,68.32,0,0,0,4.09-6.82,46.54,46.54,0,0,0-5.08-7.85,6.59,6.59,0,0,0-5.54-2.77,7.23,7.23,0,0,0-5.55,2.77h0a17.34,17.34,0,0,0-2.31,8.31c0,2.77.47,6,2.31,8.31A6.59,6.59,0,0,0,20.66,41l.46,5.55A10.84,10.84,0,0,1,11,41.88a22.55,22.55,0,0,1,0-24,10.81,10.81,0,0,1,10.16-4.61A12.52,12.52,0,0,1,29,16a34.28,34.28,0,0,1,6.46,7.85c.89-1.33,1.77-2.65,2.75-3.93.82-1,3.79,3.24,3,4.4a43.43,43.43,0,0,0-3,5.07,36.7,36.7,0,0,0,5.08,8.31A8.57,8.57,0,0,0,48.83,41a6.58,6.58,0,0,0,5.54-2.77,17.66,17.66,0,0,0,0-16.62,6.58,6.58,0,0,0-5.54-2.77,7.16,7.16,0,0,0-3.46,1" transform="translate(-7.49 -7.84)" fill="#4462ac"/><path d="M52.15,12.5a3.49,3.49,0,0,0-6-3.4l-4.05,4.84L42,14l-.16.23-.12.19-.11.22c0,.07-.07.14-.1.22l0,.06a.94.94,0,0,0,0,.16,2,2,0,0,0-.07.23,1.84,1.84,0,0,0,0,.25c0,.07,0,.14,0,.21a2.72,2.72,0,0,0,0,.28c0,.07,0,.13,0,.19s0,.25,0,.37a1.85,1.85,0,0,0,0,.23,2.82,2.82,0,0,0,.07.31,2.09,2.09,0,0,0,.08.23,1.89,1.89,0,0,0,.09.21.08.08,0,0,0,0,.05,3.2,3.2,0,0,0,.42.68,0,0,0,0,0,0,0l4.22,5.25A3.5,3.5,0,0,0,52,19.53" transform="translate(-7.49 -7.84)" fill="#4462ac"/><path d="M15.19,46.19a3.5,3.5,0,0,0,5.67,3.91l4.45-4.49.08-.09.18-.21.14-.18.13-.21a2.12,2.12,0,0,0,.11-.21l0-.06.06-.15.09-.23a2.17,2.17,0,0,0,.07-.24,1.6,1.6,0,0,0,.05-.21,2.7,2.7,0,0,0,0-.28,1.11,1.11,0,0,0,0-.19c0-.12,0-.24,0-.36s0-.16,0-.24,0-.21-.05-.32a2,2,0,0,0-.06-.23,1.87,1.87,0,0,0-.07-.22.09.09,0,0,0,0,0,3.39,3.39,0,0,0-.36-.71l0,0L22,35.61a3.5,3.5,0,0,0-6,3.59" transform="translate(-7.49 -7.84)" fill="#4462ac"/></svg>