<svg id="b34e37ae-4fe6-4035-9fdc-395cc53a7715" data-name="Слой 1" xmlns="http://www.w3.org/2000/svg" viewBox="0 0 1323.11 245.42"><rect x="809.37" y="2.42" width="243" height="243" rx="20.25" fill="#e2444d"/><path d="M838.77,176.57a.56.56,0,0,1-.37-.13.57.57,0,0,1-.13-.36V162a.49.49,0,0,1,.13-.36.44.44,0,0,1,.37-.16h1a.54.54,0,0,1,.54.33l4.6,8.83,4.64-8.83a.56.56,0,0,1,.52-.33h1a.42.42,0,0,1,.36.16.45.45,0,0,1,.13.36v14.11a.49.49,0,0,1-.15.36.45.45,0,0,1-.34.13h-1a.44.44,0,0,1-.34-.13.52.52,0,0,1-.13-.36V165.34l-3.7,7.15a.72.72,0,0,1-.69.46h-.65a.76.76,0,0,1-.69-.46l-3.67-7.15v10.74a.49.49,0,0,1-.15.36.46.46,0,0,1-.35.13Zm16.68-13.34a.57.57,0,0,1-.37-.13.56.56,0,0,1-.13-.37v-1.12a.52.52,0,0,1,.13-.37.5.5,0,0,1,.37-.15h1.27a.51.51,0,0,1,.37.15.5.5,0,0,1,.15.37v1.12a.53.53,0,0,1-.15.37.59.59,0,0,1-.37.13Zm.17,13.34a.54.54,0,0,1-.37-.13.57.57,0,0,1-.13-.36V165.84a.5.5,0,0,1,.13-.35.51.51,0,0,1,.37-.15h1a.45.45,0,0,1,.35.15.44.44,0,0,1,.15.35v10.24a.49.49,0,0,1-.15.36.48.48,0,0,1-.35.13Zm8.54.22a6,6,0,0,1-2.53-.48,4.21,4.21,0,0,1-1.51-1.12,1.86,1.86,0,0,1-.5-1,.37.37,0,0,1,.15-.32.48.48,0,0,1,.33-.13h.9a.5.5,0,0,1,.2,0,.91.91,0,0,1,.21.2,4.07,4.07,0,0,0,1.1.95,4.25,4.25,0,0,0,3.53-.09,1.37,1.37,0,0,0,.71-1.25,1.2,1.2,0,0,0-.3-.86,2.71,2.71,0,0,0-1-.59,16.41,16.41,0,0,0-2.07-.56,5.32,5.32,0,0,1-2.66-1.19,2.7,2.7,0,0,1-.78-2,2.76,2.76,0,0,1,.48-1.53,3.28,3.28,0,0,1,1.4-1.21,4.94,4.94,0,0,1,2.25-.47,5.35,5.35,0,0,1,2.31.45,3.82,3.82,0,0,1,1.45,1.06,1.74,1.74,0,0,1,.49,1,.43.43,0,0,1-.15.33.44.44,0,0,1-.32.13H867a.44.44,0,0,1-.43-.24q-.37-.41-.63-.63a1.89,1.89,0,0,0-.71-.39,3.7,3.7,0,0,0-1.19-.17,2.52,2.52,0,0,0-1.62.45,1.39,1.39,0,0,0-.56,1.17,1.35,1.35,0,0,0,.23.78,2.41,2.41,0,0,0,.91.58,14.85,14.85,0,0,0,2,.54,6.07,6.07,0,0,1,2.89,1.23,2.68,2.68,0,0,1,.87,2.06,2.83,2.83,0,0,1-.54,1.68,3.45,3.45,0,0,1-1.58,1.19A6.4,6.4,0,0,1,864.16,176.79Zm11,0a6,6,0,0,1-2.52-.48,4.21,4.21,0,0,1-1.51-1.12,1.8,1.8,0,0,1-.5-1,.37.37,0,0,1,.15-.32.47.47,0,0,1,.32-.13H872a.5.5,0,0,1,.2,0,.91.91,0,0,1,.21.2,4.07,4.07,0,0,0,1.1.95,3.49,3.49,0,0,0,1.67.34,3.45,3.45,0,0,0,1.85-.43,1.36,1.36,0,0,0,.72-1.25,1.16,1.16,0,0,0-.31-.86,2.65,2.65,0,0,0-1-.59,16.41,16.41,0,0,0-2.07-.56,5.32,5.32,0,0,1-2.66-1.19,2.7,2.7,0,0,1-.78-2,2.76,2.76,0,0,1,.48-1.53,3.28,3.28,0,0,1,1.4-1.21,4.91,4.91,0,0,1,2.25-.47,5.41,5.41,0,0,1,2.31.45,3.82,3.82,0,0,1,1.45,1.06,1.74,1.74,0,0,1,.49,1,.43.43,0,0,1-.15.33.46.46,0,0,1-.32.13H878a.46.46,0,0,1-.44-.24,7.5,7.5,0,0,0-.62-.63,1.86,1.86,0,0,0-.72-.39,3.59,3.59,0,0,0-1.18-.17,2.52,2.52,0,0,0-1.62.45,1.39,1.39,0,0,0-.56,1.17,1.28,1.28,0,0,0,.23.78,2.33,2.33,0,0,0,.91.58,14.85,14.85,0,0,0,2,.54,6.07,6.07,0,0,1,2.89,1.23,2.68,2.68,0,0,1,.87,2.06,2.83,2.83,0,0,1-.54,1.68,3.51,3.51,0,0,1-1.58,1.19A6.42,6.42,0,0,1,875.12,176.79Zm11.58,0a4.66,4.66,0,0,1-3.52-1.36,5.72,5.72,0,0,1-1.45-3.76l0-.73,0-.72a5.64,5.64,0,0,1,1.45-3.71,4.64,4.64,0,0,1,3.52-1.38,4.56,4.56,0,0,1,3.67,1.51,6,6,0,0,1,1.32,4.1v.39a.48.48,0,0,1-.5.5H883.7v.19a4,4,0,0,0,.86,2.4,2.59,2.59,0,0,0,2.12,1,3.09,3.09,0,0,0,1.64-.39,3.6,3.6,0,0,0,1-.84,1,1,0,0,1,.3-.3.83.83,0,0,1,.37-.07h.95a.48.48,0,0,1,.32.11.32.32,0,0,1,.16.28,1.94,1.94,0,0,1-.59,1.15,4.78,4.78,0,0,1-1.66,1.16A5.87,5.87,0,0,1,886.7,176.79Zm3-6.63v-.07a3.62,3.62,0,0,0-.82-2.46,2.77,2.77,0,0,0-2.2-.95,2.72,2.72,0,0,0-2.2.95,3.66,3.66,0,0,0-.8,2.46v.07Zm8.7,6.63a4.05,4.05,0,0,1-3.41-1.47,6.3,6.3,0,0,1-1.21-3.71l0-.65,0-.65a6.14,6.14,0,0,1,1.23-3.69,4,4,0,0,1,3.39-1.49,4.21,4.21,0,0,1,3.5,1.59v-5a.45.45,0,0,1,.13-.34.5.5,0,0,1,.37-.15h1a.42.42,0,0,1,.34.15.43.43,0,0,1,.15.34v14.35a.49.49,0,0,1-.15.36.44.44,0,0,1-.34.13h-.93a.46.46,0,0,1-.35-.13.57.57,0,0,1-.13-.36v-.93A4.19,4.19,0,0,1,898.42,176.79Zm.41-1.68a2.69,2.69,0,0,0,2.27-1,4.22,4.22,0,0,0,.82-2.4c0-.15,0-.43,0-.82s0-.68,0-.84a3.64,3.64,0,0,0-.84-2.27,2.71,2.71,0,0,0-2.25-1,2.62,2.62,0,0,0-2.27,1,4.64,4.64,0,0,0-.78,2.55l0,.63C895.76,173.72,896.78,175.11,898.83,175.11ZM913,180.68a.57.57,0,0,1-.36-.13.49.49,0,0,1-.13-.37V165.84a.49.49,0,0,1,.13-.37.57.57,0,0,1,.36-.13h.91a.45.45,0,0,1,.5.5v.95a4.18,4.18,0,0,1,3.56-1.66,4,4,0,0,1,3.39,1.44,5.88,5.88,0,0,1,1.21,3.65,7.22,7.22,0,0,1,0,.74,7,7,0,0,1,0,.73,5.92,5.92,0,0,1-1.21,3.65,4.62,4.62,0,0,1-6.89-.19v5a.44.44,0,0,1-.15.35.43.43,0,0,1-.34.15Zm4.56-5.57a2.63,2.63,0,0,0,2.27-1,4.59,4.59,0,0,0,.78-2.55c0-.14,0-.35,0-.62q0-4.16-3.07-4.15a2.7,2.7,0,0,0-2.29,1,4,4,0,0,0-.8,2.35c0,.16,0,.44,0,.84s0,.69,0,.85a3.73,3.73,0,0,0,.82,2.28A2.8,2.8,0,0,0,917.53,175.11Zm8.25,1.46a.52.52,0,0,1-.37-.13.52.52,0,0,1-.13-.36V165.86a.54.54,0,0,1,.13-.37.5.5,0,0,1,.37-.15h.9a.51.51,0,0,1,.52.52v.95a3.22,3.22,0,0,1,3-1.47h.85a.45.45,0,0,1,.49.5v.8a.56.56,0,0,1-.13.37.49.49,0,0,1-.36.12h-1.23a2.37,2.37,0,0,0-2.55,2.58v6.37a.49.49,0,0,1-.15.36.54.54,0,0,1-.37.13Zm12,.22a4.86,4.86,0,0,1-3.67-1.34,5.22,5.22,0,0,1-1.36-3.56l0-.93,0-.93a5.14,5.14,0,0,1,1.38-3.56,5.61,5.61,0,0,1,7.28,0,5.15,5.15,0,0,1,1.4,3.56c0,.32,0,.63,0,.93s0,.61,0,.93a5.23,5.23,0,0,1-1.38,3.56A4.82,4.82,0,0,1,937.75,176.79Zm0-1.62a2.84,2.84,0,0,0,2.18-.86,3.85,3.85,0,0,0,.89-2.53c0-.15,0-.42,0-.82s0-.68,0-.82a3.76,3.76,0,0,0-.89-2.51,2.78,2.78,0,0,0-2.18-.88,2.84,2.84,0,0,0-2.2.88,3.75,3.75,0,0,0-.87,2.51l0,.82,0,.82a3.85,3.85,0,0,0,.87,2.53A2.9,2.9,0,0,0,937.75,175.17Zm9.29,1.4a.45.45,0,0,1-.49-.49V167h-1.86a.59.59,0,0,1-.37-.13.52.52,0,0,1-.13-.35v-.69a.5.5,0,0,1,.13-.35.51.51,0,0,1,.37-.15h1.86v-1.08a4,4,0,0,1,.84-2.7,3.58,3.58,0,0,1,2.81-1h3.24a.42.42,0,0,1,.34.15.46.46,0,0,1,.13.35v.69a.45.45,0,0,1-.47.47h-3.2a1.64,1.64,0,0,0-1.38.52,2.67,2.67,0,0,0-.39,1.6v1h5a.42.42,0,0,1,.34.15.46.46,0,0,1,.13.35v10.24a.52.52,0,0,1-.13.36.44.44,0,0,1-.34.13h-1a.52.52,0,0,1-.37-.13.52.52,0,0,1-.13-.36V167h-3.52v9.07a.49.49,0,0,1-.15.36.46.46,0,0,1-.35.13Zm14.43,0q-3.35,0-3.34-3.78V167h-1.71a.5.5,0,0,1-.35-.13.52.52,0,0,1-.13-.35v-.69a.5.5,0,0,1,.13-.35.44.44,0,0,1,.35-.15h1.71v-3.61a.45.45,0,0,1,.13-.34.42.42,0,0,1,.34-.15h.95a.45.45,0,0,1,.35.15.43.43,0,0,1,.15.34v3.61h2.68a.42.42,0,0,1,.34.15.44.44,0,0,1,.15.35v.69a.45.45,0,0,1-.15.35.48.48,0,0,1-.34.13h-2.68v5.63a3.26,3.26,0,0,0,.34,1.67,1.38,1.38,0,0,0,1.23.56h1.32a.44.44,0,0,1,.35.15.49.49,0,0,1,.13.34v.72a.57.57,0,0,1-.13.36.46.46,0,0,1-.35.13Zm7.9.22a6,6,0,0,1-2.52-.48,4.26,4.26,0,0,1-1.52-1.12,1.84,1.84,0,0,1-.49-1,.37.37,0,0,1,.15-.32.47.47,0,0,1,.32-.13h.91a.41.41,0,0,1,.19,0,.91.91,0,0,1,.22.2,4.07,4.07,0,0,0,1.1.95,4.23,4.23,0,0,0,3.52-.09,1.35,1.35,0,0,0,.71-1.25,1.2,1.2,0,0,0-.3-.86,2.65,2.65,0,0,0-1-.59,16.66,16.66,0,0,0-2.08-.56,5.33,5.33,0,0,1-2.65-1.19,2.7,2.7,0,0,1-.78-2,2.83,2.83,0,0,1,.47-1.53A3.38,3.38,0,0,1,967,165.6a4.9,4.9,0,0,1,2.24-.47,5.42,5.42,0,0,1,2.32.45,3.78,3.78,0,0,1,1.44,1.06,1.77,1.77,0,0,1,.5,1,.43.43,0,0,1-.15.33.49.49,0,0,1-.33.13h-.82a.45.45,0,0,1-.43-.24,7.5,7.5,0,0,0-.62-.63,1.86,1.86,0,0,0-.72-.39,3.62,3.62,0,0,0-1.19-.17,2.56,2.56,0,0,0-1.62.45,1.41,1.41,0,0,0-.56,1.17,1.29,1.29,0,0,0,.24.78,2.33,2.33,0,0,0,.91.58,14.43,14.43,0,0,0,2,.54,6.12,6.12,0,0,1,2.89,1.23,2.71,2.71,0,0,1,.86,2.06,2.83,2.83,0,0,1-.54,1.68,3.42,3.42,0,0,1-1.57,1.19A6.42,6.42,0,0,1,969.37,176.79ZM842.36,209a.51.51,0,0,1-.54-.54v-10.1l-2.9,2.22a.62.62,0,0,1-.32.11.55.55,0,0,1-.45-.26l-1.34-1.73a.62.62,0,0,1-.09-.32.57.57,0,0,1,.24-.48l5-3.86a.79.79,0,0,1,.5-.16h2.85a.53.53,0,0,1,.39.16.5.5,0,0,1,.17.38v14a.51.51,0,0,1-.17.39.56.56,0,0,1-.39.15Zm12.26.22a6.18,6.18,0,0,1-4.53-1.58,6,6,0,0,1-1.71-4.1c0-.78,0-1.48,0-2.1s0-1.35,0-2.16a6.52,6.52,0,0,1,.8-2.87,5.22,5.22,0,0,1,2.1-2,8,8,0,0,1,6.69,0,5.1,5.1,0,0,1,2.1,2,6.28,6.28,0,0,1,.82,2.87c0,.41,0,1.13,0,2.16s0,1.71,0,2.1a6,6,0,0,1-1.71,4.1A6.2,6.2,0,0,1,854.62,209.19Zm0-3.26a1.81,1.81,0,0,0,1.52-.65,3.33,3.33,0,0,0,.54-1.88c0-.42,0-1.09,0-2s0-1.6,0-2a3.23,3.23,0,0,0-.54-1.83,1.76,1.76,0,0,0-1.52-.69c-1.29,0-2,.84-2,2.52,0,.39,0,1.06,0,2s0,1.61,0,2C852.64,205.09,853.33,205.93,854.62,205.93Zm14.77,3.26a6.19,6.19,0,0,1-4.54-1.58,6.08,6.08,0,0,1-1.7-4.1c0-.78,0-1.48,0-2.1s0-1.35,0-2.16a6.39,6.39,0,0,1,.8-2.87,5.19,5.19,0,0,1,2.09-2,8.05,8.05,0,0,1,6.7,0,5,5,0,0,1,2.09,2,6.16,6.16,0,0,1,.82,2.87c0,.41.05,1.13.05,2.16s0,1.71-.05,2.1a6.08,6.08,0,0,1-1.7,4.1A6.23,6.23,0,0,1,869.39,209.19Zm0-3.26a1.78,1.78,0,0,0,1.51-.65,3.33,3.33,0,0,0,.54-1.88c0-.42,0-1.09,0-2s0-1.6,0-2a3.23,3.23,0,0,0-.54-1.83,1.73,1.73,0,0,0-1.51-.69c-1.3,0-2,.84-2,2.52,0,.39,0,1.06,0,2s0,1.61,0,2C867.41,205.09,868.09,205.93,869.39,205.93Zm13.94,3a.55.55,0,0,1-.38-.15.53.53,0,0,1-.16-.39v-14A.5.5,0,0,1,883,194a.48.48,0,0,1,.38-.18H890a6.23,6.23,0,0,1,4.08,1.13,3.94,3.94,0,0,1,1.34,3.19,3,3,0,0,1-.56,1.8,3.46,3.46,0,0,1-1.21,1.1,3.46,3.46,0,0,1,1.49,1.29,3.5,3.5,0,0,1,.6,2,4.17,4.17,0,0,1-1.44,3.39A6.17,6.17,0,0,1,890.2,209Zm6.22-9.13a1.71,1.71,0,0,0,1.24-.43,1.57,1.57,0,0,0,.43-1.13,1.47,1.47,0,0,0-.43-1.08,1.64,1.64,0,0,0-1.24-.43h-2.7v3.07Zm.2,6.22a1.72,1.72,0,0,0,1.3-.48,1.7,1.7,0,0,0,.47-1.21,1.67,1.67,0,0,0-.47-1.21,1.72,1.72,0,0,0-1.3-.49h-2.9v3.39Zm14.73,3.13a7.24,7.24,0,0,1-4.82-1.49,5.57,5.57,0,0,1-1.72-4.47v-8.81a.53.53,0,0,1,.15-.39.48.48,0,0,1,.39-.18h2.95a.62.62,0,0,1,.57.57v8.77a2.85,2.85,0,0,0,.62,2,2.43,2.43,0,0,0,1.84.67,2.33,2.33,0,0,0,1.81-.67,2.79,2.79,0,0,0,.65-2v-8.77a.53.53,0,0,1,.15-.39.57.57,0,0,1,.41-.18h2.94a.48.48,0,0,1,.39.18.48.48,0,0,1,.17.39v8.81a5.55,5.55,0,0,1-1.73,4.47A7.08,7.08,0,0,1,904.48,209.19Zm15,0a9.43,9.43,0,0,1-3.56-.6,5.23,5.23,0,0,1-2.22-1.6,3.74,3.74,0,0,1-.8-2.16.44.44,0,0,1,.13-.33.53.53,0,0,1,.34-.13h2.87a.84.84,0,0,1,.42.09,1.5,1.5,0,0,1,.36.3,2.27,2.27,0,0,0,.87.87,3.43,3.43,0,0,0,1.59.32,3.68,3.68,0,0,0,1.8-.35,1.11,1.11,0,0,0,.62-1,.89.89,0,0,0-.32-.73,2.64,2.64,0,0,0-1-.52,19.68,19.68,0,0,0-2-.52,9,9,0,0,1-3.91-1.58,3.67,3.67,0,0,1-1.29-3,4,4,0,0,1,.73-2.38,4.91,4.91,0,0,1,2.12-1.64,8.11,8.11,0,0,1,3.19-.58,7.46,7.46,0,0,1,3.29.67,5.45,5.45,0,0,1,2.14,1.64,3.36,3.36,0,0,1,.79,1.92.51.51,0,0,1-.13.35.44.44,0,0,1-.32.13h-3a.85.85,0,0,1-.74-.39,1.28,1.28,0,0,0-.67-.76,3.09,3.09,0,0,0-2.74,0,1.08,1.08,0,0,0-.5,1,1.13,1.13,0,0,0,.65,1,10.57,10.57,0,0,0,2.42.71,12.81,12.81,0,0,1,3.22.93,3.63,3.63,0,0,1,2.35,3.63,4,4,0,0,1-.84,2.55,5.35,5.35,0,0,1-2.33,1.66A9.77,9.77,0,0,1,919.5,209.19Zm9.21-.22a.51.51,0,0,1-.54-.54v-14a.53.53,0,0,1,.15-.39.48.48,0,0,1,.39-.18h5.68a7.37,7.37,0,0,1,5,1.54,5.63,5.63,0,0,1,1.85,4.36c0,.42,0,1,0,1.66s0,1.24,0,1.65Q941,209,934.5,209Zm5.68-3.24a2.77,2.77,0,0,0,2-.64,3,3,0,0,0,.69-2.08c0-.41,0-.95,0-1.62s0-1.19,0-1.6a2.74,2.74,0,0,0-.76-2,2.86,2.86,0,0,0-2.05-.67h-2v8.64Z" fill="#fff"/><rect width="243" height="243" rx="20.25" fill="#4563ac"/><path d="M29.38,47.25a.46.46,0,0,1-.35-.13.52.52,0,0,1-.13-.37V32.63a.46.46,0,0,1,.13-.35.44.44,0,0,1,.35-.15h1.08a.42.42,0,0,1,.34.15.46.46,0,0,1,.13.35V45.44h7.22a.45.45,0,0,1,.36.15.42.42,0,0,1,.15.34v.82a.5.5,0,0,1-.15.37.52.52,0,0,1-.36.13Zm13.32,0a.82.82,0,0,1-.8-.54l-4-10a1.09,1.09,0,0,1,0-.22.41.41,0,0,1,.13-.32.39.39,0,0,1,.3-.13h1a.55.55,0,0,1,.52.34L43.13,45l3.33-8.62a.45.45,0,0,1,.17-.23A.51.51,0,0,1,47,36h1a.44.44,0,0,1,.43.45l0,.22-4,10a.82.82,0,0,1-.8.54Zm8.52,0a.52.52,0,0,1-.36-.13.52.52,0,0,1-.13-.37V32.41a.49.49,0,0,1,.13-.37.57.57,0,0,1,.36-.13h1a.53.53,0,0,1,.5.5V46.75a.5.5,0,0,1-.15.37.46.46,0,0,1-.35.13Zm14.35,0a.44.44,0,0,1-.34-.13.52.52,0,0,1-.13-.37V34.57l-3.63,2.79a.53.53,0,0,1-.33.13.49.49,0,0,1-.36-.22l-.52-.67a.53.53,0,0,1-.11-.3.45.45,0,0,1,.22-.39l4.68-3.63a1.05,1.05,0,0,1,.57-.15h1a.51.51,0,0,1,.5.5V46.75a.5.5,0,0,1-.15.37.46.46,0,0,1-.35.13Z" fill="#fff" opacity="0.5" style="isolation:isolate"/><g opacity="0.5"><path d="M37.13,201.38a4.5,4.5,0,1,0-4.5-4.5A4.51,4.51,0,0,0,37.13,201.38Z" fill="none" stroke="#fff" stroke-linecap="round" stroke-linejoin="round"/><path d="M30.38,212.63v-2.25a4.47,4.47,0,0,1,4.5-4.5h4.5a4.49,4.49,0,0,1,4.5,4.5v2.25" fill="none" stroke="#fff" stroke-linecap="round" stroke-linejoin="round"/><path d="M45,192.52a4.5,4.5,0,0,1,0,8.72" fill="none" stroke="#fff" stroke-linecap="round" stroke-linejoin="round"/><path d="M50.63,212.63v-2.25A4.55,4.55,0,0,0,47.25,206" fill="none" stroke="#fff" stroke-linecap="round" stroke-linejoin="round"/></g><path d="M73.46,209.25a.44.44,0,0,1-.34-.13.52.52,0,0,1-.13-.37V196.57l-3.63,2.79a.53.53,0,0,1-.33.13.45.45,0,0,1-.36-.22l-.52-.67a.53.53,0,0,1-.11-.3.45.45,0,0,1,.22-.39l4.68-3.63a1.05,1.05,0,0,1,.57-.15h1a.45.45,0,0,1,.35.15.44.44,0,0,1,.15.35v14.12a.5.5,0,0,1-.15.37.48.48,0,0,1-.35.13Zm9.18,0a.46.46,0,0,1-.35-.13.57.57,0,0,1-.13-.37V196.57l-3.63,2.79a.52.52,0,0,1-.32.13.48.48,0,0,1-.37-.22l-.52-.67a.51.51,0,0,1-.1-.3.46.46,0,0,1,.21-.39l4.69-3.63a1,1,0,0,1,.56-.15h1a.42.42,0,0,1,.34.15.44.44,0,0,1,.15.35v14.12a.5.5,0,0,1-.15.37.44.44,0,0,1-.34.13Z" fill="#fff"/><g opacity="0.5"><path d="M135.9,201.38a9.11,9.11,0,0,0-17.44-2.25m-.56-4.5v4.5h4.5" fill="none" stroke="#fff" stroke-linecap="round" stroke-linejoin="round"/><path d="M117.9,203.63a9.12,9.12,0,0,0,17.44,2.25m.56,4.5v-4.5h-4.5" fill="none" stroke="#fff" stroke-linecap="round" stroke-linejoin="round"/></g><path d="M160.53,209.47a6.21,6.21,0,0,1-3-.69,4.9,4.9,0,0,1-1.92-1.91,5.32,5.32,0,0,1-.65-2.59,7,7,0,0,1,1.49-4l4.13-5.75.1-.15a.7.7,0,0,1,.26-.19.68.68,0,0,1,.35-.09h1.06a.34.34,0,0,1,.3.15.44.44,0,0,1,.13.33.63.63,0,0,1-.11.28l-3.15,4.4a5.93,5.93,0,0,1,1.25-.13,5.21,5.21,0,0,1,2.76.72,4.79,4.79,0,0,1,1.86,1.85,4.91,4.91,0,0,1,.67,2.53,5.21,5.21,0,0,1-.67,2.59,4.7,4.7,0,0,1-1.9,1.9A5.82,5.82,0,0,1,160.53,209.47Zm0-1.8a4.07,4.07,0,0,0,1.75-.38,3.07,3.07,0,0,0,1.27-1.15,3.48,3.48,0,0,0,.48-1.86,3.23,3.23,0,0,0-.5-1.81,3,3,0,0,0-1.27-1.17,3.85,3.85,0,0,0-3.46,0,3,3,0,0,0-1.27,1.17,3.3,3.3,0,0,0-.48,1.81,3.48,3.48,0,0,0,.48,1.86,3.13,3.13,0,0,0,1.27,1.15A4.05,4.05,0,0,0,160.51,207.67Z" fill="#fff"/><circle cx="47.25" cy="99.9" r="20.25" fill="#fff"/><circle cx="121.5" cy="99.9" r="20.25" fill="#fff" fill-opacity="0.2"/><circle cx="195.75" cy="99.9" r="20.25" fill="#fff" fill-opacity="0.2"/><rect x="540" width="243" height="243" rx="20.25" fill="#4563ac"/><path d="M569.38,47.25a.46.46,0,0,1-.35-.13.57.57,0,0,1-.13-.37V32.63a.5.5,0,0,1,.13-.35.44.44,0,0,1,.35-.15h1.08a.42.42,0,0,1,.34.15.46.46,0,0,1,.13.35V45.44h7.22a.47.47,0,0,1,.37.15.42.42,0,0,1,.15.34v.82a.5.5,0,0,1-.15.37.56.56,0,0,1-.37.13Zm13.32,0a.82.82,0,0,1-.8-.54l-4-10a1.09,1.09,0,0,1,0-.22.44.44,0,0,1,.43-.45h1a.53.53,0,0,1,.51.34L583.13,45l3.33-8.62a.51.51,0,0,1,.17-.23A.54.54,0,0,1,587,36h1a.38.38,0,0,1,.3.13.41.41,0,0,1,.13.32l0,.22-4,10a.82.82,0,0,1-.8.54Zm8.53,0a.45.45,0,0,1-.5-.5V32.41a.49.49,0,0,1,.13-.37.57.57,0,0,1,.37-.13h.95a.4.4,0,0,1,.34.16.42.42,0,0,1,.15.34V46.75a.5.5,0,0,1-.15.37.44.44,0,0,1-.34.13Zm14.78.22a7.21,7.21,0,0,1-2.92-.54,4.71,4.71,0,0,1-1.88-1.45,3.4,3.4,0,0,1-.67-1.84.38.38,0,0,1,.13-.3.44.44,0,0,1,.33-.13h1a.67.67,0,0,1,.39.11.58.58,0,0,1,.23.37,2.27,2.27,0,0,0,1.21,1.55,5.19,5.19,0,0,0,2.23.45,3.78,3.78,0,0,0,2.46-.73,2.6,2.6,0,0,0,.93-2.14c0-1.75-1.07-2.63-3.22-2.63h-2a.45.45,0,0,1-.5-.5v-.56a.76.76,0,0,1,.24-.56l4.21-4.67h-6.39a.54.54,0,0,1-.37-.13.48.48,0,0,1-.13-.34v-.78a.54.54,0,0,1,.13-.37.51.51,0,0,1,.37-.15h8.55a.51.51,0,0,1,.52.52v.71a.8.8,0,0,1-.21.5l-4.22,4.73h.35a5.45,5.45,0,0,1,3.48,1.14,3.88,3.88,0,0,1,1.29,3.16,4.19,4.19,0,0,1-.71,2.46,4.56,4.56,0,0,1-1.94,1.58A7.11,7.11,0,0,1,606,47.47Z" fill="#fff" opacity="0.5" style="isolation:isolate"/><g opacity="0.5"><path d="M577.13,201.38a4.5,4.5,0,1,0-4.5-4.5A4.51,4.51,0,0,0,577.13,201.38Z" fill="none" stroke="#fff" stroke-linecap="round" stroke-linejoin="round"/><path d="M570.38,212.63v-2.25a4.47,4.47,0,0,1,4.5-4.5h4.5a4.49,4.49,0,0,1,4.5,4.5v2.25" fill="none" stroke="#fff" stroke-linecap="round" stroke-linejoin="round"/><path d="M585,192.52a4.5,4.5,0,0,1,0,8.72" fill="none" stroke="#fff" stroke-linecap="round" stroke-linejoin="round"/><path d="M590.63,212.63v-2.25a4.52,4.52,0,0,0-3.38-4.34" fill="none" stroke="#fff" stroke-linecap="round" stroke-linejoin="round"/></g><path d="M613.9,209.47a7.21,7.21,0,0,1-2.92-.54,4.71,4.71,0,0,1-1.88-1.45,3.4,3.4,0,0,1-.67-1.84.35.35,0,0,1,.13-.3.44.44,0,0,1,.32-.13h1a.71.71,0,0,1,.39.11.58.58,0,0,1,.23.37,2.25,2.25,0,0,0,1.21,1.55,5.19,5.19,0,0,0,2.23.46,3.8,3.8,0,0,0,2.46-.74,2.6,2.6,0,0,0,.93-2.14c0-1.75-1.07-2.63-3.22-2.63h-2a.59.59,0,0,1-.37-.13.57.57,0,0,1-.13-.37v-.56a.76.76,0,0,1,.24-.56L616,195.9h-6.39a.52.52,0,0,1-.37-.13.48.48,0,0,1-.13-.34v-.78a.54.54,0,0,1,.13-.37.5.5,0,0,1,.37-.15h8.55a.51.51,0,0,1,.52.52v.71a.8.8,0,0,1-.21.5l-4.22,4.73h.35a5.45,5.45,0,0,1,3.48,1.14,3.9,3.9,0,0,1,1.29,3.16,4.27,4.27,0,0,1-.71,2.46,4.56,4.56,0,0,1-1.94,1.58A7.11,7.11,0,0,1,613.9,209.47Z" fill="#fff"/><g opacity="0.5"><path d="M670.5,201.38a9.11,9.11,0,0,0-17.43-2.25m-.57-4.5v4.5H657" fill="none" stroke="#fff" stroke-linecap="round" stroke-linejoin="round"/><path d="M652.5,203.63a9.12,9.12,0,0,0,17.44,2.25m.56,4.5v-4.5H666" fill="none" stroke="#fff" stroke-linecap="round" stroke-linejoin="round"/></g><path d="M695.33,209.47a4.9,4.9,0,0,1-4.08-1.62,7.14,7.14,0,0,1-1.36-4.28l0-1.86,0-1.92a6.79,6.79,0,0,1,1.36-4.23,5.87,5.87,0,0,1,8.16,0,6.74,6.74,0,0,1,1.38,4.23c0,.4,0,1,0,1.92s0,1.47,0,1.86a7.08,7.08,0,0,1-1.38,4.28A4.88,4.88,0,0,1,695.33,209.47Zm0-1.8a2.93,2.93,0,0,0,2.5-1.1,5.16,5.16,0,0,0,.89-3.11c0-.42,0-1,0-1.79s0-1.38,0-1.77a5,5,0,0,0-.91-3.09,3.32,3.32,0,0,0-5,0,5.18,5.18,0,0,0-.88,3.09l0,1.77,0,1.79a5.23,5.23,0,0,0,.88,3.11A2.93,2.93,0,0,0,695.33,207.67Z" fill="#fff"/><circle cx="587.25" cy="99.9" r="20.25" fill="#fff"/><circle cx="661.5" cy="99.9" r="20.25" fill="#fae054"/><circle cx="735.75" cy="99.9" r="20.25" fill="#fff" fill-opacity="0.2"/><rect x="270" width="243" height="243" rx="20.25" fill="#4563ac"/><path d="M299.38,47.25a.46.46,0,0,1-.35-.13.57.57,0,0,1-.13-.37V32.63a.5.5,0,0,1,.13-.35.44.44,0,0,1,.35-.15h1.08a.42.42,0,0,1,.34.15.46.46,0,0,1,.13.35V45.44h7.22a.45.45,0,0,1,.36.15.4.4,0,0,1,.16.34v.82a.47.47,0,0,1-.16.37.52.52,0,0,1-.36.13Zm13.32,0a.82.82,0,0,1-.8-.54l-4-10a1.09,1.09,0,0,1,0-.22.44.44,0,0,1,.43-.45h1a.54.54,0,0,1,.52.34L313.13,45l3.33-8.62A.53.53,0,0,1,317,36h1a.44.44,0,0,1,.43.45l0,.22-4,10a.82.82,0,0,1-.8.54Zm8.52,0a.52.52,0,0,1-.36-.13.52.52,0,0,1-.13-.37V32.41a.49.49,0,0,1,.13-.37.57.57,0,0,1,.36-.13h.95a.53.53,0,0,1,.5.5V46.75a.5.5,0,0,1-.15.37.46.46,0,0,1-.35.13Zm9.95,0a.45.45,0,0,1-.5-.5v-.64a1.28,1.28,0,0,1,.54-1l4.71-4.68a13,13,0,0,0,2.2-2.23,3.09,3.09,0,0,0,.61-1.83,2.67,2.67,0,0,0-.72-2,2.74,2.74,0,0,0-2.07-.73,2.78,2.78,0,0,0-2.05.75,3.5,3.5,0,0,0-.93,2,.57.57,0,0,1-.22.37.54.54,0,0,1-.34.13h-1a.44.44,0,0,1-.45-.43,5.15,5.15,0,0,1,.6-2.21,4.55,4.55,0,0,1,1.71-1.75,5.11,5.11,0,0,1,2.72-.69,4.79,4.79,0,0,1,3.63,1.28,4.36,4.36,0,0,1,1.23,3.19,4.65,4.65,0,0,1-.67,2.47,9.81,9.81,0,0,1-2.05,2.29l-4.26,4.32h6.81a.44.44,0,0,1,.49.49v.82a.5.5,0,0,1-.15.37.44.44,0,0,1-.34.13Z" fill="#fff" opacity="0.5" style="isolation:isolate"/><circle cx="317.25" cy="99.9" r="20.25" fill="#fff"/><circle cx="391.5" cy="99.9" r="20.25" fill="#fff"/><circle cx="465.75" cy="99.9" r="20.25" fill="#fff" fill-opacity="0.2"/><g opacity="0.5"><path d="M307.13,201.38a4.5,4.5,0,1,0-4.5-4.5A4.51,4.51,0,0,0,307.13,201.38Z" fill="none" stroke="#fff" stroke-linecap="round" stroke-linejoin="round"/><path d="M300.38,212.63v-2.25a4.47,4.47,0,0,1,4.5-4.5h4.5a4.49,4.49,0,0,1,4.5,4.5v2.25" fill="none" stroke="#fff" stroke-linecap="round" stroke-linejoin="round"/><path d="M315,192.52a4.5,4.5,0,0,1,0,8.72" fill="none" stroke="#fff" stroke-linecap="round" stroke-linejoin="round"/><path d="M320.63,212.63v-2.25a4.52,4.52,0,0,0-3.38-4.34" fill="none" stroke="#fff" stroke-linecap="round" stroke-linejoin="round"/></g><path d="M339.06,209.25a.45.45,0,0,1-.5-.5v-.64a1.26,1.26,0,0,1,.54-1l4.71-4.69a13.4,13.4,0,0,0,2.2-2.23,3.07,3.07,0,0,0,.61-1.83,2.68,2.68,0,0,0-.72-2,2.74,2.74,0,0,0-2.07-.73,2.78,2.78,0,0,0-2.05.75,3.38,3.38,0,0,0-.93,2,.57.57,0,0,1-.22.37.54.54,0,0,1-.34.13h-1a.44.44,0,0,1-.45-.43,5.15,5.15,0,0,1,.6-2.21,4.55,4.55,0,0,1,1.71-1.75,5.11,5.11,0,0,1,2.72-.69,4.79,4.79,0,0,1,3.63,1.28,4.36,4.36,0,0,1,1.23,3.19,4.65,4.65,0,0,1-.67,2.47,10,10,0,0,1-2,2.29l-4.26,4.32h6.81a.45.45,0,0,1,.36.13.47.47,0,0,1,.13.36v.82a.5.5,0,0,1-.15.37.44.44,0,0,1-.34.13Z" fill="#fff"/><g opacity="0.5"><path d="M400.5,201.38a9.11,9.11,0,0,0-17.44-2.25m-.56-4.5v4.5H387" fill="none" stroke="#fff" stroke-linecap="round" stroke-linejoin="round"/><path d="M382.5,203.63a9.12,9.12,0,0,0,17.44,2.25m.56,4.5v-4.5H396" fill="none" stroke="#fff" stroke-linecap="round" stroke-linejoin="round"/></g><path d="M424.46,209.25a.44.44,0,0,1-.34-.13.52.52,0,0,1-.13-.37V196.57l-3.63,2.79a.52.52,0,0,1-.32.13.47.47,0,0,1-.37-.22l-.52-.67a.53.53,0,0,1-.11-.3.45.45,0,0,1,.22-.39l4.68-3.63a1.05,1.05,0,0,1,.57-.15h1a.51.51,0,0,1,.5.5v14.12a.5.5,0,0,1-.15.37.46.46,0,0,1-.35.13Z" fill="#fff"/><rect x="1080.11" y="1.35" width="243" height="243" rx="20.25" fill="#fff" fill-opacity="0.1"/><path d="M1114.69,104.17a6,6,0,0,1-4.32-1.49,6.24,6.24,0,0,1-1.51-4.56V89.35A.54.54,0,0,1,1109,89a.5.5,0,0,1,.37-.15h1.1a.51.51,0,0,1,.52.52v8.81a4.39,4.39,0,0,0,1,3.11,4.14,4.14,0,0,0,5.49,0,4.39,4.39,0,0,0,1-3.11V89.35a.49.49,0,0,1,.13-.37.5.5,0,0,1,.37-.15H1120a.42.42,0,0,1,.34.15.47.47,0,0,1,.16.37v8.77a6.16,6.16,0,0,1-1.54,4.56A5.88,5.88,0,0,1,1114.69,104.17Zm9.68,3.88a.49.49,0,0,1-.36-.15.44.44,0,0,1-.13-.34V93.22a.46.46,0,0,1,.13-.35.49.49,0,0,1,.36-.15h1a.42.42,0,0,1,.34.15.45.45,0,0,1,.16.35v1a4.66,4.66,0,0,1,6.93-.24A6.09,6.09,0,0,1,1134,97.6c0,.16,0,.4,0,.73s0,.58,0,.74a6.16,6.16,0,0,1-1.23,3.67,4.08,4.08,0,0,1-3.39,1.43,4.16,4.16,0,0,1-3.5-1.62v5a.48.48,0,0,1-.48.49Zm4.58-5.63a2.57,2.57,0,0,0,2.23-1A4.5,4.5,0,0,0,1132,99c0-.14,0-.35,0-.63q0-4.08-3-4.08a2.62,2.62,0,0,0-2.24,1,4,4,0,0,0-.8,2.33l0,.82,0,.84a3.63,3.63,0,0,0,.82,2.23A2.72,2.72,0,0,0,1129,102.42Zm12.37,6.28a5.86,5.86,0,0,1-2.85-.6,3.87,3.87,0,0,1-1.53-1.34,3.26,3.26,0,0,1-.5-1.36.45.45,0,0,1,.13-.37.57.57,0,0,1,.37-.15h1a.55.55,0,0,1,.32.09.77.77,0,0,1,.22.36,2.82,2.82,0,0,0,.84,1.19,2.77,2.77,0,0,0,1.86.52,3.4,3.4,0,0,0,2.35-.69,3.13,3.13,0,0,0,.76-2.4v-1.47a4.16,4.16,0,0,1-1.43,1.15,4.77,4.77,0,0,1-2.05.41,4.14,4.14,0,0,1-3.44-1.45,6.3,6.3,0,0,1-1.18-3.72l0-.6,0-.58a6.07,6.07,0,0,1,1.21-3.7,4,4,0,0,1,3.41-1.49,4.21,4.21,0,0,1,3.54,1.67v-.93a.52.52,0,0,1,.13-.37.5.5,0,0,1,.37-.15h1a.51.51,0,0,1,.52.52v10.47Q1146.4,108.71,1141.32,108.7Zm0-6.39a2.68,2.68,0,0,0,2.23-1,4.06,4.06,0,0,0,.82-2.31c0-.13,0-.39,0-.76s0-.61,0-.73a4.07,4.07,0,0,0-.82-2.32,2.65,2.65,0,0,0-2.23-1,2.57,2.57,0,0,0-2.22,1,4.5,4.5,0,0,0-.76,2.51l0,.56,0,.58a4.58,4.58,0,0,0,.76,2.51A2.57,2.57,0,0,0,1141.28,102.31Zm8.83,1.64a.52.52,0,0,1-.37-.13.57.57,0,0,1-.13-.37V93.24a.57.57,0,0,1,.13-.37.5.5,0,0,1,.37-.15h1a.51.51,0,0,1,.52.52v1a3.24,3.24,0,0,1,3-1.47h.85a.42.42,0,0,1,.34.15.44.44,0,0,1,.15.35v.88a.44.44,0,0,1-.15.35.48.48,0,0,1-.34.13h-1.3a2.41,2.41,0,0,0-1.83.69,2.45,2.45,0,0,0-.67,1.83v6.35a.51.51,0,0,1-.16.37.52.52,0,0,1-.36.13Zm10.67.22a4.51,4.51,0,0,1-2-.44,3.69,3.69,0,0,1-1.44-1.16,2.87,2.87,0,0,1-.52-1.67,2.83,2.83,0,0,1,1.17-2.33,6.57,6.57,0,0,1,3.19-1.21l3.22-.45v-.63c0-1.47-.84-2.2-2.53-2.2a2.73,2.73,0,0,0-1.55.41,2.69,2.69,0,0,0-.91.93.58.58,0,0,1-.17.28.36.36,0,0,1-.26.09h-.93a.58.58,0,0,1-.35-.13.57.57,0,0,1-.12-.35,2.27,2.27,0,0,1,.47-1.17,3.84,3.84,0,0,1,1.45-1.14,5.23,5.23,0,0,1,2.4-.5,4.5,4.5,0,0,1,3.47,1.15,3.91,3.91,0,0,1,1.06,2.81v7a.5.5,0,0,1-.15.37.46.46,0,0,1-.35.13h-1a.54.54,0,0,1-.37-.13.57.57,0,0,1-.13-.37v-.93a3.59,3.59,0,0,1-1.38,1.17A4.89,4.89,0,0,1,1160.78,104.17Zm.45-1.62a3.07,3.07,0,0,0,2.29-.91,3.64,3.64,0,0,0,.91-2.66v-.6l-2.5.36a5.69,5.69,0,0,0-2.32.74,1.52,1.52,0,0,0-.06,2.61A3,3,0,0,0,1161.23,102.55Zm12.44,1.62a4,4,0,0,1-3.39-1.47,6.18,6.18,0,0,1-1.21-3.72l0-.65,0-.64a6.14,6.14,0,0,1,1.21-3.7,4,4,0,0,1,3.39-1.49,4.27,4.27,0,0,1,3.5,1.58v-5a.44.44,0,0,1,.13-.34.47.47,0,0,1,.37-.16h1a.53.53,0,0,1,.5.5v14.34a.5.5,0,0,1-.15.37.46.46,0,0,1-.35.13h-1a.56.56,0,0,1-.37-.13.57.57,0,0,1-.13-.37v-.9A4.23,4.23,0,0,1,1173.67,104.17Zm.45-1.75a2.61,2.61,0,0,0,2.23-1,4.09,4.09,0,0,0,.82-2.35c0-.16,0-.43,0-.82s0-.68,0-.84a3.63,3.63,0,0,0-.82-2.23,2.73,2.73,0,0,0-2.23-1,2.62,2.62,0,0,0-2.24,1,4.5,4.5,0,0,0-.76,2.51l0,.62Q1171.1,102.43,1174.12,102.42Zm12.79,1.75a4.8,4.8,0,0,1-3.57-1.36,5.74,5.74,0,0,1-1.45-3.76l0-.74,0-.71a5.79,5.79,0,0,1,1.47-3.72,4.7,4.7,0,0,1,3.52-1.38A4.62,4.62,0,0,1,1190.6,94a6,6,0,0,1,1.32,4.1v.37a.49.49,0,0,1-.15.36.48.48,0,0,1-.35.13H1184v.2a4.1,4.1,0,0,0,.84,2.4,2.59,2.59,0,0,0,2.09,1,3,3,0,0,0,1.62-.39,3.22,3.22,0,0,0,1-.84,1.09,1.09,0,0,1,.29-.31.78.78,0,0,1,.36-.06h1.06a.52.52,0,0,1,.33.11.38.38,0,0,1,.12.3,1.86,1.86,0,0,1-.6,1.14,4.8,4.8,0,0,1-1.66,1.17A5.87,5.87,0,0,1,1186.91,104.17Zm3-6.66v-.06A3.52,3.52,0,0,0,1189,95a2.68,2.68,0,0,0-2.16-1,2.71,2.71,0,0,0-2.16,1,3.69,3.69,0,0,0-.77,2.42v.06Zm11.3,10.54a.44.44,0,0,1-.43-.43,1,1,0,0,1,.1-.39l1.67-4-4.13-9.74a1.53,1.53,0,0,1-.11-.37.44.44,0,0,1,.46-.45h1.06a.53.53,0,0,1,.51.37l3.29,7.86,3.37-7.86a.55.55,0,0,1,.54-.37h1a.44.44,0,0,1,.33.13.43.43,0,0,1,.13.3,2.59,2.59,0,0,1-.11.39l-6.14,14.15a.56.56,0,0,1-.54.36Zm14.17-3.88a5,5,0,0,1-3.69-1.34,5.17,5.17,0,0,1-1.38-3.57l0-.93,0-.92a5.12,5.12,0,0,1,1.4-3.55,5.63,5.63,0,0,1,7.34,0,5.17,5.17,0,0,1,1.41,3.55c0,.15,0,.46,0,.92s0,.78,0,.93a5.19,5.19,0,0,1-1.41,3.57A4.86,4.86,0,0,1,1215.34,104.17Zm0-1.67a2.72,2.72,0,0,0,2.14-.86,3.75,3.75,0,0,0,.86-2.48,7.4,7.4,0,0,0,0-.83,7.31,7.31,0,0,0,0-.82,3.75,3.75,0,0,0-.86-2.48,2.72,2.72,0,0,0-2.14-.86,2.8,2.8,0,0,0-2.16.86,3.7,3.7,0,0,0-.84,2.48l0,.82,0,.83a3.7,3.7,0,0,0,.84,2.48A2.8,2.8,0,0,0,1215.34,102.5Zm12,1.67a4,4,0,0,1-3.18-1.32,5.31,5.31,0,0,1-1.12-3.54V93.22a.46.46,0,0,1,.13-.35.49.49,0,0,1,.36-.15h1.08a.51.51,0,0,1,.5.5v6c0,2.14.94,3.22,2.81,3.22a2.8,2.8,0,0,0,2.16-.85,3.35,3.35,0,0,0,.8-2.37v-6a.46.46,0,0,1,.13-.35.5.5,0,0,1,.37-.15h1.08a.43.43,0,0,1,.34.15.46.46,0,0,1,.13.35v10.23a.52.52,0,0,1-.13.37.45.45,0,0,1-.34.13h-1a.54.54,0,0,1-.37-.13.57.57,0,0,1-.13-.37v-1a4,4,0,0,1-1.47,1.26A5,5,0,0,1,1227.34,104.17Zm9.3-.22a.45.45,0,0,1-.5-.5V93.24a.52.52,0,0,1,.13-.37.5.5,0,0,1,.37-.15h1a.51.51,0,0,1,.37.15.5.5,0,0,1,.15.37v1a3.24,3.24,0,0,1,3-1.47h.84a.51.51,0,0,1,.5.5v.88a.44.44,0,0,1-.15.35.5.5,0,0,1-.35.13h-1.29a2.45,2.45,0,0,0-1.84.69,2.49,2.49,0,0,0-.67,1.83v6.35a.5.5,0,0,1-.15.37.52.52,0,0,1-.37.13Zm-127.43,32.4a.45.45,0,0,1-.5-.5V125.64a.52.52,0,0,1,.13-.37.5.5,0,0,1,.37-.15h1a.51.51,0,0,1,.52.52v1a3.24,3.24,0,0,1,3-1.47h.85a.42.42,0,0,1,.34.15.44.44,0,0,1,.15.35v.88a.44.44,0,0,1-.15.35.48.48,0,0,1-.34.13h-1.3a2.45,2.45,0,0,0-1.84.69,2.49,2.49,0,0,0-.67,1.83v6.35a.5.5,0,0,1-.15.37.52.52,0,0,1-.36.13Zm12,.22a4.83,4.83,0,0,1-3.57-1.36,5.73,5.73,0,0,1-1.44-3.76l0-.74,0-.71a5.74,5.74,0,0,1,1.47-3.72,4.67,4.67,0,0,1,3.52-1.38,4.6,4.6,0,0,1,3.71,1.54,6,6,0,0,1,1.32,4.1v.37a.49.49,0,0,1-.15.36.46.46,0,0,1-.35.13h-7.47v.2a4.1,4.1,0,0,0,.84,2.4,2.6,2.6,0,0,0,2.1,1,3,3,0,0,0,1.62-.39,3.35,3.35,0,0,0,1-.84,1.11,1.11,0,0,1,.28-.31.8.8,0,0,1,.37-.06h1a.52.52,0,0,1,.33.11.38.38,0,0,1,.13.3,1.83,1.83,0,0,1-.61,1.14,4.8,4.8,0,0,1-1.66,1.17A5.87,5.87,0,0,1,1121.2,136.57Zm3-6.66v-.06a3.56,3.56,0,0,0-.82-2.42,2.71,2.71,0,0,0-2.16-1,2.68,2.68,0,0,0-2.16,1,3.65,3.65,0,0,0-.78,2.42v.06Zm8.52,6.66a6,6,0,0,1-2.55-.48,4.4,4.4,0,0,1-1.53-1.12,1.86,1.86,0,0,1-.5-1,.37.37,0,0,1,.15-.32.56.56,0,0,1,.35-.13h1a.51.51,0,0,1,.39.21,4.11,4.11,0,0,0,1.12.95,3.3,3.3,0,0,0,1.62.35,3.38,3.38,0,0,0,1.82-.43,1.41,1.41,0,0,0,.71-1.23,1.21,1.21,0,0,0-.3-.85,2.16,2.16,0,0,0-1-.58,16.41,16.41,0,0,0-2.07-.56,5.49,5.49,0,0,1-2.68-1.19,2.72,2.72,0,0,1-.78-2,2.8,2.8,0,0,1,.48-1.55,3.4,3.4,0,0,1,1.42-1.21,5,5,0,0,1,2.27-.48,5.46,5.46,0,0,1,2.36.46,3.71,3.71,0,0,1,1.44,1.08,1.77,1.77,0,0,1,.5,1,.43.43,0,0,1-.15.33.45.45,0,0,1-.32.12h-.91a.53.53,0,0,1-.43-.21,5.35,5.35,0,0,0-.61-.63,2,2,0,0,0-.71-.41,3.45,3.45,0,0,0-1.17-.17,2.52,2.52,0,0,0-1.6.45,1.39,1.39,0,0,0-.56,1.15,1.29,1.29,0,0,0,.24.78,2.22,2.22,0,0,0,.91.56,16,16,0,0,0,2,.54,5.82,5.82,0,0,1,2.9,1.25,2.69,2.69,0,0,1,.86,2,2.86,2.86,0,0,1-.54,1.69,3.49,3.49,0,0,1-1.6,1.18A6.36,6.36,0,0,1,1132.68,136.57Zm11.31,0a3.94,3.94,0,0,1-3.17-1.32,5.31,5.31,0,0,1-1.12-3.54v-6.09a.5.5,0,0,1,.12-.35.53.53,0,0,1,.37-.15h1.08a.51.51,0,0,1,.5.5v6c0,2.14.93,3.22,2.81,3.22a2.83,2.83,0,0,0,2.16-.85,3.35,3.35,0,0,0,.8-2.37v-6a.46.46,0,0,1,.13-.35.49.49,0,0,1,.36-.15h1.08a.44.44,0,0,1,.35.15.5.5,0,0,1,.13.35v10.23a.57.57,0,0,1-.13.37.46.46,0,0,1-.35.13h-1a.45.45,0,0,1-.5-.5v-.95a4,4,0,0,1-1.47,1.26A5,5,0,0,1,1144,136.57Zm9.33-.22a.45.45,0,0,1-.5-.5V121.51a.44.44,0,0,1,.13-.34.47.47,0,0,1,.37-.16h1a.43.43,0,0,1,.35.16.42.42,0,0,1,.15.34v14.34a.5.5,0,0,1-.15.37.48.48,0,0,1-.35.13Zm9.11,0q-3.4,0-3.41-3.8v-5.7h-1.68a.57.57,0,0,1-.37-.13.54.54,0,0,1-.13-.37v-.73a.46.46,0,0,1,.13-.35.5.5,0,0,1,.37-.15H1159v-3.61a.44.44,0,0,1,.13-.34.47.47,0,0,1,.37-.16h1a.53.53,0,0,1,.5.5v3.61h2.68a.42.42,0,0,1,.34.15.45.45,0,0,1,.16.35v.73a.52.52,0,0,1-.16.37.48.48,0,0,1-.34.13H1161v5.55a3,3,0,0,0,.37,1.64,1.35,1.35,0,0,0,1.21.54h1.31a.51.51,0,0,1,.5.5v.77a.5.5,0,0,1-.15.37.46.46,0,0,1-.35.13Zm7.94.22a6,6,0,0,1-2.54-.48,4.55,4.55,0,0,1-1.54-1.12,1.84,1.84,0,0,1-.49-1,.37.37,0,0,1,.15-.32.54.54,0,0,1,.34-.13h1a.49.49,0,0,1,.39.21,4.15,4.15,0,0,0,1.13.95,3.25,3.25,0,0,0,1.62.35,3.35,3.35,0,0,0,1.81-.43,1.39,1.39,0,0,0,.71-1.23,1.21,1.21,0,0,0-.3-.85,2.17,2.17,0,0,0-1-.58,16.18,16.18,0,0,0-2.08-.56,5.45,5.45,0,0,1-2.67-1.19,2.72,2.72,0,0,1-.78-2,2.87,2.87,0,0,1,.47-1.55,3.43,3.43,0,0,1,1.43-1.21,5,5,0,0,1,2.27-.48,5.41,5.41,0,0,1,2.35.46,3.75,3.75,0,0,1,1.45,1.08,1.77,1.77,0,0,1,.5,1,.48.48,0,0,1-.48.45h-.91a.54.54,0,0,1-.43-.21,5.39,5.39,0,0,0-.6-.63,2,2,0,0,0-.72-.41,3.43,3.43,0,0,0-1.16-.17,2.5,2.5,0,0,0-1.6.45,1.45,1.45,0,0,0-.33,1.93,2.3,2.3,0,0,0,.91.56,15.77,15.77,0,0,0,2,.54,5.78,5.78,0,0,1,2.89,1.25,2.66,2.66,0,0,1,.87,2,2.86,2.86,0,0,1-.54,1.69,3.54,3.54,0,0,1-1.6,1.18A6.41,6.41,0,0,1,1170.37,136.57Zm11.9-.22a.47.47,0,0,1-.32-.13.42.42,0,0,1-.13-.32.64.64,0,0,1,.15-.39l3.76-4.91-3.52-4.64a.56.56,0,0,1-.15-.39.44.44,0,0,1,.45-.45h1.1a.66.66,0,0,1,.56.34l2.88,3.74,2.87-3.71a1.26,1.26,0,0,1,.24-.26.43.43,0,0,1,.32-.11h1.06a.44.44,0,0,1,.45.45.56.56,0,0,1-.15.39l-3.56,4.69,3.76,4.86a.64.64,0,0,1,.15.39.42.42,0,0,1-.13.32.44.44,0,0,1-.33.13h-1.14a.69.69,0,0,1-.56-.32l-3-4-3.06,4a1.3,1.3,0,0,1-.26.23.45.45,0,0,1-.3.09Zm12.12,0a.52.52,0,0,1-.36-.13.52.52,0,0,1-.13-.37v-.69a1.26,1.26,0,0,1,.54-.95l4.58-4.58a14.78,14.78,0,0,0,2.29-2.24,3.22,3.22,0,0,0,.62-1.86,2.69,2.69,0,0,0-.71-2,2.72,2.72,0,0,0-2-.71,2.68,2.68,0,0,0-2,.76,3.32,3.32,0,0,0-.93,2,.59.59,0,0,1-.22.39.58.58,0,0,1-.34.11h-1.12a.52.52,0,0,1-.33-.11.45.45,0,0,1-.13-.3,5,5,0,0,1,.63-2.23,4.6,4.6,0,0,1,1.7-1.75,5.25,5.25,0,0,1,2.75-.69,4.89,4.89,0,0,1,3.67,1.28,4.29,4.29,0,0,1,1.25,3.19,4.58,4.58,0,0,1-.69,2.47,11.12,11.12,0,0,1-2.09,2.33l-4.15,4.21h6.74a.47.47,0,0,1,.37.15.44.44,0,0,1,.15.35v.88a.5.5,0,0,1-.15.37.56.56,0,0,1-.37.13Z" fill="#fff"/><rect x="837.73" y="79.03" width="189" height="58.05" rx="13.5" fill="#fff"/><path d="M886.37,115.48a.44.44,0,0,1-.45-.45.88.88,0,0,1,0-.2L891,101a.86.86,0,0,1,.87-.63h3.37a.84.84,0,0,1,.86.63l5,13.84a.49.49,0,0,1,0,.2.45.45,0,0,1-.15.32.42.42,0,0,1-.31.13h-2.81a.75.75,0,0,1-.73-.48l-.78-2.09h-5.66l-.77,2.09a.76.76,0,0,1-.74.48Zm5.23-5.81h3.85l-1.93-5.51Zm16,6a6,6,0,0,1-4-1.3,4.9,4.9,0,0,1-1.62-3.65l0-.86,0-.89a4.82,4.82,0,0,1,1.62-3.65,5.89,5.89,0,0,1,4-1.32,6.69,6.69,0,0,1,3.16.67,5.11,5.11,0,0,1,1.9,1.6,3.32,3.32,0,0,1,.67,1.66.51.51,0,0,1-.15.41.63.63,0,0,1-.41.15h-2.9a.58.58,0,0,1-.37-.1,1.11,1.11,0,0,1-.23-.35,1.89,1.89,0,0,0-.63-.88,1.49,1.49,0,0,0-.95-.29c-1.11,0-1.68.74-1.73,2.21l0,.82,0,.71a2.74,2.74,0,0,0,.46,1.66,1.86,1.86,0,0,0,2.24.26,2,2,0,0,0,.61-.9,1,1,0,0,1,.23-.35.58.58,0,0,1,.37-.11h2.9a.6.6,0,0,1,.39.15.51.51,0,0,1,.17.37,3.12,3.12,0,0,1-.61,1.62,4.89,4.89,0,0,1-1.88,1.64A6.58,6.58,0,0,1,907.6,115.7Zm13.48-.22q-4.58,0-4.58-4.3v-4h-1.71a.56.56,0,0,1-.39-.16.55.55,0,0,1-.15-.38v-1.86a.53.53,0,0,1,.15-.39.6.6,0,0,1,.39-.15h1.71v-3.57a.51.51,0,0,1,.54-.54h2.66a.52.52,0,0,1,.38.15.53.53,0,0,1,.16.39v3.57h2.7a.52.52,0,0,1,.38.15.48.48,0,0,1,.18.39v1.86a.48.48,0,0,1-.18.38.49.49,0,0,1-.38.16h-2.7v3.67a1.92,1.92,0,0,0,.28,1.14,1,1,0,0,0,.9.39h1.71a.51.51,0,0,1,.39.17.53.53,0,0,1,.15.39v2a.6.6,0,0,1-.15.39.53.53,0,0,1-.39.15ZM926,102.69a.53.53,0,0,1-.39-.15.59.59,0,0,1-.15-.41v-2a.53.53,0,0,1,.15-.39.57.57,0,0,1,.39-.17h2.7a.58.58,0,0,1,.56.56v2a.57.57,0,0,1-.17.41.53.53,0,0,1-.39.15Zm0,12.79a.51.51,0,0,1-.54-.54V104.79a.53.53,0,0,1,.15-.39.6.6,0,0,1,.39-.15h2.7a.53.53,0,0,1,.39.15.51.51,0,0,1,.17.39v10.15a.51.51,0,0,1-.17.39.53.53,0,0,1-.39.15Zm9.74,0a.73.73,0,0,1-.47-.13,1.26,1.26,0,0,1-.26-.41l-4.1-10a.45.45,0,0,1,0-.18.49.49,0,0,1,.13-.34.51.51,0,0,1,.37-.15h2.57a.67.67,0,0,1,.65.45l2.35,6.46,2.38-6.46a.69.69,0,0,1,.22-.3.54.54,0,0,1,.41-.15h2.59a.46.46,0,0,1,.34.15.43.43,0,0,1,.15.34l0,.18-4.08,10a1.14,1.14,0,0,1-.28.41.78.78,0,0,1-.48.13Zm11.8.22a5,5,0,0,1-2.09-.44,3.71,3.71,0,0,1-1.47-1.23,3,3,0,0,1-.52-1.7,2.82,2.82,0,0,1,1.21-2.38,7.5,7.5,0,0,1,3.37-1.27l2.68-.41V108a1.7,1.7,0,0,0-.33-1.17,1.41,1.41,0,0,0-1.1-.37,1.61,1.61,0,0,0-.73.15,4,4,0,0,0-.65.46,2.77,2.77,0,0,1-.5.34.25.25,0,0,1-.21.15h-2.51a.54.54,0,0,1-.37-.13.42.42,0,0,1-.1-.34,2.27,2.27,0,0,1,.58-1.3,4.35,4.35,0,0,1,1.7-1.25,6.81,6.81,0,0,1,2.83-.52,5.75,5.75,0,0,1,4,1.19,4.07,4.07,0,0,1,1.29,3.17v6.55a.6.6,0,0,1-.15.39.52.52,0,0,1-.38.15h-2.66a.56.56,0,0,1-.39-.15.6.6,0,0,1-.15-.39v-.76a3.63,3.63,0,0,1-1.32,1.11A4.59,4.59,0,0,1,947.49,115.7Zm1.08-2.55a2,2,0,0,0,1.54-.63,2.52,2.52,0,0,0,.6-1.81v-.26l-1.79.3c-1.21.23-1.82.66-1.82,1.3a.94.94,0,0,0,.41.79A1.75,1.75,0,0,0,948.57,113.15Zm14.15,2.33c-3.06,0-4.58-1.43-4.58-4.3v-4h-1.71A.56.56,0,0,1,956,107a.55.55,0,0,1-.15-.38v-1.86a.53.53,0,0,1,.15-.39.6.6,0,0,1,.39-.15h1.71v-3.57a.51.51,0,0,1,.54-.54h2.65a.53.53,0,0,1,.39.15.56.56,0,0,1,.15.39v3.57h2.7a.53.53,0,0,1,.39.15.48.48,0,0,1,.18.39v1.86a.48.48,0,0,1-.18.38.5.5,0,0,1-.39.16h-2.7v3.67a1.92,1.92,0,0,0,.29,1.14,1,1,0,0,0,.9.39h1.71a.51.51,0,0,1,.39.17.53.53,0,0,1,.15.39v2a.6.6,0,0,1-.15.39.53.53,0,0,1-.39.15Zm9.6.22a5.85,5.85,0,0,1-4.15-1.41,5.55,5.55,0,0,1-1.55-4.12v-.67A5.25,5.25,0,0,1,972.3,104a6,6,0,0,1,3.13.76,4.48,4.48,0,0,1,1.92,2,6.42,6.42,0,0,1,.65,3v.54a.58.58,0,0,1-.17.41.53.53,0,0,1-.39.15h-6.85V111a2.81,2.81,0,0,0,.46,1.58,1.41,1.41,0,0,0,1.23.58,1.51,1.51,0,0,0,.82-.19,3.37,3.37,0,0,0,.6-.54.78.78,0,0,1,.31-.26.75.75,0,0,1,.38-.07h2.83a.44.44,0,0,1,.33.13.33.33,0,0,1,.15.28,2.18,2.18,0,0,1-.65,1.32,5,5,0,0,1-1.86,1.3A7,7,0,0,1,972.32,115.7Zm1.71-7v0a2.41,2.41,0,0,0-.46-1.59,1.66,1.66,0,0,0-2.54,0,2.53,2.53,0,0,0-.44,1.59v0Z" fill="#e2444d"/><path d="M1109.49,48.6a.46.46,0,0,1-.35-.13.57.57,0,0,1-.13-.37V34a.5.5,0,0,1,.13-.35.44.44,0,0,1,.35-.15h1.08a.42.42,0,0,1,.34.15.46.46,0,0,1,.13.35V46.79h7.22a.47.47,0,0,1,.37.15.42.42,0,0,1,.15.34v.82a.5.5,0,0,1-.15.37.56.56,0,0,1-.37.13Zm13.32,0a.82.82,0,0,1-.8-.54l-4-10a1.09,1.09,0,0,1,0-.22.44.44,0,0,1,.43-.45h1a.53.53,0,0,1,.51.34l3.33,8.62,3.33-8.62a.51.51,0,0,1,.17-.23.54.54,0,0,1,.35-.11h1a.39.39,0,0,1,.3.13.41.41,0,0,1,.13.32l0,.22-4,10a.82.82,0,0,1-.8.54Zm8.53,0a.45.45,0,0,1-.5-.5V33.76a.49.49,0,0,1,.13-.37.57.57,0,0,1,.37-.13h1a.4.4,0,0,1,.34.16.42.42,0,0,1,.15.34V48.1a.5.5,0,0,1-.15.37.44.44,0,0,1-.34.13Zm15.23.22a7.63,7.63,0,0,1-2.94-.54,4.59,4.59,0,0,1-2-1.6,4.14,4.14,0,0,1-.72-2.42,4,4,0,0,1,.63-2.23,4.32,4.32,0,0,1,1.73-1.49,3.61,3.61,0,0,1-1.34-1.29,3.76,3.76,0,0,1-.48-1.93,3.51,3.51,0,0,1,1.41-3,6.73,6.73,0,0,1,7.36,0,3.55,3.55,0,0,1,1.41,3,3.57,3.57,0,0,1-1.8,3.22,4.2,4.2,0,0,1,1.71,1.49,3.94,3.94,0,0,1,.65,2.25,4.2,4.2,0,0,1-.71,2.42,4.71,4.71,0,0,1-2,1.58A7.42,7.42,0,0,1,1146.57,48.82Zm0-9a4,4,0,0,0,2.23-.69,2.13,2.13,0,0,0,0-3.48,4.08,4.08,0,0,0-4.48,0,2,2,0,0,0-.88,1.75,2.12,2.12,0,0,0,.88,1.77A3.72,3.72,0,0,0,1146.57,39.79Zm0,7.34a4.08,4.08,0,0,0,2.55-.78,2.58,2.58,0,0,0,0-4.14,4.08,4.08,0,0,0-2.55-.78,4.17,4.17,0,0,0-2.59.78,2.61,2.61,0,0,0,0,4.14A4.17,4.17,0,0,0,1146.57,47.13Z" fill="#fff" opacity="0.5" style="isolation:isolate"/><path d="M1233.94,48.6a.44.44,0,0,1-.34-.13.52.52,0,0,1-.13-.37V35.92l-3.63,2.79a.53.53,0,0,1-.33.13.48.48,0,0,1-.36-.22l-.52-.67a.53.53,0,0,1-.11-.3.45.45,0,0,1,.22-.39l4.68-3.63a1,1,0,0,1,.56-.15h1a.45.45,0,0,1,.35.15.44.44,0,0,1,.15.35V48.1a.5.5,0,0,1-.15.37.48.48,0,0,1-.35.13Zm4.77,0a.56.56,0,0,1-.37-.13.57.57,0,0,1-.13-.37v-.64a1.28,1.28,0,0,1,.54-1l4.71-4.68a13.55,13.55,0,0,0,2.21-2.23,3.15,3.15,0,0,0,.6-1.83,2.7,2.7,0,0,0-.71-2,3.25,3.25,0,0,0-4.13,0,3.5,3.5,0,0,0-.93,2,.56.56,0,0,1-.21.37.56.56,0,0,1-.35.13h-1a.44.44,0,0,1-.33-.13.41.41,0,0,1-.13-.3,5,5,0,0,1,.61-2.21,4.53,4.53,0,0,1,1.7-1.75,5.11,5.11,0,0,1,2.72-.69,4.76,4.76,0,0,1,3.63,1.28,4.36,4.36,0,0,1,1.23,3.19,4.65,4.65,0,0,1-.67,2.47,9.81,9.81,0,0,1-2.05,2.29l-4.25,4.32h6.8a.49.49,0,0,1,.37.13.45.45,0,0,1,.13.36v.82a.5.5,0,0,1-.15.37.46.46,0,0,1-.35.13Zm23.22.22a7.63,7.63,0,0,1-2.94-.54,4.65,4.65,0,0,1-2-1.6,4.14,4.14,0,0,1-.72-2.42,4,4,0,0,1,.63-2.23,4.32,4.32,0,0,1,1.73-1.49,3.61,3.61,0,0,1-1.34-1.29,3.76,3.76,0,0,1-.48-1.93,3.51,3.51,0,0,1,1.41-3,6.73,6.73,0,0,1,7.36,0,3.55,3.55,0,0,1,1.41,3,3.59,3.59,0,0,1-1.79,3.22,4.17,4.17,0,0,1,1.7,1.49,3.94,3.94,0,0,1,.65,2.25,4.2,4.2,0,0,1-.71,2.42,4.71,4.71,0,0,1-2,1.58A7.42,7.42,0,0,1,1261.93,48.82Zm0-9a4,4,0,0,0,2.23-.69,2.13,2.13,0,0,0,0-3.48,4.06,4.06,0,0,0-4.47,0,2.05,2.05,0,0,0-.89,1.75,2.13,2.13,0,0,0,.89,1.77A3.71,3.71,0,0,0,1261.93,39.79Zm0,7.34a4.06,4.06,0,0,0,2.55-.78,2.58,2.58,0,0,0,0-4.14,4.06,4.06,0,0,0-2.55-.78,4.19,4.19,0,0,0-2.59.78,2.63,2.63,0,0,0,0,4.14A4.19,4.19,0,0,0,1261.93,47.13Zm13.67,1.69a4.9,4.9,0,0,1-4.08-1.62,7.21,7.21,0,0,1-1.36-4.28l0-1.86,0-1.92a6.79,6.79,0,0,1,1.36-4.23,4.91,4.91,0,0,1,4.08-1.65,4.86,4.86,0,0,1,4.08,1.65,6.81,6.81,0,0,1,1.39,4.23c0,.4,0,1,0,1.92s0,1.47,0,1.86a7.09,7.09,0,0,1-1.39,4.28A4.88,4.88,0,0,1,1275.6,48.82Zm0-1.8a3,3,0,0,0,2.51-1.1,5.23,5.23,0,0,0,.88-3.11c0-.42,0-1,0-1.79s0-1.38,0-1.77a5.11,5.11,0,0,0-.9-3.09,3.32,3.32,0,0,0-5,0,5.18,5.18,0,0,0-.89,3.09l0,1.77,0,1.79a5.23,5.23,0,0,0,.89,3.11A2.91,2.91,0,0,0,1275.6,47Zm13.67,1.8a4.9,4.9,0,0,1-4.08-1.62,7.14,7.14,0,0,1-1.36-4.28l0-1.86,0-1.92a6.79,6.79,0,0,1,1.36-4.23,4.91,4.91,0,0,1,4.08-1.65,4.86,4.86,0,0,1,4.08,1.65,6.74,6.74,0,0,1,1.38,4.23q0,.6,0,1.92t0,1.86a7,7,0,0,1-1.38,4.28A4.88,4.88,0,0,1,1289.27,48.82Zm0-1.8a3,3,0,0,0,2.51-1.1,5.23,5.23,0,0,0,.88-3.11c0-.42,0-1,0-1.79s0-1.38,0-1.77a5,5,0,0,0-.91-3.09,3.31,3.31,0,0,0-5,0,5.11,5.11,0,0,0-.89,3.09l0,1.77,0,1.79a5.16,5.16,0,0,0,.89,3.11A2.91,2.91,0,0,0,1289.27,47Z" fill="#fff" opacity="0.5" style="isolation:isolate"/><path d="M839.38,47.25a.52.52,0,0,1-.37-.13.57.57,0,0,1-.13-.37V32.63a.48.48,0,0,1,.5-.5h1.14a.51.51,0,0,1,.5.5V45.37h7.17a.51.51,0,0,1,.52.52v.86a.5.5,0,0,1-.15.37.52.52,0,0,1-.37.13Zm13.36,0a.82.82,0,0,1-.8-.54l-4-10-.05-.22a.44.44,0,0,1,.46-.45h1a.55.55,0,0,1,.54.37l3.29,8.51,3.28-8.51A.58.58,0,0,1,857,36h1.06a.41.41,0,0,1,.3.13.39.39,0,0,1,.15.32l0,.22-4,10a.82.82,0,0,1-.8.54Zm8.57,0a.54.54,0,0,1-.37-.13.57.57,0,0,1-.13-.37V32.41a.48.48,0,0,1,.13-.34.49.49,0,0,1,.37-.16h1a.4.4,0,0,1,.34.16.42.42,0,0,1,.15.34V46.75a.5.5,0,0,1-.15.37.44.44,0,0,1-.34.13Zm17.09,0a.52.52,0,0,1-.36-.13.52.52,0,0,1-.13-.37V43.64h-7a.52.52,0,0,1-.37-.13.52.52,0,0,1-.13-.36v-.87a1.11,1.11,0,0,1,.24-.65l6.48-9.13a.64.64,0,0,1,.32-.26,1.09,1.09,0,0,1,.48-.11h1.55a.51.51,0,0,1,.5.5v9.13h1.94a.5.5,0,0,1,.37.15.45.45,0,0,1,.15.35v.89a.49.49,0,0,1-.15.36.46.46,0,0,1-.35.13h-2v3.11a.5.5,0,0,1-.15.37.46.46,0,0,1-.35.13Zm-.47-5.44V34.4l-5.21,7.41Z" fill="#fff" opacity="0.5" style="isolation:isolate"/></svg>