<svg width="194" height="36" viewBox="0 0 194 36" fill="none" xmlns="http://www.w3.org/2000/svg">
    <g clip-path="url(#clip0)">
        <path fill-rule="evenodd" clip-rule="evenodd"
              d="M55.0757 26.2868H58.2079L60.6817 20.9589H73.9764L75.2927 18.1113H58.8706L55.0757 26.2868Z"
              fill="#3A3B3C"/>
        <path fill-rule="evenodd" clip-rule="evenodd"
              d="M77.6652 13.0063H61.2383L59.9233 15.8407H76.3489L77.6652 13.0063Z" fill="#3A3B3C"/>
        <path fill-rule="evenodd" clip-rule="evenodd"
              d="M170.873 26.2474V26.2868L187.299 26.2474L188.614 23.413H175.342L176.479 20.9589H189.773L191.088 18.1113H174.666L170.873 26.2474Z"
              fill="#3A3B3C"/>
        <path fill-rule="evenodd" clip-rule="evenodd"
              d="M177.036 13.0063L175.719 15.8407H192.146L193.461 13.0063H177.036Z" fill="#3A3B3C"/>
        <path fill-rule="evenodd" clip-rule="evenodd"
              d="M92.5647 15.8407L89.0742 23.4127L78.9065 23.3995L82.4154 15.8407H92.5647ZM95.7053 15.8407C96.3194 14.5152 95.3509 13.0063 93.8903 13.0063H83.7225C81.8145 13.0063 80.0824 14.1086 79.2793 15.8407L76.8002 21.1818H76.8094L75.7795 23.4127H75.7743C75.1654 24.7382 76.13 26.2471 77.5906 26.2471H87.7583C89.6663 26.2471 91.3984 25.1448 92.2016 23.4127L95.6974 15.8407H95.7053Z"
              fill="#3A3B3C"/>
        <path fill-rule="evenodd" clip-rule="evenodd"
              d="M151.788 13.0063H141.62C139.712 13.0063 137.98 14.1086 137.177 15.8407H150.462L149.376 18.2027H136.081L134.7 21.1818L133.674 23.4127C133.674 23.4127 132.384 26.1949 132.365 26.2339L132.357 26.2471H135.49L136.805 23.4127L137.902 21.0507H148.064L145.66 26.2471H148.744L153.596 15.8407H153.605C154.217 14.5152 153.249 13.0063 151.788 13.0063Z"
              fill="#3A3B3C"/>
        <path fill-rule="evenodd" clip-rule="evenodd"
              d="M161.196 18.1111L159.881 20.9586H167.386L166.762 22.2973C166.451 22.9798 165.776 23.4127 165.03 23.4127L157.108 23.3996C156.631 23.3996 156.314 22.914 156.516 22.4811L159.082 16.9435C159.394 16.2741 160.069 15.8412 160.81 15.8412L172.89 15.8281C173.487 14.5025 172.89 15.8281 174.219 13.0068H160.903C158.995 13.0068 157.258 14.1091 156.455 15.8412L153.981 21.1823H153.985L152.955 23.4132C152.341 24.7387 153.311 26.2476 154.771 26.2476H164.934C166.842 26.2476 168.579 25.1453 169.381 23.4132L171.825 18.1115H161.196V18.1111Z"
              fill="#3A3B3C"/>
        <path fill-rule="evenodd" clip-rule="evenodd"
              d="M130.573 18.2027H119.878L120.975 15.8407H134.265C135.603 13.0063 134.256 15.8407 135.603 13.0063H122.287C120.374 13.0063 118.642 14.1086 117.84 15.8407L116.527 18.7409C116.027 19.8169 116.817 21.0507 118.001 21.0507H128.725L127.633 23.4127H114.339H114.335C113.725 24.7382 114.335 23.4127 112.974 26.2471H126.317C128.225 26.2471 129.959 25.1448 130.761 23.4127C130.761 23.4127 132.169 20.4077 132.195 20.3024C132.471 19.2791 131.695 18.2027 130.573 18.2027Z"
              fill="#3A3B3C"/>
        <path fill-rule="evenodd" clip-rule="evenodd"
              d="M113.172 13.0063H99.8324L98.5305 15.8407H111.842L110.755 18.2027H97.4467L96.0835 21.1818L93.7412 26.2471H96.8739L99.2806 21.0507H105.207L107.124 26.2865H110.221L108.343 21.0507H109.778C111.48 21.0507 113.023 20.0401 113.716 18.4918L114.976 15.8412H114.984C115.597 14.5152 114.632 13.0063 113.172 13.0063Z"
              fill="#3A3B3C"/>
        <path fill-rule="evenodd" clip-rule="evenodd"
              d="M45.2149 7.02251C45.518 6.91768 45.8474 7.07514 45.9522 7.37691L46.4694 8.87306C46.4694 8.87306 44.2464 8.16468 43.0876 7.94142L45.2149 7.02251ZM52.4798 11.0249C52.4745 11.0249 52.246 10.8675 52.1241 10.8017L48.3905 8.89894C47.233 8.34759 47.4878 7.91467 47.0497 6.70758C46.9001 6.30097 46.6847 5.82857 46.3908 5.35574C44.2596 4.34515 38.2022 4.58157 37.6236 0.00146484C37.6236 0.00146484 35.3639 1.48445 34.952 4.20084C11.0733 2.37705 0.00292969 15.5524 0.00292969 15.5524C4.45013 13.7808 9.24779 12.9409 14.0468 12.718C4.92384 19.7386 2.0513 30.3156 2.0513 30.3156C2.0513 30.3156 9.4421 23.1375 20.552 19.1351C17.6439 23.2428 15.9587 28.7541 16.6478 35.998C16.6478 35.998 22.3626 14.1879 49.4783 19.4632C49.4783 19.4632 50.4705 16.563 53.032 13.597C53.1935 13.4132 53.2851 13.1378 53.3035 12.8229C53.3566 12.114 53.0272 11.4451 52.4798 11.0249Z"
              fill="#3A3B3C"/>
    </g>
    <defs>
        <clipPath id="clip0">
            <rect width="193.461" height="36" fill="white"/>
        </clipPath>
    </defs>
</svg>
