<svg width="163" height="30" viewBox="0 0 163 30" fill="none" xmlns="http://www.w3.org/2000/svg">
    <path fill-rule="evenodd" clip-rule="evenodd"
          d="M46.7317 21.9067H49.3421L51.4038 17.4663H62.4838L63.5808 15.0931H49.8945L46.7317 21.9067Z" fill="white"/>
    <path fill-rule="evenodd" clip-rule="evenodd" d="M65.5581 10.8386H51.8677L50.7717 13.2009H64.461L65.5581 10.8386Z"
          fill="white"/>
    <path fill-rule="evenodd" clip-rule="evenodd"
          d="M143.239 21.8738V21.9067L156.928 21.8738L158.025 19.5116H146.964L147.911 17.4663H158.991L160.087 15.0931H146.4L143.239 21.8738Z"
          fill="white"/>
    <path fill-rule="evenodd" clip-rule="evenodd" d="M148.375 10.8386L147.278 13.2009H160.968L162.064 10.8386H148.375Z"
          fill="white"/>
    <path fill-rule="evenodd" clip-rule="evenodd"
          d="M77.9756 13.2009L75.0665 19.5114L66.5926 19.5005L69.517 13.2009H77.9756ZM80.593 13.2009C81.1047 12.0962 80.2976 10.8386 79.0803 10.8386H70.6064C69.0162 10.8386 67.5726 11.7573 66.9033 13.2009L64.8372 17.6522H64.8448L63.9865 19.5114H63.9821C63.4747 20.6161 64.2786 21.8736 65.4959 21.8736H73.9698C75.56 21.8736 77.0036 20.955 77.6729 19.5114L80.5864 13.2009H80.593Z"
          fill="white"/>
    <path fill-rule="evenodd" clip-rule="evenodd"
          d="M127.333 10.8386H118.859C117.269 10.8386 115.826 11.7573 115.156 13.2009H126.229L125.323 15.1694H114.243L113.092 17.6522L112.237 19.5114C112.237 19.5114 111.162 21.8301 111.146 21.8627L111.14 21.8736H113.75L114.846 19.5114L115.76 17.5429H124.23L122.226 21.8736H124.796L128.84 13.2009H128.848C129.358 12.0962 128.551 10.8386 127.333 10.8386Z"
          fill="white"/>
    <path fill-rule="evenodd" clip-rule="evenodd"
          d="M135.174 15.0932L134.078 17.4664H140.332L139.813 18.582C139.554 19.1508 138.99 19.5116 138.369 19.5116L131.767 19.5007C131.369 19.5007 131.105 19.096 131.274 18.7352L133.412 14.1201C133.672 13.5622 134.234 13.2014 134.852 13.2014L144.919 13.1905C145.417 12.0858 144.919 13.1905 146.027 10.8392H134.93C133.34 10.8392 131.892 11.7579 131.222 13.2014L129.161 17.6528H129.164L128.306 19.512C127.794 20.6167 128.602 21.8742 129.819 21.8742H138.289C139.879 21.8742 141.327 20.9556 141.995 19.512L144.032 15.0935H135.174V15.0932Z"
          fill="white"/>
    <path fill-rule="evenodd" clip-rule="evenodd"
          d="M109.652 15.1694H100.738L101.653 13.2009H112.729C113.844 10.8386 112.722 13.2009 113.844 10.8386H102.746C101.152 10.8386 99.7082 11.7573 99.04 13.2009L97.9462 15.6179C97.5295 16.5146 98.1879 17.5429 99.1745 17.5429H108.112L107.202 19.5114H96.1221H96.1188C95.6103 20.6161 96.1188 19.5114 94.9849 21.8736H106.105C107.696 21.8736 109.14 20.955 109.809 19.5114C109.809 19.5114 110.982 17.007 111.004 16.9193C111.234 16.0664 110.587 15.1694 109.652 15.1694Z"
          fill="white"/>
    <path fill-rule="evenodd" clip-rule="evenodd"
          d="M95.1498 10.8386H84.0325L82.9476 13.2009H94.0418L93.1352 15.1694H82.0443L80.9081 17.6522L78.9561 21.8737H81.5668L83.5726 17.5429H88.5117L90.1095 21.9066H92.6907L91.1257 17.5429H92.3211C93.7395 17.5429 95.0258 16.7007 95.6034 15.4103L96.6533 13.2012H96.6599C97.1709 12.0962 96.3671 10.8386 95.1498 10.8386Z"
          fill="white"/>
    <path fill-rule="evenodd" clip-rule="evenodd"
          d="M37.6803 5.85144C37.9329 5.76407 38.2074 5.89531 38.2948 6.14681L38.7258 7.39371C38.7258 7.39371 36.8732 6.80334 35.9074 6.61728L37.6803 5.85144ZM43.735 9.18713C43.7306 9.18713 43.5402 9.05589 43.4385 9.00106L40.3269 7.41528C39.3622 6.95578 39.5746 6.59498 39.2094 5.58897C39.0848 5.2501 38.9053 4.8564 38.6604 4.46233C36.8841 3.62009 31.8358 3.81713 31.3537 0C31.3537 0 29.4703 1.23594 29.1271 3.49982C9.22624 1.97985 0 12.9604 0 12.9604C3.70636 11.4839 7.7048 10.7839 11.7043 10.5982C4.10116 16.4492 1.70714 25.2642 1.70714 25.2642C1.70714 25.2642 7.86674 19.2819 17.1259 15.9462C14.7023 19.3697 13.2978 23.9629 13.8721 30C13.8721 30 18.6349 11.8231 41.2335 16.2197C41.2335 16.2197 42.0604 13.8026 44.1952 11.3307C44.3298 11.1776 44.4062 10.948 44.4215 10.6855C44.4657 10.0948 44.1912 9.53733 43.735 9.18713Z"
          fill="white"/>
</svg>
