<svg width="45" height="30" viewBox="0 0 45 30" fill="none" xmlns="http://www.w3.org/2000/svg">
<path fill-rule="evenodd" clip-rule="evenodd" d="M37.6803 5.85144C37.9329 5.76407 38.2074 5.89531 38.2948 6.14681L38.7258 7.39371C38.7258 7.39371 36.8732 6.80334 35.9074 6.61728L37.6803 5.85144ZM43.735 9.18713C43.7306 9.18713 43.5402 9.05589 43.4385 9.00106L40.3269 7.41528C39.3622 6.95578 39.5746 6.59498 39.2094 5.58897C39.0848 5.2501 38.9053 4.8564 38.6604 4.46233C36.8841 3.62009 31.8358 3.81713 31.3537 0C31.3537 0 29.4703 1.23594 29.1271 3.49982C9.22624 1.97985 0 12.9604 0 12.9604C3.70636 11.4839 7.7048 10.7839 11.7043 10.5982C4.10116 16.4492 1.70714 25.2642 1.70714 25.2642C1.70714 25.2642 7.86674 19.2819 17.1259 15.9462C14.7023 19.3697 13.2978 23.9629 13.8721 30C13.8721 30 18.6349 11.8231 41.2335 16.2197C41.2335 16.2197 42.0604 13.8026 44.1952 11.3307C44.3298 11.1776 44.4062 10.948 44.4215 10.6855C44.4657 10.0948 44.1912 9.53733 43.735 9.18713Z" fill="white"/>
</svg>
