<svg viewBox="0 0 24 24" fill="none" xmlns="http://www.w3.org/2000/svg">
<rect width="24" height="24" rx="12" fill="white" fill-opacity="0.1"/>
<path d="M9.01697 10.7744L12 7.79134L14.9845 10.7757L16.7201 9.03999L12 4.31998L7.28141 9.03858L9.01703 10.7743L9.01697 10.7744ZM4.32001 12L6.05575 10.264L7.79137 11.9996L6.05563 13.7354L4.32001 12ZM9.01697 13.2258L12 16.2086L14.9844 13.2244L16.721 14.9591L16.7201 14.96L12 19.68L7.28141 14.9614L7.27896 14.9589L9.01716 13.2256L9.01697 13.2258ZM16.2086 12.0007L17.9444 10.265L19.68 12.0006L17.9443 13.7363L16.2086 12.0007Z" fill="#F3BA2F"/>
<path d="M13.7606 11.9991H13.7613L12.0002 10.2378L10.6985 11.5392L10.5489 11.6888L10.2405 11.9973L10.238 11.9997L10.2405 12.0022L12.0002 13.7622L13.7614 12.0009L13.7623 11.9999L13.7607 11.9991" fill="#F3BA2F"/>
</svg>
